<?xml version="1.0" encoding="UTF-8" standalone="no"?>
<!-- Created with Inkscape (http://www.inkscape.org/) -->

<svg
   xmlns:dc="http://purl.org/dc/elements/1.1/"
   xmlns:cc="http://creativecommons.org/ns#"
   xmlns:rdf="http://www.w3.org/1999/02/22-rdf-syntax-ns#"
   xmlns:svg="http://www.w3.org/2000/svg"
   xmlns="http://www.w3.org/2000/svg"
   xmlns:sodipodi="http://sodipodi.sourceforge.net/DTD/sodipodi-0.dtd"
   xmlns:inkscape="http://www.inkscape.org/namespaces/inkscape"
   width="210mm"
   height="297mm"
   viewBox="0 0 744.09448819 1052.3622047"
   id="svg2"
   version="1.1"
   inkscape:version="0.91 r13725"
   sodipodi:docname="ecg_connection_coloured_3.svg">
  <defs
     id="defs4">
    <marker
       inkscape:stockid="Arrow1Mstart"
       orient="auto"
       refY="0.0"
       refX="0.0"
       id="Arrow1Mstart"
       style="overflow:visible"
       inkscape:isstock="true">
      <path
         id="path5895"
         d="M 0.0,0.0 L 5.0,-5.0 L -12.5,0.0 L 5.0,5.0 L 0.0,0.0 z "
         style="fill-rule:evenodd;stroke:#000000;stroke-width:1pt;stroke-opacity:1;fill:#000000;fill-opacity:1"
         transform="scale(0.4) translate(10,0)" />
    </marker>
    <inkscape:perspective
       sodipodi:type="inkscape:persp3d"
       inkscape:vp_x="0 : 526.1811 : 1"
       inkscape:vp_y="0 : 1000 : 0"
       inkscape:vp_z="744.09449 : 526.1811 : 1"
       inkscape:persp3d-origin="372.04724 : 350.7874 : 1"
       id="perspective4194" />
    <marker
       inkscape:stockid="Arrow1Mstart"
       orient="auto"
       refY="0"
       refX="0"
       id="Arrow1Mstart-5"
       style="overflow:visible"
       inkscape:isstock="true">
      <path
         inkscape:connector-curvature="0"
         id="path5895-0"
         d="M 0,0 5,-5 -12.5,0 5,5 0,0 Z"
         style="fill:#000000;fill-opacity:1;fill-rule:evenodd;stroke:#000000;stroke-width:1pt;stroke-opacity:1"
         transform="matrix(0.4,0,0,0.4,4,0)" />
    </marker>
    <marker
       inkscape:stockid="Arrow1Mstart"
       orient="auto"
       refY="0"
       refX="0"
       id="Arrow1Mstart-7"
       style="overflow:visible"
       inkscape:isstock="true">
      <path
         inkscape:connector-curvature="0"
         id="path5895-4"
         d="M 0,0 5,-5 -12.5,0 5,5 0,0 Z"
         style="fill:#000000;fill-opacity:1;fill-rule:evenodd;stroke:#000000;stroke-width:1pt;stroke-opacity:1"
         transform="matrix(0.4,0,0,0.4,4,0)" />
    </marker>
    <marker
       inkscape:stockid="Arrow1Mstart"
       orient="auto"
       refY="0"
       refX="0"
       id="Arrow1Mstart-52"
       style="overflow:visible"
       inkscape:isstock="true">
      <path
         inkscape:connector-curvature="0"
         id="path5895-8"
         d="M 0,0 5,-5 -12.5,0 5,5 0,0 Z"
         style="fill:#000000;fill-opacity:1;fill-rule:evenodd;stroke:#000000;stroke-width:1pt;stroke-opacity:1"
         transform="matrix(0.4,0,0,0.4,4,0)" />
    </marker>
  </defs>
  <sodipodi:namedview
     id="base"
     pagecolor="#ffffff"
     bordercolor="#666666"
     borderopacity="1.0"
     inkscape:pageopacity="0.0"
     inkscape:pageshadow="2"
     inkscape:zoom="0.70710678"
     inkscape:cx="360.39602"
     inkscape:cy="624.95916"
     inkscape:document-units="px"
     inkscape:current-layer="layer1"
     showgrid="false"
     inkscape:window-width="1366"
     inkscape:window-height="705"
     inkscape:window-x="-8"
     inkscape:window-y="-8"
     inkscape:window-maximized="1" />
  <metadata
     id="metadata7">
    <rdf:RDF>
      <cc:Work
         rdf:about="">
        <dc:format>image/svg+xml</dc:format>
        <dc:type
           rdf:resource="http://purl.org/dc/dcmitype/StillImage" />
        <dc:title></dc:title>
      </cc:Work>
    </rdf:RDF>
  </metadata>
  <g
     inkscape:label="Capa 1"
     inkscape:groupmode="layer"
     id="layer1">
    <g
       id="g4826"
       inkscape:export-xdpi="90.300003"
       inkscape:export-ydpi="90.300003">
      <g
         inkscape:export-ydpi="90.300003"
         inkscape:export-xdpi="90.300003"
         transform="translate(-4,11)"
         id="g5110">
        <rect
           style="fill:#00000a;fill-opacity:0.79215686;stroke:#000000;stroke-width:1.04773045;stroke-linecap:round;stroke-linejoin:miter;stroke-miterlimit:4;stroke-dasharray:none;stroke-opacity:1"
           id="rect4171-1"
           width="143.07184"
           height="70.258881"
           x="187.89737"
           y="279.0806"
           ry="0"
           transform="matrix(1,0,-0.41934342,0.90782768,0,0)" />
        <path
           inkscape:connector-curvature="0"
           id="rect4171"
           d="m 70.833984,175.51953 0,77.95703 142.957036,0 0,-77.95703 -142.957036,0 z m 14.744141,7.18359 116.261715,0 0,63.17579 -116.261715,0 0,-63.17579 z"
           style="fill:#00000a;fill-opacity:0.79111113;stroke:#000000;stroke-width:1.16796196;stroke-linecap:round;stroke-linejoin:miter;stroke-miterlimit:4;stroke-dasharray:none;stroke-opacity:1" />
        <rect
           style="fill:#000009;fill-opacity:0.3466667;stroke:#000000;stroke-width:0.62991804;stroke-linecap:round;stroke-linejoin:miter;stroke-miterlimit:4;stroke-dasharray:none;stroke-opacity:1"
           id="rect4171-1-0"
           width="30.794184"
           height="15.078541"
           x="237.85147"
           y="331.03271"
           ry="0"
           transform="matrix(1,0,-0.42055838,0.90726548,0,0)" />
        <rect
           style="fill:#000009;fill-opacity:0.3466667;stroke:#000000;stroke-width:0.62157089;stroke-linecap:round;stroke-linejoin:miter;stroke-miterlimit:4;stroke-dasharray:none;stroke-opacity:1"
           id="rect4171-1-0-5"
           width="14.775417"
           height="8.3824959"
           x="215.60127"
           y="312.82968"
           ry="0"
           transform="matrix(1,0,-0.36298054,0.93179672,0,0)" />
        <rect
           style="fill:#000009;fill-opacity:0.3466667;stroke:#000000;stroke-width:0.62157089;stroke-linecap:round;stroke-linejoin:miter;stroke-miterlimit:4;stroke-dasharray:none;stroke-opacity:1"
           id="rect4171-1-0-5-9"
           width="14.982878"
           height="8.5001936"
           x="231.51775"
           y="312.80881"
           ry="0"
           transform="matrix(1,0,-0.36298054,0.93179672,0,0)" />
        <g
           style="fill:#00000a;fill-opacity:0.57777782"
           id="g5016">
          <path
             inkscape:connector-curvature="0"
             id="path4265"
             d="m 80.000384,259.64805 c 118.927796,-0.3574 118.927796,-0.3574 118.927796,-0.3574"
             style="fill:#00000a;fill-opacity:0.57777782;fill-rule:evenodd;stroke:#000000;stroke-width:0.5947575;stroke-linecap:butt;stroke-linejoin:miter;stroke-miterlimit:4;stroke-dasharray:none;stroke-opacity:1" />
          <path
             inkscape:connector-curvature="0"
             id="path4265-0"
             d="M 75.000344,270.43372 C 194.99966,270.07638 194.99966,270.07638 194.99966,270.07638"
             style="fill:#00000a;fill-opacity:0.57777782;fill-rule:evenodd;stroke:#000000;stroke-width:0.60000002;stroke-linecap:butt;stroke-linejoin:miter;stroke-miterlimit:4;stroke-dasharray:none;stroke-opacity:1" />
          <path
             inkscape:connector-curvature="0"
             id="path4265-9"
             d="M 72.536034,275.82661 C 192.89253,275.46929 192.89253,275.46929 192.89253,275.46929"
             style="fill:#00000a;fill-opacity:0.57777782;fill-rule:evenodd;stroke:#000000;stroke-width:0.60000002;stroke-linecap:butt;stroke-linejoin:miter;stroke-miterlimit:4;stroke-dasharray:none;stroke-opacity:1" />
          <path
             inkscape:connector-curvature="0"
             id="path4265-0-2"
             d="M 77.321724,265.04093 C 197.14254,264.68359 197.14254,264.68359 197.14254,264.68359"
             style="fill:#00000a;fill-opacity:0.57777782;fill-rule:evenodd;stroke:#000000;stroke-width:0.59608418;stroke-linecap:butt;stroke-linejoin:miter;stroke-miterlimit:4;stroke-dasharray:none;stroke-opacity:1" />
          <path
             inkscape:connector-curvature="0"
             id="path4265-0-7"
             d="m 69.928994,281.21948 c 119.284866,-0.3574 119.284866,-0.3574 119.284866,-0.3574"
             style="fill:#00000a;fill-opacity:0.57777782;fill-rule:evenodd;stroke:#000000;stroke-width:0.60000002;stroke-linecap:butt;stroke-linejoin:miter;stroke-miterlimit:4;stroke-dasharray:none;stroke-opacity:1" />
          <path
             inkscape:connector-curvature="0"
             id="path4265-0-1"
             d="M 67.678904,286.6123 C 187.49967,286.25496 187.49967,286.25496 187.49967,286.25496"
             style="fill:#00000a;fill-opacity:0.57777782;fill-rule:evenodd;stroke:#000000;stroke-width:0.5978151;stroke-linecap:butt;stroke-linejoin:miter;stroke-miterlimit:4;stroke-dasharray:none;stroke-opacity:1" />
          <path
             inkscape:connector-curvature="0"
             id="path4265-0-9"
             d="m 75.458304,286.95847 c 12.29768,-27.58538 12.29768,-27.58538 12.29768,-27.58538"
             style="fill:#00000a;fill-opacity:0.57777782;fill-rule:evenodd;stroke:#000000;stroke-width:0.59067065;stroke-linecap:butt;stroke-linejoin:miter;stroke-miterlimit:4;stroke-dasharray:none;stroke-opacity:1" />
          <path
             inkscape:connector-curvature="0"
             id="path4265-0-9-4"
             d="m 68.134624,286.42348 c 12.30218,-26.87256 12.30218,-26.87256 12.30218,-26.87256"
             style="fill:#00000a;fill-opacity:0.57777782;fill-rule:evenodd;stroke:#000000;stroke-width:0.58309567;stroke-linecap:butt;stroke-linejoin:miter;stroke-miterlimit:4;stroke-dasharray:none;stroke-opacity:1" />
          <path
             inkscape:connector-curvature="0"
             id="path4265-0-9-5"
             d="m 83.493184,286.86945 c 12.29936,-27.31807 12.29936,-27.31807 12.29936,-27.31807"
             style="fill:#00000a;fill-opacity:0.57777782;fill-rule:evenodd;stroke:#000000;stroke-width:0.58784187;stroke-linecap:butt;stroke-linejoin:miter;stroke-miterlimit:4;stroke-dasharray:none;stroke-opacity:1" />
          <path
             inkscape:connector-curvature="0"
             id="path4265-0-9-47"
             d="M 97.989384,286.94298 C 109.93918,259.17431 109.93918,259.17431 109.93918,259.17431"
             style="fill:#00000a;fill-opacity:0.57777782;fill-rule:evenodd;stroke:#000000;stroke-width:0.58418715;stroke-linecap:butt;stroke-linejoin:miter;stroke-miterlimit:4;stroke-dasharray:none;stroke-opacity:1" />
          <path
             inkscape:connector-curvature="0"
             id="path4265-0-9-4-7"
             d="M 90.666104,287.12234 C 102.53031,259.53063 102.53031,259.53063 102.53031,259.53063"
             style="fill:#00000a;fill-opacity:0.57777782;fill-rule:evenodd;stroke:#000000;stroke-width:0.58023375;stroke-linecap:butt;stroke-linejoin:miter;stroke-miterlimit:4;stroke-dasharray:none;stroke-opacity:1" />
          <path
             inkscape:connector-curvature="0"
             id="path4265-0-9-5-2"
             d="M 106.02167,287.12307 C 117.79975,259.6192 117.79975,259.6192 117.79975,259.6192"
             style="fill:#00000a;fill-opacity:0.57777782;fill-rule:evenodd;stroke:#000000;stroke-width:0.57720268;stroke-linecap:butt;stroke-linejoin:miter;stroke-miterlimit:4;stroke-dasharray:none;stroke-opacity:1" />
          <path
             inkscape:connector-curvature="0"
             id="path4265-0-9-1"
             d="m 121.21919,286.97095 c 11.7759,-27.86034 11.7759,-27.86034 11.7759,-27.86034"
             style="fill:#00000a;fill-opacity:0.57777782;fill-rule:evenodd;stroke:#000000;stroke-width:0.58087736;stroke-linecap:butt;stroke-linejoin:miter;stroke-miterlimit:4;stroke-dasharray:none;stroke-opacity:1" />
          <path
             inkscape:connector-curvature="0"
             id="path4265-0-9-4-2"
             d="m 113.8988,287.14896 c 11.86311,-27.76995 11.86311,-27.76995 11.86311,-27.76995"
             style="fill:#00000a;fill-opacity:0.57777782;fill-rule:evenodd;stroke:#000000;stroke-width:0.58207792;stroke-linecap:butt;stroke-linejoin:miter;stroke-miterlimit:4;stroke-dasharray:none;stroke-opacity:1" />
          <path
             inkscape:connector-curvature="0"
             id="path4265-0-9-5-0"
             d="m 129.25661,286.434 c 12.04037,-27.14361 12.04037,-27.14361 12.04037,-27.14361"
             style="fill:#00000a;fill-opacity:0.57777782;fill-rule:evenodd;stroke:#000000;stroke-width:0.57975948;stroke-linecap:butt;stroke-linejoin:miter;stroke-miterlimit:4;stroke-dasharray:none;stroke-opacity:1" />
          <path
             inkscape:connector-curvature="0"
             id="path4265-0-9-47-1"
             d="m 143.75503,286.05974 c 11.95422,-27.05577 11.95422,-27.05577 11.95422,-27.05577"
             style="fill:#00000a;fill-opacity:0.57777782;fill-rule:evenodd;stroke:#000000;stroke-width:0.57674611;stroke-linecap:butt;stroke-linejoin:miter;stroke-miterlimit:4;stroke-dasharray:none;stroke-opacity:1" />
          <path
             inkscape:connector-curvature="0"
             id="path4265-0-9-4-7-3"
             d="m 136.42896,286.24067 c 11.60636,-27.23908 11.60636,-27.23908 11.60636,-27.23908"
             style="fill:#00000a;fill-opacity:0.57777782;fill-rule:evenodd;stroke:#000000;stroke-width:0.57021475;stroke-linecap:butt;stroke-linejoin:miter;stroke-miterlimit:4;stroke-dasharray:none;stroke-opacity:1" />
          <path
             inkscape:connector-curvature="0"
             id="path4265-0-9-5-2-6"
             d="m 151.78871,286.23939 c 11.77973,-27.23652 11.77973,-27.23652 11.77973,-27.23652"
             style="fill:#00000a;fill-opacity:0.57777782;fill-rule:evenodd;stroke:#000000;stroke-width:0.57443064;stroke-linecap:butt;stroke-linejoin:miter;stroke-miterlimit:4;stroke-dasharray:none;stroke-opacity:1" />
          <path
             inkscape:connector-curvature="0"
             id="path4265-0-9-10"
             d="m 165.79241,286.61279 c 11.9509,-27.59044 11.9509,-27.59044 11.9509,-27.59044"
             style="fill:#00000a;fill-opacity:0.57777782;fill-rule:evenodd;stroke:#000000;stroke-width:0.58233613;stroke-linecap:butt;stroke-linejoin:miter;stroke-miterlimit:4;stroke-dasharray:none;stroke-opacity:1" />
          <path
             inkscape:connector-curvature="0"
             id="path4265-0-9-4-3"
             d="m 158.47153,286.79118 c 11.9498,-27.76867 11.9498,-27.76867 11.9498,-27.76867"
             style="fill:#00000a;fill-opacity:0.57777782;fill-rule:evenodd;stroke:#000000;stroke-width:0.58418715;stroke-linecap:butt;stroke-linejoin:miter;stroke-miterlimit:4;stroke-dasharray:none;stroke-opacity:1" />
          <path
             inkscape:connector-curvature="0"
             id="path4265-0-9-5-5"
             d="M 173.82291,286.79391 C 185.4271,259.19835 185.4271,259.19835 185.4271,259.19835"
             style="fill:#00000a;fill-opacity:0.57777782;fill-rule:evenodd;stroke:#000000;stroke-width:0.57388002;stroke-linecap:butt;stroke-linejoin:miter;stroke-miterlimit:4;stroke-dasharray:none;stroke-opacity:1" />
          <path
             inkscape:connector-curvature="0"
             id="path4265-0-9-47-0"
             d="M 187.04706,286.44974 C 199.3458,259.04255 199.3458,259.04255 199.3458,259.04255"
             style="fill:#00000a;fill-opacity:0.57777782;fill-rule:evenodd;stroke:#000000;stroke-width:0.58878535;stroke-linecap:butt;stroke-linejoin:miter;stroke-miterlimit:4;stroke-dasharray:none;stroke-opacity:1" />
          <path
             inkscape:connector-curvature="0"
             id="path4265-0-9-4-7-1"
             d="m 180.99669,285.88514 c 11.43519,-26.88516 11.43519,-26.88516 11.43519,-26.88516"
             style="fill:#00000a;fill-opacity:0.57777782;fill-rule:evenodd;stroke:#000000;stroke-width:0.56230539;stroke-linecap:butt;stroke-linejoin:miter;stroke-miterlimit:4;stroke-dasharray:none;stroke-opacity:1" />
        </g>
        <rect
           y="182.2673"
           x="85.559921"
           height="63.286057"
           width="116.31907"
           id="rect5041"
           style="fill:#000009;fill-opacity:0.3466667;stroke:#000000;stroke-width:1;stroke-linecap:round;stroke-linejoin:miter;stroke-miterlimit:4;stroke-dasharray:none;stroke-opacity:1" />
      </g>
      <text
         inkscape:export-ydpi="90.300003"
         inkscape:export-xdpi="90.300003"
         transform="scale(1.2967726,0.77114522)"
         sodipodi:linespacing="125%"
         id="text4446"
         y="297.15482"
         x="66.955032"
         style="font-style:normal;font-weight:normal;font-size:20.34089661px;line-height:125%;font-family:sans-serif;letter-spacing:0px;word-spacing:0px;fill:#000000;fill-opacity:1;stroke:none;stroke-width:1px;stroke-linecap:butt;stroke-linejoin:miter;stroke-opacity:1"
         xml:space="preserve"><tspan
           y="297.15482"
           x="66.955032"
           id="tspan4448"
           sodipodi:role="line">MATLAB</tspan></text>
      <rect
         inkscape:export-ydpi="90.300003"
         inkscape:export-xdpi="90.300003"
         style="fill:#e40000;fill-opacity:1;stroke:#000000;stroke-width:1.04238391;stroke-linecap:round;stroke-linejoin:miter;stroke-miterlimit:4;stroke-dasharray:none;stroke-opacity:1"
         id="rect4484"
         width="61.680481"
         height="39.851501"
         x="372.56418"
         y="322.96829"
         transform="matrix(1,0,-0.3911375,0.92033225,0,0)" />
      <text
         inkscape:export-ydpi="90.300003"
         inkscape:export-xdpi="90.300003"
         xml:space="preserve"
         style="font-style:normal;font-weight:normal;font-size:19.21691513px;line-height:125%;font-family:sans-serif;letter-spacing:0px;word-spacing:0px;fill:#000000;fill-opacity:1;stroke:none;stroke-width:1px;stroke-linecap:butt;stroke-linejoin:miter;stroke-opacity:1"
         x="247.0296"
         y="321.26358"
         id="text4501"
         sodipodi:linespacing="125%"><tspan
           sodipodi:role="line"
           id="tspan4503"
           x="247.0296"
           y="321.26358">MSP</tspan></text>
      <rect
         inkscape:export-ydpi="90.300003"
         inkscape:export-xdpi="90.300003"
         style="fill:#006300;fill-opacity:1;stroke:#000000;stroke-width:1.04238391;stroke-linecap:round;stroke-linejoin:miter;stroke-miterlimit:4;stroke-dasharray:none;stroke-opacity:1"
         id="rect4484-3"
         width="87.426109"
         height="56.485645"
         x="483.71716"
         y="315.81281"
         transform="matrix(1,0,-0.3911375,0.92033225,0,0)" />
      <text
         inkscape:export-ydpi="90.300003"
         inkscape:export-xdpi="90.300003"
         xml:space="preserve"
         style="font-style:normal;font-weight:normal;font-size:19.21691513px;line-height:125%;font-family:sans-serif;letter-spacing:0px;word-spacing:0px;fill:#000000;fill-opacity:1;stroke:none;stroke-width:1px;stroke-linecap:butt;stroke-linejoin:miter;stroke-opacity:1"
         x="371.71887"
         y="321.20761"
         id="text4505"
         sodipodi:linespacing="125%"><tspan
           sodipodi:role="line"
           id="tspan4507"
           x="371.71887"
           y="321.20761">ADS</tspan></text>
      <path
         inkscape:export-ydpi="90.300003"
         inkscape:export-xdpi="90.300003"
         style="fill:none;fill-rule:evenodd;stroke:#000000;stroke-width:1;stroke-linecap:butt;stroke-linejoin:miter;stroke-miterlimit:4;stroke-dasharray:none;stroke-opacity:1"
         d="m 304.28707,305.93484 c 50.32905,-1.43099 50.32905,-1.43099 50.32905,-1.43099"
         id="path4642"
         inkscape:connector-curvature="0" />
      <path
         inkscape:export-ydpi="90.300003"
         inkscape:export-xdpi="90.300003"
         style="fill:none;fill-rule:evenodd;stroke:#000000;stroke-width:1;stroke-linecap:butt;stroke-linejoin:miter;stroke-miterlimit:4;stroke-dasharray:none;stroke-opacity:1"
         d="m 301.35841,312.30085 c 50.32905,-1.43099 50.32905,-1.43099 50.32905,-1.43099"
         id="path4642-5"
         inkscape:connector-curvature="0" />
      <path
         inkscape:export-ydpi="90.300003"
         inkscape:export-xdpi="90.300003"
         style="fill:none;fill-rule:evenodd;stroke:#000000;stroke-width:1;stroke-linecap:butt;stroke-linejoin:miter;stroke-miterlimit:4;stroke-dasharray:none;stroke-opacity:1"
         d="m 299.35841,318.30085 c 50.32905,-1.43099 50.32905,-1.43099 50.32905,-1.43099"
         id="path4642-4"
         inkscape:connector-curvature="0" />
      <path
         inkscape:export-ydpi="90.300003"
         inkscape:export-xdpi="90.300003"
         style="fill:none;fill-rule:evenodd;stroke:#000000;stroke-width:1;stroke-linecap:butt;stroke-linejoin:miter;stroke-miterlimit:4;stroke-dasharray:none;stroke-opacity:1"
         d="m 296.36856,324.80593 c 50.32905,-1.43099 50.32905,-1.43099 50.32905,-1.43099"
         id="path4642-48"
         inkscape:connector-curvature="0" />
      <path
         inkscape:export-ydpi="90.300003"
         inkscape:export-xdpi="90.300003"
         inkscape:connector-curvature="0"
         style="fill:#df8f52;fill-opacity:1;stroke:#000000;stroke-width:1.08498883;stroke-linecap:round;stroke-linejoin:miter;stroke-miterlimit:4;stroke-dasharray:none;stroke-opacity:1"
         d="m 596.03756,68.816127 a 32.838708,37.344774 0 0 0 -32.83914,37.346393 32.838708,37.344774 0 0 0 17.01288,32.71446 l 0,7.63527 a 58.495034,83.726488 0 0 0 -42.91393,80.69553 58.495034,83.726488 0 0 0 17.17615,59.19379 25.972391,65.787795 4.0950353 0 0 -11.04756,47.94203 25.972391,65.787795 4.0950353 0 0 9.01926,55.44841 67.998121,17.613187 86.16127 0 0 -1.05095,43.11286 67.998121,17.613187 86.16127 0 0 10.69112,53.65383 9.6059458,28.432269 63.366645 0 0 -9.50679,4.10274 9.6059458,28.432269 63.366645 0 0 -20.51986,21.24594 9.6059458,28.432269 63.366645 0 0 30.13474,-4.5792 9.6059458,28.432269 63.366645 0 0 12.99537,-8.36169 67.998121,17.613187 86.16127 0 0 3.47708,-3.1947 9.6059458,28.432269 63.366645 0 0 4.13249,-9.47085 67.998121,17.613187 86.16127 0 0 3.72084,-56.06353 67.998121,17.613187 86.16127 0 0 -6.41604,-40.88087 25.972391,65.787795 4.0950353 0 0 15.41921,-55.69055 25.972391,65.787795 4.0950353 0 0 -0.32195,-22.76128 58.495034,83.726488 0 0 0 0.59331,0.0293 58.495034,83.726488 0 0 0 2.51583,-0.17965 68.133166,25.840963 83.846424 0 0 0.56112,26.52619 68.133166,25.840963 83.846424 0 0 17.90284,56.80752 68.017892,19.322383 85.724589 0 0 -0.70599,39.85373 68.017892,19.322383 85.724589 0 0 13.23223,56.68449 28.432269,9.6059457 26.633355 0 0 20.8809,18.72104 28.432269,9.6059457 26.633355 0 0 30.13244,4.57921 28.432269,9.6059457 26.633355 0 0 -20.51756,-21.24595 28.432269,9.6059457 26.633355 0 0 -9.66316,-4.15937 68.017892,19.322383 85.724589 0 0 4.48893,-57.24494 68.017892,19.322383 85.724589 0 0 -8.1293,-44.35676 68.133166,25.840963 83.846424 0 0 4.0589,-52.30253 68.133166,25.840963 83.846424 0 0 -13.00227,-48.80319 58.495034,83.726488 0 0 0 16.73921,-58.60601 58.495034,83.726488 0 0 0 -43.64062,-80.87715 l 0,-6.74089 a 32.838708,37.344774 0 0 0 18.22709,-33.42722 32.838708,37.344774 0 0 0 -32.83682,-37.346393 z"
         id="path4509" />
      <path
         inkscape:export-ydpi="90.300003"
         inkscape:export-xdpi="90.300003"
         style="fill:#df8f52;fill-opacity:1;stroke:#000000;stroke-width:1.0901047;stroke-linecap:round;stroke-linejoin:miter;stroke-miterlimit:4;stroke-dasharray:none;stroke-opacity:1"
         d="m 559.93015,152.37432 a 19.433633,45.14504 30.907099 0 0 -2.20988,0.0334 19.433633,45.14504 30.907099 0 0 -39.94626,42.26705 19.433633,45.14504 30.907099 0 0 -3.4821,32.88469 14.85538,47.932454 13.43154 0 0 -8.22657,26.38534 14.85538,47.932454 13.43154 0 0 -2.03164,35.97563 9.3224458,20.348968 23.783376 0 0 -13.73053,16.59642 9.3224458,20.348968 23.783376 0 0 1.80698,20.97574 9.3224458,20.348968 23.783376 0 0 16.6412,-16.78579 9.3224458,20.348968 23.783376 0 0 1.9657,-6.56059 9.5603902,4.3798888 66.216624 0 0 0.76918,2.37807 9.5603902,4.3798888 66.216624 0 0 7.81638,7.88795 9.5603902,4.3798888 66.216624 0 0 0.85221,-9.85576 9.5603902,4.3798888 66.216624 0 0 -4.04126,-6.271 14.85538,47.932454 13.43154 0 0 20.59702,-45.20575 14.85538,47.932454 13.43154 0 0 2.82765,-29.00106 19.433633,45.14504 30.907099 0 0 24.16458,-34.0765 19.433633,45.14504 30.907099 0 0 -3.77266,-37.62785 z"
         id="path4517"
         inkscape:connector-curvature="0" />
      <path
         inkscape:export-ydpi="90.300003"
         inkscape:export-xdpi="90.300003"
         style="fill:#df8f52;fill-opacity:1;stroke:#000000;stroke-width:1.0901047;stroke-linecap:round;stroke-linejoin:miter;stroke-miterlimit:4;stroke-dasharray:none;stroke-opacity:1"
         d="m 633.87588,151.47692 a 45.14504,19.433633 59.092901 0 1 2.20987,0.0334 45.14504,19.433633 59.092901 0 1 39.94626,42.26705 45.14504,19.433633 59.092901 0 1 3.4821,32.88469 47.932454,14.85538 76.56846 0 1 8.22658,26.38533 47.932454,14.85538 76.56846 0 1 2.03163,35.97563 20.348968,9.3224458 66.216624 0 1 13.73054,16.59643 20.348968,9.3224458 66.216624 0 1 -1.80699,20.97573 20.348968,9.3224458 66.216624 0 1 -16.6412,-16.78578 20.348968,9.3224458 66.216624 0 1 -1.9657,-6.5606 4.3798888,9.5603902 23.783376 0 1 -0.76917,2.37807 4.3798888,9.5603902 23.783376 0 1 -7.81639,7.88795 4.3798888,9.5603902 23.783376 0 1 -0.85221,-9.85576 4.3798888,9.5603902 23.783376 0 1 4.04127,-6.27099 47.932454,14.85538 76.56846 0 1 -20.59702,-45.20576 47.932454,14.85538 76.56846 0 1 -2.82766,-29.00105 45.14504,19.433633 59.092901 0 1 -24.16457,-34.0765 45.14504,19.433633 59.092901 0 1 3.77266,-37.62785 z"
         id="path4517-5"
         inkscape:connector-curvature="0" />
      <text
         inkscape:export-ydpi="90.300003"
         inkscape:export-xdpi="90.300003"
         xml:space="preserve"
         style="font-style:normal;font-weight:normal;font-size:40px;line-height:125%;font-family:sans-serif;letter-spacing:0px;word-spacing:0px;fill:#000000;fill-opacity:1;stroke:none;stroke-width:1px;stroke-linecap:butt;stroke-linejoin:miter;stroke-opacity:1"
         x="314.79517"
         y="262.93594"
         id="text5289-0"
         sodipodi:linespacing="125%"><tspan
           sodipodi:role="line"
           id="tspan5291-6"
           x="314.79517"
           y="262.93594"
           style="font-style:normal;font-variant:normal;font-weight:bold;font-stretch:normal;font-size:15px;font-family:sans-serif;-inkscape-font-specification:'sans-serif Bold'">SPI</tspan></text>
      <text
         inkscape:export-ydpi="90.300003"
         inkscape:export-xdpi="90.300003"
         xml:space="preserve"
         style="font-style:normal;font-weight:normal;font-size:40px;line-height:125%;font-family:sans-serif;letter-spacing:0px;word-spacing:0px;fill:#000000;fill-opacity:1;stroke:none;stroke-width:1px;stroke-linecap:butt;stroke-linejoin:miter;stroke-opacity:1"
         x="185.20093"
         y="368.6033"
         id="text5289-0-9"
         sodipodi:linespacing="125%"><tspan
           sodipodi:role="line"
           id="tspan5291-6-7"
           x="185.20093"
           y="368.6033"
           style="font-style:normal;font-variant:normal;font-weight:bold;font-stretch:normal;font-size:15px;font-family:sans-serif;-inkscape-font-specification:'sans-serif Bold'">USB</tspan></text>
      <path
         inkscape:export-ydpi="90.300003"
         inkscape:export-xdpi="90.300003"
         style="fill:none;fill-rule:evenodd;stroke:#000000;stroke-width:1;stroke-linecap:butt;stroke-linejoin:miter;stroke-miterlimit:4;stroke-dasharray:none;stroke-opacity:1"
         d="m 189.16317,311.64792 c 50.83683,0 50.83683,0 50.83683,0"
         id="path4640"
         inkscape:connector-curvature="0" />
      <rect
         inkscape:export-ydpi="90.300003"
         inkscape:export-xdpi="90.300003"
         style="fill:#000000;fill-opacity:1;stroke:#000000;stroke-width:0.70835048;stroke-linecap:round;stroke-linejoin:miter;stroke-miterlimit:4;stroke-dasharray:none;stroke-opacity:1"
         id="rect5329"
         width="2.352313"
         height="6.7191119"
         x="303.19778"
         y="231.51125"
         transform="matrix(0.94690073,0.32152606,-0.41674407,0.90902386,0,0)" />
      <path
         inkscape:export-ydpi="90.300003"
         inkscape:export-xdpi="90.300003"
         style="fill:none;fill-rule:evenodd;stroke:#000000;stroke-width:1;stroke-linecap:butt;stroke-linejoin:miter;stroke-miterlimit:4;stroke-dasharray:none;stroke-opacity:1;marker-start:url(#Arrow1Mstart)"
         d="m 214.1917,314.57263 c -10.70105,38.48634 -10.60364,38.24987 -10.60364,38.24987"
         id="path5883"
         inkscape:connector-curvature="0" />
      <path
         inkscape:export-ydpi="90.300003"
         inkscape:export-xdpi="90.300003"
         style="fill:none;fill-rule:evenodd;stroke:#000000;stroke-width:1;stroke-linecap:butt;stroke-linejoin:miter;stroke-miterlimit:4;stroke-dasharray:none;stroke-opacity:1;marker-start:url(#Arrow1Mstart-7)"
         d="m 320.74016,300.77679 c 10.70105,-38.48634 10.60364,-38.24987 10.60364,-38.24987"
         id="path5883-9"
         inkscape:connector-curvature="0" />
      <circle
         inkscape:export-ydpi="90.300003"
         inkscape:export-xdpi="90.300003"
         style="fill:#ffffff;fill-opacity:1;stroke:#000000;stroke-width:1;stroke-linecap:round;stroke-linejoin:miter;stroke-miterlimit:4;stroke-dasharray:none;stroke-opacity:1"
         id="path4246"
         cx="559"
         cy="169.3622"
         r="4" />
      <circle
         inkscape:export-ydpi="90.300003"
         inkscape:export-xdpi="90.300003"
         style="fill:#ffffff;fill-opacity:1;stroke:#000000;stroke-width:1;stroke-linecap:round;stroke-linejoin:miter;stroke-miterlimit:4;stroke-dasharray:none;stroke-opacity:1"
         id="path4246-2"
         cx="633"
         cy="167.3622"
         r="4" />
      <circle
         inkscape:export-ydpi="90.300003"
         inkscape:export-xdpi="90.300003"
         style="fill:#ffffff;fill-opacity:1;stroke:#000000;stroke-width:1;stroke-linecap:round;stroke-linejoin:miter;stroke-miterlimit:4;stroke-dasharray:none;stroke-opacity:1"
         id="path4246-7"
         cx="596.70709"
         cy="234.66551"
         r="4" />
      <circle
         inkscape:export-ydpi="90.300003"
         inkscape:export-xdpi="90.300003"
         style="fill:#ffffff;fill-opacity:1;stroke:#000000;stroke-width:1;stroke-linecap:round;stroke-linejoin:miter;stroke-miterlimit:4;stroke-dasharray:none;stroke-opacity:1"
         id="path4246-6"
         cx="581"
         cy="203.3622"
         r="4" />
      <circle
         inkscape:export-ydpi="90.300003"
         inkscape:export-xdpi="90.300003"
         style="fill:#ffffff;fill-opacity:1;stroke:#000000;stroke-width:1;stroke-linecap:round;stroke-linejoin:miter;stroke-miterlimit:4;stroke-dasharray:none;stroke-opacity:1"
         id="path4246-5"
         cx="601"
         cy="203.3622"
         r="4" />
      <circle
         inkscape:export-ydpi="90.300003"
         inkscape:export-xdpi="90.300003"
         style="fill:#ffffff;fill-opacity:1;stroke:#000000;stroke-width:1;stroke-linecap:round;stroke-linejoin:miter;stroke-miterlimit:4;stroke-dasharray:none;stroke-opacity:1"
         id="path4246-65"
         cx="609"
         cy="207.3622"
         r="4" />
      <circle
         inkscape:export-ydpi="90.300003"
         inkscape:export-xdpi="90.300003"
         style="fill:#ffffff;fill-opacity:1;stroke:#000000;stroke-width:1;stroke-linecap:round;stroke-linejoin:miter;stroke-miterlimit:4;stroke-dasharray:none;stroke-opacity:1"
         id="path4246-658"
         cx="615"
         cy="213.3622"
         r="4" />
      <circle
         inkscape:export-ydpi="90.300003"
         inkscape:export-xdpi="90.300003"
         style="fill:#ffffff;fill-opacity:1;stroke:#000000;stroke-width:1;stroke-linecap:round;stroke-linejoin:miter;stroke-miterlimit:4;stroke-dasharray:none;stroke-opacity:1"
         id="path4246-4"
         cx="627"
         cy="209.3622"
         r="4" />
      <circle
         inkscape:export-ydpi="90.300003"
         inkscape:export-xdpi="90.300003"
         style="fill:#ffffff;fill-opacity:1;stroke:#000000;stroke-width:1;stroke-linecap:round;stroke-linejoin:miter;stroke-miterlimit:4;stroke-dasharray:none;stroke-opacity:1"
         id="path4246-46"
         cx="637"
         cy="207.3622"
         r="4" />
      <text
         inkscape:export-ydpi="90.300003"
         inkscape:export-xdpi="90.300003"
         sodipodi:linespacing="125%"
         id="text4350"
         y="165.99345"
         x="546.72522"
         style="font-style:normal;font-weight:normal;font-size:11.25px;line-height:125%;font-family:sans-serif;letter-spacing:0px;word-spacing:0px;fill:#000000;fill-opacity:1;stroke:none;stroke-width:1px;stroke-linecap:butt;stroke-linejoin:miter;stroke-opacity:1"
         xml:space="preserve"><tspan
           y="165.99345"
           x="546.72522"
           id="tspan4352"
           sodipodi:role="line">RA</tspan></text>
      <text
         inkscape:export-ydpi="90.300003"
         inkscape:export-xdpi="90.300003"
         sodipodi:linespacing="125%"
         id="text4350-3"
         y="163.5379"
         x="631.60333"
         style="font-style:normal;font-weight:normal;font-size:11.25px;line-height:125%;font-family:sans-serif;letter-spacing:0px;word-spacing:0px;fill:#000000;fill-opacity:1;stroke:none;stroke-width:1px;stroke-linecap:butt;stroke-linejoin:miter;stroke-opacity:1"
         xml:space="preserve"><tspan
           y="163.5379"
           x="631.60333"
           id="tspan4352-5"
           sodipodi:role="line">LA</tspan></text>
      <text
         inkscape:export-ydpi="90.300003"
         inkscape:export-xdpi="90.300003"
         sodipodi:linespacing="125%"
         id="text4350-7"
         y="248.58751"
         x="599.22253"
         style="font-style:normal;font-weight:normal;font-size:13.75px;line-height:125%;font-family:sans-serif;letter-spacing:0px;word-spacing:0px;fill:#000000;fill-opacity:1;stroke:none;stroke-width:1px;stroke-linecap:butt;stroke-linejoin:miter;stroke-opacity:1"
         xml:space="preserve"><tspan
           y="248.58751"
           x="599.22253"
           id="tspan4352-0"
           sodipodi:role="line">LL</tspan></text>
      <text
         inkscape:export-ydpi="90.300003"
         inkscape:export-xdpi="90.300003"
         sodipodi:linespacing="125%"
         id="text4350-4"
         y="198.07523"
         x="565.75226"
         style="font-style:normal;font-weight:normal;font-size:13.75px;line-height:125%;font-family:sans-serif;letter-spacing:0px;word-spacing:0px;fill:#000000;fill-opacity:1;stroke:none;stroke-width:1px;stroke-linecap:butt;stroke-linejoin:miter;stroke-opacity:1"
         xml:space="preserve"><tspan
           y="198.07523"
           x="565.75226"
           id="tspan4352-2"
           sodipodi:role="line">V1</tspan></text>
      <text
         inkscape:export-ydpi="90.300003"
         inkscape:export-xdpi="90.300003"
         sodipodi:linespacing="125%"
         id="text4350-4-8"
         y="197.7101"
         x="584.49298"
         style="font-style:normal;font-weight:normal;font-size:13.75px;line-height:125%;font-family:sans-serif;letter-spacing:0px;word-spacing:0px;fill:#000000;fill-opacity:1;stroke:none;stroke-width:1px;stroke-linecap:butt;stroke-linejoin:miter;stroke-opacity:1"
         xml:space="preserve"><tspan
           y="197.7101"
           x="584.49298"
           id="tspan4352-2-7"
           sodipodi:role="line">V2</tspan></text>
      <text
         inkscape:export-ydpi="90.300003"
         inkscape:export-xdpi="90.300003"
         sodipodi:linespacing="125%"
         id="text4350-4-3"
         y="191.77068"
         x="602.48035"
         style="font-style:normal;font-weight:normal;font-size:13.75px;line-height:125%;font-family:sans-serif;letter-spacing:0px;word-spacing:0px;fill:#000000;fill-opacity:1;stroke:none;stroke-width:1px;stroke-linecap:butt;stroke-linejoin:miter;stroke-opacity:1"
         xml:space="preserve"><tspan
           y="191.77068"
           x="602.48035"
           id="tspan4352-2-6"
           sodipodi:role="line">V3</tspan></text>
      <text
         inkscape:export-ydpi="90.300003"
         inkscape:export-xdpi="90.300003"
         sodipodi:linespacing="125%"
         id="text4350-4-2"
         y="203.34729"
         x="608.5119"
         style="font-style:normal;font-weight:normal;font-size:13.75px;line-height:125%;font-family:sans-serif;letter-spacing:0px;word-spacing:0px;fill:#000000;fill-opacity:1;stroke:none;stroke-width:1px;stroke-linecap:butt;stroke-linejoin:miter;stroke-opacity:1"
         xml:space="preserve"><tspan
           y="203.34729"
           x="608.5119"
           id="tspan4352-2-8"
           sodipodi:role="line">V4</tspan></text>
      <text
         inkscape:export-ydpi="90.300003"
         inkscape:export-xdpi="90.300003"
         sodipodi:linespacing="125%"
         id="text4350-4-5"
         y="203.45444"
         x="625.41541"
         style="font-style:normal;font-weight:normal;font-size:13.75px;line-height:125%;font-family:sans-serif;letter-spacing:0px;word-spacing:0px;fill:#000000;fill-opacity:1;stroke:none;stroke-width:1px;stroke-linecap:butt;stroke-linejoin:miter;stroke-opacity:1"
         xml:space="preserve"><tspan
           y="203.45444"
           x="625.41541"
           id="tspan4352-2-63"
           sodipodi:role="line">V5</tspan></text>
      <text
         inkscape:export-ydpi="90.300003"
         inkscape:export-xdpi="90.300003"
         sodipodi:linespacing="125%"
         id="text4350-4-39"
         y="208.00909"
         x="641.58234"
         style="font-style:normal;font-weight:normal;font-size:13.75px;line-height:125%;font-family:sans-serif;letter-spacing:0px;word-spacing:0px;fill:#000000;fill-opacity:1;stroke:none;stroke-width:1px;stroke-linecap:butt;stroke-linejoin:miter;stroke-opacity:1"
         xml:space="preserve"><tspan
           y="208.00909"
           x="641.58234"
           id="tspan4352-2-2"
           sodipodi:role="line">V6</tspan></text>
      <path
         sodipodi:nodetypes="ccccc"
         inkscape:connector-curvature="0"
         id="path4724"
         d="m 443.64645,301.06931 18.0104,-0.20711 1.5,-132.29289 95.67158,0.35355 0.35355,0.35355"
         style="fill:none;fill-rule:evenodd;stroke:#000000;stroke-width:1px;stroke-linecap:butt;stroke-linejoin:miter;stroke-opacity:1" />
      <path
         sodipodi:nodetypes="cccccc"
         inkscape:connector-curvature="0"
         id="path4724-0"
         d="m 440.26773,305.09518 26.03628,-0.34475 1.50006,-129.54149 164.82361,-0.48753 0,0 0.23608,-7.6541"
         style="fill:none;fill-rule:evenodd;stroke:#000000;stroke-width:0.98747265px;stroke-linecap:butt;stroke-linejoin:miter;stroke-opacity:1" />
      <path
         sodipodi:nodetypes="ccccc"
         inkscape:connector-curvature="0"
         id="path4724-0-6"
         d="m 439.44008,308.68719 31.03381,-0.33356 1.13528,-98.99012 109.99692,0.087 0,-6.67124"
         style="fill:none;fill-rule:evenodd;stroke:#000000;stroke-width:0.96657807px;stroke-linecap:butt;stroke-linejoin:miter;stroke-opacity:1" />
      <path
         sodipodi:nodetypes="ccccc"
         inkscape:connector-curvature="0"
         id="path4724-0-6-0"
         d="m 438.14473,313.11549 36.34317,-0.33868 1.48084,-100.1509 125.19906,-0.6039 -0.34905,-11.17594"
         style="fill:none;fill-rule:evenodd;stroke:#000000;stroke-width:0.97245395px;stroke-linecap:butt;stroke-linejoin:miter;stroke-opacity:1" />
      <path
         sodipodi:nodetypes="ccccc"
         inkscape:connector-curvature="0"
         id="path4780"
         d="m 608.46539,207.3696 0.7071,8.13173 -128.69344,0.35355 -1.4142,101.46982 -42.07286,10e-6"
         style="fill:none;fill-rule:evenodd;stroke:#000000;stroke-width:1px;stroke-linecap:butt;stroke-linejoin:miter;stroke-opacity:1" />
      <path
         sodipodi:nodetypes="ccccc"
         inkscape:connector-curvature="0"
         id="path4780-4"
         d="m 614.73351,211.56067 0.7071,8.13173 -130.81476,0 -1.06065,101.82337 -49.85103,1e-5"
         style="fill:none;fill-rule:evenodd;stroke:#000000;stroke-width:1px;stroke-linecap:butt;stroke-linejoin:miter;stroke-opacity:1" />
      <path
         sodipodi:nodetypes="ccccc"
         inkscape:connector-curvature="0"
         id="path4780-4-0"
         d="m 627.10782,209.0858 0.7071,13.78858 -139.30004,0 -1.4142,101.82337 -53.38657,1e-5"
         style="fill:none;fill-rule:evenodd;stroke:#000000;stroke-width:1px;stroke-linecap:butt;stroke-linejoin:miter;stroke-opacity:1" />
      <path
         sodipodi:nodetypes="ccccc"
         inkscape:connector-curvature="0"
         id="path4780-4-9"
         d="m 637.00731,208.02514 0.7071,18.38478 -144.9569,-0.35355 -1.76775,101.82337 -59.75052,0.35356"
         style="fill:none;fill-rule:evenodd;stroke:#000000;stroke-width:1px;stroke-linecap:butt;stroke-linejoin:miter;stroke-opacity:1" />
      <path
         sodipodi:nodetypes="cccc"
         inkscape:connector-curvature="0"
         id="path4824"
         d="m 596.44457,234.59321 -99.70206,-0.35355 -2.12132,97.93429 -64.34671,0.35355"
         style="fill:none;fill-rule:evenodd;stroke:#000000;stroke-width:1px;stroke-linecap:butt;stroke-linejoin:miter;stroke-opacity:1" />
    </g>
  </g>
</svg>
