G04 #@! TF.FileFunction,Legend,Top*
%FSLAX46Y46*%
G04 Gerber Fmt 4.6, Leading zero omitted, Abs format (unit mm)*
G04 Created by KiCad (PCBNEW 4.0.6) date 06/27/17 09:13:31*
%MOMM*%
%LPD*%
G01*
G04 APERTURE LIST*
%ADD10C,0.100000*%
%ADD11C,0.150000*%
%ADD12C,0.120000*%
G04 APERTURE END LIST*
D10*
D11*
X132718950Y-111302800D02*
G75*
G03X132718950Y-111302800I-410350J0D01*
G01*
X141528800Y-120548400D02*
X141528800Y-110337600D01*
X141528800Y-110337600D02*
X131318000Y-110337600D01*
X131318000Y-110337600D02*
X131318000Y-120548400D01*
X131318000Y-120548400D02*
X136423400Y-120548400D01*
X136423400Y-120548400D02*
X141528800Y-120548400D01*
X151299050Y-84797900D02*
G75*
G03X151299050Y-84797900I-410350J0D01*
G01*
X160108900Y-94043500D02*
X160108900Y-83832700D01*
X160108900Y-83832700D02*
X149898100Y-83832700D01*
X149898100Y-83832700D02*
X149898100Y-94043500D01*
X149898100Y-94043500D02*
X155003500Y-94043500D01*
X155003500Y-94043500D02*
X160108900Y-94043500D01*
D12*
X159013000Y-119091000D02*
X159013000Y-117891000D01*
X160773000Y-117891000D02*
X160773000Y-119091000D01*
D11*
X139763500Y-58102500D02*
X132143500Y-58102500D01*
X139763500Y-58102500D02*
X139763500Y-55562500D01*
X132143500Y-58102500D02*
X139763500Y-58102500D01*
X132143500Y-58102500D02*
X132143500Y-55562500D01*
X139763500Y-58102500D02*
X132143500Y-58102500D01*
X132143500Y-55562500D02*
X139763500Y-55562500D01*
X139763500Y-55562500D02*
X132143500Y-55562500D01*
X142481300Y-64122300D02*
X137401300Y-64122300D01*
X142481300Y-69202300D02*
X142481300Y-64122300D01*
X137401300Y-64122300D02*
X137401300Y-69202300D01*
X142481300Y-64122300D02*
X137401300Y-64122300D01*
X137401300Y-69202300D02*
X142481300Y-69202300D01*
X142303500Y-79705200D02*
X137223500Y-79705200D01*
X142303500Y-84785200D02*
X142303500Y-79705200D01*
X137223500Y-79705200D02*
X137223500Y-84785200D01*
X142303500Y-79705200D02*
X137223500Y-79705200D01*
X137223500Y-84785200D02*
X142303500Y-84785200D01*
X142392400Y-84861400D02*
X137312400Y-84861400D01*
X142392400Y-89941400D02*
X142392400Y-84861400D01*
X137312400Y-84861400D02*
X137312400Y-89941400D01*
X142392400Y-84861400D02*
X137312400Y-84861400D01*
X137312400Y-89941400D02*
X142392400Y-89941400D01*
X142303500Y-89928700D02*
X137223500Y-89928700D01*
X142303500Y-95008700D02*
X142303500Y-89928700D01*
X137223500Y-89928700D02*
X137223500Y-95008700D01*
X142303500Y-89928700D02*
X137223500Y-89928700D01*
X137223500Y-95008700D02*
X142303500Y-95008700D01*
X142392400Y-95262700D02*
X137312400Y-95262700D01*
X142392400Y-100342700D02*
X142392400Y-95262700D01*
X137312400Y-95262700D02*
X137312400Y-100342700D01*
X142392400Y-95262700D02*
X137312400Y-95262700D01*
X137312400Y-100342700D02*
X142392400Y-100342700D01*
X142405100Y-74523600D02*
X137325100Y-74523600D01*
X142405100Y-79603600D02*
X142405100Y-74523600D01*
X137325100Y-74523600D02*
X137325100Y-79603600D01*
X142405100Y-74523600D02*
X137325100Y-74523600D01*
X137325100Y-79603600D02*
X142405100Y-79603600D01*
D12*
X157801500Y-101901500D02*
X157801500Y-99901500D01*
X155761500Y-99901500D02*
X155761500Y-101901500D01*
X162246500Y-102028500D02*
X162246500Y-100028500D01*
X160206500Y-100028500D02*
X160206500Y-102028500D01*
X158119000Y-76692000D02*
X158119000Y-74692000D01*
X156079000Y-74692000D02*
X156079000Y-76692000D01*
X138497500Y-128063500D02*
X138497500Y-126063500D01*
X136457500Y-126063500D02*
X136457500Y-128063500D01*
X133917500Y-126063500D02*
X133917500Y-128063500D01*
X135957500Y-128063500D02*
X135957500Y-126063500D01*
X160151000Y-101965000D02*
X160151000Y-99965000D01*
X158111000Y-99965000D02*
X158111000Y-101965000D01*
X151189500Y-99901500D02*
X151189500Y-101901500D01*
X153229500Y-101901500D02*
X153229500Y-99901500D01*
X160925700Y-76806300D02*
X160925700Y-74806300D01*
X158885700Y-74806300D02*
X158885700Y-76806300D01*
X131377500Y-126063500D02*
X131377500Y-128063500D01*
X133417500Y-128063500D02*
X133417500Y-126063500D01*
X140910500Y-128063500D02*
X140910500Y-126063500D01*
X138870500Y-126063500D02*
X138870500Y-128063500D01*
X157095000Y-57420000D02*
X157095000Y-59420000D01*
X159135000Y-59420000D02*
X159135000Y-57420000D01*
X143387000Y-128063500D02*
X143387000Y-126063500D01*
X141347000Y-126063500D02*
X141347000Y-128063500D01*
X144268000Y-126063500D02*
X144268000Y-128063500D01*
X146308000Y-128063500D02*
X146308000Y-126063500D01*
X146871500Y-126063500D02*
X146871500Y-128063500D01*
X148911500Y-128063500D02*
X148911500Y-126063500D01*
X180800250Y-86768750D02*
X178800250Y-86768750D01*
X178800250Y-88808750D02*
X180800250Y-88808750D01*
X180451000Y-99056000D02*
X178451000Y-99056000D01*
X178451000Y-101096000D02*
X180451000Y-101096000D01*
X180959000Y-110295500D02*
X178959000Y-110295500D01*
X178959000Y-112335500D02*
X180959000Y-112335500D01*
X147177000Y-61019500D02*
X145177000Y-61019500D01*
X145177000Y-63059500D02*
X147177000Y-63059500D01*
X153475500Y-99901500D02*
X153475500Y-101901500D01*
X155515500Y-101901500D02*
X155515500Y-99901500D01*
X123763600Y-81225900D02*
X123763600Y-79225900D01*
X123763600Y-79225900D02*
X119863600Y-79225900D01*
X123763600Y-81225900D02*
X119863600Y-81225900D01*
X124385900Y-73377300D02*
X124385900Y-71377300D01*
X124385900Y-71377300D02*
X120485900Y-71377300D01*
X124385900Y-73377300D02*
X120485900Y-73377300D01*
X124144600Y-85112100D02*
X124144600Y-83112100D01*
X124144600Y-83112100D02*
X120244600Y-83112100D01*
X124144600Y-85112100D02*
X120244600Y-85112100D01*
X123954100Y-93240100D02*
X123954100Y-91240100D01*
X123954100Y-91240100D02*
X120054100Y-91240100D01*
X123954100Y-93240100D02*
X120054100Y-93240100D01*
X124093800Y-69757800D02*
X124093800Y-67757800D01*
X124093800Y-67757800D02*
X120193800Y-67757800D01*
X124093800Y-69757800D02*
X120193800Y-69757800D01*
X124271600Y-65541400D02*
X124271600Y-63541400D01*
X124271600Y-63541400D02*
X120371600Y-63541400D01*
X124271600Y-65541400D02*
X120371600Y-65541400D01*
X123623900Y-89226900D02*
X123623900Y-87226900D01*
X123623900Y-87226900D02*
X119723900Y-87226900D01*
X123623900Y-89226900D02*
X119723900Y-89226900D01*
X123916000Y-58023000D02*
X123916000Y-56023000D01*
X123916000Y-56023000D02*
X120016000Y-56023000D01*
X123916000Y-58023000D02*
X120016000Y-58023000D01*
X123979500Y-61667900D02*
X123979500Y-59667900D01*
X123979500Y-59667900D02*
X120079500Y-59667900D01*
X123979500Y-61667900D02*
X120079500Y-61667900D01*
X123916000Y-77136500D02*
X123916000Y-75136500D01*
X123916000Y-75136500D02*
X120016000Y-75136500D01*
X123916000Y-77136500D02*
X120016000Y-77136500D01*
X175264250Y-79486250D02*
X175264250Y-81486250D01*
X175264250Y-81486250D02*
X179164250Y-81486250D01*
X175264250Y-79486250D02*
X179164250Y-79486250D01*
X175296000Y-90948000D02*
X175296000Y-92948000D01*
X175296000Y-92948000D02*
X179196000Y-92948000D01*
X175296000Y-90948000D02*
X179196000Y-90948000D01*
X176248500Y-102632000D02*
X176248500Y-104632000D01*
X176248500Y-104632000D02*
X180148500Y-104632000D01*
X176248500Y-102632000D02*
X180148500Y-102632000D01*
D11*
X154241500Y-73152000D02*
X151701500Y-73152000D01*
X151701500Y-78232000D02*
X154241500Y-78232000D01*
X151701500Y-73152000D02*
X151701500Y-78232000D01*
X154241500Y-73152000D02*
X151701500Y-73152000D01*
X154241500Y-73152000D02*
X154241500Y-78232000D01*
X154241500Y-78232000D02*
X154241500Y-73152000D01*
X152654000Y-124523500D02*
X150114000Y-124523500D01*
X150114000Y-129603500D02*
X152654000Y-129603500D01*
X150114000Y-124523500D02*
X150114000Y-129603500D01*
X152654000Y-124523500D02*
X150114000Y-124523500D01*
X152654000Y-124523500D02*
X152654000Y-129603500D01*
X152654000Y-129603500D02*
X152654000Y-124523500D01*
X152637000Y-129845000D02*
X150097000Y-129845000D01*
X150097000Y-134925000D02*
X152637000Y-134925000D01*
X150097000Y-129845000D02*
X150097000Y-134925000D01*
X152637000Y-129845000D02*
X150097000Y-129845000D01*
X152637000Y-129845000D02*
X152637000Y-134925000D01*
X152637000Y-134925000D02*
X152637000Y-129845000D01*
X167767000Y-88900000D02*
X167767000Y-91440000D01*
X172847000Y-91440000D02*
X172847000Y-88900000D01*
X167767000Y-91440000D02*
X172847000Y-91440000D01*
X167767000Y-88900000D02*
X167767000Y-91440000D01*
X167767000Y-88900000D02*
X172847000Y-88900000D01*
X172847000Y-88900000D02*
X167767000Y-88900000D01*
X153111200Y-122847100D02*
X153111200Y-125387100D01*
X158191200Y-125387100D02*
X158191200Y-122847100D01*
X153111200Y-125387100D02*
X158191200Y-125387100D01*
X153111200Y-122847100D02*
X153111200Y-125387100D01*
X153111200Y-122847100D02*
X158191200Y-122847100D01*
X158191200Y-122847100D02*
X153111200Y-122847100D01*
X140208000Y-55562500D02*
X147828000Y-55562500D01*
X140208000Y-55562500D02*
X140208000Y-58102500D01*
X147828000Y-55562500D02*
X140208000Y-55562500D01*
X147828000Y-55562500D02*
X147828000Y-58102500D01*
X140208000Y-55562500D02*
X147828000Y-55562500D01*
X147828000Y-58102500D02*
X140208000Y-58102500D01*
X140208000Y-58102500D02*
X147828000Y-58102500D01*
X150114000Y-63563500D02*
X157734000Y-63563500D01*
X150114000Y-63563500D02*
X150114000Y-66103500D01*
X157734000Y-63563500D02*
X150114000Y-63563500D01*
X157734000Y-63563500D02*
X157734000Y-66103500D01*
X150114000Y-63563500D02*
X157734000Y-63563500D01*
X157734000Y-66103500D02*
X150114000Y-66103500D01*
X150114000Y-66103500D02*
X157734000Y-66103500D01*
X158178500Y-68453000D02*
X165798500Y-68453000D01*
X158178500Y-68453000D02*
X158178500Y-70993000D01*
X165798500Y-68453000D02*
X158178500Y-68453000D01*
X165798500Y-68453000D02*
X165798500Y-70993000D01*
X158178500Y-68453000D02*
X165798500Y-68453000D01*
X165798500Y-70993000D02*
X158178500Y-70993000D01*
X158178500Y-70993000D02*
X165798500Y-70993000D01*
D12*
X164846000Y-66608000D02*
X187766000Y-66608000D01*
X187766000Y-66608000D02*
X187766000Y-63948000D01*
X187766000Y-63948000D02*
X164846000Y-63948000D01*
X164846000Y-63948000D02*
X164846000Y-66608000D01*
X163576000Y-66608000D02*
X162246000Y-66608000D01*
X162246000Y-66608000D02*
X162246000Y-65278000D01*
X145034000Y-140712500D02*
X155254000Y-140712500D01*
X155254000Y-140712500D02*
X155254000Y-138052500D01*
X155254000Y-138052500D02*
X145034000Y-138052500D01*
X145034000Y-138052500D02*
X145034000Y-140712500D01*
X143764000Y-140712500D02*
X142434000Y-140712500D01*
X142434000Y-140712500D02*
X142434000Y-139382500D01*
X101981000Y-56391500D02*
X99381000Y-56391500D01*
X99381000Y-56391500D02*
X99381000Y-59051500D01*
X99381000Y-59051500D02*
X101981000Y-59051500D01*
X101981000Y-59051500D02*
X101981000Y-56391500D01*
X103251000Y-56391500D02*
X104581000Y-56391500D01*
X104581000Y-56391500D02*
X104581000Y-57721500D01*
X167548000Y-55444500D02*
X168748000Y-55444500D01*
X168748000Y-57204500D02*
X167548000Y-57204500D01*
X164466000Y-62102000D02*
X163446000Y-62102000D01*
X163446000Y-62102000D02*
X163446000Y-60702000D01*
X167766000Y-62102000D02*
X168786000Y-62102000D01*
X168786000Y-62102000D02*
X168786000Y-60702000D01*
X166116000Y-61342000D02*
X166116000Y-60702000D01*
X166116000Y-61342000D02*
X165606000Y-60832000D01*
X166116000Y-61342000D02*
X166626000Y-60832000D01*
X167766000Y-61342000D02*
X167766000Y-62742000D01*
X167766000Y-62742000D02*
X164466000Y-62742000D01*
X164466000Y-62742000D02*
X164466000Y-61342000D01*
X164466000Y-61342000D02*
X167766000Y-61342000D01*
X162658500Y-55444500D02*
X163858500Y-55444500D01*
X163858500Y-57204500D02*
X162658500Y-57204500D01*
X164925900Y-92973600D02*
X164925900Y-94173600D01*
X163165900Y-94173600D02*
X163165900Y-92973600D01*
X144967000Y-121505000D02*
X146167000Y-121505000D01*
X146167000Y-123265000D02*
X144967000Y-123265000D01*
X111388600Y-79409400D02*
X112588600Y-79409400D01*
X112588600Y-81169400D02*
X111388600Y-81169400D01*
X116341600Y-79345900D02*
X117541600Y-79345900D01*
X117541600Y-81105900D02*
X116341600Y-81105900D01*
X149063000Y-121403000D02*
X147863000Y-121403000D01*
X147863000Y-119643000D02*
X149063000Y-119643000D01*
X111312400Y-71243300D02*
X112512400Y-71243300D01*
X112512400Y-73003300D02*
X111312400Y-73003300D01*
X116773400Y-71497300D02*
X117973400Y-71497300D01*
X117973400Y-73257300D02*
X116773400Y-73257300D01*
X111020300Y-67623800D02*
X112220300Y-67623800D01*
X112220300Y-69383800D02*
X111020300Y-69383800D01*
X116481300Y-67877800D02*
X117681300Y-67877800D01*
X117681300Y-69637800D02*
X116481300Y-69637800D01*
X184718250Y-86128750D02*
X183518250Y-86128750D01*
X183518250Y-84368750D02*
X184718250Y-84368750D01*
X111007600Y-63534400D02*
X112207600Y-63534400D01*
X112207600Y-65294400D02*
X111007600Y-65294400D01*
X116595600Y-63724900D02*
X117795600Y-63724900D01*
X117795600Y-65484900D02*
X116595600Y-65484900D01*
X110779000Y-74875500D02*
X111979000Y-74875500D01*
X111979000Y-76635500D02*
X110779000Y-76635500D01*
X116240000Y-75129500D02*
X117440000Y-75129500D01*
X117440000Y-76889500D02*
X116240000Y-76889500D01*
X179511250Y-86128750D02*
X178311250Y-86128750D01*
X178311250Y-84368750D02*
X179511250Y-84368750D01*
X184178500Y-98352500D02*
X182978500Y-98352500D01*
X182978500Y-96592500D02*
X184178500Y-96592500D01*
X110906000Y-59724400D02*
X112106000Y-59724400D01*
X112106000Y-61484400D02*
X110906000Y-61484400D01*
X116367000Y-59978400D02*
X117567000Y-59978400D01*
X117567000Y-61738400D02*
X116367000Y-61738400D01*
X184940500Y-109655500D02*
X183740500Y-109655500D01*
X183740500Y-107895500D02*
X184940500Y-107895500D01*
X179162000Y-98352500D02*
X177962000Y-98352500D01*
X177962000Y-96592500D02*
X179162000Y-96592500D01*
X110550400Y-87092900D02*
X111750400Y-87092900D01*
X111750400Y-88852900D02*
X110550400Y-88852900D01*
X116011400Y-87346900D02*
X117211400Y-87346900D01*
X117211400Y-89106900D02*
X116011400Y-89106900D01*
X179733500Y-109655500D02*
X178533500Y-109655500D01*
X178533500Y-107895500D02*
X179733500Y-107895500D01*
X116494000Y-56143000D02*
X117694000Y-56143000D01*
X117694000Y-57903000D02*
X116494000Y-57903000D01*
X110906000Y-56143000D02*
X112106000Y-56143000D01*
X112106000Y-57903000D02*
X110906000Y-57903000D01*
X110944100Y-83041600D02*
X112144100Y-83041600D01*
X112144100Y-84801600D02*
X110944100Y-84801600D01*
X116532100Y-83295600D02*
X117732100Y-83295600D01*
X117732100Y-85055600D02*
X116532100Y-85055600D01*
X110626600Y-91169600D02*
X111826600Y-91169600D01*
X111826600Y-92929600D02*
X110626600Y-92929600D01*
X116214600Y-91423600D02*
X117414600Y-91423600D01*
X117414600Y-93183600D02*
X116214600Y-93183600D01*
X184185000Y-101863000D02*
X185385000Y-101863000D01*
X185385000Y-103623000D02*
X184185000Y-103623000D01*
D10*
X149860500Y-60769500D02*
X149860500Y-55769500D01*
X153860500Y-60769500D02*
X149860500Y-60769500D01*
X153860500Y-55769500D02*
X149860500Y-55769500D01*
X153860500Y-60769500D02*
X153860500Y-55769500D01*
D11*
X142481300Y-58902600D02*
X137401300Y-58902600D01*
X142481300Y-63982600D02*
X142481300Y-58902600D01*
X137401300Y-58902600D02*
X137401300Y-63982600D01*
X142481300Y-58902600D02*
X137401300Y-58902600D01*
X137401300Y-63982600D02*
X142481300Y-63982600D01*
X142443200Y-69265800D02*
X137363200Y-69265800D01*
X142443200Y-74345800D02*
X142443200Y-69265800D01*
X137363200Y-69265800D02*
X137363200Y-74345800D01*
X142443200Y-69265800D02*
X137363200Y-69265800D01*
X137363200Y-74345800D02*
X142443200Y-74345800D01*
X129984500Y-111239300D02*
X129984500Y-106159300D01*
X124904500Y-111239300D02*
X129984500Y-111239300D01*
X129984500Y-106159300D02*
X124904500Y-106159300D01*
X129984500Y-111239300D02*
X129984500Y-106159300D01*
X124904500Y-106159300D02*
X124904500Y-111239300D01*
X124726700Y-111290100D02*
X124726700Y-106210100D01*
X119646700Y-111290100D02*
X124726700Y-111290100D01*
X124726700Y-106210100D02*
X119646700Y-106210100D01*
X124726700Y-111290100D02*
X124726700Y-106210100D01*
X119646700Y-106210100D02*
X119646700Y-111290100D01*
X119481600Y-111290100D02*
X119481600Y-106210100D01*
X114401600Y-111290100D02*
X119481600Y-111290100D01*
X119481600Y-106210100D02*
X114401600Y-106210100D01*
X119481600Y-111290100D02*
X119481600Y-106210100D01*
X114401600Y-106210100D02*
X114401600Y-111290100D01*
X114223800Y-111290100D02*
X114223800Y-106210100D01*
X109143800Y-111290100D02*
X114223800Y-111290100D01*
X114223800Y-106210100D02*
X109143800Y-106210100D01*
X114223800Y-111290100D02*
X114223800Y-106210100D01*
X109143800Y-106210100D02*
X109143800Y-111290100D01*
X109042200Y-119659400D02*
X109042200Y-124739400D01*
X114122200Y-119659400D02*
X109042200Y-119659400D01*
X109042200Y-124739400D02*
X114122200Y-124739400D01*
X109042200Y-119659400D02*
X109042200Y-124739400D01*
X114122200Y-124739400D02*
X114122200Y-119659400D01*
X114300000Y-119659400D02*
X114300000Y-124739400D01*
X119380000Y-119659400D02*
X114300000Y-119659400D01*
X114300000Y-124739400D02*
X119380000Y-124739400D01*
X114300000Y-119659400D02*
X114300000Y-124739400D01*
X119380000Y-124739400D02*
X119380000Y-119659400D01*
X119545100Y-119621300D02*
X119545100Y-124701300D01*
X124625100Y-119621300D02*
X119545100Y-119621300D01*
X119545100Y-124701300D02*
X124625100Y-124701300D01*
X119545100Y-119621300D02*
X119545100Y-124701300D01*
X124625100Y-124701300D02*
X124625100Y-119621300D01*
X124802900Y-119621300D02*
X124802900Y-124701300D01*
X129882900Y-119621300D02*
X124802900Y-119621300D01*
X124802900Y-124701300D02*
X129882900Y-124701300D01*
X124802900Y-119621300D02*
X124802900Y-124701300D01*
X129882900Y-124701300D02*
X129882900Y-119621300D01*
D12*
X102086100Y-108178600D02*
X102086100Y-126018600D01*
X102086100Y-126018600D02*
X107286100Y-126018600D01*
X107286100Y-126018600D02*
X107286100Y-105578600D01*
X107286100Y-105578600D02*
X104686100Y-105578600D01*
X104686100Y-105578600D02*
X104686100Y-108178600D01*
X104686100Y-108178600D02*
X102086100Y-108178600D01*
X102086100Y-106908600D02*
X102086100Y-105578600D01*
X102086100Y-105578600D02*
X103416100Y-105578600D01*
X131289100Y-73444100D02*
X131289100Y-55604100D01*
X131289100Y-55604100D02*
X126089100Y-55604100D01*
X126089100Y-55604100D02*
X126089100Y-76044100D01*
X126089100Y-76044100D02*
X128689100Y-76044100D01*
X128689100Y-76044100D02*
X128689100Y-73444100D01*
X128689100Y-73444100D02*
X131289100Y-73444100D01*
X131289100Y-74714100D02*
X131289100Y-76044100D01*
X131289100Y-76044100D02*
X129959100Y-76044100D01*
X164528500Y-121662500D02*
X187448500Y-121662500D01*
X187448500Y-121662500D02*
X187448500Y-116462500D01*
X187448500Y-116462500D02*
X161928500Y-116462500D01*
X161928500Y-116462500D02*
X161928500Y-119062500D01*
X161928500Y-119062500D02*
X164528500Y-119062500D01*
X164528500Y-119062500D02*
X164528500Y-121662500D01*
X163258500Y-121662500D02*
X161928500Y-121662500D01*
X161928500Y-121662500D02*
X161928500Y-120332500D01*
X164528500Y-78546000D02*
X187448500Y-78546000D01*
X187448500Y-78546000D02*
X187448500Y-73346000D01*
X187448500Y-73346000D02*
X161928500Y-73346000D01*
X161928500Y-73346000D02*
X161928500Y-75946000D01*
X161928500Y-75946000D02*
X164528500Y-75946000D01*
X164528500Y-75946000D02*
X164528500Y-78546000D01*
X163258500Y-78546000D02*
X161928500Y-78546000D01*
X161928500Y-78546000D02*
X161928500Y-77216000D01*
X127321000Y-79629000D02*
X127321000Y-97469000D01*
X127321000Y-97469000D02*
X132521000Y-97469000D01*
X132521000Y-97469000D02*
X132521000Y-77029000D01*
X132521000Y-77029000D02*
X129921000Y-77029000D01*
X129921000Y-77029000D02*
X129921000Y-79629000D01*
X129921000Y-79629000D02*
X127321000Y-79629000D01*
X127321000Y-78359000D02*
X127321000Y-77029000D01*
X127321000Y-77029000D02*
X128651000Y-77029000D01*
X93081800Y-104216200D02*
X93081800Y-127136200D01*
X93081800Y-127136200D02*
X95741800Y-127136200D01*
X95741800Y-127136200D02*
X95741800Y-104216200D01*
X95741800Y-104216200D02*
X93081800Y-104216200D01*
X93081800Y-102946200D02*
X93081800Y-101616200D01*
X93081800Y-101616200D02*
X94411800Y-101616200D01*
D11*
X140709805Y-120991381D02*
X140709805Y-121800905D01*
X140757424Y-121896143D01*
X140805043Y-121943762D01*
X140900281Y-121991381D01*
X141090758Y-121991381D01*
X141185996Y-121943762D01*
X141233615Y-121896143D01*
X141281234Y-121800905D01*
X141281234Y-120991381D01*
X142281234Y-121991381D02*
X141709805Y-121991381D01*
X141995519Y-121991381D02*
X141995519Y-120991381D01*
X141900281Y-121134238D01*
X141805043Y-121229476D01*
X141709805Y-121277095D01*
X142852662Y-121419952D02*
X142757424Y-121372333D01*
X142709805Y-121324714D01*
X142662186Y-121229476D01*
X142662186Y-121181857D01*
X142709805Y-121086619D01*
X142757424Y-121039000D01*
X142852662Y-120991381D01*
X143043139Y-120991381D01*
X143138377Y-121039000D01*
X143185996Y-121086619D01*
X143233615Y-121181857D01*
X143233615Y-121229476D01*
X143185996Y-121324714D01*
X143138377Y-121372333D01*
X143043139Y-121419952D01*
X142852662Y-121419952D01*
X142757424Y-121467571D01*
X142709805Y-121515190D01*
X142662186Y-121610429D01*
X142662186Y-121800905D01*
X142709805Y-121896143D01*
X142757424Y-121943762D01*
X142852662Y-121991381D01*
X143043139Y-121991381D01*
X143138377Y-121943762D01*
X143185996Y-121896143D01*
X143233615Y-121800905D01*
X143233615Y-121610429D01*
X143185996Y-121515190D01*
X143138377Y-121467571D01*
X143043139Y-121419952D01*
X146780405Y-93470481D02*
X146780405Y-94280005D01*
X146828024Y-94375243D01*
X146875643Y-94422862D01*
X146970881Y-94470481D01*
X147161358Y-94470481D01*
X147256596Y-94422862D01*
X147304215Y-94375243D01*
X147351834Y-94280005D01*
X147351834Y-93470481D01*
X147780405Y-93565719D02*
X147828024Y-93518100D01*
X147923262Y-93470481D01*
X148161358Y-93470481D01*
X148256596Y-93518100D01*
X148304215Y-93565719D01*
X148351834Y-93660957D01*
X148351834Y-93756195D01*
X148304215Y-93899052D01*
X147732786Y-94470481D01*
X148351834Y-94470481D01*
X148970881Y-93470481D02*
X149066120Y-93470481D01*
X149161358Y-93518100D01*
X149208977Y-93565719D01*
X149256596Y-93660957D01*
X149304215Y-93851433D01*
X149304215Y-94089529D01*
X149256596Y-94280005D01*
X149208977Y-94375243D01*
X149161358Y-94422862D01*
X149066120Y-94470481D01*
X148970881Y-94470481D01*
X148875643Y-94422862D01*
X148828024Y-94375243D01*
X148780405Y-94280005D01*
X148732786Y-94089529D01*
X148732786Y-93851433D01*
X148780405Y-93660957D01*
X148828024Y-93565719D01*
X148875643Y-93518100D01*
X148970881Y-93470481D01*
X162045381Y-119133857D02*
X161569190Y-119467191D01*
X162045381Y-119705286D02*
X161045381Y-119705286D01*
X161045381Y-119324333D01*
X161093000Y-119229095D01*
X161140619Y-119181476D01*
X161235857Y-119133857D01*
X161378714Y-119133857D01*
X161473952Y-119181476D01*
X161521571Y-119229095D01*
X161569190Y-119324333D01*
X161569190Y-119705286D01*
X162045381Y-118181476D02*
X162045381Y-118752905D01*
X162045381Y-118467191D02*
X161045381Y-118467191D01*
X161188238Y-118562429D01*
X161283476Y-118657667D01*
X161331095Y-118752905D01*
X161045381Y-117276714D02*
X161045381Y-117752905D01*
X161521571Y-117800524D01*
X161473952Y-117752905D01*
X161426333Y-117657667D01*
X161426333Y-117419571D01*
X161473952Y-117324333D01*
X161521571Y-117276714D01*
X161616810Y-117229095D01*
X161854905Y-117229095D01*
X161950143Y-117276714D01*
X161997762Y-117324333D01*
X162045381Y-117419571D01*
X162045381Y-117657667D01*
X161997762Y-117752905D01*
X161950143Y-117800524D01*
X134643977Y-53490881D02*
X134643977Y-54205167D01*
X134596357Y-54348024D01*
X134501119Y-54443262D01*
X134358262Y-54490881D01*
X134263024Y-54490881D01*
X135120167Y-54490881D02*
X135120167Y-53490881D01*
X135501120Y-53490881D01*
X135596358Y-53538500D01*
X135643977Y-53586119D01*
X135691596Y-53681357D01*
X135691596Y-53824214D01*
X135643977Y-53919452D01*
X135596358Y-53967071D01*
X135501120Y-54014690D01*
X135120167Y-54014690D01*
X136643977Y-54490881D02*
X136072548Y-54490881D01*
X136358262Y-54490881D02*
X136358262Y-53490881D01*
X136263024Y-53633738D01*
X136167786Y-53728976D01*
X136072548Y-53776595D01*
X137501120Y-53490881D02*
X137310643Y-53490881D01*
X137215405Y-53538500D01*
X137167786Y-53586119D01*
X137072548Y-53728976D01*
X137024929Y-53919452D01*
X137024929Y-54300405D01*
X137072548Y-54395643D01*
X137120167Y-54443262D01*
X137215405Y-54490881D01*
X137405882Y-54490881D01*
X137501120Y-54443262D01*
X137548739Y-54395643D01*
X137596358Y-54300405D01*
X137596358Y-54062310D01*
X137548739Y-53967071D01*
X137501120Y-53919452D01*
X137405882Y-53871833D01*
X137215405Y-53871833D01*
X137120167Y-53919452D01*
X137072548Y-53967071D01*
X137024929Y-54062310D01*
X136853777Y-70051681D02*
X136853777Y-70765967D01*
X136806157Y-70908824D01*
X136710919Y-71004062D01*
X136568062Y-71051681D01*
X136472824Y-71051681D01*
X137329967Y-71051681D02*
X137329967Y-70051681D01*
X137710920Y-70051681D01*
X137806158Y-70099300D01*
X137853777Y-70146919D01*
X137901396Y-70242157D01*
X137901396Y-70385014D01*
X137853777Y-70480252D01*
X137806158Y-70527871D01*
X137710920Y-70575490D01*
X137329967Y-70575490D01*
X138282348Y-70146919D02*
X138329967Y-70099300D01*
X138425205Y-70051681D01*
X138663301Y-70051681D01*
X138758539Y-70099300D01*
X138806158Y-70146919D01*
X138853777Y-70242157D01*
X138853777Y-70337395D01*
X138806158Y-70480252D01*
X138234729Y-71051681D01*
X138853777Y-71051681D01*
X139187110Y-70051681D02*
X139806158Y-70051681D01*
X139472824Y-70432633D01*
X139615682Y-70432633D01*
X139710920Y-70480252D01*
X139758539Y-70527871D01*
X139806158Y-70623110D01*
X139806158Y-70861205D01*
X139758539Y-70956443D01*
X139710920Y-71004062D01*
X139615682Y-71051681D01*
X139329967Y-71051681D01*
X139234729Y-71004062D01*
X139187110Y-70956443D01*
X136421977Y-85507581D02*
X136421977Y-86221867D01*
X136374357Y-86364724D01*
X136279119Y-86459962D01*
X136136262Y-86507581D01*
X136041024Y-86507581D01*
X136898167Y-86507581D02*
X136898167Y-85507581D01*
X137279120Y-85507581D01*
X137374358Y-85555200D01*
X137421977Y-85602819D01*
X137469596Y-85698057D01*
X137469596Y-85840914D01*
X137421977Y-85936152D01*
X137374358Y-85983771D01*
X137279120Y-86031390D01*
X136898167Y-86031390D01*
X137850548Y-85602819D02*
X137898167Y-85555200D01*
X137993405Y-85507581D01*
X138231501Y-85507581D01*
X138326739Y-85555200D01*
X138374358Y-85602819D01*
X138421977Y-85698057D01*
X138421977Y-85793295D01*
X138374358Y-85936152D01*
X137802929Y-86507581D01*
X138421977Y-86507581D01*
X139279120Y-85507581D02*
X139088643Y-85507581D01*
X138993405Y-85555200D01*
X138945786Y-85602819D01*
X138850548Y-85745676D01*
X138802929Y-85936152D01*
X138802929Y-86317105D01*
X138850548Y-86412343D01*
X138898167Y-86459962D01*
X138993405Y-86507581D01*
X139183882Y-86507581D01*
X139279120Y-86459962D01*
X139326739Y-86412343D01*
X139374358Y-86317105D01*
X139374358Y-86079010D01*
X139326739Y-85983771D01*
X139279120Y-85936152D01*
X139183882Y-85888533D01*
X138993405Y-85888533D01*
X138898167Y-85936152D01*
X138850548Y-85983771D01*
X138802929Y-86079010D01*
X136764877Y-90790781D02*
X136764877Y-91505067D01*
X136717257Y-91647924D01*
X136622019Y-91743162D01*
X136479162Y-91790781D01*
X136383924Y-91790781D01*
X137241067Y-91790781D02*
X137241067Y-90790781D01*
X137622020Y-90790781D01*
X137717258Y-90838400D01*
X137764877Y-90886019D01*
X137812496Y-90981257D01*
X137812496Y-91124114D01*
X137764877Y-91219352D01*
X137717258Y-91266971D01*
X137622020Y-91314590D01*
X137241067Y-91314590D01*
X138193448Y-90886019D02*
X138241067Y-90838400D01*
X138336305Y-90790781D01*
X138574401Y-90790781D01*
X138669639Y-90838400D01*
X138717258Y-90886019D01*
X138764877Y-90981257D01*
X138764877Y-91076495D01*
X138717258Y-91219352D01*
X138145829Y-91790781D01*
X138764877Y-91790781D01*
X139098210Y-90790781D02*
X139764877Y-90790781D01*
X139336305Y-91790781D01*
X136675977Y-95731081D02*
X136675977Y-96445367D01*
X136628357Y-96588224D01*
X136533119Y-96683462D01*
X136390262Y-96731081D01*
X136295024Y-96731081D01*
X137152167Y-96731081D02*
X137152167Y-95731081D01*
X137533120Y-95731081D01*
X137628358Y-95778700D01*
X137675977Y-95826319D01*
X137723596Y-95921557D01*
X137723596Y-96064414D01*
X137675977Y-96159652D01*
X137628358Y-96207271D01*
X137533120Y-96254890D01*
X137152167Y-96254890D01*
X138104548Y-95826319D02*
X138152167Y-95778700D01*
X138247405Y-95731081D01*
X138485501Y-95731081D01*
X138580739Y-95778700D01*
X138628358Y-95826319D01*
X138675977Y-95921557D01*
X138675977Y-96016795D01*
X138628358Y-96159652D01*
X138056929Y-96731081D01*
X138675977Y-96731081D01*
X139247405Y-96159652D02*
X139152167Y-96112033D01*
X139104548Y-96064414D01*
X139056929Y-95969176D01*
X139056929Y-95921557D01*
X139104548Y-95826319D01*
X139152167Y-95778700D01*
X139247405Y-95731081D01*
X139437882Y-95731081D01*
X139533120Y-95778700D01*
X139580739Y-95826319D01*
X139628358Y-95921557D01*
X139628358Y-95969176D01*
X139580739Y-96064414D01*
X139533120Y-96112033D01*
X139437882Y-96159652D01*
X139247405Y-96159652D01*
X139152167Y-96207271D01*
X139104548Y-96254890D01*
X139056929Y-96350129D01*
X139056929Y-96540605D01*
X139104548Y-96635843D01*
X139152167Y-96683462D01*
X139247405Y-96731081D01*
X139437882Y-96731081D01*
X139533120Y-96683462D01*
X139580739Y-96635843D01*
X139628358Y-96540605D01*
X139628358Y-96350129D01*
X139580739Y-96254890D01*
X139533120Y-96207271D01*
X139437882Y-96159652D01*
X136764877Y-101192081D02*
X136764877Y-101906367D01*
X136717257Y-102049224D01*
X136622019Y-102144462D01*
X136479162Y-102192081D01*
X136383924Y-102192081D01*
X137241067Y-102192081D02*
X137241067Y-101192081D01*
X137622020Y-101192081D01*
X137717258Y-101239700D01*
X137764877Y-101287319D01*
X137812496Y-101382557D01*
X137812496Y-101525414D01*
X137764877Y-101620652D01*
X137717258Y-101668271D01*
X137622020Y-101715890D01*
X137241067Y-101715890D01*
X138193448Y-101287319D02*
X138241067Y-101239700D01*
X138336305Y-101192081D01*
X138574401Y-101192081D01*
X138669639Y-101239700D01*
X138717258Y-101287319D01*
X138764877Y-101382557D01*
X138764877Y-101477795D01*
X138717258Y-101620652D01*
X138145829Y-102192081D01*
X138764877Y-102192081D01*
X139241067Y-102192081D02*
X139431543Y-102192081D01*
X139526782Y-102144462D01*
X139574401Y-102096843D01*
X139669639Y-101953986D01*
X139717258Y-101763510D01*
X139717258Y-101382557D01*
X139669639Y-101287319D01*
X139622020Y-101239700D01*
X139526782Y-101192081D01*
X139336305Y-101192081D01*
X139241067Y-101239700D01*
X139193448Y-101287319D01*
X139145829Y-101382557D01*
X139145829Y-101620652D01*
X139193448Y-101715890D01*
X139241067Y-101763510D01*
X139336305Y-101811129D01*
X139526782Y-101811129D01*
X139622020Y-101763510D01*
X139669639Y-101715890D01*
X139717258Y-101620652D01*
X137031577Y-80452981D02*
X137031577Y-81167267D01*
X136983957Y-81310124D01*
X136888719Y-81405362D01*
X136745862Y-81452981D01*
X136650624Y-81452981D01*
X137507767Y-81452981D02*
X137507767Y-80452981D01*
X137888720Y-80452981D01*
X137983958Y-80500600D01*
X138031577Y-80548219D01*
X138079196Y-80643457D01*
X138079196Y-80786314D01*
X138031577Y-80881552D01*
X137983958Y-80929171D01*
X137888720Y-80976790D01*
X137507767Y-80976790D01*
X138460148Y-80548219D02*
X138507767Y-80500600D01*
X138603005Y-80452981D01*
X138841101Y-80452981D01*
X138936339Y-80500600D01*
X138983958Y-80548219D01*
X139031577Y-80643457D01*
X139031577Y-80738695D01*
X138983958Y-80881552D01*
X138412529Y-81452981D01*
X139031577Y-81452981D01*
X139936339Y-80452981D02*
X139460148Y-80452981D01*
X139412529Y-80929171D01*
X139460148Y-80881552D01*
X139555386Y-80833933D01*
X139793482Y-80833933D01*
X139888720Y-80881552D01*
X139936339Y-80929171D01*
X139983958Y-81024410D01*
X139983958Y-81262505D01*
X139936339Y-81357743D01*
X139888720Y-81405362D01*
X139793482Y-81452981D01*
X139555386Y-81452981D01*
X139460148Y-81405362D01*
X139412529Y-81357743D01*
X81049881Y-80980333D02*
X81764167Y-80980333D01*
X81907024Y-81027953D01*
X82002262Y-81123191D01*
X82049881Y-81266048D01*
X82049881Y-81361286D01*
X81049881Y-80075571D02*
X81049881Y-80266048D01*
X81097500Y-80361286D01*
X81145119Y-80408905D01*
X81287976Y-80504143D01*
X81478452Y-80551762D01*
X81859405Y-80551762D01*
X81954643Y-80504143D01*
X82002262Y-80456524D01*
X82049881Y-80361286D01*
X82049881Y-80170809D01*
X82002262Y-80075571D01*
X81954643Y-80027952D01*
X81859405Y-79980333D01*
X81621310Y-79980333D01*
X81526071Y-80027952D01*
X81478452Y-80075571D01*
X81430833Y-80170809D01*
X81430833Y-80361286D01*
X81478452Y-80456524D01*
X81526071Y-80504143D01*
X81621310Y-80551762D01*
X155487643Y-100941166D02*
X155535262Y-100988785D01*
X155582881Y-101131642D01*
X155582881Y-101226880D01*
X155535262Y-101369738D01*
X155440024Y-101464976D01*
X155344786Y-101512595D01*
X155154310Y-101560214D01*
X155011452Y-101560214D01*
X154820976Y-101512595D01*
X154725738Y-101464976D01*
X154630500Y-101369738D01*
X154582881Y-101226880D01*
X154582881Y-101131642D01*
X154630500Y-100988785D01*
X154678119Y-100941166D01*
X155582881Y-99988785D02*
X155582881Y-100560214D01*
X155582881Y-100274500D02*
X154582881Y-100274500D01*
X154725738Y-100369738D01*
X154820976Y-100464976D01*
X154868595Y-100560214D01*
X159869143Y-101195166D02*
X159916762Y-101242785D01*
X159964381Y-101385642D01*
X159964381Y-101480880D01*
X159916762Y-101623738D01*
X159821524Y-101718976D01*
X159726286Y-101766595D01*
X159535810Y-101814214D01*
X159392952Y-101814214D01*
X159202476Y-101766595D01*
X159107238Y-101718976D01*
X159012000Y-101623738D01*
X158964381Y-101480880D01*
X158964381Y-101385642D01*
X159012000Y-101242785D01*
X159059619Y-101195166D01*
X159059619Y-100814214D02*
X159012000Y-100766595D01*
X158964381Y-100671357D01*
X158964381Y-100433261D01*
X159012000Y-100338023D01*
X159059619Y-100290404D01*
X159154857Y-100242785D01*
X159250095Y-100242785D01*
X159392952Y-100290404D01*
X159964381Y-100861833D01*
X159964381Y-100242785D01*
X159206143Y-75858666D02*
X159253762Y-75906285D01*
X159301381Y-76049142D01*
X159301381Y-76144380D01*
X159253762Y-76287238D01*
X159158524Y-76382476D01*
X159063286Y-76430095D01*
X158872810Y-76477714D01*
X158729952Y-76477714D01*
X158539476Y-76430095D01*
X158444238Y-76382476D01*
X158349000Y-76287238D01*
X158301381Y-76144380D01*
X158301381Y-76049142D01*
X158349000Y-75906285D01*
X158396619Y-75858666D01*
X158301381Y-75525333D02*
X158301381Y-74906285D01*
X158682333Y-75239619D01*
X158682333Y-75096761D01*
X158729952Y-75001523D01*
X158777571Y-74953904D01*
X158872810Y-74906285D01*
X159110905Y-74906285D01*
X159206143Y-74953904D01*
X159253762Y-75001523D01*
X159301381Y-75096761D01*
X159301381Y-75382476D01*
X159253762Y-75477714D01*
X159206143Y-75525333D01*
X136183643Y-127230166D02*
X136231262Y-127277785D01*
X136278881Y-127420642D01*
X136278881Y-127515880D01*
X136231262Y-127658738D01*
X136136024Y-127753976D01*
X136040786Y-127801595D01*
X135850310Y-127849214D01*
X135707452Y-127849214D01*
X135516976Y-127801595D01*
X135421738Y-127753976D01*
X135326500Y-127658738D01*
X135278881Y-127515880D01*
X135278881Y-127420642D01*
X135326500Y-127277785D01*
X135374119Y-127230166D01*
X135278881Y-126896833D02*
X135278881Y-126230166D01*
X136278881Y-126658738D01*
X133544643Y-127230166D02*
X133592262Y-127277785D01*
X133639881Y-127420642D01*
X133639881Y-127515880D01*
X133592262Y-127658738D01*
X133497024Y-127753976D01*
X133401786Y-127801595D01*
X133211310Y-127849214D01*
X133068452Y-127849214D01*
X132877976Y-127801595D01*
X132782738Y-127753976D01*
X132687500Y-127658738D01*
X132639881Y-127515880D01*
X132639881Y-127420642D01*
X132687500Y-127277785D01*
X132735119Y-127230166D01*
X133068452Y-126658738D02*
X133020833Y-126753976D01*
X132973214Y-126801595D01*
X132877976Y-126849214D01*
X132830357Y-126849214D01*
X132735119Y-126801595D01*
X132687500Y-126753976D01*
X132639881Y-126658738D01*
X132639881Y-126468261D01*
X132687500Y-126373023D01*
X132735119Y-126325404D01*
X132830357Y-126277785D01*
X132877976Y-126277785D01*
X132973214Y-126325404D01*
X133020833Y-126373023D01*
X133068452Y-126468261D01*
X133068452Y-126658738D01*
X133116071Y-126753976D01*
X133163690Y-126801595D01*
X133258929Y-126849214D01*
X133449405Y-126849214D01*
X133544643Y-126801595D01*
X133592262Y-126753976D01*
X133639881Y-126658738D01*
X133639881Y-126468261D01*
X133592262Y-126373023D01*
X133544643Y-126325404D01*
X133449405Y-126277785D01*
X133258929Y-126277785D01*
X133163690Y-126325404D01*
X133116071Y-126373023D01*
X133068452Y-126468261D01*
X157837143Y-101068166D02*
X157884762Y-101115785D01*
X157932381Y-101258642D01*
X157932381Y-101353880D01*
X157884762Y-101496738D01*
X157789524Y-101591976D01*
X157694286Y-101639595D01*
X157503810Y-101687214D01*
X157360952Y-101687214D01*
X157170476Y-101639595D01*
X157075238Y-101591976D01*
X156980000Y-101496738D01*
X156932381Y-101353880D01*
X156932381Y-101258642D01*
X156980000Y-101115785D01*
X157027619Y-101068166D01*
X157932381Y-100591976D02*
X157932381Y-100401500D01*
X157884762Y-100306261D01*
X157837143Y-100258642D01*
X157694286Y-100163404D01*
X157503810Y-100115785D01*
X157122857Y-100115785D01*
X157027619Y-100163404D01*
X156980000Y-100211023D01*
X156932381Y-100306261D01*
X156932381Y-100496738D01*
X156980000Y-100591976D01*
X157027619Y-100639595D01*
X157122857Y-100687214D01*
X157360952Y-100687214D01*
X157456190Y-100639595D01*
X157503810Y-100591976D01*
X157551429Y-100496738D01*
X157551429Y-100306261D01*
X157503810Y-100211023D01*
X157456190Y-100163404D01*
X157360952Y-100115785D01*
X150816643Y-101544357D02*
X150864262Y-101591976D01*
X150911881Y-101734833D01*
X150911881Y-101830071D01*
X150864262Y-101972929D01*
X150769024Y-102068167D01*
X150673786Y-102115786D01*
X150483310Y-102163405D01*
X150340452Y-102163405D01*
X150149976Y-102115786D01*
X150054738Y-102068167D01*
X149959500Y-101972929D01*
X149911881Y-101830071D01*
X149911881Y-101734833D01*
X149959500Y-101591976D01*
X150007119Y-101544357D01*
X150911881Y-100591976D02*
X150911881Y-101163405D01*
X150911881Y-100877691D02*
X149911881Y-100877691D01*
X150054738Y-100972929D01*
X150149976Y-101068167D01*
X150197595Y-101163405D01*
X149911881Y-99972929D02*
X149911881Y-99877690D01*
X149959500Y-99782452D01*
X150007119Y-99734833D01*
X150102357Y-99687214D01*
X150292833Y-99639595D01*
X150530929Y-99639595D01*
X150721405Y-99687214D01*
X150816643Y-99734833D01*
X150864262Y-99782452D01*
X150911881Y-99877690D01*
X150911881Y-99972929D01*
X150864262Y-100068167D01*
X150816643Y-100115786D01*
X150721405Y-100163405D01*
X150530929Y-100211024D01*
X150292833Y-100211024D01*
X150102357Y-100163405D01*
X150007119Y-100115786D01*
X149959500Y-100068167D01*
X149911881Y-99972929D01*
X162012843Y-76449157D02*
X162060462Y-76496776D01*
X162108081Y-76639633D01*
X162108081Y-76734871D01*
X162060462Y-76877729D01*
X161965224Y-76972967D01*
X161869986Y-77020586D01*
X161679510Y-77068205D01*
X161536652Y-77068205D01*
X161346176Y-77020586D01*
X161250938Y-76972967D01*
X161155700Y-76877729D01*
X161108081Y-76734871D01*
X161108081Y-76639633D01*
X161155700Y-76496776D01*
X161203319Y-76449157D01*
X162108081Y-75496776D02*
X162108081Y-76068205D01*
X162108081Y-75782491D02*
X161108081Y-75782491D01*
X161250938Y-75877729D01*
X161346176Y-75972967D01*
X161393795Y-76068205D01*
X161108081Y-75163443D02*
X161108081Y-74544395D01*
X161489033Y-74877729D01*
X161489033Y-74734871D01*
X161536652Y-74639633D01*
X161584271Y-74592014D01*
X161679510Y-74544395D01*
X161917605Y-74544395D01*
X162012843Y-74592014D01*
X162060462Y-74639633D01*
X162108081Y-74734871D01*
X162108081Y-75020586D01*
X162060462Y-75115824D01*
X162012843Y-75163443D01*
X131004643Y-127706357D02*
X131052262Y-127753976D01*
X131099881Y-127896833D01*
X131099881Y-127992071D01*
X131052262Y-128134929D01*
X130957024Y-128230167D01*
X130861786Y-128277786D01*
X130671310Y-128325405D01*
X130528452Y-128325405D01*
X130337976Y-128277786D01*
X130242738Y-128230167D01*
X130147500Y-128134929D01*
X130099881Y-127992071D01*
X130099881Y-127896833D01*
X130147500Y-127753976D01*
X130195119Y-127706357D01*
X131099881Y-126753976D02*
X131099881Y-127325405D01*
X131099881Y-127039691D02*
X130099881Y-127039691D01*
X130242738Y-127134929D01*
X130337976Y-127230167D01*
X130385595Y-127325405D01*
X130099881Y-125849214D02*
X130099881Y-126325405D01*
X130576071Y-126373024D01*
X130528452Y-126325405D01*
X130480833Y-126230167D01*
X130480833Y-125992071D01*
X130528452Y-125896833D01*
X130576071Y-125849214D01*
X130671310Y-125801595D01*
X130909405Y-125801595D01*
X131004643Y-125849214D01*
X131052262Y-125896833D01*
X131099881Y-125992071D01*
X131099881Y-126230167D01*
X131052262Y-126325405D01*
X131004643Y-126373024D01*
X138723643Y-127515857D02*
X138771262Y-127563476D01*
X138818881Y-127706333D01*
X138818881Y-127801571D01*
X138771262Y-127944429D01*
X138676024Y-128039667D01*
X138580786Y-128087286D01*
X138390310Y-128134905D01*
X138247452Y-128134905D01*
X138056976Y-128087286D01*
X137961738Y-128039667D01*
X137866500Y-127944429D01*
X137818881Y-127801571D01*
X137818881Y-127706333D01*
X137866500Y-127563476D01*
X137914119Y-127515857D01*
X138818881Y-126563476D02*
X138818881Y-127134905D01*
X138818881Y-126849191D02*
X137818881Y-126849191D01*
X137961738Y-126944429D01*
X138056976Y-127039667D01*
X138104595Y-127134905D01*
X138818881Y-126087286D02*
X138818881Y-125896810D01*
X138771262Y-125801571D01*
X138723643Y-125753952D01*
X138580786Y-125658714D01*
X138390310Y-125611095D01*
X138009357Y-125611095D01*
X137914119Y-125658714D01*
X137866500Y-125706333D01*
X137818881Y-125801571D01*
X137818881Y-125992048D01*
X137866500Y-126087286D01*
X137914119Y-126134905D01*
X138009357Y-126182524D01*
X138247452Y-126182524D01*
X138342690Y-126134905D01*
X138390310Y-126087286D01*
X138437929Y-125992048D01*
X138437929Y-125801571D01*
X138390310Y-125706333D01*
X138342690Y-125658714D01*
X138247452Y-125611095D01*
X156722143Y-59062857D02*
X156769762Y-59110476D01*
X156817381Y-59253333D01*
X156817381Y-59348571D01*
X156769762Y-59491429D01*
X156674524Y-59586667D01*
X156579286Y-59634286D01*
X156388810Y-59681905D01*
X156245952Y-59681905D01*
X156055476Y-59634286D01*
X155960238Y-59586667D01*
X155865000Y-59491429D01*
X155817381Y-59348571D01*
X155817381Y-59253333D01*
X155865000Y-59110476D01*
X155912619Y-59062857D01*
X155912619Y-58681905D02*
X155865000Y-58634286D01*
X155817381Y-58539048D01*
X155817381Y-58300952D01*
X155865000Y-58205714D01*
X155912619Y-58158095D01*
X156007857Y-58110476D01*
X156103095Y-58110476D01*
X156245952Y-58158095D01*
X156817381Y-58729524D01*
X156817381Y-58110476D01*
X155912619Y-57729524D02*
X155865000Y-57681905D01*
X155817381Y-57586667D01*
X155817381Y-57348571D01*
X155865000Y-57253333D01*
X155912619Y-57205714D01*
X156007857Y-57158095D01*
X156103095Y-57158095D01*
X156245952Y-57205714D01*
X156817381Y-57777143D01*
X156817381Y-57158095D01*
X141073143Y-127452357D02*
X141120762Y-127499976D01*
X141168381Y-127642833D01*
X141168381Y-127738071D01*
X141120762Y-127880929D01*
X141025524Y-127976167D01*
X140930286Y-128023786D01*
X140739810Y-128071405D01*
X140596952Y-128071405D01*
X140406476Y-128023786D01*
X140311238Y-127976167D01*
X140216000Y-127880929D01*
X140168381Y-127738071D01*
X140168381Y-127642833D01*
X140216000Y-127499976D01*
X140263619Y-127452357D01*
X140263619Y-127071405D02*
X140216000Y-127023786D01*
X140168381Y-126928548D01*
X140168381Y-126690452D01*
X140216000Y-126595214D01*
X140263619Y-126547595D01*
X140358857Y-126499976D01*
X140454095Y-126499976D01*
X140596952Y-126547595D01*
X141168381Y-127119024D01*
X141168381Y-126499976D01*
X140168381Y-125595214D02*
X140168381Y-126071405D01*
X140644571Y-126119024D01*
X140596952Y-126071405D01*
X140549333Y-125976167D01*
X140549333Y-125738071D01*
X140596952Y-125642833D01*
X140644571Y-125595214D01*
X140739810Y-125547595D01*
X140977905Y-125547595D01*
X141073143Y-125595214D01*
X141120762Y-125642833D01*
X141168381Y-125738071D01*
X141168381Y-125976167D01*
X141120762Y-126071405D01*
X141073143Y-126119024D01*
X143895143Y-127706357D02*
X143942762Y-127753976D01*
X143990381Y-127896833D01*
X143990381Y-127992071D01*
X143942762Y-128134929D01*
X143847524Y-128230167D01*
X143752286Y-128277786D01*
X143561810Y-128325405D01*
X143418952Y-128325405D01*
X143228476Y-128277786D01*
X143133238Y-128230167D01*
X143038000Y-128134929D01*
X142990381Y-127992071D01*
X142990381Y-127896833D01*
X143038000Y-127753976D01*
X143085619Y-127706357D01*
X143085619Y-127325405D02*
X143038000Y-127277786D01*
X142990381Y-127182548D01*
X142990381Y-126944452D01*
X143038000Y-126849214D01*
X143085619Y-126801595D01*
X143180857Y-126753976D01*
X143276095Y-126753976D01*
X143418952Y-126801595D01*
X143990381Y-127373024D01*
X143990381Y-126753976D01*
X142990381Y-126420643D02*
X142990381Y-125753976D01*
X143990381Y-126182548D01*
X146498643Y-127706357D02*
X146546262Y-127753976D01*
X146593881Y-127896833D01*
X146593881Y-127992071D01*
X146546262Y-128134929D01*
X146451024Y-128230167D01*
X146355786Y-128277786D01*
X146165310Y-128325405D01*
X146022452Y-128325405D01*
X145831976Y-128277786D01*
X145736738Y-128230167D01*
X145641500Y-128134929D01*
X145593881Y-127992071D01*
X145593881Y-127896833D01*
X145641500Y-127753976D01*
X145689119Y-127706357D01*
X145593881Y-127373024D02*
X145593881Y-126753976D01*
X145974833Y-127087310D01*
X145974833Y-126944452D01*
X146022452Y-126849214D01*
X146070071Y-126801595D01*
X146165310Y-126753976D01*
X146403405Y-126753976D01*
X146498643Y-126801595D01*
X146546262Y-126849214D01*
X146593881Y-126944452D01*
X146593881Y-127230167D01*
X146546262Y-127325405D01*
X146498643Y-127373024D01*
X145593881Y-126420643D02*
X145593881Y-125801595D01*
X145974833Y-126134929D01*
X145974833Y-125992071D01*
X146022452Y-125896833D01*
X146070071Y-125849214D01*
X146165310Y-125801595D01*
X146403405Y-125801595D01*
X146498643Y-125849214D01*
X146546262Y-125896833D01*
X146593881Y-125992071D01*
X146593881Y-126277786D01*
X146546262Y-126373024D01*
X146498643Y-126420643D01*
X179157393Y-86395893D02*
X179109774Y-86443512D01*
X178966917Y-86491131D01*
X178871679Y-86491131D01*
X178728821Y-86443512D01*
X178633583Y-86348274D01*
X178585964Y-86253036D01*
X178538345Y-86062560D01*
X178538345Y-85919702D01*
X178585964Y-85729226D01*
X178633583Y-85633988D01*
X178728821Y-85538750D01*
X178871679Y-85491131D01*
X178966917Y-85491131D01*
X179109774Y-85538750D01*
X179157393Y-85586369D01*
X179490726Y-85491131D02*
X180109774Y-85491131D01*
X179776440Y-85872083D01*
X179919298Y-85872083D01*
X180014536Y-85919702D01*
X180062155Y-85967321D01*
X180109774Y-86062560D01*
X180109774Y-86300655D01*
X180062155Y-86395893D01*
X180014536Y-86443512D01*
X179919298Y-86491131D01*
X179633583Y-86491131D01*
X179538345Y-86443512D01*
X179490726Y-86395893D01*
X180681202Y-85919702D02*
X180585964Y-85872083D01*
X180538345Y-85824464D01*
X180490726Y-85729226D01*
X180490726Y-85681607D01*
X180538345Y-85586369D01*
X180585964Y-85538750D01*
X180681202Y-85491131D01*
X180871679Y-85491131D01*
X180966917Y-85538750D01*
X181014536Y-85586369D01*
X181062155Y-85681607D01*
X181062155Y-85729226D01*
X181014536Y-85824464D01*
X180966917Y-85872083D01*
X180871679Y-85919702D01*
X180681202Y-85919702D01*
X180585964Y-85967321D01*
X180538345Y-86014940D01*
X180490726Y-86110179D01*
X180490726Y-86300655D01*
X180538345Y-86395893D01*
X180585964Y-86443512D01*
X180681202Y-86491131D01*
X180871679Y-86491131D01*
X180966917Y-86443512D01*
X181014536Y-86395893D01*
X181062155Y-86300655D01*
X181062155Y-86110179D01*
X181014536Y-86014940D01*
X180966917Y-85967321D01*
X180871679Y-85919702D01*
X178839893Y-84645393D02*
X178792274Y-84693012D01*
X178649417Y-84740631D01*
X178554179Y-84740631D01*
X178411321Y-84693012D01*
X178316083Y-84597774D01*
X178268464Y-84502536D01*
X178220845Y-84312060D01*
X178220845Y-84169202D01*
X178268464Y-83978726D01*
X178316083Y-83883488D01*
X178411321Y-83788250D01*
X178554179Y-83740631D01*
X178649417Y-83740631D01*
X178792274Y-83788250D01*
X178839893Y-83835869D01*
X179173226Y-83740631D02*
X179792274Y-83740631D01*
X179458940Y-84121583D01*
X179601798Y-84121583D01*
X179697036Y-84169202D01*
X179744655Y-84216821D01*
X179792274Y-84312060D01*
X179792274Y-84550155D01*
X179744655Y-84645393D01*
X179697036Y-84693012D01*
X179601798Y-84740631D01*
X179316083Y-84740631D01*
X179220845Y-84693012D01*
X179173226Y-84645393D01*
X180268464Y-84740631D02*
X180458940Y-84740631D01*
X180554179Y-84693012D01*
X180601798Y-84645393D01*
X180697036Y-84502536D01*
X180744655Y-84312060D01*
X180744655Y-83931107D01*
X180697036Y-83835869D01*
X180649417Y-83788250D01*
X180554179Y-83740631D01*
X180363702Y-83740631D01*
X180268464Y-83788250D01*
X180220845Y-83835869D01*
X180173226Y-83931107D01*
X180173226Y-84169202D01*
X180220845Y-84264440D01*
X180268464Y-84312060D01*
X180363702Y-84359679D01*
X180554179Y-84359679D01*
X180649417Y-84312060D01*
X180697036Y-84264440D01*
X180744655Y-84169202D01*
X178808143Y-98683143D02*
X178760524Y-98730762D01*
X178617667Y-98778381D01*
X178522429Y-98778381D01*
X178379571Y-98730762D01*
X178284333Y-98635524D01*
X178236714Y-98540286D01*
X178189095Y-98349810D01*
X178189095Y-98206952D01*
X178236714Y-98016476D01*
X178284333Y-97921238D01*
X178379571Y-97826000D01*
X178522429Y-97778381D01*
X178617667Y-97778381D01*
X178760524Y-97826000D01*
X178808143Y-97873619D01*
X179665286Y-98111714D02*
X179665286Y-98778381D01*
X179427190Y-97730762D02*
X179189095Y-98445048D01*
X179808143Y-98445048D01*
X180093857Y-97778381D02*
X180712905Y-97778381D01*
X180379571Y-98159333D01*
X180522429Y-98159333D01*
X180617667Y-98206952D01*
X180665286Y-98254571D01*
X180712905Y-98349810D01*
X180712905Y-98587905D01*
X180665286Y-98683143D01*
X180617667Y-98730762D01*
X180522429Y-98778381D01*
X180236714Y-98778381D01*
X180141476Y-98730762D01*
X180093857Y-98683143D01*
X179316143Y-109922643D02*
X179268524Y-109970262D01*
X179125667Y-110017881D01*
X179030429Y-110017881D01*
X178887571Y-109970262D01*
X178792333Y-109875024D01*
X178744714Y-109779786D01*
X178697095Y-109589310D01*
X178697095Y-109446452D01*
X178744714Y-109255976D01*
X178792333Y-109160738D01*
X178887571Y-109065500D01*
X179030429Y-109017881D01*
X179125667Y-109017881D01*
X179268524Y-109065500D01*
X179316143Y-109113119D01*
X180173286Y-109351214D02*
X180173286Y-110017881D01*
X179935190Y-108970262D02*
X179697095Y-109684548D01*
X180316143Y-109684548D01*
X181125667Y-109351214D02*
X181125667Y-110017881D01*
X180887571Y-108970262D02*
X180649476Y-109684548D01*
X181268524Y-109684548D01*
X145534143Y-60646643D02*
X145486524Y-60694262D01*
X145343667Y-60741881D01*
X145248429Y-60741881D01*
X145105571Y-60694262D01*
X145010333Y-60599024D01*
X144962714Y-60503786D01*
X144915095Y-60313310D01*
X144915095Y-60170452D01*
X144962714Y-59979976D01*
X145010333Y-59884738D01*
X145105571Y-59789500D01*
X145248429Y-59741881D01*
X145343667Y-59741881D01*
X145486524Y-59789500D01*
X145534143Y-59837119D01*
X146010333Y-60741881D02*
X146200809Y-60741881D01*
X146296048Y-60694262D01*
X146343667Y-60646643D01*
X146438905Y-60503786D01*
X146486524Y-60313310D01*
X146486524Y-59932357D01*
X146438905Y-59837119D01*
X146391286Y-59789500D01*
X146296048Y-59741881D01*
X146105571Y-59741881D01*
X146010333Y-59789500D01*
X145962714Y-59837119D01*
X145915095Y-59932357D01*
X145915095Y-60170452D01*
X145962714Y-60265690D01*
X146010333Y-60313310D01*
X146105571Y-60360929D01*
X146296048Y-60360929D01*
X146391286Y-60313310D01*
X146438905Y-60265690D01*
X146486524Y-60170452D01*
X147105571Y-59741881D02*
X147200810Y-59741881D01*
X147296048Y-59789500D01*
X147343667Y-59837119D01*
X147391286Y-59932357D01*
X147438905Y-60122833D01*
X147438905Y-60360929D01*
X147391286Y-60551405D01*
X147343667Y-60646643D01*
X147296048Y-60694262D01*
X147200810Y-60741881D01*
X147105571Y-60741881D01*
X147010333Y-60694262D01*
X146962714Y-60646643D01*
X146915095Y-60551405D01*
X146867476Y-60360929D01*
X146867476Y-60122833D01*
X146915095Y-59932357D01*
X146962714Y-59837119D01*
X147010333Y-59789500D01*
X147105571Y-59741881D01*
X153102643Y-101544357D02*
X153150262Y-101591976D01*
X153197881Y-101734833D01*
X153197881Y-101830071D01*
X153150262Y-101972929D01*
X153055024Y-102068167D01*
X152959786Y-102115786D01*
X152769310Y-102163405D01*
X152626452Y-102163405D01*
X152435976Y-102115786D01*
X152340738Y-102068167D01*
X152245500Y-101972929D01*
X152197881Y-101830071D01*
X152197881Y-101734833D01*
X152245500Y-101591976D01*
X152293119Y-101544357D01*
X153197881Y-101068167D02*
X153197881Y-100877691D01*
X153150262Y-100782452D01*
X153102643Y-100734833D01*
X152959786Y-100639595D01*
X152769310Y-100591976D01*
X152388357Y-100591976D01*
X152293119Y-100639595D01*
X152245500Y-100687214D01*
X152197881Y-100782452D01*
X152197881Y-100972929D01*
X152245500Y-101068167D01*
X152293119Y-101115786D01*
X152388357Y-101163405D01*
X152626452Y-101163405D01*
X152721690Y-101115786D01*
X152769310Y-101068167D01*
X152816929Y-100972929D01*
X152816929Y-100782452D01*
X152769310Y-100687214D01*
X152721690Y-100639595D01*
X152626452Y-100591976D01*
X152197881Y-99687214D02*
X152197881Y-100163405D01*
X152674071Y-100211024D01*
X152626452Y-100163405D01*
X152578833Y-100068167D01*
X152578833Y-99830071D01*
X152626452Y-99734833D01*
X152674071Y-99687214D01*
X152769310Y-99639595D01*
X153007405Y-99639595D01*
X153102643Y-99687214D01*
X153150262Y-99734833D01*
X153197881Y-99830071D01*
X153197881Y-100068167D01*
X153150262Y-100163405D01*
X153102643Y-100211024D01*
X120775505Y-82678281D02*
X120775505Y-81678281D01*
X121013600Y-81678281D01*
X121156458Y-81725900D01*
X121251696Y-81821138D01*
X121299315Y-81916376D01*
X121346934Y-82106852D01*
X121346934Y-82249710D01*
X121299315Y-82440186D01*
X121251696Y-82535424D01*
X121156458Y-82630662D01*
X121013600Y-82678281D01*
X120775505Y-82678281D01*
X122299315Y-82678281D02*
X121727886Y-82678281D01*
X122013600Y-82678281D02*
X122013600Y-81678281D01*
X121918362Y-81821138D01*
X121823124Y-81916376D01*
X121727886Y-81963995D01*
X121397805Y-74829681D02*
X121397805Y-73829681D01*
X121635900Y-73829681D01*
X121778758Y-73877300D01*
X121873996Y-73972538D01*
X121921615Y-74067776D01*
X121969234Y-74258252D01*
X121969234Y-74401110D01*
X121921615Y-74591586D01*
X121873996Y-74686824D01*
X121778758Y-74782062D01*
X121635900Y-74829681D01*
X121397805Y-74829681D01*
X122350186Y-73924919D02*
X122397805Y-73877300D01*
X122493043Y-73829681D01*
X122731139Y-73829681D01*
X122826377Y-73877300D01*
X122873996Y-73924919D01*
X122921615Y-74020157D01*
X122921615Y-74115395D01*
X122873996Y-74258252D01*
X122302567Y-74829681D01*
X122921615Y-74829681D01*
X121156505Y-86564481D02*
X121156505Y-85564481D01*
X121394600Y-85564481D01*
X121537458Y-85612100D01*
X121632696Y-85707338D01*
X121680315Y-85802576D01*
X121727934Y-85993052D01*
X121727934Y-86135910D01*
X121680315Y-86326386D01*
X121632696Y-86421624D01*
X121537458Y-86516862D01*
X121394600Y-86564481D01*
X121156505Y-86564481D01*
X122061267Y-85564481D02*
X122680315Y-85564481D01*
X122346981Y-85945433D01*
X122489839Y-85945433D01*
X122585077Y-85993052D01*
X122632696Y-86040671D01*
X122680315Y-86135910D01*
X122680315Y-86374005D01*
X122632696Y-86469243D01*
X122585077Y-86516862D01*
X122489839Y-86564481D01*
X122204124Y-86564481D01*
X122108886Y-86516862D01*
X122061267Y-86469243D01*
X120966005Y-94692481D02*
X120966005Y-93692481D01*
X121204100Y-93692481D01*
X121346958Y-93740100D01*
X121442196Y-93835338D01*
X121489815Y-93930576D01*
X121537434Y-94121052D01*
X121537434Y-94263910D01*
X121489815Y-94454386D01*
X121442196Y-94549624D01*
X121346958Y-94644862D01*
X121204100Y-94692481D01*
X120966005Y-94692481D01*
X122394577Y-94025814D02*
X122394577Y-94692481D01*
X122156481Y-93644862D02*
X121918386Y-94359148D01*
X122537434Y-94359148D01*
X121105705Y-71210181D02*
X121105705Y-70210181D01*
X121343800Y-70210181D01*
X121486658Y-70257800D01*
X121581896Y-70353038D01*
X121629515Y-70448276D01*
X121677134Y-70638752D01*
X121677134Y-70781610D01*
X121629515Y-70972086D01*
X121581896Y-71067324D01*
X121486658Y-71162562D01*
X121343800Y-71210181D01*
X121105705Y-71210181D01*
X122581896Y-70210181D02*
X122105705Y-70210181D01*
X122058086Y-70686371D01*
X122105705Y-70638752D01*
X122200943Y-70591133D01*
X122439039Y-70591133D01*
X122534277Y-70638752D01*
X122581896Y-70686371D01*
X122629515Y-70781610D01*
X122629515Y-71019705D01*
X122581896Y-71114943D01*
X122534277Y-71162562D01*
X122439039Y-71210181D01*
X122200943Y-71210181D01*
X122105705Y-71162562D01*
X122058086Y-71114943D01*
X121283505Y-66993781D02*
X121283505Y-65993781D01*
X121521600Y-65993781D01*
X121664458Y-66041400D01*
X121759696Y-66136638D01*
X121807315Y-66231876D01*
X121854934Y-66422352D01*
X121854934Y-66565210D01*
X121807315Y-66755686D01*
X121759696Y-66850924D01*
X121664458Y-66946162D01*
X121521600Y-66993781D01*
X121283505Y-66993781D01*
X122712077Y-65993781D02*
X122521600Y-65993781D01*
X122426362Y-66041400D01*
X122378743Y-66089019D01*
X122283505Y-66231876D01*
X122235886Y-66422352D01*
X122235886Y-66803305D01*
X122283505Y-66898543D01*
X122331124Y-66946162D01*
X122426362Y-66993781D01*
X122616839Y-66993781D01*
X122712077Y-66946162D01*
X122759696Y-66898543D01*
X122807315Y-66803305D01*
X122807315Y-66565210D01*
X122759696Y-66469971D01*
X122712077Y-66422352D01*
X122616839Y-66374733D01*
X122426362Y-66374733D01*
X122331124Y-66422352D01*
X122283505Y-66469971D01*
X122235886Y-66565210D01*
X120635805Y-90679281D02*
X120635805Y-89679281D01*
X120873900Y-89679281D01*
X121016758Y-89726900D01*
X121111996Y-89822138D01*
X121159615Y-89917376D01*
X121207234Y-90107852D01*
X121207234Y-90250710D01*
X121159615Y-90441186D01*
X121111996Y-90536424D01*
X121016758Y-90631662D01*
X120873900Y-90679281D01*
X120635805Y-90679281D01*
X121540567Y-89679281D02*
X122207234Y-89679281D01*
X121778662Y-90679281D01*
X121054905Y-59380381D02*
X121054905Y-58380381D01*
X121293000Y-58380381D01*
X121435858Y-58428000D01*
X121531096Y-58523238D01*
X121578715Y-58618476D01*
X121626334Y-58808952D01*
X121626334Y-58951810D01*
X121578715Y-59142286D01*
X121531096Y-59237524D01*
X121435858Y-59332762D01*
X121293000Y-59380381D01*
X121054905Y-59380381D01*
X122197762Y-58808952D02*
X122102524Y-58761333D01*
X122054905Y-58713714D01*
X122007286Y-58618476D01*
X122007286Y-58570857D01*
X122054905Y-58475619D01*
X122102524Y-58428000D01*
X122197762Y-58380381D01*
X122388239Y-58380381D01*
X122483477Y-58428000D01*
X122531096Y-58475619D01*
X122578715Y-58570857D01*
X122578715Y-58618476D01*
X122531096Y-58713714D01*
X122483477Y-58761333D01*
X122388239Y-58808952D01*
X122197762Y-58808952D01*
X122102524Y-58856571D01*
X122054905Y-58904190D01*
X122007286Y-58999429D01*
X122007286Y-59189905D01*
X122054905Y-59285143D01*
X122102524Y-59332762D01*
X122197762Y-59380381D01*
X122388239Y-59380381D01*
X122483477Y-59332762D01*
X122531096Y-59285143D01*
X122578715Y-59189905D01*
X122578715Y-58999429D01*
X122531096Y-58904190D01*
X122483477Y-58856571D01*
X122388239Y-58808952D01*
X120991405Y-63120281D02*
X120991405Y-62120281D01*
X121229500Y-62120281D01*
X121372358Y-62167900D01*
X121467596Y-62263138D01*
X121515215Y-62358376D01*
X121562834Y-62548852D01*
X121562834Y-62691710D01*
X121515215Y-62882186D01*
X121467596Y-62977424D01*
X121372358Y-63072662D01*
X121229500Y-63120281D01*
X120991405Y-63120281D01*
X122039024Y-63120281D02*
X122229500Y-63120281D01*
X122324739Y-63072662D01*
X122372358Y-63025043D01*
X122467596Y-62882186D01*
X122515215Y-62691710D01*
X122515215Y-62310757D01*
X122467596Y-62215519D01*
X122419977Y-62167900D01*
X122324739Y-62120281D01*
X122134262Y-62120281D01*
X122039024Y-62167900D01*
X121991405Y-62215519D01*
X121943786Y-62310757D01*
X121943786Y-62548852D01*
X121991405Y-62644090D01*
X122039024Y-62691710D01*
X122134262Y-62739329D01*
X122324739Y-62739329D01*
X122419977Y-62691710D01*
X122467596Y-62644090D01*
X122515215Y-62548852D01*
X120451714Y-78588881D02*
X120451714Y-77588881D01*
X120689809Y-77588881D01*
X120832667Y-77636500D01*
X120927905Y-77731738D01*
X120975524Y-77826976D01*
X121023143Y-78017452D01*
X121023143Y-78160310D01*
X120975524Y-78350786D01*
X120927905Y-78446024D01*
X120832667Y-78541262D01*
X120689809Y-78588881D01*
X120451714Y-78588881D01*
X121975524Y-78588881D02*
X121404095Y-78588881D01*
X121689809Y-78588881D02*
X121689809Y-77588881D01*
X121594571Y-77731738D01*
X121499333Y-77826976D01*
X121404095Y-77874595D01*
X122594571Y-77588881D02*
X122689810Y-77588881D01*
X122785048Y-77636500D01*
X122832667Y-77684119D01*
X122880286Y-77779357D01*
X122927905Y-77969833D01*
X122927905Y-78207929D01*
X122880286Y-78398405D01*
X122832667Y-78493643D01*
X122785048Y-78541262D01*
X122689810Y-78588881D01*
X122594571Y-78588881D01*
X122499333Y-78541262D01*
X122451714Y-78493643D01*
X122404095Y-78398405D01*
X122356476Y-78207929D01*
X122356476Y-77969833D01*
X122404095Y-77779357D01*
X122451714Y-77684119D01*
X122499333Y-77636500D01*
X122594571Y-77588881D01*
X176299964Y-78938631D02*
X176299964Y-77938631D01*
X176538059Y-77938631D01*
X176680917Y-77986250D01*
X176776155Y-78081488D01*
X176823774Y-78176726D01*
X176871393Y-78367202D01*
X176871393Y-78510060D01*
X176823774Y-78700536D01*
X176776155Y-78795774D01*
X176680917Y-78891012D01*
X176538059Y-78938631D01*
X176299964Y-78938631D01*
X177823774Y-78938631D02*
X177252345Y-78938631D01*
X177538059Y-78938631D02*
X177538059Y-77938631D01*
X177442821Y-78081488D01*
X177347583Y-78176726D01*
X177252345Y-78224345D01*
X178157107Y-77938631D02*
X178776155Y-77938631D01*
X178442821Y-78319583D01*
X178585679Y-78319583D01*
X178680917Y-78367202D01*
X178728536Y-78414821D01*
X178776155Y-78510060D01*
X178776155Y-78748155D01*
X178728536Y-78843393D01*
X178680917Y-78891012D01*
X178585679Y-78938631D01*
X178299964Y-78938631D01*
X178204726Y-78891012D01*
X178157107Y-78843393D01*
X176331714Y-90368381D02*
X176331714Y-89368381D01*
X176569809Y-89368381D01*
X176712667Y-89416000D01*
X176807905Y-89511238D01*
X176855524Y-89606476D01*
X176903143Y-89796952D01*
X176903143Y-89939810D01*
X176855524Y-90130286D01*
X176807905Y-90225524D01*
X176712667Y-90320762D01*
X176569809Y-90368381D01*
X176331714Y-90368381D01*
X177855524Y-90368381D02*
X177284095Y-90368381D01*
X177569809Y-90368381D02*
X177569809Y-89368381D01*
X177474571Y-89511238D01*
X177379333Y-89606476D01*
X177284095Y-89654095D01*
X178712667Y-89701714D02*
X178712667Y-90368381D01*
X178474571Y-89320762D02*
X178236476Y-90035048D01*
X178855524Y-90035048D01*
X177284214Y-102084381D02*
X177284214Y-101084381D01*
X177522309Y-101084381D01*
X177665167Y-101132000D01*
X177760405Y-101227238D01*
X177808024Y-101322476D01*
X177855643Y-101512952D01*
X177855643Y-101655810D01*
X177808024Y-101846286D01*
X177760405Y-101941524D01*
X177665167Y-102036762D01*
X177522309Y-102084381D01*
X177284214Y-102084381D01*
X178808024Y-102084381D02*
X178236595Y-102084381D01*
X178522309Y-102084381D02*
X178522309Y-101084381D01*
X178427071Y-101227238D01*
X178331833Y-101322476D01*
X178236595Y-101370095D01*
X179712786Y-101084381D02*
X179236595Y-101084381D01*
X179188976Y-101560571D01*
X179236595Y-101512952D01*
X179331833Y-101465333D01*
X179569929Y-101465333D01*
X179665167Y-101512952D01*
X179712786Y-101560571D01*
X179760405Y-101655810D01*
X179760405Y-101893905D01*
X179712786Y-101989143D01*
X179665167Y-102036762D01*
X179569929Y-102084381D01*
X179331833Y-102084381D01*
X179236595Y-102036762D01*
X179188976Y-101989143D01*
X150455381Y-76715833D02*
X151169667Y-76715833D01*
X151312524Y-76763453D01*
X151407762Y-76858691D01*
X151455381Y-77001548D01*
X151455381Y-77096786D01*
X151455381Y-76239643D02*
X150455381Y-76239643D01*
X150455381Y-75858690D01*
X150503000Y-75763452D01*
X150550619Y-75715833D01*
X150645857Y-75668214D01*
X150788714Y-75668214D01*
X150883952Y-75715833D01*
X150931571Y-75763452D01*
X150979190Y-75858690D01*
X150979190Y-76239643D01*
X151455381Y-74715833D02*
X151455381Y-75287262D01*
X151455381Y-75001548D02*
X150455381Y-75001548D01*
X150598238Y-75096786D01*
X150693476Y-75192024D01*
X150741095Y-75287262D01*
X148296381Y-128404833D02*
X149010667Y-128404833D01*
X149153524Y-128452453D01*
X149248762Y-128547691D01*
X149296381Y-128690548D01*
X149296381Y-128785786D01*
X149296381Y-127928643D02*
X148296381Y-127928643D01*
X148296381Y-127547690D01*
X148344000Y-127452452D01*
X148391619Y-127404833D01*
X148486857Y-127357214D01*
X148629714Y-127357214D01*
X148724952Y-127404833D01*
X148772571Y-127452452D01*
X148820190Y-127547690D01*
X148820190Y-127928643D01*
X148391619Y-126976262D02*
X148344000Y-126928643D01*
X148296381Y-126833405D01*
X148296381Y-126595309D01*
X148344000Y-126500071D01*
X148391619Y-126452452D01*
X148486857Y-126404833D01*
X148582095Y-126404833D01*
X148724952Y-126452452D01*
X149296381Y-127023881D01*
X149296381Y-126404833D01*
X148279381Y-133726333D02*
X148993667Y-133726333D01*
X149136524Y-133773953D01*
X149231762Y-133869191D01*
X149279381Y-134012048D01*
X149279381Y-134107286D01*
X149279381Y-133250143D02*
X148279381Y-133250143D01*
X148279381Y-132869190D01*
X148327000Y-132773952D01*
X148374619Y-132726333D01*
X148469857Y-132678714D01*
X148612714Y-132678714D01*
X148707952Y-132726333D01*
X148755571Y-132773952D01*
X148803190Y-132869190D01*
X148803190Y-133250143D01*
X148279381Y-132345381D02*
X148279381Y-131726333D01*
X148660333Y-132059667D01*
X148660333Y-131916809D01*
X148707952Y-131821571D01*
X148755571Y-131773952D01*
X148850810Y-131726333D01*
X149088905Y-131726333D01*
X149184143Y-131773952D01*
X149231762Y-131821571D01*
X149279381Y-131916809D01*
X149279381Y-132202524D01*
X149231762Y-132297762D01*
X149184143Y-132345381D01*
X169981667Y-92162381D02*
X169981667Y-92876667D01*
X169934047Y-93019524D01*
X169838809Y-93114762D01*
X169695952Y-93162381D01*
X169600714Y-93162381D01*
X170457857Y-93162381D02*
X170457857Y-92162381D01*
X170838810Y-92162381D01*
X170934048Y-92210000D01*
X170981667Y-92257619D01*
X171029286Y-92352857D01*
X171029286Y-92495714D01*
X170981667Y-92590952D01*
X170934048Y-92638571D01*
X170838810Y-92686190D01*
X170457857Y-92686190D01*
X171886429Y-92495714D02*
X171886429Y-93162381D01*
X171648333Y-92114762D02*
X171410238Y-92829048D01*
X172029286Y-92829048D01*
X155325867Y-126109481D02*
X155325867Y-126823767D01*
X155278247Y-126966624D01*
X155183009Y-127061862D01*
X155040152Y-127109481D01*
X154944914Y-127109481D01*
X155802057Y-127109481D02*
X155802057Y-126109481D01*
X156183010Y-126109481D01*
X156278248Y-126157100D01*
X156325867Y-126204719D01*
X156373486Y-126299957D01*
X156373486Y-126442814D01*
X156325867Y-126538052D01*
X156278248Y-126585671D01*
X156183010Y-126633290D01*
X155802057Y-126633290D01*
X157278248Y-126109481D02*
X156802057Y-126109481D01*
X156754438Y-126585671D01*
X156802057Y-126538052D01*
X156897295Y-126490433D01*
X157135391Y-126490433D01*
X157230629Y-126538052D01*
X157278248Y-126585671D01*
X157325867Y-126680910D01*
X157325867Y-126919005D01*
X157278248Y-127014243D01*
X157230629Y-127061862D01*
X157135391Y-127109481D01*
X156897295Y-127109481D01*
X156802057Y-127061862D01*
X156754438Y-127014243D01*
X142708477Y-59078881D02*
X142708477Y-59793167D01*
X142660857Y-59936024D01*
X142565619Y-60031262D01*
X142422762Y-60078881D01*
X142327524Y-60078881D01*
X143184667Y-60078881D02*
X143184667Y-59078881D01*
X143565620Y-59078881D01*
X143660858Y-59126500D01*
X143708477Y-59174119D01*
X143756096Y-59269357D01*
X143756096Y-59412214D01*
X143708477Y-59507452D01*
X143660858Y-59555071D01*
X143565620Y-59602690D01*
X143184667Y-59602690D01*
X144708477Y-60078881D02*
X144137048Y-60078881D01*
X144422762Y-60078881D02*
X144422762Y-59078881D01*
X144327524Y-59221738D01*
X144232286Y-59316976D01*
X144137048Y-59364595D01*
X145613239Y-59078881D02*
X145137048Y-59078881D01*
X145089429Y-59555071D01*
X145137048Y-59507452D01*
X145232286Y-59459833D01*
X145470382Y-59459833D01*
X145565620Y-59507452D01*
X145613239Y-59555071D01*
X145660858Y-59650310D01*
X145660858Y-59888405D01*
X145613239Y-59983643D01*
X145565620Y-60031262D01*
X145470382Y-60078881D01*
X145232286Y-60078881D01*
X145137048Y-60031262D01*
X145089429Y-59983643D01*
X155408477Y-61872881D02*
X155408477Y-62587167D01*
X155360857Y-62730024D01*
X155265619Y-62825262D01*
X155122762Y-62872881D01*
X155027524Y-62872881D01*
X155884667Y-62872881D02*
X155884667Y-61872881D01*
X156265620Y-61872881D01*
X156360858Y-61920500D01*
X156408477Y-61968119D01*
X156456096Y-62063357D01*
X156456096Y-62206214D01*
X156408477Y-62301452D01*
X156360858Y-62349071D01*
X156265620Y-62396690D01*
X155884667Y-62396690D01*
X157408477Y-62872881D02*
X156837048Y-62872881D01*
X157122762Y-62872881D02*
X157122762Y-61872881D01*
X157027524Y-62015738D01*
X156932286Y-62110976D01*
X156837048Y-62158595D01*
X157741810Y-61872881D02*
X158408477Y-61872881D01*
X157979905Y-62872881D01*
X160678977Y-71969381D02*
X160678977Y-72683667D01*
X160631357Y-72826524D01*
X160536119Y-72921762D01*
X160393262Y-72969381D01*
X160298024Y-72969381D01*
X161155167Y-72969381D02*
X161155167Y-71969381D01*
X161536120Y-71969381D01*
X161631358Y-72017000D01*
X161678977Y-72064619D01*
X161726596Y-72159857D01*
X161726596Y-72302714D01*
X161678977Y-72397952D01*
X161631358Y-72445571D01*
X161536120Y-72493190D01*
X161155167Y-72493190D01*
X162107548Y-72064619D02*
X162155167Y-72017000D01*
X162250405Y-71969381D01*
X162488501Y-71969381D01*
X162583739Y-72017000D01*
X162631358Y-72064619D01*
X162678977Y-72159857D01*
X162678977Y-72255095D01*
X162631358Y-72397952D01*
X162059929Y-72969381D01*
X162678977Y-72969381D01*
X163631358Y-72969381D02*
X163059929Y-72969381D01*
X163345643Y-72969381D02*
X163345643Y-71969381D01*
X163250405Y-72112238D01*
X163155167Y-72207476D01*
X163059929Y-72255095D01*
X161698381Y-66992286D02*
X160698381Y-66992286D01*
X160698381Y-66611333D01*
X160746000Y-66516095D01*
X160793619Y-66468476D01*
X160888857Y-66420857D01*
X161031714Y-66420857D01*
X161126952Y-66468476D01*
X161174571Y-66516095D01*
X161222190Y-66611333D01*
X161222190Y-66992286D01*
X161650762Y-66039905D02*
X161698381Y-65897048D01*
X161698381Y-65658952D01*
X161650762Y-65563714D01*
X161603143Y-65516095D01*
X161507905Y-65468476D01*
X161412667Y-65468476D01*
X161317429Y-65516095D01*
X161269810Y-65563714D01*
X161222190Y-65658952D01*
X161174571Y-65849429D01*
X161126952Y-65944667D01*
X161079333Y-65992286D01*
X160984095Y-66039905D01*
X160888857Y-66039905D01*
X160793619Y-65992286D01*
X160746000Y-65944667D01*
X160698381Y-65849429D01*
X160698381Y-65611333D01*
X160746000Y-65468476D01*
X161698381Y-65039905D02*
X160698381Y-65039905D01*
X161698381Y-64468476D02*
X161126952Y-64897048D01*
X160698381Y-64468476D02*
X161269810Y-65039905D01*
X161698381Y-63516095D02*
X161698381Y-64087524D01*
X161698381Y-63801810D02*
X160698381Y-63801810D01*
X160841238Y-63897048D01*
X160936476Y-63992286D01*
X160984095Y-64087524D01*
X141886381Y-141096786D02*
X140886381Y-141096786D01*
X140886381Y-140715833D01*
X140934000Y-140620595D01*
X140981619Y-140572976D01*
X141076857Y-140525357D01*
X141219714Y-140525357D01*
X141314952Y-140572976D01*
X141362571Y-140620595D01*
X141410190Y-140715833D01*
X141410190Y-141096786D01*
X141838762Y-140144405D02*
X141886381Y-140001548D01*
X141886381Y-139763452D01*
X141838762Y-139668214D01*
X141791143Y-139620595D01*
X141695905Y-139572976D01*
X141600667Y-139572976D01*
X141505429Y-139620595D01*
X141457810Y-139668214D01*
X141410190Y-139763452D01*
X141362571Y-139953929D01*
X141314952Y-140049167D01*
X141267333Y-140096786D01*
X141172095Y-140144405D01*
X141076857Y-140144405D01*
X140981619Y-140096786D01*
X140934000Y-140049167D01*
X140886381Y-139953929D01*
X140886381Y-139715833D01*
X140934000Y-139572976D01*
X141886381Y-139144405D02*
X140886381Y-139144405D01*
X141886381Y-138572976D02*
X141314952Y-139001548D01*
X140886381Y-138572976D02*
X141457810Y-139144405D01*
X140886381Y-138239643D02*
X140886381Y-137620595D01*
X141267333Y-137953929D01*
X141267333Y-137811071D01*
X141314952Y-137715833D01*
X141362571Y-137668214D01*
X141457810Y-137620595D01*
X141695905Y-137620595D01*
X141791143Y-137668214D01*
X141838762Y-137715833D01*
X141886381Y-137811071D01*
X141886381Y-138096786D01*
X141838762Y-138192024D01*
X141791143Y-138239643D01*
X106033381Y-59435786D02*
X105033381Y-59435786D01*
X105033381Y-59054833D01*
X105081000Y-58959595D01*
X105128619Y-58911976D01*
X105223857Y-58864357D01*
X105366714Y-58864357D01*
X105461952Y-58911976D01*
X105509571Y-58959595D01*
X105557190Y-59054833D01*
X105557190Y-59435786D01*
X105985762Y-58483405D02*
X106033381Y-58340548D01*
X106033381Y-58102452D01*
X105985762Y-58007214D01*
X105938143Y-57959595D01*
X105842905Y-57911976D01*
X105747667Y-57911976D01*
X105652429Y-57959595D01*
X105604810Y-58007214D01*
X105557190Y-58102452D01*
X105509571Y-58292929D01*
X105461952Y-58388167D01*
X105414333Y-58435786D01*
X105319095Y-58483405D01*
X105223857Y-58483405D01*
X105128619Y-58435786D01*
X105081000Y-58388167D01*
X105033381Y-58292929D01*
X105033381Y-58054833D01*
X105081000Y-57911976D01*
X106033381Y-57483405D02*
X105033381Y-57483405D01*
X106033381Y-56911976D02*
X105461952Y-57340548D01*
X105033381Y-56911976D02*
X105604810Y-57483405D01*
X105366714Y-56054833D02*
X106033381Y-56054833D01*
X104985762Y-56292929D02*
X105700048Y-56531024D01*
X105700048Y-55911976D01*
X167981334Y-58476881D02*
X167648000Y-58000690D01*
X167409905Y-58476881D02*
X167409905Y-57476881D01*
X167790858Y-57476881D01*
X167886096Y-57524500D01*
X167933715Y-57572119D01*
X167981334Y-57667357D01*
X167981334Y-57810214D01*
X167933715Y-57905452D01*
X167886096Y-57953071D01*
X167790858Y-58000690D01*
X167409905Y-58000690D01*
X168933715Y-58476881D02*
X168362286Y-58476881D01*
X168648000Y-58476881D02*
X168648000Y-57476881D01*
X168552762Y-57619738D01*
X168457524Y-57714976D01*
X168362286Y-57762595D01*
X171008381Y-60648666D02*
X170532190Y-60982000D01*
X171008381Y-61220095D02*
X170008381Y-61220095D01*
X170008381Y-60839142D01*
X170056000Y-60743904D01*
X170103619Y-60696285D01*
X170198857Y-60648666D01*
X170341714Y-60648666D01*
X170436952Y-60696285D01*
X170484571Y-60743904D01*
X170532190Y-60839142D01*
X170532190Y-61220095D01*
X170103619Y-60267714D02*
X170056000Y-60220095D01*
X170008381Y-60124857D01*
X170008381Y-59886761D01*
X170056000Y-59791523D01*
X170103619Y-59743904D01*
X170198857Y-59696285D01*
X170294095Y-59696285D01*
X170436952Y-59743904D01*
X171008381Y-60315333D01*
X171008381Y-59696285D01*
X163091834Y-58476881D02*
X162758500Y-58000690D01*
X162520405Y-58476881D02*
X162520405Y-57476881D01*
X162901358Y-57476881D01*
X162996596Y-57524500D01*
X163044215Y-57572119D01*
X163091834Y-57667357D01*
X163091834Y-57810214D01*
X163044215Y-57905452D01*
X162996596Y-57953071D01*
X162901358Y-58000690D01*
X162520405Y-58000690D01*
X163996596Y-57476881D02*
X163520405Y-57476881D01*
X163472786Y-57953071D01*
X163520405Y-57905452D01*
X163615643Y-57857833D01*
X163853739Y-57857833D01*
X163948977Y-57905452D01*
X163996596Y-57953071D01*
X164044215Y-58048310D01*
X164044215Y-58286405D01*
X163996596Y-58381643D01*
X163948977Y-58429262D01*
X163853739Y-58476881D01*
X163615643Y-58476881D01*
X163520405Y-58429262D01*
X163472786Y-58381643D01*
X162798281Y-93740266D02*
X162322090Y-94073600D01*
X162798281Y-94311695D02*
X161798281Y-94311695D01*
X161798281Y-93930742D01*
X161845900Y-93835504D01*
X161893519Y-93787885D01*
X161988757Y-93740266D01*
X162131614Y-93740266D01*
X162226852Y-93787885D01*
X162274471Y-93835504D01*
X162322090Y-93930742D01*
X162322090Y-94311695D01*
X161798281Y-92883123D02*
X161798281Y-93073600D01*
X161845900Y-93168838D01*
X161893519Y-93216457D01*
X162036376Y-93311695D01*
X162226852Y-93359314D01*
X162607805Y-93359314D01*
X162703043Y-93311695D01*
X162750662Y-93264076D01*
X162798281Y-93168838D01*
X162798281Y-92978361D01*
X162750662Y-92883123D01*
X162703043Y-92835504D01*
X162607805Y-92787885D01*
X162369710Y-92787885D01*
X162274471Y-92835504D01*
X162226852Y-92883123D01*
X162179233Y-92978361D01*
X162179233Y-93168838D01*
X162226852Y-93264076D01*
X162274471Y-93311695D01*
X162369710Y-93359314D01*
X145400334Y-124537381D02*
X145067000Y-124061190D01*
X144828905Y-124537381D02*
X144828905Y-123537381D01*
X145209858Y-123537381D01*
X145305096Y-123585000D01*
X145352715Y-123632619D01*
X145400334Y-123727857D01*
X145400334Y-123870714D01*
X145352715Y-123965952D01*
X145305096Y-124013571D01*
X145209858Y-124061190D01*
X144828905Y-124061190D01*
X145733667Y-123537381D02*
X146400334Y-123537381D01*
X145971762Y-124537381D01*
X111821934Y-82441781D02*
X111488600Y-81965590D01*
X111250505Y-82441781D02*
X111250505Y-81441781D01*
X111631458Y-81441781D01*
X111726696Y-81489400D01*
X111774315Y-81537019D01*
X111821934Y-81632257D01*
X111821934Y-81775114D01*
X111774315Y-81870352D01*
X111726696Y-81917971D01*
X111631458Y-81965590D01*
X111250505Y-81965590D01*
X112298124Y-82441781D02*
X112488600Y-82441781D01*
X112583839Y-82394162D01*
X112631458Y-82346543D01*
X112726696Y-82203686D01*
X112774315Y-82013210D01*
X112774315Y-81632257D01*
X112726696Y-81537019D01*
X112679077Y-81489400D01*
X112583839Y-81441781D01*
X112393362Y-81441781D01*
X112298124Y-81489400D01*
X112250505Y-81537019D01*
X112202886Y-81632257D01*
X112202886Y-81870352D01*
X112250505Y-81965590D01*
X112298124Y-82013210D01*
X112393362Y-82060829D01*
X112583839Y-82060829D01*
X112679077Y-82013210D01*
X112726696Y-81965590D01*
X112774315Y-81870352D01*
X116298743Y-82378281D02*
X115965409Y-81902090D01*
X115727314Y-82378281D02*
X115727314Y-81378281D01*
X116108267Y-81378281D01*
X116203505Y-81425900D01*
X116251124Y-81473519D01*
X116298743Y-81568757D01*
X116298743Y-81711614D01*
X116251124Y-81806852D01*
X116203505Y-81854471D01*
X116108267Y-81902090D01*
X115727314Y-81902090D01*
X117251124Y-82378281D02*
X116679695Y-82378281D01*
X116965409Y-82378281D02*
X116965409Y-81378281D01*
X116870171Y-81521138D01*
X116774933Y-81616376D01*
X116679695Y-81663995D01*
X117870171Y-81378281D02*
X117965410Y-81378281D01*
X118060648Y-81425900D01*
X118108267Y-81473519D01*
X118155886Y-81568757D01*
X118203505Y-81759233D01*
X118203505Y-81997329D01*
X118155886Y-82187805D01*
X118108267Y-82283043D01*
X118060648Y-82330662D01*
X117965410Y-82378281D01*
X117870171Y-82378281D01*
X117774933Y-82330662D01*
X117727314Y-82283043D01*
X117679695Y-82187805D01*
X117632076Y-81997329D01*
X117632076Y-81759233D01*
X117679695Y-81568757D01*
X117727314Y-81473519D01*
X117774933Y-81425900D01*
X117870171Y-81378281D01*
X147820143Y-119275381D02*
X147486809Y-118799190D01*
X147248714Y-119275381D02*
X147248714Y-118275381D01*
X147629667Y-118275381D01*
X147724905Y-118323000D01*
X147772524Y-118370619D01*
X147820143Y-118465857D01*
X147820143Y-118608714D01*
X147772524Y-118703952D01*
X147724905Y-118751571D01*
X147629667Y-118799190D01*
X147248714Y-118799190D01*
X148772524Y-119275381D02*
X148201095Y-119275381D01*
X148486809Y-119275381D02*
X148486809Y-118275381D01*
X148391571Y-118418238D01*
X148296333Y-118513476D01*
X148201095Y-118561095D01*
X149724905Y-119275381D02*
X149153476Y-119275381D01*
X149439190Y-119275381D02*
X149439190Y-118275381D01*
X149343952Y-118418238D01*
X149248714Y-118513476D01*
X149153476Y-118561095D01*
X111269543Y-74275681D02*
X110936209Y-73799490D01*
X110698114Y-74275681D02*
X110698114Y-73275681D01*
X111079067Y-73275681D01*
X111174305Y-73323300D01*
X111221924Y-73370919D01*
X111269543Y-73466157D01*
X111269543Y-73609014D01*
X111221924Y-73704252D01*
X111174305Y-73751871D01*
X111079067Y-73799490D01*
X110698114Y-73799490D01*
X112221924Y-74275681D02*
X111650495Y-74275681D01*
X111936209Y-74275681D02*
X111936209Y-73275681D01*
X111840971Y-73418538D01*
X111745733Y-73513776D01*
X111650495Y-73561395D01*
X112555257Y-73275681D02*
X113174305Y-73275681D01*
X112840971Y-73656633D01*
X112983829Y-73656633D01*
X113079067Y-73704252D01*
X113126686Y-73751871D01*
X113174305Y-73847110D01*
X113174305Y-74085205D01*
X113126686Y-74180443D01*
X113079067Y-74228062D01*
X112983829Y-74275681D01*
X112698114Y-74275681D01*
X112602876Y-74228062D01*
X112555257Y-74180443D01*
X116730543Y-74529681D02*
X116397209Y-74053490D01*
X116159114Y-74529681D02*
X116159114Y-73529681D01*
X116540067Y-73529681D01*
X116635305Y-73577300D01*
X116682924Y-73624919D01*
X116730543Y-73720157D01*
X116730543Y-73863014D01*
X116682924Y-73958252D01*
X116635305Y-74005871D01*
X116540067Y-74053490D01*
X116159114Y-74053490D01*
X117682924Y-74529681D02*
X117111495Y-74529681D01*
X117397209Y-74529681D02*
X117397209Y-73529681D01*
X117301971Y-73672538D01*
X117206733Y-73767776D01*
X117111495Y-73815395D01*
X118540067Y-73863014D02*
X118540067Y-74529681D01*
X118301971Y-73482062D02*
X118063876Y-74196348D01*
X118682924Y-74196348D01*
X110977443Y-70656181D02*
X110644109Y-70179990D01*
X110406014Y-70656181D02*
X110406014Y-69656181D01*
X110786967Y-69656181D01*
X110882205Y-69703800D01*
X110929824Y-69751419D01*
X110977443Y-69846657D01*
X110977443Y-69989514D01*
X110929824Y-70084752D01*
X110882205Y-70132371D01*
X110786967Y-70179990D01*
X110406014Y-70179990D01*
X111929824Y-70656181D02*
X111358395Y-70656181D01*
X111644109Y-70656181D02*
X111644109Y-69656181D01*
X111548871Y-69799038D01*
X111453633Y-69894276D01*
X111358395Y-69941895D01*
X112263157Y-69656181D02*
X112929824Y-69656181D01*
X112501252Y-70656181D01*
X116438443Y-70910181D02*
X116105109Y-70433990D01*
X115867014Y-70910181D02*
X115867014Y-69910181D01*
X116247967Y-69910181D01*
X116343205Y-69957800D01*
X116390824Y-70005419D01*
X116438443Y-70100657D01*
X116438443Y-70243514D01*
X116390824Y-70338752D01*
X116343205Y-70386371D01*
X116247967Y-70433990D01*
X115867014Y-70433990D01*
X117390824Y-70910181D02*
X116819395Y-70910181D01*
X117105109Y-70910181D02*
X117105109Y-69910181D01*
X117009871Y-70053038D01*
X116914633Y-70148276D01*
X116819395Y-70195895D01*
X117962252Y-70338752D02*
X117867014Y-70291133D01*
X117819395Y-70243514D01*
X117771776Y-70148276D01*
X117771776Y-70100657D01*
X117819395Y-70005419D01*
X117867014Y-69957800D01*
X117962252Y-69910181D01*
X118152729Y-69910181D01*
X118247967Y-69957800D01*
X118295586Y-70005419D01*
X118343205Y-70100657D01*
X118343205Y-70148276D01*
X118295586Y-70243514D01*
X118247967Y-70291133D01*
X118152729Y-70338752D01*
X117962252Y-70338752D01*
X117867014Y-70386371D01*
X117819395Y-70433990D01*
X117771776Y-70529229D01*
X117771776Y-70719705D01*
X117819395Y-70814943D01*
X117867014Y-70862562D01*
X117962252Y-70910181D01*
X118152729Y-70910181D01*
X118247967Y-70862562D01*
X118295586Y-70814943D01*
X118343205Y-70719705D01*
X118343205Y-70529229D01*
X118295586Y-70433990D01*
X118247967Y-70386371D01*
X118152729Y-70338752D01*
X183475393Y-84001131D02*
X183142059Y-83524940D01*
X182903964Y-84001131D02*
X182903964Y-83001131D01*
X183284917Y-83001131D01*
X183380155Y-83048750D01*
X183427774Y-83096369D01*
X183475393Y-83191607D01*
X183475393Y-83334464D01*
X183427774Y-83429702D01*
X183380155Y-83477321D01*
X183284917Y-83524940D01*
X182903964Y-83524940D01*
X183856345Y-83096369D02*
X183903964Y-83048750D01*
X183999202Y-83001131D01*
X184237298Y-83001131D01*
X184332536Y-83048750D01*
X184380155Y-83096369D01*
X184427774Y-83191607D01*
X184427774Y-83286845D01*
X184380155Y-83429702D01*
X183808726Y-84001131D01*
X184427774Y-84001131D01*
X185046821Y-83001131D02*
X185142060Y-83001131D01*
X185237298Y-83048750D01*
X185284917Y-83096369D01*
X185332536Y-83191607D01*
X185380155Y-83382083D01*
X185380155Y-83620179D01*
X185332536Y-83810655D01*
X185284917Y-83905893D01*
X185237298Y-83953512D01*
X185142060Y-84001131D01*
X185046821Y-84001131D01*
X184951583Y-83953512D01*
X184903964Y-83905893D01*
X184856345Y-83810655D01*
X184808726Y-83620179D01*
X184808726Y-83382083D01*
X184856345Y-83191607D01*
X184903964Y-83096369D01*
X184951583Y-83048750D01*
X185046821Y-83001131D01*
X110964743Y-66566781D02*
X110631409Y-66090590D01*
X110393314Y-66566781D02*
X110393314Y-65566781D01*
X110774267Y-65566781D01*
X110869505Y-65614400D01*
X110917124Y-65662019D01*
X110964743Y-65757257D01*
X110964743Y-65900114D01*
X110917124Y-65995352D01*
X110869505Y-66042971D01*
X110774267Y-66090590D01*
X110393314Y-66090590D01*
X111345695Y-65662019D02*
X111393314Y-65614400D01*
X111488552Y-65566781D01*
X111726648Y-65566781D01*
X111821886Y-65614400D01*
X111869505Y-65662019D01*
X111917124Y-65757257D01*
X111917124Y-65852495D01*
X111869505Y-65995352D01*
X111298076Y-66566781D01*
X111917124Y-66566781D01*
X112869505Y-66566781D02*
X112298076Y-66566781D01*
X112583790Y-66566781D02*
X112583790Y-65566781D01*
X112488552Y-65709638D01*
X112393314Y-65804876D01*
X112298076Y-65852495D01*
X116552743Y-66757281D02*
X116219409Y-66281090D01*
X115981314Y-66757281D02*
X115981314Y-65757281D01*
X116362267Y-65757281D01*
X116457505Y-65804900D01*
X116505124Y-65852519D01*
X116552743Y-65947757D01*
X116552743Y-66090614D01*
X116505124Y-66185852D01*
X116457505Y-66233471D01*
X116362267Y-66281090D01*
X115981314Y-66281090D01*
X116933695Y-65852519D02*
X116981314Y-65804900D01*
X117076552Y-65757281D01*
X117314648Y-65757281D01*
X117409886Y-65804900D01*
X117457505Y-65852519D01*
X117505124Y-65947757D01*
X117505124Y-66042995D01*
X117457505Y-66185852D01*
X116886076Y-66757281D01*
X117505124Y-66757281D01*
X117886076Y-65852519D02*
X117933695Y-65804900D01*
X118028933Y-65757281D01*
X118267029Y-65757281D01*
X118362267Y-65804900D01*
X118409886Y-65852519D01*
X118457505Y-65947757D01*
X118457505Y-66042995D01*
X118409886Y-66185852D01*
X117838457Y-66757281D01*
X118457505Y-66757281D01*
X110736143Y-77907881D02*
X110402809Y-77431690D01*
X110164714Y-77907881D02*
X110164714Y-76907881D01*
X110545667Y-76907881D01*
X110640905Y-76955500D01*
X110688524Y-77003119D01*
X110736143Y-77098357D01*
X110736143Y-77241214D01*
X110688524Y-77336452D01*
X110640905Y-77384071D01*
X110545667Y-77431690D01*
X110164714Y-77431690D01*
X111117095Y-77003119D02*
X111164714Y-76955500D01*
X111259952Y-76907881D01*
X111498048Y-76907881D01*
X111593286Y-76955500D01*
X111640905Y-77003119D01*
X111688524Y-77098357D01*
X111688524Y-77193595D01*
X111640905Y-77336452D01*
X111069476Y-77907881D01*
X111688524Y-77907881D01*
X112593286Y-76907881D02*
X112117095Y-76907881D01*
X112069476Y-77384071D01*
X112117095Y-77336452D01*
X112212333Y-77288833D01*
X112450429Y-77288833D01*
X112545667Y-77336452D01*
X112593286Y-77384071D01*
X112640905Y-77479310D01*
X112640905Y-77717405D01*
X112593286Y-77812643D01*
X112545667Y-77860262D01*
X112450429Y-77907881D01*
X112212333Y-77907881D01*
X112117095Y-77860262D01*
X112069476Y-77812643D01*
X116197143Y-78161881D02*
X115863809Y-77685690D01*
X115625714Y-78161881D02*
X115625714Y-77161881D01*
X116006667Y-77161881D01*
X116101905Y-77209500D01*
X116149524Y-77257119D01*
X116197143Y-77352357D01*
X116197143Y-77495214D01*
X116149524Y-77590452D01*
X116101905Y-77638071D01*
X116006667Y-77685690D01*
X115625714Y-77685690D01*
X116578095Y-77257119D02*
X116625714Y-77209500D01*
X116720952Y-77161881D01*
X116959048Y-77161881D01*
X117054286Y-77209500D01*
X117101905Y-77257119D01*
X117149524Y-77352357D01*
X117149524Y-77447595D01*
X117101905Y-77590452D01*
X116530476Y-78161881D01*
X117149524Y-78161881D01*
X118006667Y-77161881D02*
X117816190Y-77161881D01*
X117720952Y-77209500D01*
X117673333Y-77257119D01*
X117578095Y-77399976D01*
X117530476Y-77590452D01*
X117530476Y-77971405D01*
X117578095Y-78066643D01*
X117625714Y-78114262D01*
X117720952Y-78161881D01*
X117911429Y-78161881D01*
X118006667Y-78114262D01*
X118054286Y-78066643D01*
X118101905Y-77971405D01*
X118101905Y-77733310D01*
X118054286Y-77638071D01*
X118006667Y-77590452D01*
X117911429Y-77542833D01*
X117720952Y-77542833D01*
X117625714Y-77590452D01*
X117578095Y-77638071D01*
X117530476Y-77733310D01*
X178268393Y-84001131D02*
X177935059Y-83524940D01*
X177696964Y-84001131D02*
X177696964Y-83001131D01*
X178077917Y-83001131D01*
X178173155Y-83048750D01*
X178220774Y-83096369D01*
X178268393Y-83191607D01*
X178268393Y-83334464D01*
X178220774Y-83429702D01*
X178173155Y-83477321D01*
X178077917Y-83524940D01*
X177696964Y-83524940D01*
X178649345Y-83096369D02*
X178696964Y-83048750D01*
X178792202Y-83001131D01*
X179030298Y-83001131D01*
X179125536Y-83048750D01*
X179173155Y-83096369D01*
X179220774Y-83191607D01*
X179220774Y-83286845D01*
X179173155Y-83429702D01*
X178601726Y-84001131D01*
X179220774Y-84001131D01*
X179554107Y-83001131D02*
X180220774Y-83001131D01*
X179792202Y-84001131D01*
X182935643Y-96224881D02*
X182602309Y-95748690D01*
X182364214Y-96224881D02*
X182364214Y-95224881D01*
X182745167Y-95224881D01*
X182840405Y-95272500D01*
X182888024Y-95320119D01*
X182935643Y-95415357D01*
X182935643Y-95558214D01*
X182888024Y-95653452D01*
X182840405Y-95701071D01*
X182745167Y-95748690D01*
X182364214Y-95748690D01*
X183316595Y-95320119D02*
X183364214Y-95272500D01*
X183459452Y-95224881D01*
X183697548Y-95224881D01*
X183792786Y-95272500D01*
X183840405Y-95320119D01*
X183888024Y-95415357D01*
X183888024Y-95510595D01*
X183840405Y-95653452D01*
X183268976Y-96224881D01*
X183888024Y-96224881D01*
X184459452Y-95653452D02*
X184364214Y-95605833D01*
X184316595Y-95558214D01*
X184268976Y-95462976D01*
X184268976Y-95415357D01*
X184316595Y-95320119D01*
X184364214Y-95272500D01*
X184459452Y-95224881D01*
X184649929Y-95224881D01*
X184745167Y-95272500D01*
X184792786Y-95320119D01*
X184840405Y-95415357D01*
X184840405Y-95462976D01*
X184792786Y-95558214D01*
X184745167Y-95605833D01*
X184649929Y-95653452D01*
X184459452Y-95653452D01*
X184364214Y-95701071D01*
X184316595Y-95748690D01*
X184268976Y-95843929D01*
X184268976Y-96034405D01*
X184316595Y-96129643D01*
X184364214Y-96177262D01*
X184459452Y-96224881D01*
X184649929Y-96224881D01*
X184745167Y-96177262D01*
X184792786Y-96129643D01*
X184840405Y-96034405D01*
X184840405Y-95843929D01*
X184792786Y-95748690D01*
X184745167Y-95701071D01*
X184649929Y-95653452D01*
X110863143Y-62756781D02*
X110529809Y-62280590D01*
X110291714Y-62756781D02*
X110291714Y-61756781D01*
X110672667Y-61756781D01*
X110767905Y-61804400D01*
X110815524Y-61852019D01*
X110863143Y-61947257D01*
X110863143Y-62090114D01*
X110815524Y-62185352D01*
X110767905Y-62232971D01*
X110672667Y-62280590D01*
X110291714Y-62280590D01*
X111244095Y-61852019D02*
X111291714Y-61804400D01*
X111386952Y-61756781D01*
X111625048Y-61756781D01*
X111720286Y-61804400D01*
X111767905Y-61852019D01*
X111815524Y-61947257D01*
X111815524Y-62042495D01*
X111767905Y-62185352D01*
X111196476Y-62756781D01*
X111815524Y-62756781D01*
X112291714Y-62756781D02*
X112482190Y-62756781D01*
X112577429Y-62709162D01*
X112625048Y-62661543D01*
X112720286Y-62518686D01*
X112767905Y-62328210D01*
X112767905Y-61947257D01*
X112720286Y-61852019D01*
X112672667Y-61804400D01*
X112577429Y-61756781D01*
X112386952Y-61756781D01*
X112291714Y-61804400D01*
X112244095Y-61852019D01*
X112196476Y-61947257D01*
X112196476Y-62185352D01*
X112244095Y-62280590D01*
X112291714Y-62328210D01*
X112386952Y-62375829D01*
X112577429Y-62375829D01*
X112672667Y-62328210D01*
X112720286Y-62280590D01*
X112767905Y-62185352D01*
X116324143Y-63010781D02*
X115990809Y-62534590D01*
X115752714Y-63010781D02*
X115752714Y-62010781D01*
X116133667Y-62010781D01*
X116228905Y-62058400D01*
X116276524Y-62106019D01*
X116324143Y-62201257D01*
X116324143Y-62344114D01*
X116276524Y-62439352D01*
X116228905Y-62486971D01*
X116133667Y-62534590D01*
X115752714Y-62534590D01*
X116657476Y-62010781D02*
X117276524Y-62010781D01*
X116943190Y-62391733D01*
X117086048Y-62391733D01*
X117181286Y-62439352D01*
X117228905Y-62486971D01*
X117276524Y-62582210D01*
X117276524Y-62820305D01*
X117228905Y-62915543D01*
X117181286Y-62963162D01*
X117086048Y-63010781D01*
X116800333Y-63010781D01*
X116705095Y-62963162D01*
X116657476Y-62915543D01*
X117895571Y-62010781D02*
X117990810Y-62010781D01*
X118086048Y-62058400D01*
X118133667Y-62106019D01*
X118181286Y-62201257D01*
X118228905Y-62391733D01*
X118228905Y-62629829D01*
X118181286Y-62820305D01*
X118133667Y-62915543D01*
X118086048Y-62963162D01*
X117990810Y-63010781D01*
X117895571Y-63010781D01*
X117800333Y-62963162D01*
X117752714Y-62915543D01*
X117705095Y-62820305D01*
X117657476Y-62629829D01*
X117657476Y-62391733D01*
X117705095Y-62201257D01*
X117752714Y-62106019D01*
X117800333Y-62058400D01*
X117895571Y-62010781D01*
X183697643Y-107527881D02*
X183364309Y-107051690D01*
X183126214Y-107527881D02*
X183126214Y-106527881D01*
X183507167Y-106527881D01*
X183602405Y-106575500D01*
X183650024Y-106623119D01*
X183697643Y-106718357D01*
X183697643Y-106861214D01*
X183650024Y-106956452D01*
X183602405Y-107004071D01*
X183507167Y-107051690D01*
X183126214Y-107051690D01*
X184030976Y-106527881D02*
X184650024Y-106527881D01*
X184316690Y-106908833D01*
X184459548Y-106908833D01*
X184554786Y-106956452D01*
X184602405Y-107004071D01*
X184650024Y-107099310D01*
X184650024Y-107337405D01*
X184602405Y-107432643D01*
X184554786Y-107480262D01*
X184459548Y-107527881D01*
X184173833Y-107527881D01*
X184078595Y-107480262D01*
X184030976Y-107432643D01*
X185602405Y-107527881D02*
X185030976Y-107527881D01*
X185316690Y-107527881D02*
X185316690Y-106527881D01*
X185221452Y-106670738D01*
X185126214Y-106765976D01*
X185030976Y-106813595D01*
X177919143Y-96224881D02*
X177585809Y-95748690D01*
X177347714Y-96224881D02*
X177347714Y-95224881D01*
X177728667Y-95224881D01*
X177823905Y-95272500D01*
X177871524Y-95320119D01*
X177919143Y-95415357D01*
X177919143Y-95558214D01*
X177871524Y-95653452D01*
X177823905Y-95701071D01*
X177728667Y-95748690D01*
X177347714Y-95748690D01*
X178252476Y-95224881D02*
X178871524Y-95224881D01*
X178538190Y-95605833D01*
X178681048Y-95605833D01*
X178776286Y-95653452D01*
X178823905Y-95701071D01*
X178871524Y-95796310D01*
X178871524Y-96034405D01*
X178823905Y-96129643D01*
X178776286Y-96177262D01*
X178681048Y-96224881D01*
X178395333Y-96224881D01*
X178300095Y-96177262D01*
X178252476Y-96129643D01*
X179252476Y-95320119D02*
X179300095Y-95272500D01*
X179395333Y-95224881D01*
X179633429Y-95224881D01*
X179728667Y-95272500D01*
X179776286Y-95320119D01*
X179823905Y-95415357D01*
X179823905Y-95510595D01*
X179776286Y-95653452D01*
X179204857Y-96224881D01*
X179823905Y-96224881D01*
X110507543Y-90125281D02*
X110174209Y-89649090D01*
X109936114Y-90125281D02*
X109936114Y-89125281D01*
X110317067Y-89125281D01*
X110412305Y-89172900D01*
X110459924Y-89220519D01*
X110507543Y-89315757D01*
X110507543Y-89458614D01*
X110459924Y-89553852D01*
X110412305Y-89601471D01*
X110317067Y-89649090D01*
X109936114Y-89649090D01*
X110840876Y-89125281D02*
X111459924Y-89125281D01*
X111126590Y-89506233D01*
X111269448Y-89506233D01*
X111364686Y-89553852D01*
X111412305Y-89601471D01*
X111459924Y-89696710D01*
X111459924Y-89934805D01*
X111412305Y-90030043D01*
X111364686Y-90077662D01*
X111269448Y-90125281D01*
X110983733Y-90125281D01*
X110888495Y-90077662D01*
X110840876Y-90030043D01*
X111793257Y-89125281D02*
X112412305Y-89125281D01*
X112078971Y-89506233D01*
X112221829Y-89506233D01*
X112317067Y-89553852D01*
X112364686Y-89601471D01*
X112412305Y-89696710D01*
X112412305Y-89934805D01*
X112364686Y-90030043D01*
X112317067Y-90077662D01*
X112221829Y-90125281D01*
X111936114Y-90125281D01*
X111840876Y-90077662D01*
X111793257Y-90030043D01*
X115968543Y-90379281D02*
X115635209Y-89903090D01*
X115397114Y-90379281D02*
X115397114Y-89379281D01*
X115778067Y-89379281D01*
X115873305Y-89426900D01*
X115920924Y-89474519D01*
X115968543Y-89569757D01*
X115968543Y-89712614D01*
X115920924Y-89807852D01*
X115873305Y-89855471D01*
X115778067Y-89903090D01*
X115397114Y-89903090D01*
X116301876Y-89379281D02*
X116920924Y-89379281D01*
X116587590Y-89760233D01*
X116730448Y-89760233D01*
X116825686Y-89807852D01*
X116873305Y-89855471D01*
X116920924Y-89950710D01*
X116920924Y-90188805D01*
X116873305Y-90284043D01*
X116825686Y-90331662D01*
X116730448Y-90379281D01*
X116444733Y-90379281D01*
X116349495Y-90331662D01*
X116301876Y-90284043D01*
X117778067Y-89712614D02*
X117778067Y-90379281D01*
X117539971Y-89331662D02*
X117301876Y-90045948D01*
X117920924Y-90045948D01*
X178490643Y-107527881D02*
X178157309Y-107051690D01*
X177919214Y-107527881D02*
X177919214Y-106527881D01*
X178300167Y-106527881D01*
X178395405Y-106575500D01*
X178443024Y-106623119D01*
X178490643Y-106718357D01*
X178490643Y-106861214D01*
X178443024Y-106956452D01*
X178395405Y-107004071D01*
X178300167Y-107051690D01*
X177919214Y-107051690D01*
X178823976Y-106527881D02*
X179443024Y-106527881D01*
X179109690Y-106908833D01*
X179252548Y-106908833D01*
X179347786Y-106956452D01*
X179395405Y-107004071D01*
X179443024Y-107099310D01*
X179443024Y-107337405D01*
X179395405Y-107432643D01*
X179347786Y-107480262D01*
X179252548Y-107527881D01*
X178966833Y-107527881D01*
X178871595Y-107480262D01*
X178823976Y-107432643D01*
X180347786Y-106527881D02*
X179871595Y-106527881D01*
X179823976Y-107004071D01*
X179871595Y-106956452D01*
X179966833Y-106908833D01*
X180204929Y-106908833D01*
X180300167Y-106956452D01*
X180347786Y-107004071D01*
X180395405Y-107099310D01*
X180395405Y-107337405D01*
X180347786Y-107432643D01*
X180300167Y-107480262D01*
X180204929Y-107527881D01*
X179966833Y-107527881D01*
X179871595Y-107480262D01*
X179823976Y-107432643D01*
X116451143Y-59175381D02*
X116117809Y-58699190D01*
X115879714Y-59175381D02*
X115879714Y-58175381D01*
X116260667Y-58175381D01*
X116355905Y-58223000D01*
X116403524Y-58270619D01*
X116451143Y-58365857D01*
X116451143Y-58508714D01*
X116403524Y-58603952D01*
X116355905Y-58651571D01*
X116260667Y-58699190D01*
X115879714Y-58699190D01*
X116784476Y-58175381D02*
X117403524Y-58175381D01*
X117070190Y-58556333D01*
X117213048Y-58556333D01*
X117308286Y-58603952D01*
X117355905Y-58651571D01*
X117403524Y-58746810D01*
X117403524Y-58984905D01*
X117355905Y-59080143D01*
X117308286Y-59127762D01*
X117213048Y-59175381D01*
X116927333Y-59175381D01*
X116832095Y-59127762D01*
X116784476Y-59080143D01*
X118260667Y-58175381D02*
X118070190Y-58175381D01*
X117974952Y-58223000D01*
X117927333Y-58270619D01*
X117832095Y-58413476D01*
X117784476Y-58603952D01*
X117784476Y-58984905D01*
X117832095Y-59080143D01*
X117879714Y-59127762D01*
X117974952Y-59175381D01*
X118165429Y-59175381D01*
X118260667Y-59127762D01*
X118308286Y-59080143D01*
X118355905Y-58984905D01*
X118355905Y-58746810D01*
X118308286Y-58651571D01*
X118260667Y-58603952D01*
X118165429Y-58556333D01*
X117974952Y-58556333D01*
X117879714Y-58603952D01*
X117832095Y-58651571D01*
X117784476Y-58746810D01*
X110863143Y-59175381D02*
X110529809Y-58699190D01*
X110291714Y-59175381D02*
X110291714Y-58175381D01*
X110672667Y-58175381D01*
X110767905Y-58223000D01*
X110815524Y-58270619D01*
X110863143Y-58365857D01*
X110863143Y-58508714D01*
X110815524Y-58603952D01*
X110767905Y-58651571D01*
X110672667Y-58699190D01*
X110291714Y-58699190D01*
X111196476Y-58175381D02*
X111815524Y-58175381D01*
X111482190Y-58556333D01*
X111625048Y-58556333D01*
X111720286Y-58603952D01*
X111767905Y-58651571D01*
X111815524Y-58746810D01*
X111815524Y-58984905D01*
X111767905Y-59080143D01*
X111720286Y-59127762D01*
X111625048Y-59175381D01*
X111339333Y-59175381D01*
X111244095Y-59127762D01*
X111196476Y-59080143D01*
X112148857Y-58175381D02*
X112815524Y-58175381D01*
X112386952Y-59175381D01*
X110901243Y-86073981D02*
X110567909Y-85597790D01*
X110329814Y-86073981D02*
X110329814Y-85073981D01*
X110710767Y-85073981D01*
X110806005Y-85121600D01*
X110853624Y-85169219D01*
X110901243Y-85264457D01*
X110901243Y-85407314D01*
X110853624Y-85502552D01*
X110806005Y-85550171D01*
X110710767Y-85597790D01*
X110329814Y-85597790D01*
X111234576Y-85073981D02*
X111853624Y-85073981D01*
X111520290Y-85454933D01*
X111663148Y-85454933D01*
X111758386Y-85502552D01*
X111806005Y-85550171D01*
X111853624Y-85645410D01*
X111853624Y-85883505D01*
X111806005Y-85978743D01*
X111758386Y-86026362D01*
X111663148Y-86073981D01*
X111377433Y-86073981D01*
X111282195Y-86026362D01*
X111234576Y-85978743D01*
X112329814Y-86073981D02*
X112520290Y-86073981D01*
X112615529Y-86026362D01*
X112663148Y-85978743D01*
X112758386Y-85835886D01*
X112806005Y-85645410D01*
X112806005Y-85264457D01*
X112758386Y-85169219D01*
X112710767Y-85121600D01*
X112615529Y-85073981D01*
X112425052Y-85073981D01*
X112329814Y-85121600D01*
X112282195Y-85169219D01*
X112234576Y-85264457D01*
X112234576Y-85502552D01*
X112282195Y-85597790D01*
X112329814Y-85645410D01*
X112425052Y-85693029D01*
X112615529Y-85693029D01*
X112710767Y-85645410D01*
X112758386Y-85597790D01*
X112806005Y-85502552D01*
X116489243Y-86327981D02*
X116155909Y-85851790D01*
X115917814Y-86327981D02*
X115917814Y-85327981D01*
X116298767Y-85327981D01*
X116394005Y-85375600D01*
X116441624Y-85423219D01*
X116489243Y-85518457D01*
X116489243Y-85661314D01*
X116441624Y-85756552D01*
X116394005Y-85804171D01*
X116298767Y-85851790D01*
X115917814Y-85851790D01*
X117346386Y-85661314D02*
X117346386Y-86327981D01*
X117108290Y-85280362D02*
X116870195Y-85994648D01*
X117489243Y-85994648D01*
X118060671Y-85327981D02*
X118155910Y-85327981D01*
X118251148Y-85375600D01*
X118298767Y-85423219D01*
X118346386Y-85518457D01*
X118394005Y-85708933D01*
X118394005Y-85947029D01*
X118346386Y-86137505D01*
X118298767Y-86232743D01*
X118251148Y-86280362D01*
X118155910Y-86327981D01*
X118060671Y-86327981D01*
X117965433Y-86280362D01*
X117917814Y-86232743D01*
X117870195Y-86137505D01*
X117822576Y-85947029D01*
X117822576Y-85708933D01*
X117870195Y-85518457D01*
X117917814Y-85423219D01*
X117965433Y-85375600D01*
X118060671Y-85327981D01*
X110583743Y-94201981D02*
X110250409Y-93725790D01*
X110012314Y-94201981D02*
X110012314Y-93201981D01*
X110393267Y-93201981D01*
X110488505Y-93249600D01*
X110536124Y-93297219D01*
X110583743Y-93392457D01*
X110583743Y-93535314D01*
X110536124Y-93630552D01*
X110488505Y-93678171D01*
X110393267Y-93725790D01*
X110012314Y-93725790D01*
X111440886Y-93535314D02*
X111440886Y-94201981D01*
X111202790Y-93154362D02*
X110964695Y-93868648D01*
X111583743Y-93868648D01*
X111869457Y-93201981D02*
X112488505Y-93201981D01*
X112155171Y-93582933D01*
X112298029Y-93582933D01*
X112393267Y-93630552D01*
X112440886Y-93678171D01*
X112488505Y-93773410D01*
X112488505Y-94011505D01*
X112440886Y-94106743D01*
X112393267Y-94154362D01*
X112298029Y-94201981D01*
X112012314Y-94201981D01*
X111917076Y-94154362D01*
X111869457Y-94106743D01*
X116171743Y-94455981D02*
X115838409Y-93979790D01*
X115600314Y-94455981D02*
X115600314Y-93455981D01*
X115981267Y-93455981D01*
X116076505Y-93503600D01*
X116124124Y-93551219D01*
X116171743Y-93646457D01*
X116171743Y-93789314D01*
X116124124Y-93884552D01*
X116076505Y-93932171D01*
X115981267Y-93979790D01*
X115600314Y-93979790D01*
X117028886Y-93789314D02*
X117028886Y-94455981D01*
X116790790Y-93408362D02*
X116552695Y-94122648D01*
X117171743Y-94122648D01*
X117981267Y-93789314D02*
X117981267Y-94455981D01*
X117743171Y-93408362D02*
X117505076Y-94122648D01*
X118124124Y-94122648D01*
X184142143Y-104895381D02*
X183808809Y-104419190D01*
X183570714Y-104895381D02*
X183570714Y-103895381D01*
X183951667Y-103895381D01*
X184046905Y-103943000D01*
X184094524Y-103990619D01*
X184142143Y-104085857D01*
X184142143Y-104228714D01*
X184094524Y-104323952D01*
X184046905Y-104371571D01*
X183951667Y-104419190D01*
X183570714Y-104419190D01*
X184475476Y-103895381D02*
X185142143Y-103895381D01*
X184713571Y-104895381D01*
X185951667Y-104228714D02*
X185951667Y-104895381D01*
X185713571Y-103847762D02*
X185475476Y-104562048D01*
X186094524Y-104562048D01*
X148788595Y-96893381D02*
X149360024Y-96893381D01*
X149074309Y-97893381D02*
X149074309Y-96893381D01*
X149693357Y-97893381D02*
X149693357Y-96893381D01*
X150074310Y-96893381D01*
X150169548Y-96941000D01*
X150217167Y-96988619D01*
X150264786Y-97083857D01*
X150264786Y-97226714D01*
X150217167Y-97321952D01*
X150169548Y-97369571D01*
X150074310Y-97417190D01*
X149693357Y-97417190D01*
X151217167Y-97893381D02*
X150645738Y-97893381D01*
X150931452Y-97893381D02*
X150931452Y-96893381D01*
X150836214Y-97036238D01*
X150740976Y-97131476D01*
X150645738Y-97179095D01*
X128595595Y-123309381D02*
X129167024Y-123309381D01*
X128881309Y-124309381D02*
X128881309Y-123309381D01*
X129500357Y-124309381D02*
X129500357Y-123309381D01*
X129881310Y-123309381D01*
X129976548Y-123357000D01*
X130024167Y-123404619D01*
X130071786Y-123499857D01*
X130071786Y-123642714D01*
X130024167Y-123737952D01*
X129976548Y-123785571D01*
X129881310Y-123833190D01*
X129500357Y-123833190D01*
X130452738Y-123404619D02*
X130500357Y-123357000D01*
X130595595Y-123309381D01*
X130833691Y-123309381D01*
X130928929Y-123357000D01*
X130976548Y-123404619D01*
X131024167Y-123499857D01*
X131024167Y-123595095D01*
X130976548Y-123737952D01*
X130405119Y-124309381D01*
X131024167Y-124309381D01*
X161555095Y-137137381D02*
X162126524Y-137137381D01*
X161840809Y-138137381D02*
X161840809Y-137137381D01*
X162459857Y-138137381D02*
X162459857Y-137137381D01*
X162840810Y-137137381D01*
X162936048Y-137185000D01*
X162983667Y-137232619D01*
X163031286Y-137327857D01*
X163031286Y-137470714D01*
X162983667Y-137565952D01*
X162936048Y-137613571D01*
X162840810Y-137661190D01*
X162459857Y-137661190D01*
X163364619Y-137137381D02*
X163983667Y-137137381D01*
X163650333Y-137518333D01*
X163793191Y-137518333D01*
X163888429Y-137565952D01*
X163936048Y-137613571D01*
X163983667Y-137708810D01*
X163983667Y-137946905D01*
X163936048Y-138042143D01*
X163888429Y-138089762D01*
X163793191Y-138137381D01*
X163507476Y-138137381D01*
X163412238Y-138089762D01*
X163364619Y-138042143D01*
X165405095Y-137087381D02*
X165976524Y-137087381D01*
X165690809Y-138087381D02*
X165690809Y-137087381D01*
X166309857Y-138087381D02*
X166309857Y-137087381D01*
X166690810Y-137087381D01*
X166786048Y-137135000D01*
X166833667Y-137182619D01*
X166881286Y-137277857D01*
X166881286Y-137420714D01*
X166833667Y-137515952D01*
X166786048Y-137563571D01*
X166690810Y-137611190D01*
X166309857Y-137611190D01*
X167738429Y-137420714D02*
X167738429Y-138087381D01*
X167500333Y-137039762D02*
X167262238Y-137754048D01*
X167881286Y-137754048D01*
X169005095Y-137137381D02*
X169576524Y-137137381D01*
X169290809Y-138137381D02*
X169290809Y-137137381D01*
X169909857Y-138137381D02*
X169909857Y-137137381D01*
X170290810Y-137137381D01*
X170386048Y-137185000D01*
X170433667Y-137232619D01*
X170481286Y-137327857D01*
X170481286Y-137470714D01*
X170433667Y-137565952D01*
X170386048Y-137613571D01*
X170290810Y-137661190D01*
X169909857Y-137661190D01*
X171386048Y-137137381D02*
X170909857Y-137137381D01*
X170862238Y-137613571D01*
X170909857Y-137565952D01*
X171005095Y-137518333D01*
X171243191Y-137518333D01*
X171338429Y-137565952D01*
X171386048Y-137613571D01*
X171433667Y-137708810D01*
X171433667Y-137946905D01*
X171386048Y-138042143D01*
X171338429Y-138089762D01*
X171243191Y-138137381D01*
X171005095Y-138137381D01*
X170909857Y-138089762D01*
X170862238Y-138042143D01*
X172705095Y-137187381D02*
X173276524Y-137187381D01*
X172990809Y-138187381D02*
X172990809Y-137187381D01*
X173609857Y-138187381D02*
X173609857Y-137187381D01*
X173990810Y-137187381D01*
X174086048Y-137235000D01*
X174133667Y-137282619D01*
X174181286Y-137377857D01*
X174181286Y-137520714D01*
X174133667Y-137615952D01*
X174086048Y-137663571D01*
X173990810Y-137711190D01*
X173609857Y-137711190D01*
X175038429Y-137187381D02*
X174847952Y-137187381D01*
X174752714Y-137235000D01*
X174705095Y-137282619D01*
X174609857Y-137425476D01*
X174562238Y-137615952D01*
X174562238Y-137996905D01*
X174609857Y-138092143D01*
X174657476Y-138139762D01*
X174752714Y-138187381D01*
X174943191Y-138187381D01*
X175038429Y-138139762D01*
X175086048Y-138092143D01*
X175133667Y-137996905D01*
X175133667Y-137758810D01*
X175086048Y-137663571D01*
X175038429Y-137615952D01*
X174943191Y-137568333D01*
X174752714Y-137568333D01*
X174657476Y-137615952D01*
X174609857Y-137663571D01*
X174562238Y-137758810D01*
X153170095Y-131119881D02*
X153741524Y-131119881D01*
X153455809Y-132119881D02*
X153455809Y-131119881D01*
X154074857Y-132119881D02*
X154074857Y-131119881D01*
X154455810Y-131119881D01*
X154551048Y-131167500D01*
X154598667Y-131215119D01*
X154646286Y-131310357D01*
X154646286Y-131453214D01*
X154598667Y-131548452D01*
X154551048Y-131596071D01*
X154455810Y-131643690D01*
X154074857Y-131643690D01*
X154979619Y-131119881D02*
X155646286Y-131119881D01*
X155217714Y-132119881D01*
X176755095Y-137137381D02*
X177326524Y-137137381D01*
X177040809Y-138137381D02*
X177040809Y-137137381D01*
X177659857Y-138137381D02*
X177659857Y-137137381D01*
X178040810Y-137137381D01*
X178136048Y-137185000D01*
X178183667Y-137232619D01*
X178231286Y-137327857D01*
X178231286Y-137470714D01*
X178183667Y-137565952D01*
X178136048Y-137613571D01*
X178040810Y-137661190D01*
X177659857Y-137661190D01*
X178802714Y-137565952D02*
X178707476Y-137518333D01*
X178659857Y-137470714D01*
X178612238Y-137375476D01*
X178612238Y-137327857D01*
X178659857Y-137232619D01*
X178707476Y-137185000D01*
X178802714Y-137137381D01*
X178993191Y-137137381D01*
X179088429Y-137185000D01*
X179136048Y-137232619D01*
X179183667Y-137327857D01*
X179183667Y-137375476D01*
X179136048Y-137470714D01*
X179088429Y-137518333D01*
X178993191Y-137565952D01*
X178802714Y-137565952D01*
X178707476Y-137613571D01*
X178659857Y-137661190D01*
X178612238Y-137756429D01*
X178612238Y-137946905D01*
X178659857Y-138042143D01*
X178707476Y-138089762D01*
X178802714Y-138137381D01*
X178993191Y-138137381D01*
X179088429Y-138089762D01*
X179136048Y-138042143D01*
X179183667Y-137946905D01*
X179183667Y-137756429D01*
X179136048Y-137661190D01*
X179088429Y-137613571D01*
X178993191Y-137565952D01*
X147089881Y-57403905D02*
X147899405Y-57403905D01*
X147994643Y-57356286D01*
X148042262Y-57308667D01*
X148089881Y-57213429D01*
X148089881Y-57022952D01*
X148042262Y-56927714D01*
X147994643Y-56880095D01*
X147899405Y-56832476D01*
X147089881Y-56832476D01*
X148089881Y-55832476D02*
X148089881Y-56403905D01*
X148089881Y-56118191D02*
X147089881Y-56118191D01*
X147232738Y-56213429D01*
X147327976Y-56308667D01*
X147375595Y-56403905D01*
X176026831Y-86079235D02*
X176836355Y-86079235D01*
X176931593Y-86031616D01*
X176979212Y-85983997D01*
X177026831Y-85888759D01*
X177026831Y-85698282D01*
X176979212Y-85603044D01*
X176931593Y-85555425D01*
X176836355Y-85507806D01*
X176026831Y-85507806D01*
X176360164Y-84603044D02*
X177026831Y-84603044D01*
X175979212Y-84841140D02*
X176693498Y-85079235D01*
X176693498Y-84460187D01*
X175614081Y-98175985D02*
X176423605Y-98175985D01*
X176518843Y-98128366D01*
X176566462Y-98080747D01*
X176614081Y-97985509D01*
X176614081Y-97795032D01*
X176566462Y-97699794D01*
X176518843Y-97652175D01*
X176423605Y-97604556D01*
X175614081Y-97604556D01*
X175614081Y-96652175D02*
X175614081Y-97128366D01*
X176090271Y-97175985D01*
X176042652Y-97128366D01*
X175995033Y-97033128D01*
X175995033Y-96795032D01*
X176042652Y-96699794D01*
X176090271Y-96652175D01*
X176185510Y-96604556D01*
X176423605Y-96604556D01*
X176518843Y-96652175D01*
X176566462Y-96699794D01*
X176614081Y-96795032D01*
X176614081Y-97033128D01*
X176566462Y-97128366D01*
X176518843Y-97175985D01*
X175677581Y-109478985D02*
X176487105Y-109478985D01*
X176582343Y-109431366D01*
X176629962Y-109383747D01*
X176677581Y-109288509D01*
X176677581Y-109098032D01*
X176629962Y-109002794D01*
X176582343Y-108955175D01*
X176487105Y-108907556D01*
X175677581Y-108907556D01*
X175677581Y-108002794D02*
X175677581Y-108193271D01*
X175725200Y-108288509D01*
X175772819Y-108336128D01*
X175915676Y-108431366D01*
X176106152Y-108478985D01*
X176487105Y-108478985D01*
X176582343Y-108431366D01*
X176629962Y-108383747D01*
X176677581Y-108288509D01*
X176677581Y-108098032D01*
X176629962Y-108002794D01*
X176582343Y-107955175D01*
X176487105Y-107907556D01*
X176249010Y-107907556D01*
X176153771Y-107955175D01*
X176106152Y-108002794D01*
X176058533Y-108098032D01*
X176058533Y-108288509D01*
X176106152Y-108383747D01*
X176153771Y-108431366D01*
X176249010Y-108478985D01*
X136853777Y-64704981D02*
X136853777Y-65419267D01*
X136806157Y-65562124D01*
X136710919Y-65657362D01*
X136568062Y-65704981D01*
X136472824Y-65704981D01*
X137329967Y-65704981D02*
X137329967Y-64704981D01*
X137710920Y-64704981D01*
X137806158Y-64752600D01*
X137853777Y-64800219D01*
X137901396Y-64895457D01*
X137901396Y-65038314D01*
X137853777Y-65133552D01*
X137806158Y-65181171D01*
X137710920Y-65228790D01*
X137329967Y-65228790D01*
X138282348Y-64800219D02*
X138329967Y-64752600D01*
X138425205Y-64704981D01*
X138663301Y-64704981D01*
X138758539Y-64752600D01*
X138806158Y-64800219D01*
X138853777Y-64895457D01*
X138853777Y-64990695D01*
X138806158Y-65133552D01*
X138234729Y-65704981D01*
X138853777Y-65704981D01*
X139234729Y-64800219D02*
X139282348Y-64752600D01*
X139377586Y-64704981D01*
X139615682Y-64704981D01*
X139710920Y-64752600D01*
X139758539Y-64800219D01*
X139806158Y-64895457D01*
X139806158Y-64990695D01*
X139758539Y-65133552D01*
X139187110Y-65704981D01*
X139806158Y-65704981D01*
X136815677Y-75068181D02*
X136815677Y-75782467D01*
X136768057Y-75925324D01*
X136672819Y-76020562D01*
X136529962Y-76068181D01*
X136434724Y-76068181D01*
X137291867Y-76068181D02*
X137291867Y-75068181D01*
X137672820Y-75068181D01*
X137768058Y-75115800D01*
X137815677Y-75163419D01*
X137863296Y-75258657D01*
X137863296Y-75401514D01*
X137815677Y-75496752D01*
X137768058Y-75544371D01*
X137672820Y-75591990D01*
X137291867Y-75591990D01*
X138244248Y-75163419D02*
X138291867Y-75115800D01*
X138387105Y-75068181D01*
X138625201Y-75068181D01*
X138720439Y-75115800D01*
X138768058Y-75163419D01*
X138815677Y-75258657D01*
X138815677Y-75353895D01*
X138768058Y-75496752D01*
X138196629Y-76068181D01*
X138815677Y-76068181D01*
X139672820Y-75401514D02*
X139672820Y-76068181D01*
X139434724Y-75020562D02*
X139196629Y-75734848D01*
X139815677Y-75734848D01*
X130071881Y-110135823D02*
X130786167Y-110135823D01*
X130929024Y-110183443D01*
X131024262Y-110278681D01*
X131071881Y-110421538D01*
X131071881Y-110516776D01*
X131071881Y-109659633D02*
X130071881Y-109659633D01*
X130071881Y-109278680D01*
X130119500Y-109183442D01*
X130167119Y-109135823D01*
X130262357Y-109088204D01*
X130405214Y-109088204D01*
X130500452Y-109135823D01*
X130548071Y-109183442D01*
X130595690Y-109278680D01*
X130595690Y-109659633D01*
X130071881Y-108754871D02*
X130071881Y-108135823D01*
X130452833Y-108469157D01*
X130452833Y-108326299D01*
X130500452Y-108231061D01*
X130548071Y-108183442D01*
X130643310Y-108135823D01*
X130881405Y-108135823D01*
X130976643Y-108183442D01*
X131024262Y-108231061D01*
X131071881Y-108326299D01*
X131071881Y-108612014D01*
X131024262Y-108707252D01*
X130976643Y-108754871D01*
X130071881Y-107516776D02*
X130071881Y-107421537D01*
X130119500Y-107326299D01*
X130167119Y-107278680D01*
X130262357Y-107231061D01*
X130452833Y-107183442D01*
X130690929Y-107183442D01*
X130881405Y-107231061D01*
X130976643Y-107278680D01*
X131024262Y-107326299D01*
X131071881Y-107421537D01*
X131071881Y-107516776D01*
X131024262Y-107612014D01*
X130976643Y-107659633D01*
X130881405Y-107707252D01*
X130690929Y-107754871D01*
X130452833Y-107754871D01*
X130262357Y-107707252D01*
X130167119Y-107659633D01*
X130119500Y-107612014D01*
X130071881Y-107516776D01*
X124941081Y-110440623D02*
X125655367Y-110440623D01*
X125798224Y-110488243D01*
X125893462Y-110583481D01*
X125941081Y-110726338D01*
X125941081Y-110821576D01*
X125941081Y-109964433D02*
X124941081Y-109964433D01*
X124941081Y-109583480D01*
X124988700Y-109488242D01*
X125036319Y-109440623D01*
X125131557Y-109393004D01*
X125274414Y-109393004D01*
X125369652Y-109440623D01*
X125417271Y-109488242D01*
X125464890Y-109583480D01*
X125464890Y-109964433D01*
X124941081Y-109059671D02*
X124941081Y-108440623D01*
X125322033Y-108773957D01*
X125322033Y-108631099D01*
X125369652Y-108535861D01*
X125417271Y-108488242D01*
X125512510Y-108440623D01*
X125750605Y-108440623D01*
X125845843Y-108488242D01*
X125893462Y-108535861D01*
X125941081Y-108631099D01*
X125941081Y-108916814D01*
X125893462Y-109012052D01*
X125845843Y-109059671D01*
X125941081Y-107488242D02*
X125941081Y-108059671D01*
X125941081Y-107773957D02*
X124941081Y-107773957D01*
X125083938Y-107869195D01*
X125179176Y-107964433D01*
X125226795Y-108059671D01*
X119568981Y-110440623D02*
X120283267Y-110440623D01*
X120426124Y-110488243D01*
X120521362Y-110583481D01*
X120568981Y-110726338D01*
X120568981Y-110821576D01*
X120568981Y-109964433D02*
X119568981Y-109964433D01*
X119568981Y-109583480D01*
X119616600Y-109488242D01*
X119664219Y-109440623D01*
X119759457Y-109393004D01*
X119902314Y-109393004D01*
X119997552Y-109440623D01*
X120045171Y-109488242D01*
X120092790Y-109583480D01*
X120092790Y-109964433D01*
X119568981Y-109059671D02*
X119568981Y-108440623D01*
X119949933Y-108773957D01*
X119949933Y-108631099D01*
X119997552Y-108535861D01*
X120045171Y-108488242D01*
X120140410Y-108440623D01*
X120378505Y-108440623D01*
X120473743Y-108488242D01*
X120521362Y-108535861D01*
X120568981Y-108631099D01*
X120568981Y-108916814D01*
X120521362Y-109012052D01*
X120473743Y-109059671D01*
X119664219Y-108059671D02*
X119616600Y-108012052D01*
X119568981Y-107916814D01*
X119568981Y-107678718D01*
X119616600Y-107583480D01*
X119664219Y-107535861D01*
X119759457Y-107488242D01*
X119854695Y-107488242D01*
X119997552Y-107535861D01*
X120568981Y-108107290D01*
X120568981Y-107488242D01*
X114438181Y-110694623D02*
X115152467Y-110694623D01*
X115295324Y-110742243D01*
X115390562Y-110837481D01*
X115438181Y-110980338D01*
X115438181Y-111075576D01*
X115438181Y-110218433D02*
X114438181Y-110218433D01*
X114438181Y-109837480D01*
X114485800Y-109742242D01*
X114533419Y-109694623D01*
X114628657Y-109647004D01*
X114771514Y-109647004D01*
X114866752Y-109694623D01*
X114914371Y-109742242D01*
X114961990Y-109837480D01*
X114961990Y-110218433D01*
X114438181Y-109313671D02*
X114438181Y-108694623D01*
X114819133Y-109027957D01*
X114819133Y-108885099D01*
X114866752Y-108789861D01*
X114914371Y-108742242D01*
X115009610Y-108694623D01*
X115247705Y-108694623D01*
X115342943Y-108742242D01*
X115390562Y-108789861D01*
X115438181Y-108885099D01*
X115438181Y-109170814D01*
X115390562Y-109266052D01*
X115342943Y-109313671D01*
X114438181Y-108361290D02*
X114438181Y-107742242D01*
X114819133Y-108075576D01*
X114819133Y-107932718D01*
X114866752Y-107837480D01*
X114914371Y-107789861D01*
X115009610Y-107742242D01*
X115247705Y-107742242D01*
X115342943Y-107789861D01*
X115390562Y-107837480D01*
X115438181Y-107932718D01*
X115438181Y-108218433D01*
X115390562Y-108313671D01*
X115342943Y-108361290D01*
X114590581Y-123762923D02*
X115304867Y-123762923D01*
X115447724Y-123810543D01*
X115542962Y-123905781D01*
X115590581Y-124048638D01*
X115590581Y-124143876D01*
X115590581Y-123286733D02*
X114590581Y-123286733D01*
X114590581Y-122905780D01*
X114638200Y-122810542D01*
X114685819Y-122762923D01*
X114781057Y-122715304D01*
X114923914Y-122715304D01*
X115019152Y-122762923D01*
X115066771Y-122810542D01*
X115114390Y-122905780D01*
X115114390Y-123286733D01*
X114590581Y-122381971D02*
X114590581Y-121762923D01*
X114971533Y-122096257D01*
X114971533Y-121953399D01*
X115019152Y-121858161D01*
X115066771Y-121810542D01*
X115162010Y-121762923D01*
X115400105Y-121762923D01*
X115495343Y-121810542D01*
X115542962Y-121858161D01*
X115590581Y-121953399D01*
X115590581Y-122239114D01*
X115542962Y-122334352D01*
X115495343Y-122381971D01*
X114923914Y-120905780D02*
X115590581Y-120905780D01*
X114542962Y-121143876D02*
X115257248Y-121381971D01*
X115257248Y-120762923D01*
X119340381Y-123762923D02*
X120054667Y-123762923D01*
X120197524Y-123810543D01*
X120292762Y-123905781D01*
X120340381Y-124048638D01*
X120340381Y-124143876D01*
X120340381Y-123286733D02*
X119340381Y-123286733D01*
X119340381Y-122905780D01*
X119388000Y-122810542D01*
X119435619Y-122762923D01*
X119530857Y-122715304D01*
X119673714Y-122715304D01*
X119768952Y-122762923D01*
X119816571Y-122810542D01*
X119864190Y-122905780D01*
X119864190Y-123286733D01*
X119340381Y-122381971D02*
X119340381Y-121762923D01*
X119721333Y-122096257D01*
X119721333Y-121953399D01*
X119768952Y-121858161D01*
X119816571Y-121810542D01*
X119911810Y-121762923D01*
X120149905Y-121762923D01*
X120245143Y-121810542D01*
X120292762Y-121858161D01*
X120340381Y-121953399D01*
X120340381Y-122239114D01*
X120292762Y-122334352D01*
X120245143Y-122381971D01*
X119340381Y-120858161D02*
X119340381Y-121334352D01*
X119816571Y-121381971D01*
X119768952Y-121334352D01*
X119721333Y-121239114D01*
X119721333Y-121001018D01*
X119768952Y-120905780D01*
X119816571Y-120858161D01*
X119911810Y-120810542D01*
X120149905Y-120810542D01*
X120245143Y-120858161D01*
X120292762Y-120905780D01*
X120340381Y-121001018D01*
X120340381Y-121239114D01*
X120292762Y-121334352D01*
X120245143Y-121381971D01*
X124585481Y-123724823D02*
X125299767Y-123724823D01*
X125442624Y-123772443D01*
X125537862Y-123867681D01*
X125585481Y-124010538D01*
X125585481Y-124105776D01*
X125585481Y-123248633D02*
X124585481Y-123248633D01*
X124585481Y-122867680D01*
X124633100Y-122772442D01*
X124680719Y-122724823D01*
X124775957Y-122677204D01*
X124918814Y-122677204D01*
X125014052Y-122724823D01*
X125061671Y-122772442D01*
X125109290Y-122867680D01*
X125109290Y-123248633D01*
X124585481Y-122343871D02*
X124585481Y-121724823D01*
X124966433Y-122058157D01*
X124966433Y-121915299D01*
X125014052Y-121820061D01*
X125061671Y-121772442D01*
X125156910Y-121724823D01*
X125395005Y-121724823D01*
X125490243Y-121772442D01*
X125537862Y-121820061D01*
X125585481Y-121915299D01*
X125585481Y-122201014D01*
X125537862Y-122296252D01*
X125490243Y-122343871D01*
X124585481Y-120867680D02*
X124585481Y-121058157D01*
X124633100Y-121153395D01*
X124680719Y-121201014D01*
X124823576Y-121296252D01*
X125014052Y-121343871D01*
X125395005Y-121343871D01*
X125490243Y-121296252D01*
X125537862Y-121248633D01*
X125585481Y-121153395D01*
X125585481Y-120962918D01*
X125537862Y-120867680D01*
X125490243Y-120820061D01*
X125395005Y-120772442D01*
X125156910Y-120772442D01*
X125061671Y-120820061D01*
X125014052Y-120867680D01*
X124966433Y-120962918D01*
X124966433Y-121153395D01*
X125014052Y-121248633D01*
X125061671Y-121296252D01*
X125156910Y-121343871D01*
X130605281Y-123470823D02*
X131319567Y-123470823D01*
X131462424Y-123518443D01*
X131557662Y-123613681D01*
X131605281Y-123756538D01*
X131605281Y-123851776D01*
X131605281Y-122994633D02*
X130605281Y-122994633D01*
X130605281Y-122613680D01*
X130652900Y-122518442D01*
X130700519Y-122470823D01*
X130795757Y-122423204D01*
X130938614Y-122423204D01*
X131033852Y-122470823D01*
X131081471Y-122518442D01*
X131129090Y-122613680D01*
X131129090Y-122994633D01*
X130605281Y-122089871D02*
X130605281Y-121470823D01*
X130986233Y-121804157D01*
X130986233Y-121661299D01*
X131033852Y-121566061D01*
X131081471Y-121518442D01*
X131176710Y-121470823D01*
X131414805Y-121470823D01*
X131510043Y-121518442D01*
X131557662Y-121566061D01*
X131605281Y-121661299D01*
X131605281Y-121947014D01*
X131557662Y-122042252D01*
X131510043Y-122089871D01*
X130605281Y-121137490D02*
X130605281Y-120470823D01*
X131605281Y-120899395D01*
X104352767Y-104030981D02*
X104352767Y-104745267D01*
X104305147Y-104888124D01*
X104209909Y-104983362D01*
X104067052Y-105030981D01*
X103971814Y-105030981D01*
X105352767Y-105030981D02*
X104781338Y-105030981D01*
X105067052Y-105030981D02*
X105067052Y-104030981D01*
X104971814Y-104173838D01*
X104876576Y-104269076D01*
X104781338Y-104316695D01*
X126974814Y-77496481D02*
X126974814Y-76496481D01*
X127355767Y-76496481D01*
X127451005Y-76544100D01*
X127498624Y-76591719D01*
X127546243Y-76686957D01*
X127546243Y-76829814D01*
X127498624Y-76925052D01*
X127451005Y-76972671D01*
X127355767Y-77020290D01*
X126974814Y-77020290D01*
X127927195Y-77448862D02*
X128070052Y-77496481D01*
X128308148Y-77496481D01*
X128403386Y-77448862D01*
X128451005Y-77401243D01*
X128498624Y-77306005D01*
X128498624Y-77210767D01*
X128451005Y-77115529D01*
X128403386Y-77067910D01*
X128308148Y-77020290D01*
X128117671Y-76972671D01*
X128022433Y-76925052D01*
X127974814Y-76877433D01*
X127927195Y-76782195D01*
X127927195Y-76686957D01*
X127974814Y-76591719D01*
X128022433Y-76544100D01*
X128117671Y-76496481D01*
X128355767Y-76496481D01*
X128498624Y-76544100D01*
X128927195Y-77496481D02*
X128927195Y-76496481D01*
X129498624Y-77496481D02*
X129070052Y-76925052D01*
X129498624Y-76496481D02*
X128927195Y-77067910D01*
X130403386Y-76496481D02*
X129927195Y-76496481D01*
X129879576Y-76972671D01*
X129927195Y-76925052D01*
X130022433Y-76877433D01*
X130260529Y-76877433D01*
X130355767Y-76925052D01*
X130403386Y-76972671D01*
X130451005Y-77067910D01*
X130451005Y-77306005D01*
X130403386Y-77401243D01*
X130355767Y-77448862D01*
X130260529Y-77496481D01*
X130022433Y-77496481D01*
X129927195Y-77448862D01*
X129879576Y-77401243D01*
X160380881Y-119395833D02*
X161095167Y-119395833D01*
X161238024Y-119443453D01*
X161333262Y-119538691D01*
X161380881Y-119681548D01*
X161380881Y-119776786D01*
X160380881Y-119014881D02*
X160380881Y-118395833D01*
X160761833Y-118729167D01*
X160761833Y-118586309D01*
X160809452Y-118491071D01*
X160857071Y-118443452D01*
X160952310Y-118395833D01*
X161190405Y-118395833D01*
X161285643Y-118443452D01*
X161333262Y-118491071D01*
X161380881Y-118586309D01*
X161380881Y-118872024D01*
X161333262Y-118967262D01*
X161285643Y-119014881D01*
X181887893Y-82168893D02*
X181840274Y-82216512D01*
X181697417Y-82264131D01*
X181602179Y-82264131D01*
X181459321Y-82216512D01*
X181364083Y-82121274D01*
X181316464Y-82026036D01*
X181268845Y-81835560D01*
X181268845Y-81692702D01*
X181316464Y-81502226D01*
X181364083Y-81406988D01*
X181459321Y-81311750D01*
X181602179Y-81264131D01*
X181697417Y-81264131D01*
X181840274Y-81311750D01*
X181887893Y-81359369D01*
X182745036Y-81597464D02*
X182745036Y-82264131D01*
X182506940Y-81216512D02*
X182268845Y-81930798D01*
X182887893Y-81930798D01*
X183221226Y-81359369D02*
X183268845Y-81311750D01*
X183364083Y-81264131D01*
X183602179Y-81264131D01*
X183697417Y-81311750D01*
X183745036Y-81359369D01*
X183792655Y-81454607D01*
X183792655Y-81549845D01*
X183745036Y-81692702D01*
X183173607Y-82264131D01*
X183792655Y-82264131D01*
X178490643Y-96615143D02*
X178443024Y-96662762D01*
X178300167Y-96710381D01*
X178204929Y-96710381D01*
X178062071Y-96662762D01*
X177966833Y-96567524D01*
X177919214Y-96472286D01*
X177871595Y-96281810D01*
X177871595Y-96138952D01*
X177919214Y-95948476D01*
X177966833Y-95853238D01*
X178062071Y-95758000D01*
X178204929Y-95710381D01*
X178300167Y-95710381D01*
X178443024Y-95758000D01*
X178490643Y-95805619D01*
X179347786Y-96043714D02*
X179347786Y-96710381D01*
X179109690Y-95662762D02*
X178871595Y-96377048D01*
X179490643Y-96377048D01*
X180347786Y-95710381D02*
X179871595Y-95710381D01*
X179823976Y-96186571D01*
X179871595Y-96138952D01*
X179966833Y-96091333D01*
X180204929Y-96091333D01*
X180300167Y-96138952D01*
X180347786Y-96186571D01*
X180395405Y-96281810D01*
X180395405Y-96519905D01*
X180347786Y-96615143D01*
X180300167Y-96662762D01*
X180204929Y-96710381D01*
X179966833Y-96710381D01*
X179871595Y-96662762D01*
X179823976Y-96615143D01*
X182046643Y-93884643D02*
X181999024Y-93932262D01*
X181856167Y-93979881D01*
X181760929Y-93979881D01*
X181618071Y-93932262D01*
X181522833Y-93837024D01*
X181475214Y-93741786D01*
X181427595Y-93551310D01*
X181427595Y-93408452D01*
X181475214Y-93217976D01*
X181522833Y-93122738D01*
X181618071Y-93027500D01*
X181760929Y-92979881D01*
X181856167Y-92979881D01*
X181999024Y-93027500D01*
X182046643Y-93075119D01*
X182903786Y-93313214D02*
X182903786Y-93979881D01*
X182665690Y-92932262D02*
X182427595Y-93646548D01*
X183046643Y-93646548D01*
X183332357Y-92979881D02*
X183999024Y-92979881D01*
X183570452Y-93979881D01*
X179633643Y-105394143D02*
X179586024Y-105441762D01*
X179443167Y-105489381D01*
X179347929Y-105489381D01*
X179205071Y-105441762D01*
X179109833Y-105346524D01*
X179062214Y-105251286D01*
X179014595Y-105060810D01*
X179014595Y-104917952D01*
X179062214Y-104727476D01*
X179109833Y-104632238D01*
X179205071Y-104537000D01*
X179347929Y-104489381D01*
X179443167Y-104489381D01*
X179586024Y-104537000D01*
X179633643Y-104584619D01*
X180490786Y-104822714D02*
X180490786Y-105489381D01*
X180252690Y-104441762D02*
X180014595Y-105156048D01*
X180633643Y-105156048D01*
X181443167Y-104489381D02*
X181252690Y-104489381D01*
X181157452Y-104537000D01*
X181109833Y-104584619D01*
X181014595Y-104727476D01*
X180966976Y-104917952D01*
X180966976Y-105298905D01*
X181014595Y-105394143D01*
X181062214Y-105441762D01*
X181157452Y-105489381D01*
X181347929Y-105489381D01*
X181443167Y-105441762D01*
X181490786Y-105394143D01*
X181538405Y-105298905D01*
X181538405Y-105060810D01*
X181490786Y-104965571D01*
X181443167Y-104917952D01*
X181347929Y-104870333D01*
X181157452Y-104870333D01*
X181062214Y-104917952D01*
X181014595Y-104965571D01*
X180966976Y-105060810D01*
X183570643Y-103933643D02*
X183523024Y-103981262D01*
X183380167Y-104028881D01*
X183284929Y-104028881D01*
X183142071Y-103981262D01*
X183046833Y-103886024D01*
X182999214Y-103790786D01*
X182951595Y-103600310D01*
X182951595Y-103457452D01*
X182999214Y-103266976D01*
X183046833Y-103171738D01*
X183142071Y-103076500D01*
X183284929Y-103028881D01*
X183380167Y-103028881D01*
X183523024Y-103076500D01*
X183570643Y-103124119D01*
X184427786Y-103362214D02*
X184427786Y-104028881D01*
X184189690Y-102981262D02*
X183951595Y-103695548D01*
X184570643Y-103695548D01*
X185094452Y-103457452D02*
X184999214Y-103409833D01*
X184951595Y-103362214D01*
X184903976Y-103266976D01*
X184903976Y-103219357D01*
X184951595Y-103124119D01*
X184999214Y-103076500D01*
X185094452Y-103028881D01*
X185284929Y-103028881D01*
X185380167Y-103076500D01*
X185427786Y-103124119D01*
X185475405Y-103219357D01*
X185475405Y-103266976D01*
X185427786Y-103362214D01*
X185380167Y-103409833D01*
X185284929Y-103457452D01*
X185094452Y-103457452D01*
X184999214Y-103505071D01*
X184951595Y-103552690D01*
X184903976Y-103647929D01*
X184903976Y-103838405D01*
X184951595Y-103933643D01*
X184999214Y-103981262D01*
X185094452Y-104028881D01*
X185284929Y-104028881D01*
X185380167Y-103981262D01*
X185427786Y-103933643D01*
X185475405Y-103838405D01*
X185475405Y-103647929D01*
X185427786Y-103552690D01*
X185380167Y-103505071D01*
X185284929Y-103457452D01*
X160380881Y-76279333D02*
X161095167Y-76279333D01*
X161238024Y-76326953D01*
X161333262Y-76422191D01*
X161380881Y-76565048D01*
X161380881Y-76660286D01*
X160380881Y-75326952D02*
X160380881Y-75803143D01*
X160857071Y-75850762D01*
X160809452Y-75803143D01*
X160761833Y-75707905D01*
X160761833Y-75469809D01*
X160809452Y-75374571D01*
X160857071Y-75326952D01*
X160952310Y-75279333D01*
X161190405Y-75279333D01*
X161285643Y-75326952D01*
X161333262Y-75374571D01*
X161380881Y-75469809D01*
X161380881Y-75707905D01*
X161333262Y-75803143D01*
X161285643Y-75850762D01*
X129587667Y-75481381D02*
X129587667Y-76195667D01*
X129540047Y-76338524D01*
X129444809Y-76433762D01*
X129301952Y-76481381D01*
X129206714Y-76481381D01*
X129968619Y-75481381D02*
X130635286Y-75481381D01*
X130206714Y-76481381D01*
X92697514Y-101068581D02*
X92697514Y-100068581D01*
X93078467Y-100068581D01*
X93173705Y-100116200D01*
X93221324Y-100163819D01*
X93268943Y-100259057D01*
X93268943Y-100401914D01*
X93221324Y-100497152D01*
X93173705Y-100544771D01*
X93078467Y-100592390D01*
X92697514Y-100592390D01*
X93649895Y-101020962D02*
X93792752Y-101068581D01*
X94030848Y-101068581D01*
X94126086Y-101020962D01*
X94173705Y-100973343D01*
X94221324Y-100878105D01*
X94221324Y-100782867D01*
X94173705Y-100687629D01*
X94126086Y-100640010D01*
X94030848Y-100592390D01*
X93840371Y-100544771D01*
X93745133Y-100497152D01*
X93697514Y-100449533D01*
X93649895Y-100354295D01*
X93649895Y-100259057D01*
X93697514Y-100163819D01*
X93745133Y-100116200D01*
X93840371Y-100068581D01*
X94078467Y-100068581D01*
X94221324Y-100116200D01*
X94649895Y-101068581D02*
X94649895Y-100068581D01*
X95221324Y-101068581D02*
X94792752Y-100497152D01*
X95221324Y-100068581D02*
X94649895Y-100640010D01*
X95602276Y-100163819D02*
X95649895Y-100116200D01*
X95745133Y-100068581D01*
X95983229Y-100068581D01*
X96078467Y-100116200D01*
X96126086Y-100163819D01*
X96173705Y-100259057D01*
X96173705Y-100354295D01*
X96126086Y-100497152D01*
X95554657Y-101068581D01*
X96173705Y-101068581D01*
M02*
