<?xml version="1.0" standalone="no"?>
 <!DOCTYPE svg PUBLIC "-//W3C//DTD SVG 1.1//EN" 
 "http://www.w3.org/Graphics/SVG/1.1/DTD/svg11.dtd"> 
<svg xmlns="http://www.w3.org/2000/svg" version="1.1" 
    width="29.7002cm" height="21.0007cm" viewBox="0 0 116930 82680 ">
<title>SVG Picture created as Seminar_Med_Tech-B.SilkS.svg date 2017/07/22 20:40:32 </title>
  <desc>Picture generated by PCBNEW </desc>
<g style="fill:#000000; fill-opacity:1;stroke:#000000; stroke-opacity:1;
stroke-linecap:round; stroke-linejoin:round; "
 transform="translate(0 0) scale(1 1)">
</g>
<g style="fill:#000000; fill-opacity:0.0; 
stroke:#000000; stroke-width:-0.000393701; stroke-opacity:1; 
stroke-linecap:round; stroke-linejoin:round;">
</g>
<g style="fill:#000000; fill-opacity:0.0; 
stroke:#000000; stroke-width:59.0551; stroke-opacity:1; 
stroke-linecap:round; stroke-linejoin:round;">
<path d="M51129 58267
L51129 50666
" />
<path d="M51129 50666
L33807 50666
" />
<path d="M33807 50666
L33807 58267
" />
<path d="M33807 58267
L27901 58267
" />
<path d="M27901 58267
L27901 20745
" />
<path d="M67665 58267
L51129 58267
" />
<path d="M67665 20745
L67665 58267
" />
<path d="M27901 20745
L67665 20745
" />
</g>
<g style="fill:#000000; fill-opacity:0.0; 
stroke:#000000; stroke-width:47.2441; stroke-opacity:1; 
stroke-linecap:round; stroke-linejoin:round;">
<path d="M52958 38736
L52171 38736
" />
<path d="M52171 37933
L52958 37933
" />
<path d="M36149 32851
L36936 32851
" />
<path d="M36936 33654
L36149 33654
" />
<path d="M36209 34277
L36996 34277
" />
<path d="M36996 35080
L36209 35080
" />
<path d="M56563 44328
L56563 43541
" />
<path d="M57366 43541
L57366 44328
" />
<path d="M54613 44328
L54613 43541
" />
<path d="M55416 43541
L55416 44328
" />
<path d="M57513 44328
L57513 43541
" />
<path d="M58316 43541
L58316 44328
" />
<path d="M55613 44328
L55613 43541
" />
<path d="M56416 43541
L56416 44328
" />
<path d="M33639 34273
L34426 34273
" />
<path d="M34426 35076
L33639 35076
" />
<path d="M36187 26927
L36974 26927
" />
<path d="M36974 27730
L36187 27730
" />
<path d="M33623 26925
L34410 26925
" />
<path d="M34410 27728
L33623 27728
" />
<path d="M36164 25410
L36951 25410
" />
<path d="M36951 26213
L36164 26213
" />
<path d="M36207 22501
L36994 22501
" />
<path d="M36994 23304
L36207 23304
" />
<path d="M36129 35835
L36916 35835
" />
<path d="M36916 36638
L36129 36638
" />
</g>
<g style="fill:#000000; fill-opacity:0.0; 
stroke:#000000; stroke-width:59.0551; stroke-opacity:1; 
stroke-linecap:round; stroke-linejoin:round;">
<path d="M53602 42080
L51554 42080
" />
<path d="M51554 39127
L51554 42080
" />
<path d="M53602 39127
L51554 39127
" />
<path d="M53602 39127
L53602 42080
" />
</g>
<g style="fill:#000000; fill-opacity:0.0; 
stroke:#000000; stroke-width:47.2441; stroke-opacity:1; 
stroke-linecap:round; stroke-linejoin:round;">
<path d="M36156 29948
L36943 29948
" />
<path d="M36943 30751
L36156 30751
" />
<path d="M36186 28428
L36973 28428
" />
<path d="M36973 29231
L36186 29231
" />
<path d="M36216 31413
L37003 31413
" />
<path d="M37003 32216
L36216 32216
" />
<path d="M36196 23918
L36983 23918
" />
<path d="M36983 24721
L36196 24721
" />
<path d="M33596 28418
L34383 28418
" />
<path d="M34383 29221
L33596 29221
" />
<path d="M33601 25408
L34388 25408
" />
<path d="M34388 26211
L33601 26211
" />
<path d="M33631 23918
L34418 23918
" />
<path d="M34418 24721
L33631 24721
" />
<path d="M33661 31408
L34448 31408
" />
<path d="M34448 32211
L33661 32211
" />
<path d="M33591 32848
L34378 32848
" />
<path d="M34378 33651
L33591 33651
" />
<path d="M33581 29943
L34368 29943
" />
<path d="M34368 30746
L33581 30746
" />
<path d="M33621 22493
L34408 22493
" />
<path d="M34408 23296
L33621 23296
" />
<path d="M33591 35838
L34378 35838
" />
<path d="M34378 36641
L33591 36641
" />
</g>
<g style="fill:#000000; fill-opacity:0.0; 
stroke:#000000; stroke-width:59.0551; stroke-opacity:1; 
stroke-linecap:round; stroke-linejoin:round;">
<path d="M52893 37660
L52911 37679
L52968 37698
L53005 37698
L53061 37679
L53099 37641
L53118 37604
L53136 37529
L53136 37473
L53118 37398
L53099 37360
L53061 37323
L53005 37304
L52968 37304
L52911 37323
L52893 37341
" />
<path d="M52518 37698
L52743 37698
" />
<path d="M52630 37698
L52630 37304
L52668 37360
L52705 37398
L52743 37416
" />
<path d="M52143 37698
L52368 37698
" />
<path d="M52255 37698
L52255 37304
L52293 37360
L52330 37398
L52368 37416
" />
<path d="M36796 32704
L36814 32723
L36871 32742
L36908 32742
L36964 32723
L37002 32685
L37021 32648
L37039 32573
L37039 32517
L37021 32442
L37002 32404
L36964 32367
L36908 32348
L36871 32348
L36814 32367
L36796 32385
" />
<path d="M36664 32348
L36421 32348
L36552 32498
L36496 32498
L36458 32517
L36439 32535
L36421 32573
L36421 32667
L36439 32704
L36458 32723
L36496 32742
L36608 32742
L36646 32723
L36664 32704
" />
<path d="M36177 32348
L36139 32348
L36102 32367
L36083 32385
L36064 32423
L36046 32498
L36046 32592
L36064 32667
L36083 32704
L36102 32723
L36139 32742
L36177 32742
L36214 32723
L36233 32704
L36252 32667
L36271 32592
L36271 32498
L36252 32423
L36233 32385
L36214 32367
L36177 32348
" />
<path d="M36856 34130
L36874 34149
L36931 34168
L36968 34168
L37024 34149
L37062 34111
L37081 34074
L37099 33999
L37099 33943
L37081 33868
L37062 33830
L37024 33793
L36968 33774
L36931 33774
L36874 33793
L36856 33811
" />
<path d="M36706 33811
L36687 33793
L36649 33774
L36556 33774
L36518 33793
L36499 33811
L36481 33849
L36481 33886
L36499 33943
L36724 34168
L36481 34168
" />
<path d="M36349 33774
L36106 33774
L36237 33924
L36181 33924
L36143 33943
L36124 33961
L36106 33999
L36106 34093
L36124 34130
L36143 34149
L36181 34168
L36293 34168
L36331 34149
L36349 34130
" />
<path d="M57235 45569
L57254 45550
L57273 45494
L57273 45456
L57254 45400
L57216 45363
L57179 45344
L57104 45325
L57048 45325
L56973 45344
L56935 45363
L56898 45400
L56879 45456
L56879 45494
L56898 45550
L56916 45569
" />
<path d="M57010 45906
L57273 45906
" />
<path d="M56860 45813
L57141 45719
L57141 45963
" />
<path d="M55300 45584
L55319 45565
L55338 45509
L55338 45471
L55319 45415
L55281 45378
L55244 45359
L55169 45340
L55113 45340
L55038 45359
L55000 45378
L54963 45415
L54944 45471
L54944 45509
L54963 45565
L54981 45584
" />
<path d="M54944 45921
L54944 45846
L54963 45809
L54981 45790
L55038 45753
L55113 45734
L55263 45734
L55300 45753
L55319 45771
L55338 45809
L55338 45884
L55319 45921
L55300 45940
L55263 45959
L55169 45959
L55131 45940
L55113 45921
L55094 45884
L55094 45809
L55113 45771
L55131 45753
L55169 45734
" />
<path d="M58030 45571
L58049 45553
L58068 45496
L58068 45459
L58049 45403
L58011 45365
L57974 45346
L57899 45328
L57843 45328
L57768 45346
L57730 45365
L57693 45403
L57674 45459
L57674 45496
L57693 45553
L57711 45571
" />
<path d="M58068 45946
L58068 45721
" />
<path d="M58068 45834
L57674 45834
L57730 45796
L57768 45759
L57786 45721
" />
<path d="M57805 46284
L58068 46284
" />
<path d="M57655 46190
L57936 46096
L57936 46340
" />
<path d="M56255 45546
L56274 45528
L56293 45471
L56293 45434
L56274 45378
L56236 45340
L56199 45321
L56124 45303
L56068 45303
L55993 45321
L55955 45340
L55918 45378
L55899 45434
L55899 45471
L55918 45528
L55936 45546
" />
<path d="M56293 45921
L56293 45696
" />
<path d="M56293 45809
L55899 45809
L55955 45771
L55993 45734
L56011 45696
" />
<path d="M55899 46259
L55899 46184
L55918 46146
L55936 46128
L55993 46090
L56068 46071
L56218 46071
L56255 46090
L56274 46109
L56293 46146
L56293 46221
L56274 46259
L56255 46278
L56218 46296
L56124 46296
L56086 46278
L56068 46259
L56049 46221
L56049 46146
L56068 46109
L56086 46090
L56124 46071
" />
<path d="M34286 34126
L34304 34145
L34361 34164
L34398 34164
L34454 34145
L34492 34107
L34511 34070
L34529 33995
L34529 33939
L34511 33864
L34492 33826
L34454 33789
L34398 33770
L34361 33770
L34304 33789
L34286 33807
" />
<path d="M34136 33807
L34117 33789
L34079 33770
L33986 33770
L33948 33789
L33929 33807
L33911 33845
L33911 33882
L33929 33939
L34154 34164
L33911 34164
" />
<path d="M33573 33901
L33573 34164
" />
<path d="M33667 33751
L33761 34032
L33517 34032
" />
<path d="M36834 26780
L36852 26799
L36909 26818
L36946 26818
L37002 26799
L37040 26761
L37059 26724
L37077 26649
L37077 26593
L37059 26518
L37040 26480
L37002 26443
L36946 26424
L36909 26424
L36852 26443
L36834 26461
" />
<path d="M36684 26461
L36665 26443
L36627 26424
L36534 26424
L36496 26443
L36477 26461
L36459 26499
L36459 26536
L36477 26593
L36702 26818
L36459 26818
" />
<path d="M36121 26424
L36196 26424
L36234 26443
L36252 26461
L36290 26518
L36309 26593
L36309 26743
L36290 26780
L36271 26799
L36234 26818
L36159 26818
L36121 26799
L36102 26780
L36084 26743
L36084 26649
L36102 26611
L36121 26593
L36159 26574
L36234 26574
L36271 26593
L36290 26611
L36309 26649
" />
<path d="M34270 26778
L34288 26797
L34345 26816
L34382 26816
L34438 26797
L34476 26759
L34495 26722
L34513 26647
L34513 26591
L34495 26516
L34476 26478
L34438 26441
L34382 26422
L34345 26422
L34288 26441
L34270 26459
" />
<path d="M34120 26459
L34101 26441
L34063 26422
L33970 26422
L33932 26441
L33913 26459
L33895 26497
L33895 26534
L33913 26591
L34138 26816
L33895 26816
" />
<path d="M33670 26591
L33707 26572
L33726 26553
L33745 26516
L33745 26497
L33726 26459
L33707 26441
L33670 26422
L33595 26422
L33557 26441
L33538 26459
L33520 26497
L33520 26516
L33538 26553
L33557 26572
L33595 26591
L33670 26591
L33707 26609
L33726 26628
L33745 26666
L33745 26741
L33726 26778
L33707 26797
L33670 26816
L33595 26816
L33557 26797
L33538 26778
L33520 26741
L33520 26666
L33538 26628
L33557 26609
L33595 26591
" />
<path d="M36811 25263
L36829 25282
L36886 25301
L36923 25301
L36979 25282
L37017 25244
L37036 25207
L37054 25132
L37054 25076
L37036 25001
L37017 24963
L36979 24926
L36923 24907
L36886 24907
L36829 24926
L36811 24944
" />
<path d="M36661 24944
L36642 24926
L36604 24907
L36511 24907
L36473 24926
L36454 24944
L36436 24982
L36436 25019
L36454 25076
L36679 25301
L36436 25301
" />
<path d="M36248 25301
L36173 25301
L36136 25282
L36117 25263
L36079 25207
L36061 25132
L36061 24982
L36079 24944
L36098 24926
L36136 24907
L36211 24907
L36248 24926
L36267 24944
L36286 24982
L36286 25076
L36267 25113
L36248 25132
L36211 25151
L36136 25151
L36098 25132
L36079 25113
L36061 25076
" />
<path d="M36854 22354
L36872 22373
L36929 22392
L36966 22392
L37022 22373
L37060 22335
L37079 22298
L37097 22223
L37097 22167
L37079 22092
L37060 22054
L37022 22017
L36966 21998
L36929 21998
L36872 22017
L36854 22035
" />
<path d="M36722 21998
L36479 21998
L36610 22148
L36554 22148
L36516 22167
L36497 22185
L36479 22223
L36479 22317
L36497 22354
L36516 22373
L36554 22392
L36666 22392
L36704 22373
L36722 22354
" />
<path d="M36104 22392
L36329 22392
" />
<path d="M36216 22392
L36216 21998
L36254 22054
L36291 22092
L36329 22110
" />
<path d="M36776 35688
L36794 35707
L36851 35726
L36888 35726
L36944 35707
L36982 35669
L37001 35632
L37019 35557
L37019 35501
L37001 35426
L36982 35388
L36944 35351
L36888 35332
L36851 35332
L36794 35351
L36776 35369
" />
<path d="M36644 35332
L36401 35332
L36532 35482
L36476 35482
L36438 35501
L36419 35519
L36401 35557
L36401 35651
L36419 35688
L36438 35707
L36476 35726
L36588 35726
L36626 35707
L36644 35688
" />
<path d="M36251 35369
L36232 35351
L36194 35332
L36101 35332
L36063 35351
L36044 35369
L36026 35407
L36026 35444
L36044 35501
L36269 35726
L36026 35726
" />
<path d="M53504 42279
L53429 42279
L53391 42298
L53354 42335
L53335 42410
L53335 42541
L53354 42616
L53391 42654
L53429 42673
L53504 42673
L53541 42654
L53579 42616
L53598 42541
L53598 42410
L53579 42335
L53541 42298
L53504 42279
" />
<path d="M53185 42654
L53129 42673
L53035 42673
L52998 42654
L52979 42635
L52960 42598
L52960 42560
L52979 42523
L52998 42504
L53035 42485
L53110 42466
L53148 42448
L53166 42429
L53185 42391
L53185 42354
L53166 42316
L53148 42298
L53110 42279
L53016 42279
L52960 42298
" />
<path d="M52566 42635
L52585 42654
L52641 42673
L52679 42673
L52735 42654
L52773 42616
L52791 42579
L52810 42504
L52810 42448
L52791 42373
L52773 42335
L52735 42298
L52679 42279
L52641 42279
L52585 42298
L52566 42316
" />
<path d="M52191 42673
L52416 42673
" />
<path d="M52304 42673
L52304 42279
L52341 42335
L52379 42373
L52416 42391
" />
<path d="M36803 29801
L36821 29820
L36878 29839
L36915 29839
L36971 29820
L37009 29782
L37028 29745
L37046 29670
L37046 29614
L37028 29539
L37009 29501
L36971 29464
L36915 29445
L36878 29445
L36821 29464
L36803 29482
" />
<path d="M36446 29445
L36634 29445
L36653 29632
L36634 29614
L36596 29595
L36503 29595
L36465 29614
L36446 29632
L36428 29670
L36428 29764
L36446 29801
L36465 29820
L36503 29839
L36596 29839
L36634 29820
L36653 29801
" />
<path d="M36053 29839
L36278 29839
" />
<path d="M36165 29839
L36165 29445
L36203 29501
L36240 29539
L36278 29557
" />
<path d="M36833 28281
L36851 28300
L36908 28319
L36945 28319
L37001 28300
L37039 28262
L37058 28225
L37076 28150
L37076 28094
L37058 28019
L37039 27981
L37001 27944
L36945 27925
L36908 27925
L36851 27944
L36833 27962
" />
<path d="M36476 27925
L36664 27925
L36683 28112
L36664 28094
L36626 28075
L36533 28075
L36495 28094
L36476 28112
L36458 28150
L36458 28244
L36476 28281
L36495 28300
L36533 28319
L36626 28319
L36664 28300
L36683 28281
" />
<path d="M36308 27962
L36289 27944
L36251 27925
L36158 27925
L36120 27944
L36101 27962
L36083 28000
L36083 28037
L36101 28094
L36326 28319
L36083 28319
" />
<path d="M36863 31266
L36881 31285
L36938 31304
L36975 31304
L37031 31285
L37069 31247
L37088 31210
L37106 31135
L37106 31079
L37088 31004
L37069 30966
L37031 30929
L36975 30910
L36938 30910
L36881 30929
L36863 30947
" />
<path d="M36506 30910
L36694 30910
L36713 31097
L36694 31079
L36656 31060
L36563 31060
L36525 31079
L36506 31097
L36488 31135
L36488 31229
L36506 31266
L36525 31285
L36563 31304
L36656 31304
L36694 31285
L36713 31266
" />
<path d="M36356 30910
L36113 30910
L36244 31060
L36188 31060
L36150 31079
L36131 31097
L36113 31135
L36113 31229
L36131 31266
L36150 31285
L36188 31304
L36300 31304
L36338 31285
L36356 31266
" />
<path d="M36843 23771
L36861 23790
L36918 23809
L36955 23809
L37011 23790
L37049 23752
L37068 23715
L37086 23640
L37086 23584
L37068 23509
L37049 23471
L37011 23434
L36955 23415
L36918 23415
L36861 23434
L36843 23452
" />
<path d="M36486 23415
L36674 23415
L36693 23602
L36674 23584
L36636 23565
L36543 23565
L36505 23584
L36486 23602
L36468 23640
L36468 23734
L36486 23771
L36505 23790
L36543 23809
L36636 23809
L36674 23790
L36693 23771
" />
<path d="M36130 23546
L36130 23809
" />
<path d="M36224 23396
L36318 23677
L36074 23677
" />
<path d="M34243 28271
L34261 28290
L34318 28309
L34355 28309
L34411 28290
L34449 28252
L34468 28215
L34486 28140
L34486 28084
L34468 28009
L34449 27971
L34411 27934
L34355 27915
L34318 27915
L34261 27934
L34243 27952
" />
<path d="M33886 27915
L34074 27915
L34093 28102
L34074 28084
L34036 28065
L33943 28065
L33905 28084
L33886 28102
L33868 28140
L33868 28234
L33886 28271
L33905 28290
L33943 28309
L34036 28309
L34074 28290
L34093 28271
" />
<path d="M33736 27915
L33474 27915
L33643 28309
" />
<path d="M34248 25261
L34266 25280
L34323 25299
L34360 25299
L34416 25280
L34454 25242
L34473 25205
L34491 25130
L34491 25074
L34473 24999
L34454 24961
L34416 24924
L34360 24905
L34323 24905
L34266 24924
L34248 24942
" />
<path d="M33891 24905
L34079 24905
L34098 25092
L34079 25074
L34041 25055
L33948 25055
L33910 25074
L33891 25092
L33873 25130
L33873 25224
L33891 25261
L33910 25280
L33948 25299
L34041 25299
L34079 25280
L34098 25261
" />
<path d="M33648 25074
L33685 25055
L33704 25036
L33723 24999
L33723 24980
L33704 24942
L33685 24924
L33648 24905
L33573 24905
L33535 24924
L33516 24942
L33498 24980
L33498 24999
L33516 25036
L33535 25055
L33573 25074
L33648 25074
L33685 25092
L33704 25111
L33723 25149
L33723 25224
L33704 25261
L33685 25280
L33648 25299
L33573 25299
L33535 25280
L33516 25261
L33498 25224
L33498 25149
L33516 25111
L33535 25092
L33573 25074
" />
<path d="M34278 23771
L34296 23790
L34353 23809
L34390 23809
L34446 23790
L34484 23752
L34503 23715
L34521 23640
L34521 23584
L34503 23509
L34484 23471
L34446 23434
L34390 23415
L34353 23415
L34296 23434
L34278 23452
" />
<path d="M33921 23415
L34109 23415
L34128 23602
L34109 23584
L34071 23565
L33978 23565
L33940 23584
L33921 23602
L33903 23640
L33903 23734
L33921 23771
L33940 23790
L33978 23809
L34071 23809
L34109 23790
L34128 23771
" />
<path d="M33715 23809
L33640 23809
L33603 23790
L33584 23771
L33546 23715
L33528 23640
L33528 23490
L33546 23452
L33565 23434
L33603 23415
L33678 23415
L33715 23434
L33734 23452
L33753 23490
L33753 23584
L33734 23621
L33715 23640
L33678 23659
L33603 23659
L33565 23640
L33546 23621
L33528 23584
" />
<path d="M34308 31261
L34326 31280
L34383 31299
L34420 31299
L34476 31280
L34514 31242
L34533 31205
L34551 31130
L34551 31074
L34533 30999
L34514 30961
L34476 30924
L34420 30905
L34383 30905
L34326 30924
L34308 30942
" />
<path d="M33970 30905
L34045 30905
L34083 30924
L34101 30942
L34139 30999
L34158 31074
L34158 31224
L34139 31261
L34120 31280
L34083 31299
L34008 31299
L33970 31280
L33951 31261
L33933 31224
L33933 31130
L33951 31092
L33970 31074
L34008 31055
L34083 31055
L34120 31074
L34139 31092
L34158 31130
" />
<path d="M33689 30905
L33651 30905
L33614 30924
L33595 30942
L33576 30980
L33558 31055
L33558 31149
L33576 31224
L33595 31261
L33614 31280
L33651 31299
L33689 31299
L33726 31280
L33745 31261
L33764 31224
L33783 31149
L33783 31055
L33764 30980
L33745 30942
L33726 30924
L33689 30905
" />
<path d="M34238 32701
L34256 32720
L34313 32739
L34350 32739
L34406 32720
L34444 32682
L34463 32645
L34481 32570
L34481 32514
L34463 32439
L34444 32401
L34406 32364
L34350 32345
L34313 32345
L34256 32364
L34238 32382
" />
<path d="M33900 32345
L33975 32345
L34013 32364
L34031 32382
L34069 32439
L34088 32514
L34088 32664
L34069 32701
L34050 32720
L34013 32739
L33938 32739
L33900 32720
L33881 32701
L33863 32664
L33863 32570
L33881 32532
L33900 32514
L33938 32495
L34013 32495
L34050 32514
L34069 32532
L34088 32570
" />
<path d="M33488 32739
L33713 32739
" />
<path d="M33600 32739
L33600 32345
L33638 32401
L33675 32439
L33713 32457
" />
<path d="M34228 29796
L34246 29815
L34303 29834
L34340 29834
L34396 29815
L34434 29777
L34453 29740
L34471 29665
L34471 29609
L34453 29534
L34434 29496
L34396 29459
L34340 29440
L34303 29440
L34246 29459
L34228 29477
" />
<path d="M33890 29440
L33965 29440
L34003 29459
L34021 29477
L34059 29534
L34078 29609
L34078 29759
L34059 29796
L34040 29815
L34003 29834
L33928 29834
L33890 29815
L33871 29796
L33853 29759
L33853 29665
L33871 29627
L33890 29609
L33928 29590
L34003 29590
L34040 29609
L34059 29627
L34078 29665
" />
<path d="M33721 29440
L33478 29440
L33609 29590
L33553 29590
L33515 29609
L33496 29627
L33478 29665
L33478 29759
L33496 29796
L33515 29815
L33553 29834
L33665 29834
L33703 29815
L33721 29796
" />
<path d="M34268 22346
L34286 22365
L34343 22384
L34380 22384
L34436 22365
L34474 22327
L34493 22290
L34511 22215
L34511 22159
L34493 22084
L34474 22046
L34436 22009
L34380 21990
L34343 21990
L34286 22009
L34268 22027
" />
<path d="M33930 21990
L34005 21990
L34043 22009
L34061 22027
L34099 22084
L34118 22159
L34118 22309
L34099 22346
L34080 22365
L34043 22384
L33968 22384
L33930 22365
L33911 22346
L33893 22309
L33893 22215
L33911 22177
L33930 22159
L33968 22140
L34043 22140
L34080 22159
L34099 22177
L34118 22215
" />
<path d="M33555 22121
L33555 22384
" />
<path d="M33649 21971
L33743 22252
L33499 22252
" />
<path d="M34238 35691
L34256 35710
L34313 35729
L34350 35729
L34406 35710
L34444 35672
L34463 35635
L34481 35560
L34481 35504
L34463 35429
L34444 35391
L34406 35354
L34350 35335
L34313 35335
L34256 35354
L34238 35372
" />
<path d="M33900 35335
L33975 35335
L34013 35354
L34031 35372
L34069 35429
L34088 35504
L34088 35654
L34069 35691
L34050 35710
L34013 35729
L33938 35729
L33900 35710
L33881 35691
L33863 35654
L33863 35560
L33881 35522
L33900 35504
L33938 35485
L34013 35485
L34050 35504
L34069 35522
L34088 35560
" />
<path d="M33506 35335
L33694 35335
L33713 35522
L33694 35504
L33656 35485
L33563 35485
L33525 35504
L33506 35522
L33488 35560
L33488 35654
L33506 35691
L33525 35710
L33563 35729
L33656 35729
L33694 35710
L33713 35691
" />
</g> 
</svg>
