<?xml version="1.0" standalone="no"?>
 <!DOCTYPE svg PUBLIC "-//W3C//DTD SVG 1.1//EN" 
 "http://www.w3.org/Graphics/SVG/1.1/DTD/svg11.dtd"> 
<svg xmlns="http://www.w3.org/2000/svg" version="1.1" 
    width="29.7002cm" height="21.0007cm" viewBox="0 0 116930 82680 ">
<title>SVG Picture created as Seminar_Med_Tech-F.SilkS.svg date 2017/07/22 20:40:32 </title>
  <desc>Picture generated by PCBNEW </desc>
<g style="fill:#000000; fill-opacity:1;stroke:#000000; stroke-opacity:1;
stroke-linecap:round; stroke-linejoin:round; "
 transform="translate(0 0) scale(1 1)">
</g>
<g style="fill:#000000; fill-opacity:0.0; 
stroke:#000000; stroke-width:-0.000393701; stroke-opacity:1; 
stroke-linecap:round; stroke-linejoin:round;">
</g>
<g style="fill:#000000; fill-opacity:0.0; 
stroke:#000000; stroke-width:59.0551; stroke-opacity:1; 
stroke-linecap:round; stroke-linejoin:round;">
<path d="M51129 58267
L51129 50666
" />
<path d="M51129 50666
L33807 50666
" />
<path d="M33807 50666
L33807 58267
" />
<path d="M33807 58267
L27901 58267
" />
<path d="M27901 58267
L27901 20745
" />
<path d="M67665 58267
L51129 58267
" />
<path d="M67665 20745
L67665 58267
" />
<path d="M27901 20745
L67665 20745
" />
</g>
<g style="fill:#000000; fill-opacity:0.0; 
stroke:#000000; stroke-width:47.2441; stroke-opacity:1; 
stroke-linecap:round; stroke-linejoin:round;">
<circle cx="65157.5" cy="22637.8" r="900" /> 
<circle cx="65157.5" cy="56102.4" r="900" /> 
<circle cx="29724.4" cy="56102.4" r="900" /> 
<path d="M37137 39657
L30113 39657
" />
<path d="M30113 39657
L30113 41704
" />
<path d="M30113 41704
L38160 41704
" />
<path d="M38160 41704
L38160 40681
" />
<path d="M38160 40681
L37137 40681
" />
<path d="M37137 40681
L37137 39657
" />
<path d="M37637 39657
L38160 39657
" />
<path d="M38160 39657
L38160 40181
" />
</g>
<g style="fill:#000000; fill-opacity:0.0; 
stroke:#000000; stroke-width:59.0551; stroke-opacity:1; 
stroke-linecap:round; stroke-linejoin:round;">
<circle cx="42455" cy="42499" r="161.555" /> 
<path d="M46085 46139
L46085 42119
" />
<path d="M46085 42119
L42065 42119
" />
<path d="M42065 42119
L42065 46139
" />
<path d="M42065 46139
L44075 46139
" />
<path d="M44075 46139
L46085 46139
" />
<circle cx="44815" cy="29071" r="161.555" /> 
<path d="M48445 32711
L48445 28691
" />
<path d="M48445 28691
L44425 28691
" />
<path d="M44425 28691
L44425 32711
" />
<path d="M44425 32711
L46435 32711
" />
<path d="M46435 32711
L48445 32711
" />
</g>
<g style="fill:#000000; fill-opacity:0.0; 
stroke:#000000; stroke-width:47.2441; stroke-opacity:1; 
stroke-linecap:round; stroke-linejoin:round;">
<path d="M51241 44638
L51241 45111
" />
<path d="M50548 45111
L50548 44638
" />
<path d="M48655 35925
L48655 35138
" />
<path d="M47852 35138
L47852 35925
" />
<path d="M50422 35932
L50422 35145
" />
<path d="M49619 35145
L49619 35932
" />
<path d="M48966 26628
L48966 25841
" />
<path d="M48163 25841
L48163 26628
" />
<path d="M56221 37236
L57008 37236
" />
<path d="M57008 36433
L56221 36433
" />
<path d="M45051 49347
L45051 48560
" />
<path d="M44248 48560
L44248 49347
" />
<path d="M43248 48560
L43248 49347
" />
<path d="M44051 49347
L44051 48560
" />
<path d="M49534 35926
L49534 35139
" />
<path d="M48731 35139
L48731 35926
" />
<path d="M46052 35138
L46052 35925
" />
<path d="M46855 35925
L46855 35138
" />
<path d="M56221 38086
L57008 38086
" />
<path d="M57008 37283
L56221 37283
" />
<path d="M50016 26628
L50016 25841
" />
<path d="M49213 25841
L49213 26628
" />
<path d="M42248 48560
L42248 49347
" />
<path d="M43051 49347
L43051 48560
" />
<path d="M56416 41078
L56416 40291
" />
<path d="M55613 40291
L55613 41078
" />
<path d="M57216 41078
L57216 40291
" />
<path d="M56413 40291
L56413 41078
" />
<path d="M46001 49347
L46001 48560
" />
<path d="M45198 48560
L45198 49347
" />
<path d="M45581 25181
L46368 25181
" />
<path d="M46368 24378
L45581 24378
" />
<path d="M55013 21691
L55013 22478
" />
<path d="M55816 22478
L55816 21691
" />
<path d="M53016 24851
L53803 24851
" />
<path d="M53803 24048
L53016 24048
" />
<path d="M46976 49347
L46976 48560
" />
<path d="M46173 48560
L46173 49347
" />
<path d="M51586 51397
L51586 52185
" />
<path d="M52389 52185
L52389 51397
" />
<path d="M52767 51318
L52767 52106
" />
<path d="M53570 52106
L53570 51318
" />
<path d="M62408 36133
L61621 36133
" />
<path d="M61621 36936
L62408 36936
" />
<path d="M62392 40529
L61605 40529
" />
<path d="M61605 41332
L62392 41332
" />
<path d="M62592 44904
L61805 44904
" />
<path d="M61805 45707
L62592 45707
" />
<path d="M39068 30750
L39068 29963
" />
<path d="M39068 29963
L37533 29963
" />
<path d="M39068 30750
L37533 30750
" />
<path d="M39066 29182
L39066 28395
" />
<path d="M39066 28395
L37531 28395
" />
<path d="M39066 29182
L37531 29182
" />
<path d="M39116 32172
L39116 31385
" />
<path d="M39116 31385
L37581 31385
" />
<path d="M39116 32172
L37581 32172
" />
<path d="M39106 35098
L39106 34311
" />
<path d="M39106 34311
L37571 34311
" />
<path d="M39106 35098
L37571 35098
" />
<path d="M39084 27698
L39084 26911
" />
<path d="M39084 26911
L37549 26911
" />
<path d="M39084 27698
L37549 27698
" />
<path d="M39052 26208
L39052 25421
" />
<path d="M39052 25421
L37517 25421
" />
<path d="M39052 26208
L37517 26208
" />
<path d="M39026 33644
L39026 32857
" />
<path d="M39026 32857
L37491 32857
" />
<path d="M39026 33644
L37491 33644
" />
<path d="M39048 23314
L39048 22527
" />
<path d="M39048 22527
L37513 22527
" />
<path d="M39048 23314
L37513 23314
" />
<path d="M39062 24732
L39062 23945
" />
<path d="M39062 23945
L37527 23945
" />
<path d="M39062 24732
L37527 24732
" />
<path d="M39008 36657
L39008 35870
" />
<path d="M39008 35870
L37473 35870
" />
<path d="M39008 36657
L37473 36657
" />
</g>
<g style="fill:#000000; fill-opacity:0.0; 
stroke:#000000; stroke-width:59.0551; stroke-opacity:1; 
stroke-linecap:round; stroke-linejoin:round;">
<path d="M46675 25300
L45675 25300
" />
<path d="M45675 27300
L46675 27300
" />
<path d="M45675 25300
L45675 27300
" />
<path d="M46675 25300
L45675 25300
" />
<path d="M46675 25300
L46675 27300
" />
<path d="M46675 27300
L46675 25300
" />
<path d="M48889 50350
L49889 50350
" />
<path d="M49889 48350
L48889 48350
" />
<path d="M49889 50350
L49889 48350
" />
<path d="M48889 50350
L49889 50350
" />
<path d="M48889 50350
L48889 48350
" />
<path d="M48889 48350
L48889 50350
" />
<path d="M54855 50390
L53855 50390
" />
<path d="M53855 52390
L54855 52390
" />
<path d="M53855 50390
L53855 52390
" />
<path d="M54855 50390
L53855 50390
" />
<path d="M54855 50390
L54855 52390
" />
<path d="M54855 52390
L54855 50390
" />
<path d="M54565 33035
L53565 33035
" />
<path d="M53565 35035
L54565 35035
" />
<path d="M53565 33035
L53565 35035
" />
<path d="M54565 33035
L53565 33035
" />
<path d="M54565 33035
L54565 35035
" />
<path d="M54565 35035
L54565 33035
" />
<path d="M48280 46315
L48280 47315
" />
<path d="M50280 47315
L50280 46315
" />
<path d="M48280 47315
L50280 47315
" />
<path d="M48280 46315
L48280 47315
" />
<path d="M48280 46315
L50280 46315
" />
<path d="M50280 46315
L48280 46315
" />
</g>
<g style="fill:#000000; fill-opacity:0.0; 
stroke:#000000; stroke-width:47.2441; stroke-opacity:1; 
stroke-linecap:round; stroke-linejoin:round;">
<path d="M57321 25942
L66344 25942
" />
<path d="M66344 25942
L66344 24895
" />
<path d="M66344 24895
L57321 24895
" />
<path d="M57321 24895
L57321 25942
" />
<path d="M56821 25942
L56297 25942
" />
<path d="M56297 25942
L56297 25419
" />
<path d="M59259 52925
L63283 52925
" />
<path d="M63283 52925
L63283 51877
" />
<path d="M63283 51877
L59259 51877
" />
<path d="M59259 51877
L59259 52925
" />
<path d="M58759 52925
L58236 52925
" />
<path d="M58236 52925
L58236 52401
" />
<path d="M33981 22154
L35004 22154
" />
<path d="M35004 22154
L35004 21107
" />
<path d="M35004 21107
L33981 21107
" />
<path d="M33981 21107
L33981 22154
" />
<path d="M33481 22154
L32957 22154
" />
<path d="M32957 22154
L32957 21631
" />
<path d="M56418 21921
L56418 21448
" />
<path d="M57111 21448
L57111 21921
" />
<path d="M59015 21635
L59015 21233
" />
<path d="M59015 21233
L59566 21233
" />
<path d="M59015 22934
L59015 23336
" />
<path d="M59015 23336
L59566 23336
" />
<path d="M59314 22285
L59566 22285
" />
<path d="M59314 22285
L59515 22084
" />
<path d="M59314 22285
L59515 22485
" />
<path d="M59314 22934
L58763 22934
" />
<path d="M58763 22934
L58763 21635
" />
<path d="M58763 21635
L59314 21635
" />
<path d="M59314 21635
L59314 22934
" />
<path d="M44813 26666
L44813 26193
" />
<path d="M45506 26193
L45506 26666
" />
<path d="M48651 22953
L48651 23426
" />
<path d="M47958 23426
L47958 22953
" />
<path d="M57318 23121
L57318 22648
" />
<path d="M58011 22648
L58011 23121
" />
<path d="M55328 32338
L55801 32338
" />
<path d="M55801 33031
L55328 33031
" />
<path d="M55308 33113
L55781 33113
" />
<path d="M55781 33806
L55308 33806
" />
<path d="M45388 23528
L45861 23528
" />
<path d="M45861 24221
L45388 24221
" />
<path d="M34090 29952
L34563 29952
" />
<path d="M34563 30645
L34090 30645
" />
<path d="M36106 29927
L36579 29927
" />
<path d="M36579 30620
L36106 30620
" />
<path d="M48957 44490
L49430 44490
" />
<path d="M49430 45183
L48957 45183
" />
<path d="M48957 45396
L49430 45396
" />
<path d="M49430 46089
L48957 46089
" />
<path d="M34096 28458
L34569 28458
" />
<path d="M34569 29151
L34096 29151
" />
<path d="M36104 28437
L36577 28437
" />
<path d="M36577 29130
L36104 29130
" />
<path d="M61886 35816
L61413 35816
" />
<path d="M61413 35123
L61886 35123
" />
</g>
<g style="fill:#000000; fill-opacity:0.0; 
stroke:#000000; stroke-width:39.3701; stroke-opacity:1; 
stroke-linecap:round; stroke-linejoin:round;">
<path d="M54139 20935
L54139 22903
" />
<path d="M52565 20935
L54139 20935
" />
<path d="M52565 22903
L54139 22903
" />
<path d="M52565 20935
L52565 22903
" />
</g>
<g style="fill:#000000; fill-opacity:0.0; 
stroke:#000000; stroke-width:47.2441; stroke-opacity:1; 
stroke-linecap:round; stroke-linejoin:round;">
<path d="M46971 39136
L47758 39136
" />
<path d="M47758 38333
L46971 38333
" />
<path d="M46993 40179
L47780 40179
" />
<path d="M47780 39376
L46993 39376
" />
<path d="M30579 24995
L30579 34018
" />
<path d="M30579 34018
L31626 34018
" />
<path d="M31626 34018
L31626 24995
" />
<path d="M31626 24995
L30579 24995
" />
<path d="M30579 24495
L30579 23971
" />
<path d="M30579 23971
L31103 23971
" />
<path d="M48718 40738
L47931 40738
" />
<path d="M47931 41541
L48718 41541
" />
<path d="M48711 41590
L47923 41590
" />
<path d="M47923 42394
L48711 42394
" />
<path d="M46411 21996
L47198 21996
" />
<path d="M47198 21193
L46411 21193
" />
<path d="M46963 35126
L46963 35913
" />
<path d="M47766 35913
L47766 35126
" />
<path d="M56193 51141
L56193 51928
" />
<path d="M56996 51928
L56996 51141
" />
<path d="M55023 51101
L55023 51888
" />
<path d="M55826 51888
L55826 51101
" />
<path d="M52071 26618
L52071 25831
" />
<path d="M51268 25831
L51268 26618
" />
<path d="M51071 26618
L51071 25831
" />
<path d="M50268 25831
L50268 26618
" />
<path d="M59288 34204
L58501 34204
" />
<path d="M58501 34204
L58501 35739
" />
<path d="M59288 34204
L59288 35739
" />
<path d="M59343 38684
L58556 38684
" />
<path d="M58556 38684
L58556 40219
" />
<path d="M59343 38684
L59343 40219
" />
<path d="M54235 32191
L63258 32191
" />
<path d="M63258 32191
L63258 30143
" />
<path d="M63258 30143
L53211 30143
" />
<path d="M53211 30143
L53211 31167
" />
<path d="M53211 31167
L54235 31167
" />
<path d="M54235 31167
L54235 32191
" />
<path d="M53735 32191
L53211 32191
" />
<path d="M53211 32191
L53211 31667
" />
</g>
<g style="fill:#000000; fill-opacity:0.0; 
stroke:#000000; stroke-width:59.0551; stroke-opacity:1; 
stroke-linecap:round; stroke-linejoin:round;">
<path d="M48585 21015
L51585 21015
" />
<path d="M48585 21015
L48585 22015
" />
<path d="M51585 21015
L48585 21015
" />
<path d="M51585 21015
L51585 22015
" />
<path d="M48585 21015
L51585 21015
" />
<path d="M51585 22015
L48585 22015
" />
<path d="M48585 22015
L51585 22015
" />
<path d="M45190 22080
L42190 22080
" />
<path d="M45190 22080
L45190 21080
" />
<path d="M42190 22080
L45190 22080
" />
<path d="M42190 22080
L42190 21080
" />
<path d="M45190 22080
L42190 22080
" />
<path d="M42190 21080
L45190 21080
" />
<path d="M45190 21080
L42190 21080
" />
<path d="M44665 22345
L47665 22345
" />
<path d="M44665 22345
L44665 23345
" />
<path d="M47665 22345
L44665 22345
" />
<path d="M47665 22345
L47665 23345
" />
<path d="M44665 22345
L47665 22345
" />
<path d="M47665 23345
L44665 23345
" />
<path d="M44665 23345
L47665 23345
" />
<path d="M49770 42090
L49770 39090
" />
<path d="M49770 42090
L50770 42090
" />
<path d="M49770 39090
L49770 42090
" />
<path d="M49770 39090
L50770 39090
" />
<path d="M49770 42090
L49770 39090
" />
<path d="M50770 39090
L50770 42090
" />
<path d="M50770 42090
L50770 39090
" />
<path d="M54440 42160
L54440 39160
" />
<path d="M54440 42160
L55440 42160
" />
<path d="M54440 39160
L54440 42160
" />
<path d="M54440 39160
L55440 39160
" />
<path d="M54440 42160
L54440 39160
" />
<path d="M55440 39160
L55440 42160
" />
<path d="M55440 42160
L55440 39160
" />
<path d="M52290 25425
L55290 25425
" />
<path d="M52290 25425
L52290 26425
" />
<path d="M55290 25425
L52290 25425
" />
<path d="M55290 25425
L55290 26425
" />
<path d="M52290 25425
L55290 25425
" />
<path d="M55290 26425
L52290 26425
" />
<path d="M52290 26425
L55290 26425
" />
<path d="M41680 21290
L39680 21290
" />
<path d="M41680 23290
L41680 21290
" />
<path d="M39680 21290
L39680 23290
" />
<path d="M41680 21290
L39680 21290
" />
<path d="M39680 23290
L41680 23290
" />
<path d="M41690 23355
L39690 23355
" />
<path d="M41690 25355
L41690 23355
" />
<path d="M39690 23355
L39690 25355
" />
<path d="M41690 23355
L39690 23355
" />
<path d="M39690 25355
L41690 25355
" />
<path d="M41695 25400
L39695 25400
" />
<path d="M41695 27400
L41695 25400
" />
<path d="M39695 25400
L39695 27400
" />
<path d="M41695 25400
L39695 25400
" />
<path d="M39695 27400
L41695 27400
" />
</g>
<g style="fill:#000000; fill-opacity:0.0; 
stroke:#000000; stroke-width:47.2441; stroke-opacity:1; 
stroke-linecap:round; stroke-linejoin:round;">
<path d="M37135 48241
L30111 48241
" />
<path d="M30111 48241
L30111 50288
" />
<path d="M30111 50288
L38158 50288
" />
<path d="M38158 50288
L38158 49265
" />
<path d="M38158 49265
L37135 49265
" />
<path d="M37135 49265
L37135 48241
" />
<path d="M37635 48241
L38158 48241
" />
<path d="M38158 48241
L38158 48765
" />
<path d="M34023 26983
L34496 26983
" />
<path d="M34496 27676
L34023 27676
" />
<path d="M34003 25458
L34476 25458
" />
<path d="M34476 26151
L34003 26151
" />
<path d="M63831 40256
L63358 40256
" />
<path d="M63358 39563
L63831 39563
" />
<path d="M34048 24008
L34521 24008
" />
<path d="M34521 24701
L34048 24701
" />
<path d="M62461 50856
L61988 50856
" />
<path d="M61988 50163
L62461 50163
" />
<path d="M59418 43004
L58631 43004
" />
<path d="M58631 43004
L58631 44539
" />
<path d="M59418 43004
L59418 44539
" />
<path d="M54235 49163
L63258 49163
" />
<path d="M63258 49163
L63258 47116
" />
<path d="M63258 47116
L53211 47116
" />
<path d="M53211 47116
L53211 48140
" />
<path d="M53211 48140
L54235 48140
" />
<path d="M54235 48140
L54235 49163
" />
<path d="M53735 49163
L53211 49163
" />
<path d="M53211 49163
L53211 48640
" />
<path d="M37115 43815
L30091 43815
" />
<path d="M30091 43815
L30091 45862
" />
<path d="M30091 45862
L38138 45862
" />
<path d="M38138 45862
L38138 44839
" />
<path d="M38138 44839
L37115 44839
" />
<path d="M37115 44839
L37115 43815
" />
<path d="M37615 43815
L38138 43815
" />
<path d="M38138 43815
L38138 44339
" />
</g>
<g style="fill:#000000; fill-opacity:0.0; 
stroke:#000000; stroke-width:59.0551; stroke-opacity:1; 
stroke-linecap:round; stroke-linejoin:round;">
<path d="M41690 27460
L39690 27460
" />
<path d="M41690 29460
L41690 27460
" />
<path d="M39690 27460
L39690 29460
" />
<path d="M41690 27460
L39690 27460
" />
<path d="M39690 29460
L41690 29460
" />
<path d="M41685 29500
L39685 29500
" />
<path d="M41685 31500
L41685 29500
" />
<path d="M39685 29500
L39685 31500
" />
<path d="M41685 29500
L39685 29500
" />
<path d="M39685 31500
L41685 31500
" />
<path d="M41690 31545
L39690 31545
" />
<path d="M41690 33545
L41690 31545
" />
<path d="M39690 31545
L39690 33545
" />
<path d="M41690 31545
L39690 31545
" />
<path d="M39690 33545
L41690 33545
" />
<path d="M41700 33590
L39700 33590
" />
<path d="M41700 35590
L41700 33590
" />
<path d="M39700 33590
L39700 35590
" />
<path d="M41700 33590
L39700 33590
" />
<path d="M39700 35590
L41700 35590
" />
<path d="M41700 35625
L39700 35625
" />
<path d="M41700 37625
L41700 35625
" />
<path d="M39700 35625
L39700 37625
" />
<path d="M41700 35625
L39700 35625
" />
<path d="M39700 37625
L41700 37625
" />
</g>
<g style="fill:#000000; fill-opacity:0.0; 
stroke:#000000; stroke-width:47.2441; stroke-opacity:1; 
stroke-linecap:round; stroke-linejoin:round;">
<path d="M36083 26988
L36556 26988
" />
<path d="M36556 27681
L36083 27681
" />
<path d="M63876 35831
L63403 35831
" />
<path d="M63403 35138
L63876 35138
" />
<path d="M34033 35868
L34506 35868
" />
<path d="M34506 36561
L34033 36561
" />
<path d="M36073 35893
L36546 35893
" />
<path d="M36546 36586
L36073 36586
" />
<path d="M36128 23983
L36601 23983
" />
<path d="M36601 24676
L36128 24676
" />
<path d="M64046 44666
L63573 44666
" />
<path d="M63573 43973
L64046 43973
" />
<path d="M61926 40256
L61453 40256
" />
<path d="M61453 39563
L61926 39563
" />
<path d="M34048 32928
L34521 32928
" />
<path d="M34521 33621
L34048 33621
" />
<path d="M36068 32918
L36541 32918
" />
<path d="M36541 33611
L36068 33611
" />
<path d="M62176 44621
L61703 44621
" />
<path d="M61703 43928
L62176 43928
" />
<path d="M36133 22573
L36606 22573
" />
<path d="M36606 23266
L36133 23266
" />
<path d="M34018 22543
L34491 22543
" />
<path d="M34491 23236
L34018 23236
" />
<path d="M34053 31478
L34526 31478
" />
<path d="M34526 32171
L34053 32171
" />
<path d="M36178 31463
L36651 31463
" />
<path d="M36651 32156
L36178 32156
" />
<path d="M34028 34333
L34501 34333
" />
<path d="M34501 35026
L34028 35026
" />
<path d="M36173 34323
L36646 34323
" />
<path d="M36646 35016
L36173 35016
" />
<path d="M54068 26568
L54541 26568
" />
<path d="M54541 27261
L54068 27261
" />
<path d="M49953 30038
L50426 30038
" />
<path d="M50426 30731
L49953 30731
" />
<path d="M36088 25458
L36561 25458
" />
<path d="M36561 26151
L36088 26151
" />
<circle cx="29724.4" cy="22637.8" r="900" /> 
</g>
<g style="fill:#000000; fill-opacity:0.0; 
stroke:#000000; stroke-width:59.0551; stroke-opacity:1; 
stroke-linecap:round; stroke-linejoin:round;">
<path d="M64632 21615
L64501 21428
" />
<path d="M64407 21615
L64407 21222
L64557 21222
L64595 21240
L64613 21259
L64632 21297
L64632 21353
L64613 21390
L64595 21409
L64557 21428
L64407 21428
" />
<path d="M64801 21409
L64932 21409
" />
<path d="M64988 21615
L64801 21615
L64801 21222
L64988 21222
" />
<path d="M65288 21409
L65157 21409
" />
<path d="M65157 21615
L65157 21222
L65344 21222
" />
<path d="M65551 21222
L65551 21315
" />
<path d="M65457 21278
L65551 21315
L65644 21278
" />
<path d="M65494 21390
L65551 21315
L65607 21390
" />
<path d="M65851 21222
L65851 21315
" />
<path d="M65757 21278
L65851 21315
L65944 21278
" />
<path d="M65794 21390
L65851 21315
L65907 21390
" />
<path d="M64632 55080
L64501 54892
" />
<path d="M64407 55080
L64407 54686
L64557 54686
L64595 54705
L64613 54724
L64632 54761
L64632 54817
L64613 54855
L64595 54874
L64557 54892
L64407 54892
" />
<path d="M64801 54874
L64932 54874
" />
<path d="M64988 55080
L64801 55080
L64801 54686
L64988 54686
" />
<path d="M65288 54874
L65157 54874
" />
<path d="M65157 55080
L65157 54686
L65344 54686
" />
<path d="M65551 54686
L65551 54780
" />
<path d="M65457 54743
L65551 54780
L65644 54743
" />
<path d="M65494 54855
L65551 54780
L65607 54855
" />
<path d="M65851 54686
L65851 54780
" />
<path d="M65757 54743
L65851 54780
L65944 54743
" />
<path d="M65794 54855
L65851 54780
L65907 54855
" />
<path d="M29199 55080
L29068 54892
" />
<path d="M28974 55080
L28974 54686
L29124 54686
L29161 54705
L29180 54724
L29199 54761
L29199 54817
L29180 54855
L29161 54874
L29124 54892
L28974 54892
" />
<path d="M29368 54874
L29499 54874
" />
<path d="M29555 55080
L29368 55080
L29368 54686
L29555 54686
" />
<path d="M29855 54874
L29724 54874
" />
<path d="M29724 55080
L29724 54686
L29911 54686
" />
<path d="M30118 54686
L30118 54780
" />
<path d="M30024 54743
L30118 54780
L30211 54743
" />
<path d="M30061 54855
L30118 54780
L30174 54855
" />
<path d="M30418 54686
L30418 54780
" />
<path d="M30324 54743
L30418 54780
L30511 54743
" />
<path d="M30361 54855
L30418 54780
L30474 54855
" />
<path d="M38732 41355
L38338 41355
L38338 41205
L38357 41168
L38376 41149
L38413 41130
L38469 41130
L38507 41149
L38526 41168
L38544 41205
L38544 41355
" />
<path d="M38713 40980
L38732 40924
L38732 40830
L38713 40793
L38694 40774
L38657 40755
L38619 40755
L38582 40774
L38563 40793
L38544 40830
L38526 40905
L38507 40943
L38488 40962
L38451 40980
L38413 40980
L38376 40962
L38357 40943
L38338 40905
L38338 40812
L38357 40755
" />
<path d="M38732 40587
L38338 40587
" />
<path d="M38732 40362
L38507 40531
" />
<path d="M38338 40362
L38563 40587
" />
<path d="M38338 40006
L38338 40193
L38526 40212
L38507 40193
L38488 40156
L38488 40062
L38507 40024
L38526 40006
L38563 39987
L38657 39987
L38694 40006
L38713 40024
L38732 40062
L38732 40156
L38713 40193
L38694 40212
" />
<path d="M45762 46313
L45762 46632
L45781 46669
L45800 46688
L45837 46707
L45912 46707
L45950 46688
L45968 46669
L45987 46632
L45987 46313
" />
<path d="M46381 46707
L46156 46707
" />
<path d="M46268 46707
L46268 46313
L46231 46369
L46193 46407
L46156 46425
" />
<path d="M46606 46482
L46568 46463
L46549 46444
L46531 46407
L46531 46388
L46549 46350
L46568 46332
L46606 46313
L46681 46313
L46718 46332
L46737 46350
L46756 46388
L46756 46407
L46737 46444
L46718 46463
L46681 46482
L46606 46482
L46568 46500
L46549 46519
L46531 46557
L46531 46632
L46549 46669
L46568 46688
L46606 46707
L46681 46707
L46718 46688
L46737 46669
L46756 46632
L46756 46557
L46737 46519
L46718 46500
L46681 46482
" />
<path d="M43632 32854
L43632 33173
L43651 33210
L43670 33229
L43707 33248
L43782 33248
L43820 33229
L43838 33210
L43857 33173
L43857 32854
" />
<path d="M44026 32891
L44045 32873
L44082 32854
L44176 32854
L44213 32873
L44232 32891
L44251 32929
L44251 32966
L44232 33023
L44007 33248
L44251 33248
" />
<path d="M44494 32854
L44532 32854
L44569 32873
L44588 32891
L44607 32929
L44626 33004
L44626 33098
L44607 33173
L44588 33210
L44569 33229
L44532 33248
L44494 33248
L44457 33229
L44438 33210
L44419 33173
L44401 33098
L44401 33004
L44419 32929
L44438 32891
L44457 32873
L44494 32854
" />
<path d="M51753 45118
L51565 45249
" />
<path d="M51753 45343
L51359 45343
L51359 45193
L51378 45155
L51396 45136
L51434 45118
L51490 45118
L51528 45136
L51546 45155
L51565 45193
L51565 45343
" />
<path d="M51753 44743
L51753 44968
" />
<path d="M51753 44855
L51359 44855
L51415 44893
L51453 44930
L51471 44968
" />
<path d="M51359 44386
L51359 44574
L51546 44593
L51528 44574
L51509 44536
L51509 44443
L51528 44405
L51546 44386
L51584 44368
L51678 44368
L51715 44386
L51734 44405
L51753 44443
L51753 44536
L51734 44574
L51715 44593
" />
<path d="M47744 35547
L47763 35566
L47782 35622
L47782 35660
L47763 35716
L47725 35753
L47688 35772
L47613 35791
L47557 35791
L47482 35772
L47444 35753
L47407 35716
L47388 35660
L47388 35622
L47407 35566
L47425 35547
" />
<path d="M47782 35172
L47782 35397
" />
<path d="M47782 35285
L47388 35285
L47444 35322
L47482 35360
L47500 35397
" />
<path d="M49486 35604
L49505 35623
L49524 35679
L49524 35717
L49505 35773
L49467 35810
L49430 35829
L49355 35848
L49299 35848
L49224 35829
L49186 35810
L49149 35773
L49130 35717
L49130 35679
L49149 35623
L49167 35604
" />
<path d="M49167 35454
L49149 35435
L49130 35398
L49130 35304
L49149 35267
L49167 35248
L49205 35229
L49242 35229
L49299 35248
L49524 35473
L49524 35229
" />
<path d="M48895 28145
L48914 28164
L48933 28220
L48933 28258
L48914 28314
L48876 28351
L48839 28370
L48764 28389
L48708 28389
L48633 28370
L48595 28351
L48558 28314
L48539 28258
L48539 28220
L48558 28164
L48576 28145
" />
<path d="M48539 28014
L48539 27770
L48689 27901
L48689 27845
L48708 27808
L48726 27789
L48764 27770
L48858 27770
L48895 27789
L48914 27808
L48933 27845
L48933 27958
L48914 27995
L48895 28014
" />
<path d="M54869 37115
L54850 37134
L54794 37153
L54756 37153
L54700 37134
L54663 37096
L54644 37059
L54625 36984
L54625 36928
L54644 36853
L54663 36815
L54700 36778
L54756 36759
L54794 36759
L54850 36778
L54869 36796
" />
<path d="M55225 36759
L55038 36759
L55019 36946
L55038 36928
L55075 36909
L55169 36909
L55206 36928
L55225 36946
L55244 36984
L55244 37078
L55225 37115
L55206 37134
L55169 37153
L55075 37153
L55038 37134
L55019 37115
" />
<path d="M44770 47240
L44789 47259
L44808 47315
L44808 47353
L44789 47409
L44751 47446
L44714 47465
L44639 47484
L44583 47484
L44508 47465
L44470 47446
L44433 47409
L44414 47353
L44414 47315
L44433 47259
L44451 47240
" />
<path d="M44414 47109
L44414 46846
L44808 47015
" />
<path d="M43765 47255
L43784 47274
L43803 47330
L43803 47368
L43784 47424
L43746 47461
L43709 47480
L43634 47499
L43578 47499
L43503 47480
L43465 47461
L43428 47424
L43409 47368
L43409 47330
L43428 47274
L43446 47255
" />
<path d="M43578 47030
L43559 47068
L43540 47086
L43503 47105
L43484 47105
L43446 47086
L43428 47068
L43409 47030
L43409 46955
L43428 46918
L43446 46899
L43484 46880
L43503 46880
L43540 46899
L43559 46918
L43578 46955
L43578 47030
L43596 47068
L43615 47086
L43653 47105
L43728 47105
L43765 47086
L43784 47068
L43803 47030
L43803 46955
L43784 46918
L43765 46899
L43728 46880
L43653 46880
L43615 46899
L43596 46918
L43578 46955
" />
<path d="M48623 35573
L48642 35592
L48661 35648
L48661 35686
L48642 35742
L48604 35779
L48567 35798
L48492 35817
L48436 35817
L48361 35798
L48323 35779
L48286 35742
L48267 35686
L48267 35648
L48286 35592
L48304 35573
" />
<path d="M48661 35386
L48661 35311
L48642 35273
L48623 35254
L48567 35217
L48492 35198
L48342 35198
L48304 35217
L48286 35236
L48267 35273
L48267 35348
L48286 35386
L48304 35404
L48342 35423
L48436 35423
L48473 35404
L48492 35386
L48511 35348
L48511 35273
L48492 35236
L48473 35217
L48436 35198
" />
<path d="M45905 35785
L45924 35803
L45943 35860
L45943 35897
L45924 35953
L45886 35991
L45849 36010
L45774 36028
L45718 36028
L45643 36010
L45605 35991
L45568 35953
L45549 35897
L45549 35860
L45568 35803
L45586 35785
" />
<path d="M45943 35410
L45943 35635
" />
<path d="M45943 35522
L45549 35522
L45605 35560
L45643 35597
L45661 35635
" />
<path d="M45549 35166
L45549 35128
L45568 35091
L45586 35072
L45624 35053
L45699 35035
L45793 35035
L45868 35053
L45905 35072
L45924 35091
L45943 35128
L45943 35166
L45924 35203
L45905 35222
L45868 35241
L45793 35260
L45699 35260
L45624 35241
L45586 35222
L45568 35203
L45549 35166
" />
<path d="M54411 37850
L54393 37869
L54336 37888
L54299 37888
L54243 37869
L54205 37831
L54186 37794
L54168 37719
L54168 37663
L54186 37588
L54205 37550
L54243 37513
L54299 37494
L54336 37494
L54393 37513
L54411 37531
" />
<path d="M54786 37888
L54561 37888
" />
<path d="M54674 37888
L54674 37494
L54636 37550
L54599 37588
L54561 37606
" />
<path d="M54936 37531
L54955 37513
L54993 37494
L55086 37494
L55124 37513
L55143 37531
L55161 37569
L55161 37606
L55143 37663
L54918 37888
L55161 37888
" />
<path d="M49840 28378
L49859 28396
L49878 28453
L49878 28490
L49859 28546
L49821 28584
L49784 28603
L49709 28621
L49653 28621
L49578 28603
L49540 28584
L49503 28546
L49484 28490
L49484 28453
L49503 28396
L49521 28378
" />
<path d="M49878 28003
L49878 28228
" />
<path d="M49878 28115
L49484 28115
L49540 28153
L49578 28190
L49596 28228
" />
<path d="M49484 27871
L49484 27628
L49634 27759
L49634 27703
L49653 27665
L49671 27646
L49709 27628
L49803 27628
L49840 27646
L49859 27665
L49878 27703
L49878 27815
L49859 27853
L49840 27871
" />
<path d="M42760 47608
L42779 47626
L42798 47683
L42798 47720
L42779 47776
L42741 47814
L42704 47833
L42629 47851
L42573 47851
L42498 47833
L42460 47814
L42423 47776
L42404 47720
L42404 47683
L42423 47626
L42441 47608
" />
<path d="M42798 47233
L42798 47458
" />
<path d="M42798 47345
L42404 47345
L42460 47383
L42498 47420
L42516 47458
" />
<path d="M42404 46876
L42404 47064
L42591 47083
L42573 47064
L42554 47026
L42554 46933
L42573 46895
L42591 46876
L42629 46858
L42723 46858
L42760 46876
L42779 46895
L42798 46933
L42798 47026
L42779 47064
L42760 47083
" />
<path d="M55761 39170
L55743 39189
L55686 39208
L55649 39208
L55593 39189
L55555 39151
L55536 39114
L55518 39039
L55518 38983
L55536 38908
L55555 38870
L55593 38833
L55649 38814
L55686 38814
L55743 38833
L55761 38851
" />
<path d="M56136 39208
L55911 39208
" />
<path d="M56024 39208
L56024 38814
L55986 38870
L55949 38908
L55911 38926
" />
<path d="M56268 38814
L56530 38814
L56361 39208
" />
<path d="M57096 39185
L57078 39204
L57021 39223
L56984 39223
L56928 39204
L56890 39166
L56871 39129
L56853 39054
L56853 38998
L56871 38923
L56890 38885
L56928 38848
L56984 38829
L57021 38829
L57078 38848
L57096 38866
" />
<path d="M57471 39223
L57246 39223
" />
<path d="M57359 39223
L57359 38829
L57321 38885
L57284 38923
L57246 38941
" />
<path d="M57696 38998
L57659 38979
L57640 38960
L57621 38923
L57621 38904
L57640 38866
L57659 38848
L57696 38829
L57771 38829
L57809 38848
L57828 38866
L57846 38904
L57846 38923
L57828 38960
L57809 38979
L57771 38998
L57696 38998
L57659 39016
L57640 39035
L57621 39073
L57621 39148
L57640 39185
L57659 39204
L57696 39223
L57771 39223
L57809 39204
L57828 39185
L57846 39148
L57846 39073
L57828 39035
L57809 39016
L57771 38998
" />
<path d="M45685 47578
L45704 47596
L45723 47653
L45723 47690
L45704 47746
L45666 47784
L45629 47803
L45554 47821
L45498 47821
L45423 47803
L45385 47784
L45348 47746
L45329 47690
L45329 47653
L45348 47596
L45366 47578
" />
<path d="M45723 47203
L45723 47428
" />
<path d="M45723 47315
L45329 47315
L45385 47353
L45423 47390
L45441 47428
" />
<path d="M45723 47015
L45723 46940
L45704 46903
L45685 46884
L45629 46846
L45554 46828
L45404 46828
L45366 46846
L45348 46865
L45329 46903
L45329 46978
L45348 47015
L45366 47034
L45404 47053
L45498 47053
L45535 47034
L45554 47015
L45573 46978
L45573 46903
L45554 46865
L45535 46846
L45498 46828
" />
<path d="M43886 24865
L43868 24884
L43811 24903
L43774 24903
L43718 24884
L43680 24846
L43661 24809
L43643 24734
L43643 24678
L43661 24603
L43680 24565
L43718 24528
L43774 24509
L43811 24509
L43868 24528
L43886 24546
" />
<path d="M44036 24546
L44055 24528
L44093 24509
L44186 24509
L44224 24528
L44243 24546
L44261 24584
L44261 24621
L44243 24678
L44018 24903
L44261 24903
" />
<path d="M44505 24509
L44543 24509
L44580 24528
L44599 24546
L44618 24584
L44636 24659
L44636 24753
L44618 24828
L44599 24865
L44580 24884
L44543 24903
L44505 24903
L44468 24884
L44449 24865
L44430 24828
L44411 24753
L44411 24659
L44430 24584
L44449 24546
L44468 24528
L44505 24509
" />
<path d="M55555 24188
L55574 24206
L55593 24263
L55593 24300
L55574 24356
L55536 24394
L55499 24413
L55424 24431
L55368 24431
L55293 24413
L55255 24394
L55218 24356
L55199 24300
L55199 24263
L55218 24206
L55236 24188
" />
<path d="M55236 24038
L55218 24019
L55199 23981
L55199 23888
L55218 23850
L55236 23831
L55274 23813
L55311 23813
L55368 23831
L55593 24056
L55593 23813
" />
<path d="M55593 23438
L55593 23663
" />
<path d="M55593 23550
L55199 23550
L55255 23588
L55293 23625
L55311 23663
" />
<path d="M53156 25279
L53138 25298
L53081 25317
L53044 25317
L52988 25298
L52950 25260
L52931 25223
L52913 25148
L52913 25092
L52931 25017
L52950 24979
L52988 24942
L53044 24923
L53081 24923
L53138 24942
L53156 24960
" />
<path d="M53306 24960
L53325 24942
L53363 24923
L53456 24923
L53494 24942
L53513 24960
L53531 24998
L53531 25035
L53513 25092
L53288 25317
L53531 25317
" />
<path d="M53681 24960
L53700 24942
L53738 24923
L53831 24923
L53869 24942
L53888 24960
L53906 24998
L53906 25035
L53888 25092
L53663 25317
L53906 25317
" />
<path d="M46690 47593
L46709 47611
L46728 47668
L46728 47705
L46709 47761
L46671 47799
L46634 47818
L46559 47836
L46503 47836
L46428 47818
L46390 47799
L46353 47761
L46334 47705
L46334 47668
L46353 47611
L46371 47593
" />
<path d="M46371 47443
L46353 47424
L46334 47386
L46334 47293
L46353 47255
L46371 47236
L46409 47218
L46446 47218
L46503 47236
L46728 47461
L46728 47218
" />
<path d="M46334 46861
L46334 47049
L46521 47068
L46503 47049
L46484 47011
L46484 46918
L46503 46880
L46521 46861
L46559 46843
L46653 46843
L46690 46861
L46709 46880
L46728 46918
L46728 47011
L46709 47049
L46690 47068
" />
<path d="M51995 50073
L52014 50092
L52033 50148
L52033 50185
L52014 50242
L51977 50279
L51939 50298
L51864 50317
L51808 50317
L51733 50298
L51695 50279
L51658 50242
L51639 50185
L51639 50148
L51658 50092
L51677 50073
" />
<path d="M51677 49923
L51658 49904
L51639 49867
L51639 49773
L51658 49735
L51677 49717
L51714 49698
L51752 49698
L51808 49717
L52033 49942
L52033 49698
" />
<path d="M51639 49567
L51639 49304
L52033 49473
" />
<path d="M53156 50009
L53175 50028
L53194 50084
L53194 50122
L53175 50178
L53138 50215
L53100 50234
L53025 50253
L52969 50253
L52894 50234
L52856 50215
L52819 50178
L52800 50122
L52800 50084
L52819 50028
L52838 50009
" />
<path d="M52800 49878
L52800 49634
L52950 49765
L52950 49709
L52969 49672
L52988 49653
L53025 49634
L53119 49634
L53156 49653
L53175 49672
L53194 49709
L53194 49822
L53175 49859
L53156 49878
" />
<path d="M52800 49503
L52800 49259
L52950 49391
L52950 49334
L52969 49297
L52988 49278
L53025 49259
L53119 49259
L53156 49278
L53175 49297
L53194 49334
L53194 49447
L53175 49484
L53156 49503
" />
<path d="M61761 35986
L61743 36005
L61686 36024
L61649 36024
L61593 36005
L61555 35967
L61536 35930
L61518 35855
L61518 35799
L61536 35724
L61555 35686
L61593 35649
L61649 35630
L61686 35630
L61743 35649
L61761 35667
" />
<path d="M61893 35630
L62136 35630
L62005 35780
L62061 35780
L62099 35799
L62118 35817
L62136 35855
L62136 35949
L62118 35986
L62099 36005
L62061 36024
L61949 36024
L61911 36005
L61893 35986
" />
<path d="M62361 35799
L62324 35780
L62305 35761
L62286 35724
L62286 35705
L62305 35667
L62324 35649
L62361 35630
L62436 35630
L62474 35649
L62493 35667
L62511 35705
L62511 35724
L62493 35761
L62474 35780
L62436 35799
L62361 35799
L62324 35817
L62305 35836
L62286 35874
L62286 35949
L62305 35986
L62324 36005
L62361 36024
L62436 36024
L62474 36005
L62493 35986
L62511 35949
L62511 35874
L62493 35836
L62474 35817
L62436 35799
" />
<path d="M61761 34040
L61743 34059
L61686 34078
L61649 34078
L61593 34059
L61555 34021
L61536 33984
L61518 33909
L61518 33853
L61536 33778
L61555 33740
L61593 33703
L61649 33684
L61686 33684
L61743 33703
L61761 33721
" />
<path d="M61893 33684
L62136 33684
L62005 33834
L62061 33834
L62099 33853
L62118 33871
L62136 33909
L62136 34003
L62118 34040
L62099 34059
L62061 34078
L61949 34078
L61911 34059
L61893 34040
" />
<path d="M62324 34078
L62399 34078
L62436 34059
L62455 34040
L62493 33984
L62511 33909
L62511 33759
L62493 33721
L62474 33703
L62436 33684
L62361 33684
L62324 33703
L62305 33721
L62286 33759
L62286 33853
L62305 33890
L62324 33909
L62361 33928
L62436 33928
L62474 33909
L62493 33890
L62511 33853
" />
<path d="M63641 41155
L63623 41174
L63566 41193
L63529 41193
L63473 41174
L63435 41136
L63416 41099
L63398 41024
L63398 40968
L63416 40893
L63435 40855
L63473 40818
L63529 40799
L63566 40799
L63623 40818
L63641 40836
" />
<path d="M63979 40930
L63979 41193
" />
<path d="M63885 40780
L63791 41061
L64035 41061
" />
<path d="M64148 40799
L64391 40799
L64260 40949
L64316 40949
L64354 40968
L64373 40986
L64391 41024
L64391 41118
L64373 41155
L64354 41174
L64316 41193
L64204 41193
L64166 41174
L64148 41155
" />
<path d="M63801 45470
L63783 45489
L63726 45508
L63689 45508
L63633 45489
L63595 45451
L63576 45414
L63558 45339
L63558 45283
L63576 45208
L63595 45170
L63633 45133
L63689 45114
L63726 45114
L63783 45133
L63801 45151
" />
<path d="M64139 45245
L64139 45508
" />
<path d="M64045 45095
L63951 45376
L64195 45376
" />
<path d="M64514 45245
L64514 45508
" />
<path d="M64420 45095
L64326 45376
L64570 45376
" />
<path d="M37892 31322
L37892 30928
L37986 30928
L38042 30947
L38079 30985
L38098 31022
L38117 31097
L38117 31153
L38098 31228
L38079 31266
L38042 31303
L37986 31322
L37892 31322
" />
<path d="M38492 31322
L38267 31322
" />
<path d="M38379 31322
L38379 30928
L38342 30985
L38304 31022
L38267 31041
" />
<path d="M37890 29754
L37890 29360
L37984 29360
L38040 29379
L38077 29417
L38096 29454
L38115 29529
L38115 29585
L38096 29660
L38077 29698
L38040 29735
L37984 29754
L37890 29754
" />
<path d="M38265 29398
L38284 29379
L38321 29360
L38415 29360
L38452 29379
L38471 29398
L38490 29435
L38490 29473
L38471 29529
L38246 29754
L38490 29754
" />
<path d="M37940 32744
L37940 32350
L38034 32350
L38090 32369
L38127 32407
L38146 32444
L38165 32519
L38165 32575
L38146 32650
L38127 32688
L38090 32725
L38034 32744
L37940 32744
" />
<path d="M38296 32350
L38540 32350
L38409 32500
L38465 32500
L38502 32519
L38521 32538
L38540 32575
L38540 32669
L38521 32707
L38502 32725
L38465 32744
L38352 32744
L38315 32725
L38296 32707
" />
<path d="M37930 35670
L37930 35276
L38024 35276
L38080 35295
L38117 35333
L38136 35370
L38155 35445
L38155 35501
L38136 35576
L38117 35614
L38080 35651
L38024 35670
L37930 35670
" />
<path d="M38492 35408
L38492 35670
" />
<path d="M38399 35258
L38305 35539
L38549 35539
" />
<path d="M37908 28270
L37908 27876
L38002 27876
L38058 27895
L38095 27933
L38114 27970
L38133 28045
L38133 28101
L38114 28176
L38095 28214
L38058 28251
L38002 28270
L37908 28270
" />
<path d="M38489 27876
L38302 27876
L38283 28064
L38302 28045
L38339 28026
L38433 28026
L38470 28045
L38489 28064
L38508 28101
L38508 28195
L38489 28233
L38470 28251
L38433 28270
L38339 28270
L38302 28251
L38283 28233
" />
<path d="M37876 26780
L37876 26386
L37970 26386
L38026 26405
L38063 26443
L38082 26480
L38101 26555
L38101 26611
L38082 26686
L38063 26724
L38026 26761
L37970 26780
L37876 26780
" />
<path d="M38438 26386
L38363 26386
L38326 26405
L38307 26424
L38270 26480
L38251 26555
L38251 26705
L38270 26743
L38288 26761
L38326 26780
L38401 26780
L38438 26761
L38457 26743
L38476 26705
L38476 26611
L38457 26574
L38438 26555
L38401 26536
L38326 26536
L38288 26555
L38270 26574
L38251 26611
" />
<path d="M37850 34216
L37850 33822
L37944 33822
L38000 33841
L38037 33879
L38056 33916
L38075 33991
L38075 34047
L38056 34122
L38037 34160
L38000 34197
L37944 34216
L37850 34216
" />
<path d="M38206 33822
L38469 33822
L38300 34216
" />
<path d="M37922 23849
L37922 23455
L38016 23455
L38072 23474
L38109 23511
L38128 23549
L38147 23624
L38147 23680
L38128 23755
L38109 23792
L38072 23830
L38016 23849
L37922 23849
" />
<path d="M38372 23624
L38334 23605
L38316 23586
L38297 23549
L38297 23530
L38316 23492
L38334 23474
L38372 23455
L38447 23455
L38484 23474
L38503 23492
L38522 23530
L38522 23549
L38503 23586
L38484 23605
L38447 23624
L38372 23624
L38334 23642
L38316 23661
L38297 23699
L38297 23774
L38316 23811
L38334 23830
L38372 23849
L38447 23849
L38484 23830
L38503 23811
L38522 23774
L38522 23699
L38503 23661
L38484 23642
L38447 23624
" />
<path d="M37886 25304
L37886 24910
L37980 24910
L38036 24929
L38073 24967
L38092 25004
L38111 25079
L38111 25135
L38092 25210
L38073 25248
L38036 25285
L37980 25304
L37886 25304
" />
<path d="M38298 25304
L38373 25304
L38411 25285
L38430 25267
L38467 25210
L38486 25135
L38486 24985
L38467 24948
L38448 24929
L38411 24910
L38336 24910
L38298 24929
L38280 24948
L38261 24985
L38261 25079
L38280 25117
L38298 25135
L38336 25154
L38411 25154
L38448 25135
L38467 25117
L38486 25079
" />
<path d="M37644 37229
L37644 36835
L37738 36835
L37794 36854
L37832 36892
L37851 36929
L37869 37004
L37869 37060
L37851 37135
L37832 37173
L37794 37210
L37738 37229
L37644 37229
" />
<path d="M38244 37229
L38019 37229
" />
<path d="M38132 37229
L38132 36835
L38094 36892
L38057 36929
L38019 36948
" />
<path d="M38488 36835
L38526 36835
L38563 36854
L38582 36873
L38601 36910
L38619 36985
L38619 37079
L38601 37154
L38582 37192
L38563 37210
L38526 37229
L38488 37229
L38451 37210
L38432 37192
L38413 37154
L38394 37079
L38394 36985
L38413 36910
L38432 36873
L38451 36854
L38488 36835
" />
<path d="M46784 26838
L47065 26838
L47121 26856
L47159 26894
L47178 26950
L47178 26988
" />
<path d="M47178 26650
L46784 26650
L46784 26500
L46803 26463
L46821 26444
L46859 26425
L46915 26425
L46953 26444
L46971 26463
L46990 26500
L46990 26650
" />
<path d="M47178 26050
L47178 26275
" />
<path d="M47178 26163
L46784 26163
L46840 26200
L46878 26238
L46896 26275
" />
<path d="M48348 49743
L48629 49743
L48685 49762
L48723 49799
L48741 49855
L48741 49893
" />
<path d="M48741 49556
L48348 49556
L48348 49406
L48366 49368
L48385 49349
L48423 49331
L48479 49331
L48516 49349
L48535 49368
L48554 49406
L48554 49556
" />
<path d="M48385 49181
L48366 49162
L48348 49124
L48348 49031
L48366 48993
L48385 48974
L48423 48956
L48460 48956
L48516 48974
L48741 49199
L48741 48956
" />
<path d="M53139 51918
L53420 51918
L53476 51936
L53514 51974
L53533 52030
L53533 52068
" />
<path d="M53533 51730
L53139 51730
L53139 51580
L53158 51543
L53176 51524
L53214 51505
L53270 51505
L53308 51524
L53326 51543
L53345 51580
L53345 51730
" />
<path d="M53139 51374
L53139 51130
L53289 51261
L53289 51205
L53308 51168
L53326 51149
L53364 51130
L53458 51130
L53495 51149
L53514 51168
L53533 51205
L53533 51318
L53514 51355
L53495 51374
" />
<path d="M52849 34563
L53130 34563
L53186 34581
L53224 34619
L53243 34675
L53243 34713
" />
<path d="M53243 34375
L52849 34375
L52849 34225
L52868 34188
L52886 34169
L52924 34150
L52980 34150
L53018 34169
L53036 34188
L53055 34225
L53055 34375
" />
<path d="M52980 33813
L53243 33813
" />
<path d="M52830 33906
L53111 34000
L53111 33756
" />
<path d="M49151 47599
L49151 47880
L49133 47936
L49095 47974
L49039 47993
L49001 47993
" />
<path d="M49339 47993
L49339 47599
L49489 47599
L49526 47618
L49545 47636
L49564 47674
L49564 47730
L49545 47768
L49526 47786
L49489 47805
L49339 47805
" />
<path d="M49920 47599
L49733 47599
L49714 47786
L49733 47768
L49770 47749
L49864 47749
L49901 47768
L49920 47786
L49939 47824
L49939 47918
L49920 47955
L49901 47974
L49864 47993
L49770 47993
L49733 47974
L49714 47955
" />
<path d="M56081 26093
L55688 26093
L55688 25943
L55706 25906
L55725 25887
L55763 25868
L55819 25868
L55856 25887
L55875 25906
L55894 25943
L55894 26093
" />
<path d="M56063 25718
L56081 25662
L56081 25568
L56063 25531
L56044 25512
L56006 25493
L55969 25493
L55931 25512
L55913 25531
L55894 25568
L55875 25643
L55856 25681
L55838 25700
L55800 25718
L55763 25718
L55725 25700
L55706 25681
L55688 25643
L55688 25550
L55706 25493
" />
<path d="M56081 25325
L55688 25325
" />
<path d="M56081 25100
L55856 25269
" />
<path d="M55688 25100
L55913 25325
" />
<path d="M56081 24725
L56081 24950
" />
<path d="M56081 24837
L55688 24837
L55744 24875
L55781 24912
L55800 24950
" />
<path d="M58020 53076
L57626 53076
L57626 52926
L57645 52889
L57664 52870
L57701 52851
L57758 52851
L57795 52870
L57814 52889
L57833 52926
L57833 53076
" />
<path d="M58001 52701
L58020 52645
L58020 52551
L58001 52514
L57983 52495
L57945 52476
L57908 52476
L57870 52495
L57851 52514
L57833 52551
L57814 52626
L57795 52664
L57776 52682
L57739 52701
L57701 52701
L57664 52682
L57645 52664
L57626 52626
L57626 52532
L57645 52476
" />
<path d="M58020 52307
L57626 52307
" />
<path d="M58020 52082
L57795 52251
" />
<path d="M57626 52082
L57851 52307
" />
<path d="M57626 51951
L57626 51707
L57776 51839
L57776 51782
L57795 51745
L57814 51726
L57851 51707
L57945 51707
L57983 51726
L58001 51745
L58020 51782
L58020 51895
L58001 51932
L57983 51951
" />
<path d="M32598 22394
L32204 22394
L32204 22244
L32223 22207
L32241 22188
L32279 22169
L32335 22169
L32373 22188
L32391 22207
L32410 22244
L32410 22394
" />
<path d="M32579 22019
L32598 21963
L32598 21869
L32579 21832
L32560 21813
L32523 21794
L32485 21794
L32448 21813
L32429 21832
L32410 21869
L32391 21944
L32373 21982
L32354 22001
L32316 22019
L32279 22019
L32241 22001
L32223 21982
L32204 21944
L32204 21851
L32223 21794
" />
<path d="M32598 21626
L32204 21626
" />
<path d="M32598 21401
L32373 21570
" />
<path d="M32204 21401
L32429 21626
" />
<path d="M32335 21063
L32598 21063
" />
<path d="M32185 21157
L32466 21251
L32466 21007
" />
<path d="M57612 21750
L57424 21881
" />
<path d="M57612 21975
L57218 21975
L57218 21825
L57237 21788
L57256 21769
L57293 21750
L57349 21750
L57387 21769
L57406 21788
L57424 21825
L57424 21975
" />
<path d="M57612 21375
L57612 21600
" />
<path d="M57612 21488
L57218 21488
L57274 21525
L57312 21563
L57331 21600
" />
<path d="M59587 24211
L59456 24023
" />
<path d="M59362 24211
L59362 23817
L59512 23817
L59550 23836
L59568 23854
L59587 23892
L59587 23948
L59568 23986
L59550 24004
L59512 24023
L59362 24023
" />
<path d="M59737 23854
L59756 23836
L59793 23817
L59887 23817
L59925 23836
L59943 23854
L59962 23892
L59962 23929
L59943 23986
L59718 24211
L59962 24211
" />
<path d="M44663 26570
L44475 26701
" />
<path d="M44663 26795
L44269 26795
L44269 26645
L44288 26608
L44306 26589
L44344 26570
L44400 26570
L44438 26589
L44456 26608
L44475 26645
L44475 26795
" />
<path d="M44269 26439
L44269 26195
L44419 26326
L44419 26270
L44438 26233
L44456 26214
L44494 26195
L44588 26195
L44625 26214
L44644 26233
L44663 26270
L44663 26383
L44644 26420
L44625 26439
" />
<path d="M49173 23825
L48985 23956
" />
<path d="M49173 24050
L48779 24050
L48779 23900
L48798 23863
L48816 23844
L48854 23825
L48910 23825
L48948 23844
L48966 23863
L48985 23900
L48985 24050
" />
<path d="M48910 23488
L49173 23488
" />
<path d="M48760 23581
L49041 23675
L49041 23431
" />
<path d="M58512 22950
L58324 23081
" />
<path d="M58512 23175
L58118 23175
L58118 23025
L58137 22988
L58156 22969
L58193 22950
L58249 22950
L58287 22969
L58306 22988
L58324 23025
L58324 23175
" />
<path d="M58118 22594
L58118 22781
L58306 22800
L58287 22781
L58268 22744
L58268 22650
L58287 22613
L58306 22594
L58343 22575
L58437 22575
L58474 22594
L58493 22613
L58512 22650
L58512 22744
L58493 22781
L58474 22800
" />
<path d="M56819 32968
L56688 32780
" />
<path d="M56594 32968
L56594 32574
L56744 32574
L56781 32593
L56800 32611
L56819 32649
L56819 32705
L56800 32743
L56781 32761
L56744 32780
L56594 32780
" />
<path d="M57156 32574
L57081 32574
L57044 32593
L57025 32611
L56988 32668
L56969 32743
L56969 32893
L56988 32930
L57006 32949
L57044 32968
L57119 32968
L57156 32949
L57175 32930
L57194 32893
L57194 32799
L57175 32761
L57156 32743
L57119 32724
L57044 32724
L57006 32743
L56988 32761
L56969 32799
" />
<path d="M56879 33718
L56748 33530
" />
<path d="M56654 33718
L56654 33324
L56804 33324
L56841 33343
L56860 33361
L56879 33399
L56879 33455
L56860 33493
L56841 33511
L56804 33530
L56654 33530
" />
<path d="M57010 33324
L57273 33324
L57104 33718
" />
<path d="M44184 24053
L44053 23865
" />
<path d="M43959 24053
L43959 23659
L44109 23659
L44146 23678
L44165 23696
L44184 23734
L44184 23790
L44165 23828
L44146 23846
L44109 23865
L43959 23865
" />
<path d="M44409 23828
L44371 23809
L44353 23790
L44334 23753
L44334 23734
L44353 23696
L44371 23678
L44409 23659
L44484 23659
L44521 23678
L44540 23696
L44559 23734
L44559 23753
L44540 23790
L44521 23809
L44484 23828
L44409 23828
L44371 23846
L44353 23865
L44334 23903
L44334 23978
L44353 24015
L44371 24034
L44409 24053
L44484 24053
L44521 24034
L44540 24015
L44559 23978
L44559 23903
L44540 23865
L44521 23846
L44484 23828
" />
<path d="M34261 31146
L34130 30958
" />
<path d="M34036 31146
L34036 30752
L34186 30752
L34223 30771
L34242 30790
L34261 30827
L34261 30883
L34242 30921
L34223 30940
L34186 30958
L34036 30958
" />
<path d="M34448 31146
L34523 31146
L34561 31127
L34580 31108
L34617 31052
L34636 30977
L34636 30827
L34617 30790
L34598 30771
L34561 30752
L34486 30752
L34448 30771
L34430 30790
L34411 30827
L34411 30921
L34430 30958
L34448 30977
L34486 30996
L34561 30996
L34598 30977
L34617 30958
L34636 30921
" />
<path d="M36089 31121
L35958 30933
" />
<path d="M35864 31121
L35864 30727
L36014 30727
L36052 30746
L36071 30765
L36089 30802
L36089 30858
L36071 30896
L36052 30915
L36014 30933
L35864 30933
" />
<path d="M36464 31121
L36239 31121
" />
<path d="M36352 31121
L36352 30727
L36314 30783
L36277 30821
L36239 30840
" />
<path d="M36708 30727
L36746 30727
L36783 30746
L36802 30765
L36821 30802
L36839 30877
L36839 30971
L36821 31046
L36802 31083
L36783 31102
L36746 31121
L36708 31121
L36671 31102
L36652 31083
L36633 31046
L36614 30971
L36614 30877
L36633 30802
L36652 30765
L36671 30746
L36708 30727
" />
<path d="M47526 45013
L47395 44825
" />
<path d="M47301 45013
L47301 44619
L47451 44619
L47489 44638
L47508 44656
L47526 44694
L47526 44750
L47508 44788
L47489 44806
L47451 44825
L47301 44825
" />
<path d="M47901 45013
L47676 45013
" />
<path d="M47789 45013
L47789 44619
L47751 44675
L47714 44713
L47676 44731
" />
<path d="M48276 45013
L48051 45013
" />
<path d="M48164 45013
L48164 44619
L48126 44675
L48089 44713
L48051 44731
" />
<path d="M47526 45868
L47395 45680
" />
<path d="M47301 45868
L47301 45474
L47451 45474
L47489 45493
L47508 45511
L47526 45549
L47526 45605
L47508 45643
L47489 45661
L47451 45680
L47301 45680
" />
<path d="M47901 45868
L47676 45868
" />
<path d="M47789 45868
L47789 45474
L47751 45530
L47714 45568
L47676 45586
" />
<path d="M48051 45511
L48070 45493
L48108 45474
L48201 45474
L48239 45493
L48258 45511
L48276 45549
L48276 45586
L48258 45643
L48033 45868
L48276 45868
" />
<path d="M34079 29652
L33948 29464
" />
<path d="M33854 29652
L33854 29258
L34004 29258
L34042 29277
L34061 29296
L34079 29333
L34079 29389
L34061 29427
L34042 29446
L34004 29464
L33854 29464
" />
<path d="M34454 29652
L34229 29652
" />
<path d="M34342 29652
L34342 29258
L34304 29314
L34267 29352
L34229 29371
" />
<path d="M34586 29258
L34829 29258
L34698 29408
L34754 29408
L34792 29427
L34811 29446
L34829 29483
L34829 29577
L34811 29614
L34792 29633
L34754 29652
L34642 29652
L34604 29633
L34586 29614
" />
<path d="M36087 29631
L35956 29443
" />
<path d="M35862 29631
L35862 29237
L36012 29237
L36050 29256
L36069 29275
L36087 29312
L36087 29368
L36069 29406
L36050 29425
L36012 29443
L35862 29443
" />
<path d="M36462 29631
L36237 29631
" />
<path d="M36350 29631
L36350 29237
L36312 29293
L36275 29331
L36237 29350
" />
<path d="M36800 29368
L36800 29631
" />
<path d="M36706 29218
L36612 29500
L36856 29500
" />
<path d="M61396 34978
L61265 34791
" />
<path d="M61171 34978
L61171 34585
L61321 34585
L61359 34603
L61378 34622
L61396 34660
L61396 34716
L61378 34753
L61359 34772
L61321 34791
L61171 34791
" />
<path d="M61546 34622
L61565 34603
L61603 34585
L61696 34585
L61734 34603
L61753 34622
L61771 34660
L61771 34697
L61753 34753
L61528 34978
L61771 34978
" />
<path d="M61921 34622
L61940 34603
L61978 34585
L62071 34585
L62109 34603
L62128 34622
L62146 34660
L62146 34697
L62128 34753
L61903 34978
L62146 34978
" />
<path d="M45390 36248
L45615 36248
" />
<path d="M45502 36641
L45502 36248
" />
<path d="M45746 36641
L45746 36248
L45896 36248
L45933 36266
L45952 36285
L45971 36322
L45971 36379
L45952 36416
L45933 36435
L45896 36454
L45746 36454
" />
<path d="M46346 36641
L46121 36641
" />
<path d="M46233 36641
L46233 36248
L46196 36304
L46158 36341
L46121 36360
" />
<path d="M40758 48054
L40983 48054
" />
<path d="M40870 48448
L40870 48054
" />
<path d="M41114 48448
L41114 48054
L41264 48054
L41301 48073
L41320 48091
L41339 48129
L41339 48185
L41320 48223
L41301 48241
L41264 48260
L41114 48260
" />
<path d="M41489 48091
L41508 48073
L41545 48054
L41639 48054
L41676 48073
L41695 48091
L41714 48129
L41714 48166
L41695 48223
L41470 48448
L41714 48448
" />
<path d="M60123 49584
L60348 49584
" />
<path d="M60235 49978
L60235 49584
" />
<path d="M60479 49978
L60479 49584
L60629 49584
L60666 49603
L60685 49621
L60704 49659
L60704 49715
L60685 49753
L60666 49771
L60629 49790
L60479 49790
" />
<path d="M60835 49584
L61079 49584
L60948 49734
L61004 49734
L61041 49753
L61060 49771
L61079 49809
L61079 49903
L61060 49940
L61041 49959
L61004 49978
L60891 49978
L60854 49959
L60835 49940
" />
<path d="M59043 49584
L59268 49584
" />
<path d="M59155 49978
L59155 49584
" />
<path d="M59399 49978
L59399 49584
L59549 49584
L59586 49603
L59605 49621
L59624 49659
L59624 49715
L59605 49753
L59586 49771
L59549 49790
L59399 49790
" />
<path d="M59961 49715
L59961 49978
" />
<path d="M59868 49565
L59774 49846
L60018 49846
" />
<path d="M57978 49594
L58203 49594
" />
<path d="M58090 49988
L58090 49594
" />
<path d="M58334 49988
L58334 49594
L58484 49594
L58521 49613
L58540 49631
L58559 49669
L58559 49725
L58540 49763
L58521 49781
L58484 49800
L58334 49800
" />
<path d="M58915 49594
L58728 49594
L58709 49781
L58728 49763
L58765 49744
L58859 49744
L58896 49763
L58915 49781
L58934 49819
L58934 49913
L58915 49950
L58896 49969
L58859 49988
L58765 49988
L58728 49969
L58709 49950
" />
<path d="M56788 49559
L57013 49559
" />
<path d="M56900 49953
L56900 49559
" />
<path d="M57144 49953
L57144 49559
L57294 49559
L57331 49578
L57350 49596
L57369 49634
L57369 49690
L57350 49728
L57331 49746
L57294 49765
L57144 49765
" />
<path d="M57706 49559
L57631 49559
L57594 49578
L57575 49596
L57538 49653
L57519 49728
L57519 49878
L57538 49915
L57556 49934
L57594 49953
L57669 49953
L57706 49934
L57725 49915
L57744 49878
L57744 49784
L57725 49746
L57706 49728
L57669 49709
L57594 49709
L57556 49728
L57538 49746
L57519 49784
" />
<path d="M57123 53409
L57348 53409
" />
<path d="M57235 53803
L57235 53409
" />
<path d="M57479 53803
L57479 53409
L57629 53409
L57666 53428
L57685 53446
L57704 53484
L57704 53540
L57685 53578
L57666 53596
L57629 53615
L57479 53615
" />
<path d="M57835 53409
L58098 53409
L57929 53803
" />
<path d="M52963 53399
L53188 53399
" />
<path d="M53075 53793
L53075 53399
" />
<path d="M53319 53793
L53319 53399
L53469 53399
L53506 53418
L53525 53437
L53544 53474
L53544 53531
L53525 53568
L53506 53587
L53469 53606
L53319 53606
" />
<path d="M53769 53568
L53731 53549
L53713 53531
L53694 53493
L53694 53474
L53713 53437
L53731 53418
L53769 53399
L53844 53399
L53881 53418
L53900 53437
L53919 53474
L53919 53493
L53900 53531
L53881 53549
L53844 53568
L53769 53568
L53731 53587
L53713 53606
L53694 53643
L53694 53718
L53713 53756
L53731 53774
L53769 53793
L53844 53793
L53881 53774
L53900 53756
L53919 53718
L53919 53643
L53900 53606
L53881 53587
L53844 53568
" />
<path d="M52129 23464
L52448 23464
L52485 23446
L52504 23427
L52523 23389
L52523 23314
L52504 23277
L52485 23258
L52448 23239
L52129 23239
" />
<path d="M52523 22846
L52523 23071
" />
<path d="M52523 22958
L52129 22958
L52185 22996
L52223 23033
L52241 23071
" />
<path d="M60480 35808
L60799 35808
L60837 35789
L60855 35770
L60874 35733
L60874 35658
L60855 35620
L60837 35602
L60799 35583
L60480 35583
" />
<path d="M60612 35227
L60874 35227
" />
<path d="M60462 35321
L60743 35414
L60743 35171
" />
<path d="M60488 40182
L60807 40182
L60844 40164
L60863 40145
L60882 40107
L60882 40032
L60863 39995
L60844 39976
L60807 39957
L60488 39957
" />
<path d="M60488 39583
L60488 39770
L60675 39789
L60657 39770
L60638 39733
L60638 39639
L60657 39601
L60675 39583
L60713 39564
L60807 39564
L60844 39583
L60863 39601
L60882 39639
L60882 39733
L60863 39770
L60844 39789
" />
<path d="M60513 44582
L60832 44582
L60869 44564
L60888 44545
L60907 44507
L60907 44432
L60888 44395
L60869 44376
L60832 44357
L60513 44357
" />
<path d="M60513 44001
L60513 44076
L60532 44114
L60550 44133
L60607 44170
L60682 44189
L60832 44189
L60869 44170
L60888 44151
L60907 44114
L60907 44039
L60888 44001
L60869 43983
L60832 43964
L60738 43964
L60700 43983
L60682 44001
L60663 44039
L60663 44114
L60682 44151
L60700 44170
L60738 44189
" />
<path d="M45291 38970
L45273 38989
L45216 39008
L45179 39008
L45123 38989
L45085 38951
L45066 38914
L45048 38839
L45048 38783
L45066 38708
L45085 38670
L45123 38633
L45179 38614
L45216 38614
L45273 38633
L45291 38651
" />
<path d="M45423 38614
L45666 38614
L45535 38764
L45591 38764
L45629 38783
L45648 38801
L45666 38839
L45666 38933
L45648 38970
L45629 38989
L45591 39008
L45479 39008
L45441 38989
L45423 38970
" />
<path d="M46004 38745
L46004 39008
" />
<path d="M45910 38595
L45816 38876
L46060 38876
" />
<path d="M45291 39915
L45273 39934
L45216 39953
L45179 39953
L45123 39934
L45085 39896
L45066 39859
L45048 39784
L45048 39728
L45066 39653
L45085 39615
L45123 39578
L45179 39559
L45216 39559
L45273 39578
L45291 39596
" />
<path d="M45423 39559
L45666 39559
L45535 39709
L45591 39709
L45629 39728
L45648 39746
L45666 39784
L45666 39878
L45648 39915
L45629 39934
L45591 39953
L45479 39953
L45441 39934
L45423 39915
" />
<path d="M46023 39559
L45835 39559
L45816 39746
L45835 39728
L45873 39709
L45966 39709
L46004 39728
L46023 39746
L46041 39784
L46041 39878
L46023 39915
L46004 39934
L45966 39953
L45873 39953
L45835 39934
L45816 39915
" />
<path d="M61871 37485
L61853 37504
L61796 37523
L61759 37523
L61703 37504
L61665 37466
L61646 37429
L61628 37354
L61628 37298
L61646 37223
L61665 37185
L61703 37148
L61759 37129
L61796 37129
L61853 37148
L61871 37166
" />
<path d="M62209 37260
L62209 37523
" />
<path d="M62115 37110
L62021 37391
L62265 37391
" />
<path d="M62396 37166
L62415 37148
L62453 37129
L62546 37129
L62584 37148
L62603 37166
L62621 37204
L62621 37241
L62603 37298
L62378 37523
L62621 37523
" />
<path d="M61851 38285
L61833 38304
L61776 38323
L61739 38323
L61683 38304
L61645 38266
L61626 38229
L61608 38154
L61608 38098
L61626 38023
L61645 37985
L61683 37948
L61739 37929
L61776 37929
L61833 37948
L61851 37966
" />
<path d="M62189 38060
L62189 38323
" />
<path d="M62095 37910
L62001 38191
L62245 38191
" />
<path d="M62583 37929
L62395 37929
L62376 38116
L62395 38098
L62433 38079
L62526 38079
L62564 38098
L62583 38116
L62601 38154
L62601 38248
L62583 38285
L62564 38304
L62526 38323
L62433 38323
L62395 38304
L62376 38285
" />
<path d="M61911 42000
L61893 42019
L61836 42038
L61799 42038
L61743 42019
L61705 41981
L61686 41944
L61668 41869
L61668 41813
L61686 41738
L61705 41700
L61743 41663
L61799 41644
L61836 41644
L61893 41663
L61911 41681
" />
<path d="M62249 41775
L62249 42038
" />
<path d="M62155 41625
L62061 41906
L62305 41906
" />
<path d="M62418 41644
L62680 41644
L62511 42038
" />
<path d="M61881 42815
L61863 42834
L61806 42853
L61769 42853
L61713 42834
L61675 42796
L61656 42759
L61638 42684
L61638 42628
L61656 42553
L61675 42515
L61713 42478
L61769 42459
L61806 42459
L61863 42478
L61881 42496
" />
<path d="M62219 42590
L62219 42853
" />
<path d="M62125 42440
L62031 42721
L62275 42721
" />
<path d="M62594 42459
L62519 42459
L62481 42478
L62463 42496
L62425 42553
L62406 42628
L62406 42778
L62425 42815
L62444 42834
L62481 42853
L62556 42853
L62594 42834
L62613 42815
L62631 42778
L62631 42684
L62613 42646
L62594 42628
L62556 42609
L62481 42609
L62444 42628
L62425 42646
L62406 42684
" />
<path d="M62001 46340
L61983 46359
L61926 46378
L61889 46378
L61833 46359
L61795 46321
L61776 46284
L61758 46209
L61758 46153
L61776 46078
L61795 46040
L61833 46003
L61889 45984
L61926 45984
L61983 46003
L62001 46021
" />
<path d="M62339 46115
L62339 46378
" />
<path d="M62245 45965
L62151 46246
L62395 46246
" />
<path d="M62601 46153
L62564 46134
L62545 46115
L62526 46078
L62526 46059
L62545 46021
L62564 46003
L62601 45984
L62676 45984
L62714 46003
L62733 46021
L62751 46059
L62751 46078
L62733 46115
L62714 46134
L62676 46153
L62601 46153
L62564 46171
L62545 46190
L62526 46228
L62526 46303
L62545 46340
L62564 46359
L62601 46378
L62676 46378
L62714 46359
L62733 46340
L62751 46303
L62751 46228
L62733 46190
L62714 46171
L62676 46153
" />
<path d="M30428 23755
L30428 23362
L30578 23362
L30615 23380
L30634 23399
L30653 23437
L30653 23493
L30634 23530
L30615 23549
L30578 23568
L30428 23568
" />
<path d="M30803 23737
L30859 23755
L30953 23755
L30990 23737
L31009 23718
L31028 23680
L31028 23643
L31009 23605
L30990 23587
L30953 23568
L30878 23549
L30840 23530
L30821 23512
L30803 23474
L30803 23437
L30821 23399
L30840 23380
L30878 23362
L30971 23362
L31028 23380
" />
<path d="M31196 23755
L31196 23362
" />
<path d="M31421 23755
L31252 23530
" />
<path d="M31421 23362
L31196 23587
" />
<path d="M31571 23399
L31590 23380
L31627 23362
L31721 23362
L31759 23380
L31777 23399
L31796 23437
L31796 23474
L31777 23530
L31552 23755
L31796 23755
" />
<path d="M46116 41165
L46098 41184
L46041 41203
L46004 41203
L45948 41184
L45910 41146
L45891 41109
L45873 41034
L45873 40978
L45891 40903
L45910 40865
L45948 40828
L46004 40809
L46041 40809
L46098 40828
L46116 40846
" />
<path d="M46248 40809
L46491 40809
L46360 40959
L46416 40959
L46454 40978
L46473 40996
L46491 41034
L46491 41128
L46473 41165
L46454 41184
L46416 41203
L46304 41203
L46266 41184
L46248 41165
" />
<path d="M46829 40809
L46754 40809
L46716 40828
L46698 40846
L46660 40903
L46641 40978
L46641 41128
L46660 41165
L46679 41184
L46716 41203
L46791 41203
L46829 41184
L46848 41165
L46866 41128
L46866 41034
L46848 40996
L46829 40978
L46791 40959
L46716 40959
L46679 40978
L46660 40996
L46641 41034
" />
<path d="M46101 41975
L46083 41994
L46026 42013
L45989 42013
L45933 41994
L45895 41956
L45876 41919
L45858 41844
L45858 41788
L45876 41713
L45895 41675
L45933 41638
L45989 41619
L46026 41619
L46083 41638
L46101 41656
" />
<path d="M46233 41619
L46476 41619
L46345 41769
L46401 41769
L46439 41788
L46458 41806
L46476 41844
L46476 41938
L46458 41975
L46439 41994
L46401 42013
L46289 42013
L46251 41994
L46233 41975
" />
<path d="M46608 41619
L46870 41619
L46701 42013
" />
<path d="M46541 21225
L46523 21244
L46466 21263
L46429 21263
L46373 21244
L46335 21206
L46316 21169
L46298 21094
L46298 21038
L46316 20963
L46335 20925
L46373 20888
L46429 20869
L46466 20869
L46523 20888
L46541 20906
" />
<path d="M46879 21000
L46879 21263
" />
<path d="M46785 20850
L46691 21131
L46935 21131
" />
<path d="M47160 20869
L47198 20869
L47235 20888
L47254 20906
L47273 20944
L47291 21019
L47291 21113
L47273 21188
L47254 21225
L47235 21244
L47198 21263
L47160 21263
L47123 21244
L47104 21225
L47085 21188
L47066 21113
L47066 21019
L47085 20944
L47104 20906
L47123 20888
L47160 20869
" />
<path d="M46816 35773
L46835 35791
L46854 35848
L46854 35885
L46835 35941
L46797 35979
L46760 35998
L46685 36016
L46629 36016
L46554 35998
L46516 35979
L46479 35941
L46460 35885
L46460 35848
L46479 35791
L46497 35773
" />
<path d="M46591 35435
L46854 35435
" />
<path d="M46441 35529
L46722 35623
L46722 35379
" />
<path d="M46854 35023
L46854 35248
" />
<path d="M46854 35135
L46460 35135
L46516 35173
L46554 35210
L46572 35248
" />
<path d="M57515 52678
L57534 52696
L57553 52753
L57553 52790
L57534 52846
L57496 52884
L57459 52903
L57384 52921
L57328 52921
L57253 52903
L57215 52884
L57178 52846
L57159 52790
L57159 52753
L57178 52696
L57196 52678
" />
<path d="M57290 52340
L57553 52340
" />
<path d="M57140 52434
L57421 52528
L57421 52284
" />
<path d="M57553 52115
L57553 52040
L57534 52003
L57515 51984
L57459 51946
L57384 51928
L57234 51928
L57196 51946
L57178 51965
L57159 52003
L57159 52078
L57178 52115
L57196 52134
L57234 52153
L57328 52153
L57365 52134
L57384 52115
L57403 52078
L57403 52003
L57384 51965
L57365 51946
L57328 51928
" />
<path d="M55580 53758
L55599 53776
L55618 53833
L55618 53870
L55599 53926
L55561 53964
L55524 53983
L55449 54001
L55393 54001
L55318 53983
L55280 53964
L55243 53926
L55224 53870
L55224 53833
L55243 53776
L55261 53758
" />
<path d="M55224 53401
L55224 53589
L55411 53608
L55393 53589
L55374 53551
L55374 53458
L55393 53420
L55411 53401
L55449 53383
L55543 53383
L55580 53401
L55599 53420
L55618 53458
L55618 53551
L55599 53589
L55580 53608
" />
<path d="M55224 53139
L55224 53101
L55243 53064
L55261 53045
L55299 53026
L55374 53008
L55468 53008
L55543 53026
L55580 53045
L55599 53064
L55618 53101
L55618 53139
L55599 53176
L55580 53195
L55543 53214
L55468 53233
L55374 53233
L55299 53214
L55261 53195
L55243 53176
L55224 53139
" />
<path d="M51885 28413
L51904 28431
L51923 28488
L51923 28525
L51904 28581
L51866 28619
L51829 28638
L51754 28656
L51698 28656
L51623 28638
L51585 28619
L51548 28581
L51529 28525
L51529 28488
L51548 28431
L51566 28413
" />
<path d="M51529 28056
L51529 28244
L51716 28263
L51698 28244
L51679 28206
L51679 28113
L51698 28075
L51716 28056
L51754 28038
L51848 28038
L51885 28056
L51904 28075
L51923 28113
L51923 28206
L51904 28244
L51885 28263
" />
<path d="M51529 27681
L51529 27869
L51716 27888
L51698 27869
L51679 27831
L51679 27738
L51698 27700
L51716 27681
L51754 27663
L51848 27663
L51885 27681
L51904 27700
L51923 27738
L51923 27831
L51904 27869
L51885 27888
" />
<path d="M50860 28378
L50879 28396
L50898 28453
L50898 28490
L50879 28546
L50841 28584
L50804 28603
L50729 28621
L50673 28621
L50598 28603
L50560 28584
L50523 28546
L50504 28490
L50504 28453
L50523 28396
L50541 28378
" />
<path d="M50504 28021
L50504 28209
L50691 28228
L50673 28209
L50654 28171
L50654 28078
L50673 28040
L50691 28021
L50729 28003
L50823 28003
L50860 28021
L50879 28040
L50898 28078
L50898 28171
L50879 28209
L50860 28228
" />
<path d="M50504 27665
L50504 27740
L50523 27778
L50541 27796
L50598 27834
L50673 27853
L50823 27853
L50860 27834
L50879 27815
L50898 27778
L50898 27703
L50879 27665
L50860 27646
L50823 27628
L50729 27628
L50691 27646
L50673 27665
L50654 27703
L50654 27778
L50673 27815
L50691 27834
L50729 27853
" />
<path d="M59860 35568
L59466 35568
L59466 35474
L59485 35418
L59523 35380
L59560 35361
L59635 35343
L59691 35343
L59766 35361
L59804 35380
L59841 35418
L59860 35474
L59860 35568
" />
<path d="M59860 34968
L59860 35193
" />
<path d="M59860 35080
L59466 35080
L59523 35118
L59560 35155
L59579 35193
" />
<path d="M59860 34593
L59860 34818
" />
<path d="M59860 34705
L59466 34705
L59523 34743
L59560 34780
L59579 34818
" />
<path d="M59915 40048
L59521 40048
L59521 39954
L59540 39898
L59578 39860
L59615 39841
L59690 39823
L59746 39823
L59821 39841
L59859 39860
L59896 39898
L59915 39954
L59915 40048
" />
<path d="M59915 39448
L59915 39673
" />
<path d="M59915 39560
L59521 39560
L59578 39598
L59615 39635
L59634 39673
" />
<path d="M59559 39298
L59540 39279
L59521 39241
L59521 39148
L59540 39110
L59559 39091
L59596 39073
L59634 39073
L59690 39091
L59915 39316
L59915 39073
" />
<path d="M52602 31298
L52883 31298
L52939 31317
L52977 31355
L52995 31411
L52995 31448
" />
<path d="M52639 31130
L52620 31111
L52602 31073
L52602 30980
L52620 30942
L52639 30923
L52677 30905
L52714 30905
L52770 30923
L52995 31148
L52995 30905
" />
<path d="M49756 22399
L49756 22680
L49738 22736
L49700 22774
L49644 22793
L49606 22793
" />
<path d="M49944 22793
L49944 22399
L50094 22399
L50131 22418
L50150 22436
L50169 22474
L50169 22530
L50150 22568
L50131 22586
L50094 22605
L49944 22605
" />
<path d="M50506 22399
L50431 22399
L50394 22418
L50375 22436
L50338 22493
L50319 22568
L50319 22718
L50338 22755
L50356 22774
L50394 22793
L50469 22793
L50506 22774
L50525 22755
L50544 22718
L50544 22624
L50525 22586
L50506 22568
L50469 22549
L50394 22549
L50356 22568
L50338 22586
L50319 22624
" />
<path d="M43111 22234
L43111 22515
L43093 22571
L43055 22609
L42999 22628
L42961 22628
" />
<path d="M43299 22628
L43299 22234
L43449 22234
L43486 22253
L43505 22271
L43524 22309
L43524 22365
L43505 22403
L43486 22421
L43449 22440
L43299 22440
" />
<path d="M43655 22234
L43918 22234
L43749 22628
" />
<path d="M46921 23464
L46921 23745
L46903 23801
L46865 23839
L46809 23858
L46771 23858
" />
<path d="M47109 23858
L47109 23464
L47259 23464
L47296 23483
L47315 23501
L47334 23539
L47334 23595
L47315 23633
L47296 23651
L47259 23670
L47109 23670
" />
<path d="M47559 23633
L47521 23614
L47503 23595
L47484 23558
L47484 23539
L47503 23501
L47521 23483
L47559 23464
L47634 23464
L47671 23483
L47690 23501
L47709 23539
L47709 23558
L47690 23595
L47671 23614
L47634 23633
L47559 23633
L47521 23651
L47503 23670
L47484 23708
L47484 23783
L47503 23820
L47521 23839
L47559 23858
L47634 23858
L47671 23839
L47690 23820
L47709 23783
L47709 23708
L47690 23670
L47671 23651
L47634 23633
" />
<path d="M50934 40918
L51215 40918
L51271 40936
L51309 40974
L51328 41030
L51328 41068
" />
<path d="M51328 40730
L50934 40730
L50934 40580
L50953 40543
L50971 40524
L51009 40505
L51065 40505
L51103 40524
L51121 40543
L51140 40580
L51140 40730
" />
<path d="M51328 40318
L51328 40243
L51309 40205
L51290 40186
L51234 40149
L51159 40130
L51009 40130
L50971 40149
L50953 40168
L50934 40205
L50934 40280
L50953 40318
L50971 40336
L51009 40355
L51103 40355
L51140 40336
L51159 40318
L51178 40280
L51178 40205
L51159 40168
L51140 40149
L51103 40130
" />
<path d="M53924 39685
L54205 39685
L54261 39704
L54299 39741
L54318 39798
L54318 39835
" />
<path d="M54318 39498
L53924 39498
L53924 39348
L53943 39310
L53961 39291
L53999 39273
L54055 39273
L54093 39291
L54111 39310
L54130 39348
L54130 39498
" />
<path d="M54318 38898
L54318 39123
" />
<path d="M54318 39010
L53924 39010
L53980 39048
L54018 39085
L54036 39123
" />
<path d="M53924 38654
L53924 38616
L53943 38579
L53961 38560
L53999 38541
L54074 38523
L54168 38523
L54243 38541
L54280 38560
L54299 38579
L54318 38616
L54318 38654
L54299 38691
L54280 38710
L54243 38729
L54168 38748
L54074 38748
L53999 38729
L53961 38710
L53943 38691
L53924 38654
" />
<path d="M54259 24934
L54259 25215
L54240 25271
L54203 25309
L54146 25328
L54109 25328
" />
<path d="M54446 25328
L54446 24934
L54596 24934
L54634 24953
L54653 24971
L54671 25009
L54671 25065
L54653 25103
L54634 25121
L54596 25140
L54446 25140
" />
<path d="M55046 25328
L54821 25328
" />
<path d="M54934 25328
L54934 24934
L54896 24990
L54859 25028
L54821 25046
" />
<path d="M55421 25328
L55196 25328
" />
<path d="M55309 25328
L55309 24934
L55271 24990
L55234 25028
L55196 25046
" />
<path d="M41859 22794
L41859 23075
L41840 23131
L41803 23169
L41746 23188
L41709 23188
" />
<path d="M42046 23188
L42046 22794
L42196 22794
L42234 22813
L42253 22831
L42271 22869
L42271 22925
L42253 22963
L42234 22981
L42196 23000
L42046 23000
" />
<path d="M42646 23188
L42421 23188
" />
<path d="M42534 23188
L42534 22794
L42496 22850
L42459 22888
L42421 22906
" />
<path d="M42796 22831
L42815 22813
L42853 22794
L42946 22794
L42984 22813
L43003 22831
L43021 22869
L43021 22906
L43003 22963
L42778 23188
L43021 23188
" />
<path d="M41904 24909
L41904 25190
L41885 25246
L41848 25284
L41791 25303
L41754 25303
" />
<path d="M42091 25303
L42091 24909
L42241 24909
L42279 24928
L42298 24946
L42316 24984
L42316 25040
L42298 25078
L42279 25096
L42241 25115
L42091 25115
" />
<path d="M42691 25303
L42466 25303
" />
<path d="M42579 25303
L42579 24909
L42541 24965
L42504 25003
L42466 25021
" />
<path d="M42823 24909
L43066 24909
L42935 25059
L42991 25059
L43029 25078
L43048 25096
L43066 25134
L43066 25228
L43048 25265
L43029 25284
L42991 25303
L42879 25303
L42841 25284
L42823 25265
" />
<path d="M41899 26919
L41899 27200
L41880 27256
L41843 27294
L41786 27313
L41749 27313
" />
<path d="M42086 27313
L42086 26919
L42236 26919
L42274 26938
L42293 26956
L42311 26994
L42311 27050
L42293 27088
L42274 27106
L42236 27125
L42086 27125
" />
<path d="M42686 27313
L42461 27313
" />
<path d="M42574 27313
L42574 26919
L42536 26975
L42499 27013
L42461 27031
" />
<path d="M43024 27050
L43024 27313
" />
<path d="M42930 26900
L42836 27181
L43080 27181
" />
<path d="M38730 49939
L38336 49939
L38336 49789
L38355 49752
L38374 49733
L38411 49714
L38467 49714
L38505 49733
L38524 49752
L38542 49789
L38542 49939
" />
<path d="M38711 49564
L38730 49508
L38730 49414
L38711 49377
L38692 49358
L38655 49339
L38617 49339
L38580 49358
L38561 49377
L38542 49414
L38524 49489
L38505 49527
L38486 49546
L38449 49564
L38411 49564
L38374 49546
L38355 49527
L38336 49489
L38336 49396
L38355 49339
" />
<path d="M38730 49171
L38336 49171
" />
<path d="M38730 48946
L38505 49115
" />
<path d="M38336 48946
L38561 49171
" />
<path d="M38336 48608
L38336 48683
L38355 48721
L38374 48740
L38430 48777
L38505 48796
L38655 48796
L38692 48777
L38711 48758
L38730 48721
L38730 48646
L38711 48608
L38692 48590
L38655 48571
L38561 48571
L38524 48590
L38505 48608
L38486 48646
L38486 48721
L38505 48758
L38524 48777
L38561 48796
" />
<path d="M34016 28158
L33885 27970
" />
<path d="M33791 28158
L33791 27764
L33941 27764
L33979 27783
L33998 27801
L34016 27839
L34016 27895
L33998 27933
L33979 27951
L33941 27970
L33791 27970
" />
<path d="M34391 28158
L34166 28158
" />
<path d="M34279 28158
L34279 27764
L34241 27820
L34204 27858
L34166 27876
" />
<path d="M34729 27764
L34654 27764
L34616 27783
L34598 27801
L34560 27858
L34541 27933
L34541 28083
L34560 28120
L34579 28139
L34616 28158
L34691 28158
L34729 28139
L34748 28120
L34766 28083
L34766 27989
L34748 27951
L34729 27933
L34691 27914
L34616 27914
L34579 27933
L34560 27951
L34541 27989
" />
<path d="M33986 26652
L33855 26464
" />
<path d="M33761 26652
L33761 26258
L33911 26258
L33949 26277
L33968 26296
L33986 26333
L33986 26389
L33968 26427
L33949 26446
L33911 26464
L33761 26464
" />
<path d="M34361 26652
L34136 26652
" />
<path d="M34249 26652
L34249 26258
L34211 26314
L34174 26352
L34136 26371
" />
<path d="M34549 26652
L34624 26652
L34661 26633
L34680 26614
L34718 26558
L34736 26483
L34736 26333
L34718 26296
L34699 26277
L34661 26258
L34586 26258
L34549 26277
L34530 26296
L34511 26333
L34511 26427
L34530 26464
L34549 26483
L34586 26502
L34661 26502
L34699 26483
L34718 26464
L34736 26427
" />
<path d="M63341 39418
L63210 39231
" />
<path d="M63116 39418
L63116 39025
L63266 39025
L63304 39043
L63323 39062
L63341 39100
L63341 39156
L63323 39193
L63304 39212
L63266 39231
L63116 39231
" />
<path d="M63491 39062
L63510 39043
L63548 39025
L63641 39025
L63679 39043
L63698 39062
L63716 39100
L63716 39137
L63698 39193
L63473 39418
L63716 39418
" />
<path d="M63848 39025
L64091 39025
L63960 39175
L64016 39175
L64054 39193
L64073 39212
L64091 39250
L64091 39343
L64073 39381
L64054 39400
L64016 39418
L63904 39418
L63866 39400
L63848 39381
" />
<path d="M34031 25202
L33900 25014
" />
<path d="M33806 25202
L33806 24808
L33956 24808
L33994 24827
L34013 24846
L34031 24883
L34031 24939
L34013 24977
L33994 24996
L33956 25014
L33806 25014
" />
<path d="M34181 24846
L34200 24827
L34238 24808
L34331 24808
L34369 24827
L34388 24846
L34406 24883
L34406 24921
L34388 24977
L34163 25202
L34406 25202
" />
<path d="M34744 24939
L34744 25202
" />
<path d="M34650 24789
L34556 25071
L34800 25071
" />
<path d="M61971 50018
L61840 49831
" />
<path d="M61746 50018
L61746 49625
L61896 49625
L61934 49643
L61953 49662
L61971 49700
L61971 49756
L61953 49793
L61934 49812
L61896 49831
L61746 49831
" />
<path d="M62103 49625
L62346 49625
L62215 49775
L62271 49775
L62309 49793
L62328 49812
L62346 49850
L62346 49943
L62328 49981
L62309 50000
L62271 50018
L62159 50018
L62121 50000
L62103 49981
" />
<path d="M62571 49793
L62534 49775
L62515 49756
L62496 49718
L62496 49700
L62515 49662
L62534 49643
L62571 49625
L62646 49625
L62684 49643
L62703 49662
L62721 49700
L62721 49718
L62703 49756
L62684 49775
L62646 49793
L62571 49793
L62534 49812
L62515 49831
L62496 49868
L62496 49943
L62515 49981
L62534 50000
L62571 50018
L62646 50018
L62684 50000
L62703 49981
L62721 49943
L62721 49868
L62703 49831
L62684 49812
L62646 49793
" />
<path d="M59990 44368
L59596 44368
L59596 44274
L59615 44218
L59653 44180
L59690 44161
L59765 44143
L59821 44143
L59896 44161
L59934 44180
L59971 44218
L59990 44274
L59990 44368
" />
<path d="M59990 43768
L59990 43993
" />
<path d="M59990 43880
L59596 43880
L59653 43918
L59690 43955
L59709 43993
" />
<path d="M59596 43636
L59596 43393
L59746 43524
L59746 43468
L59765 43430
L59784 43411
L59821 43393
L59915 43393
L59953 43411
L59971 43430
L59990 43468
L59990 43580
L59971 43618
L59953 43636
" />
<path d="M52602 48271
L52883 48271
L52939 48289
L52977 48327
L52995 48383
L52995 48421
" />
<path d="M52995 47877
L52995 48102
" />
<path d="M52995 47990
L52602 47990
L52658 48027
L52695 48065
L52714 48102
" />
<path d="M38316 44970
L38597 44970
L38654 44988
L38691 45026
L38710 45082
L38710 45120
" />
<path d="M38316 44820
L38316 44576
L38466 44707
L38466 44651
L38485 44614
L38504 44595
L38541 44576
L38635 44576
L38672 44595
L38691 44614
L38710 44651
L38710 44764
L38691 44801
L38672 44820
" />
<path d="M41899 29034
L41899 29315
L41880 29371
L41843 29409
L41786 29428
L41749 29428
" />
<path d="M42086 29428
L42086 29034
L42236 29034
L42274 29053
L42293 29071
L42311 29109
L42311 29165
L42293 29203
L42274 29221
L42236 29240
L42086 29240
" />
<path d="M42686 29428
L42461 29428
" />
<path d="M42574 29428
L42574 29034
L42536 29090
L42499 29128
L42461 29146
" />
<path d="M43043 29034
L42855 29034
L42836 29221
L42855 29203
L42893 29184
L42986 29184
L43024 29203
L43043 29221
L43061 29259
L43061 29353
L43043 29390
L43024 29409
L42986 29428
L42893 29428
L42855 29409
L42836 29390
" />
<path d="M41939 31004
L41939 31285
L41920 31341
L41883 31379
L41826 31398
L41789 31398
" />
<path d="M42126 31398
L42126 31004
L42276 31004
L42314 31023
L42333 31041
L42351 31079
L42351 31135
L42333 31173
L42314 31191
L42276 31210
L42126 31210
" />
<path d="M42726 31398
L42501 31398
" />
<path d="M42614 31398
L42614 31004
L42576 31060
L42539 31098
L42501 31116
" />
<path d="M43064 31004
L42989 31004
L42951 31023
L42933 31041
L42895 31098
L42876 31173
L42876 31323
L42895 31360
L42914 31379
L42951 31398
L43026 31398
L43064 31379
L43083 31360
L43101 31323
L43101 31229
L43083 31191
L43064 31173
L43026 31154
L42951 31154
L42914 31173
L42895 31191
L42876 31229
" />
<path d="M41939 32989
L41939 33270
L41920 33326
L41883 33364
L41826 33383
L41789 33383
" />
<path d="M42126 33383
L42126 32989
L42276 32989
L42314 33008
L42333 33026
L42351 33064
L42351 33120
L42333 33158
L42314 33176
L42276 33195
L42126 33195
" />
<path d="M42726 33383
L42501 33383
" />
<path d="M42614 33383
L42614 32989
L42576 33045
L42539 33083
L42501 33101
" />
<path d="M42858 32989
L43120 32989
L42951 33383
" />
<path d="M41939 35164
L41939 35445
L41920 35501
L41883 35539
L41826 35558
L41789 35558
" />
<path d="M42126 35558
L42126 35164
L42276 35164
L42314 35183
L42333 35201
L42351 35239
L42351 35295
L42333 35333
L42314 35351
L42276 35370
L42126 35370
" />
<path d="M42726 35558
L42501 35558
" />
<path d="M42614 35558
L42614 35164
L42576 35220
L42539 35258
L42501 35276
" />
<path d="M42951 35333
L42914 35314
L42895 35295
L42876 35258
L42876 35239
L42895 35201
L42914 35183
L42951 35164
L43026 35164
L43064 35183
L43083 35201
L43101 35239
L43101 35258
L43083 35295
L43064 35314
L43026 35333
L42951 35333
L42914 35351
L42895 35370
L42876 35408
L42876 35483
L42895 35520
L42914 35539
L42951 35558
L43026 35558
L43064 35539
L43083 35520
L43101 35483
L43101 35408
L43083 35370
L43064 35351
L43026 35333
" />
<path d="M41919 37089
L41919 37370
L41900 37426
L41863 37464
L41806 37483
L41769 37483
" />
<path d="M42106 37483
L42106 37089
L42256 37089
L42294 37108
L42313 37126
L42331 37164
L42331 37220
L42313 37258
L42294 37276
L42256 37295
L42106 37295
" />
<path d="M42706 37483
L42481 37483
" />
<path d="M42594 37483
L42594 37089
L42556 37145
L42519 37183
L42481 37201
" />
<path d="M42894 37483
L42969 37483
L43006 37464
L43025 37445
L43063 37389
L43081 37314
L43081 37164
L43063 37126
L43044 37108
L43006 37089
L42931 37089
L42894 37108
L42875 37126
L42856 37164
L42856 37258
L42875 37295
L42894 37314
L42931 37333
L43006 37333
L43044 37314
L43063 37295
L43081 37258
" />
<path d="M36066 28182
L35935 27994
" />
<path d="M35841 28182
L35841 27788
L35991 27788
L36029 27807
L36048 27826
L36066 27863
L36066 27919
L36048 27957
L36029 27976
L35991 27994
L35841 27994
" />
<path d="M36441 28182
L36216 28182
" />
<path d="M36329 28182
L36329 27788
L36291 27844
L36254 27882
L36216 27901
" />
<path d="M36573 27788
L36835 27788
L36666 28182
" />
<path d="M63386 34993
L63255 34806
" />
<path d="M63161 34993
L63161 34600
L63311 34600
L63349 34618
L63368 34637
L63386 34675
L63386 34731
L63368 34768
L63349 34787
L63311 34806
L63161 34806
" />
<path d="M63761 34993
L63536 34993
" />
<path d="M63649 34993
L63649 34600
L63611 34656
L63574 34693
L63536 34712
" />
<path d="M63986 34768
L63949 34750
L63930 34731
L63911 34693
L63911 34675
L63930 34637
L63949 34618
L63986 34600
L64061 34600
L64099 34618
L64118 34637
L64136 34675
L64136 34693
L64118 34731
L64099 34750
L64061 34768
L63986 34768
L63949 34787
L63930 34806
L63911 34843
L63911 34918
L63930 34956
L63949 34975
L63986 34993
L64061 34993
L64099 34975
L64118 34956
L64136 34918
L64136 34843
L64118 34806
L64099 34787
L64061 34768
" />
<path d="M34016 37062
L33885 36874
" />
<path d="M33791 37062
L33791 36668
L33941 36668
L33979 36687
L33998 36706
L34016 36743
L34016 36799
L33998 36837
L33979 36856
L33941 36874
L33791 36874
" />
<path d="M34166 36706
L34185 36687
L34223 36668
L34316 36668
L34354 36687
L34373 36706
L34391 36743
L34391 36781
L34373 36837
L34148 37062
L34391 37062
" />
<path d="M34635 36668
L34673 36668
L34710 36687
L34729 36706
L34748 36743
L34766 36818
L34766 36912
L34748 36987
L34729 37024
L34710 37043
L34673 37062
L34635 37062
L34598 37043
L34579 37024
L34560 36987
L34541 36912
L34541 36818
L34560 36743
L34579 36706
L34598 36687
L34635 36668
" />
<path d="M36056 37087
L35925 36899
" />
<path d="M35831 37087
L35831 36693
L35981 36693
L36019 36712
L36038 36731
L36056 36768
L36056 36824
L36038 36862
L36019 36881
L35981 36899
L35831 36899
" />
<path d="M36206 36731
L36225 36712
L36263 36693
L36356 36693
L36394 36712
L36413 36731
L36431 36768
L36431 36806
L36413 36862
L36188 37087
L36431 37087
" />
<path d="M36806 37087
L36581 37087
" />
<path d="M36694 37087
L36694 36693
L36656 36749
L36619 36787
L36581 36806
" />
<path d="M36111 25177
L35980 24989
" />
<path d="M35886 25177
L35886 24783
L36036 24783
L36074 24802
L36093 24821
L36111 24858
L36111 24914
L36093 24952
L36074 24971
L36036 24989
L35886 24989
" />
<path d="M36261 24821
L36280 24802
L36318 24783
L36411 24783
L36449 24802
L36468 24821
L36486 24858
L36486 24896
L36468 24952
L36243 25177
L36486 25177
" />
<path d="M36843 24783
L36655 24783
L36636 24971
L36655 24952
L36693 24933
L36786 24933
L36824 24952
L36843 24971
L36861 25008
L36861 25102
L36843 25139
L36824 25158
L36786 25177
L36693 25177
L36655 25158
L36636 25139
" />
<path d="M63556 43828
L63425 43641
" />
<path d="M63331 43828
L63331 43435
L63481 43435
L63519 43453
L63538 43472
L63556 43510
L63556 43566
L63538 43603
L63519 43622
L63481 43641
L63331 43641
" />
<path d="M63706 43472
L63725 43453
L63763 43435
L63856 43435
L63894 43453
L63913 43472
L63931 43510
L63931 43547
L63913 43603
L63688 43828
L63931 43828
" />
<path d="M64269 43435
L64194 43435
L64156 43453
L64138 43472
L64100 43528
L64081 43603
L64081 43753
L64100 43791
L64119 43810
L64156 43828
L64231 43828
L64269 43810
L64288 43791
L64306 43753
L64306 43660
L64288 43622
L64269 43603
L64231 43585
L64156 43585
L64119 43603
L64100 43622
L64081 43660
" />
<path d="M61436 39418
L61305 39231
" />
<path d="M61211 39418
L61211 39025
L61361 39025
L61399 39043
L61418 39062
L61436 39100
L61436 39156
L61418 39193
L61399 39212
L61361 39231
L61211 39231
" />
<path d="M61586 39062
L61605 39043
L61643 39025
L61736 39025
L61774 39043
L61793 39062
L61811 39100
L61811 39137
L61793 39193
L61568 39418
L61811 39418
" />
<path d="M61943 39025
L62205 39025
L62036 39418
" />
<path d="M34031 34122
L33900 33934
" />
<path d="M33806 34122
L33806 33728
L33956 33728
L33994 33747
L34013 33766
L34031 33803
L34031 33859
L34013 33897
L33994 33916
L33956 33934
L33806 33934
" />
<path d="M34181 33766
L34200 33747
L34238 33728
L34331 33728
L34369 33747
L34388 33766
L34406 33803
L34406 33841
L34388 33897
L34163 34122
L34406 34122
" />
<path d="M34631 33897
L34594 33878
L34575 33859
L34556 33822
L34556 33803
L34575 33766
L34594 33747
L34631 33728
L34706 33728
L34744 33747
L34763 33766
L34781 33803
L34781 33822
L34763 33859
L34744 33878
L34706 33897
L34631 33897
L34594 33916
L34575 33934
L34556 33972
L34556 34047
L34575 34084
L34594 34103
L34631 34122
L34706 34122
L34744 34103
L34763 34084
L34781 34047
L34781 33972
L34763 33934
L34744 33916
L34706 33897
" />
<path d="M36051 34112
L35920 33924
" />
<path d="M35826 34112
L35826 33718
L35976 33718
L36014 33737
L36033 33756
L36051 33793
L36051 33849
L36033 33887
L36014 33906
L35976 33924
L35826 33924
" />
<path d="M36201 33756
L36220 33737
L36258 33718
L36351 33718
L36389 33737
L36408 33756
L36426 33793
L36426 33831
L36408 33887
L36183 34112
L36426 34112
" />
<path d="M36614 34112
L36689 34112
L36726 34093
L36745 34074
L36783 34018
L36801 33943
L36801 33793
L36783 33756
L36764 33737
L36726 33718
L36651 33718
L36614 33737
L36595 33756
L36576 33793
L36576 33887
L36595 33924
L36614 33943
L36651 33962
L36726 33962
L36764 33943
L36783 33924
L36801 33887
" />
<path d="M61686 43783
L61555 43596
" />
<path d="M61461 43783
L61461 43390
L61611 43390
L61649 43408
L61668 43427
L61686 43465
L61686 43521
L61668 43558
L61649 43577
L61611 43596
L61461 43596
" />
<path d="M61818 43390
L62061 43390
L61930 43540
L61986 43540
L62024 43558
L62043 43577
L62061 43615
L62061 43708
L62043 43746
L62024 43765
L61986 43783
L61874 43783
L61836 43765
L61818 43746
" />
<path d="M62305 43390
L62343 43390
L62380 43408
L62399 43427
L62418 43465
L62436 43540
L62436 43633
L62418 43708
L62399 43746
L62380 43765
L62343 43783
L62305 43783
L62268 43765
L62249 43746
L62230 43708
L62211 43633
L62211 43540
L62230 43465
L62249 43427
L62268 43408
L62305 43390
" />
<path d="M36116 23767
L35985 23579
" />
<path d="M35891 23767
L35891 23373
L36041 23373
L36079 23392
L36098 23411
L36116 23448
L36116 23504
L36098 23542
L36079 23561
L36041 23579
L35891 23579
" />
<path d="M36248 23373
L36491 23373
L36360 23523
L36416 23523
L36454 23542
L36473 23561
L36491 23598
L36491 23692
L36473 23729
L36454 23748
L36416 23767
L36304 23767
L36266 23748
L36248 23729
" />
<path d="M36866 23767
L36641 23767
" />
<path d="M36754 23767
L36754 23373
L36716 23429
L36679 23467
L36641 23486
" />
<path d="M34001 23737
L33870 23549
" />
<path d="M33776 23737
L33776 23343
L33926 23343
L33964 23362
L33983 23381
L34001 23418
L34001 23474
L33983 23512
L33964 23531
L33926 23549
L33776 23549
" />
<path d="M34133 23343
L34376 23343
L34245 23493
L34301 23493
L34339 23512
L34358 23531
L34376 23568
L34376 23662
L34358 23699
L34339 23718
L34301 23737
L34189 23737
L34151 23718
L34133 23699
" />
<path d="M34526 23381
L34545 23362
L34583 23343
L34676 23343
L34714 23362
L34733 23381
L34751 23418
L34751 23456
L34733 23512
L34508 23737
L34751 23737
" />
<path d="M34036 32672
L33905 32484
" />
<path d="M33811 32672
L33811 32278
L33961 32278
L33999 32297
L34018 32316
L34036 32353
L34036 32409
L34018 32447
L33999 32466
L33961 32484
L33811 32484
" />
<path d="M34168 32278
L34411 32278
L34280 32428
L34336 32428
L34374 32447
L34393 32466
L34411 32503
L34411 32597
L34393 32634
L34374 32653
L34336 32672
L34224 32672
L34186 32653
L34168 32634
" />
<path d="M34543 32278
L34786 32278
L34655 32428
L34711 32428
L34749 32447
L34768 32466
L34786 32503
L34786 32597
L34768 32634
L34749 32653
L34711 32672
L34599 32672
L34561 32653
L34543 32634
" />
<path d="M36161 32657
L36030 32469
" />
<path d="M35936 32657
L35936 32263
L36086 32263
L36124 32282
L36143 32301
L36161 32338
L36161 32394
L36143 32432
L36124 32451
L36086 32469
L35936 32469
" />
<path d="M36293 32263
L36536 32263
L36405 32413
L36461 32413
L36499 32432
L36518 32451
L36536 32488
L36536 32582
L36518 32619
L36499 32638
L36461 32657
L36349 32657
L36311 32638
L36293 32619
" />
<path d="M36874 32394
L36874 32657
" />
<path d="M36780 32244
L36686 32526
L36930 32526
" />
<path d="M34011 35527
L33880 35339
" />
<path d="M33786 35527
L33786 35133
L33936 35133
L33974 35152
L33993 35171
L34011 35208
L34011 35264
L33993 35302
L33974 35321
L33936 35339
L33786 35339
" />
<path d="M34143 35133
L34386 35133
L34255 35283
L34311 35283
L34349 35302
L34368 35321
L34386 35358
L34386 35452
L34368 35489
L34349 35508
L34311 35527
L34199 35527
L34161 35508
L34143 35489
" />
<path d="M34743 35133
L34555 35133
L34536 35321
L34555 35302
L34593 35283
L34686 35283
L34724 35302
L34743 35321
L34761 35358
L34761 35452
L34743 35489
L34724 35508
L34686 35527
L34593 35527
L34555 35508
L34536 35489
" />
<path d="M36156 35517
L36025 35329
" />
<path d="M35931 35517
L35931 35123
L36081 35123
L36119 35142
L36138 35161
L36156 35198
L36156 35254
L36138 35292
L36119 35311
L36081 35329
L35931 35329
" />
<path d="M36288 35123
L36531 35123
L36400 35273
L36456 35273
L36494 35292
L36513 35311
L36531 35348
L36531 35442
L36513 35479
L36494 35498
L36456 35517
L36344 35517
L36306 35498
L36288 35479
" />
<path d="M36869 35123
L36794 35123
L36756 35142
L36738 35161
L36700 35217
L36681 35292
L36681 35442
L36700 35479
L36719 35498
L36756 35517
L36831 35517
L36869 35498
L36888 35479
L36906 35442
L36906 35348
L36888 35311
L36869 35292
L36831 35273
L36756 35273
L36719 35292
L36700 35311
L36681 35348
" />
<path d="M54051 27762
L53920 27574
" />
<path d="M53826 27762
L53826 27368
L53976 27368
L54014 27387
L54033 27406
L54051 27443
L54051 27499
L54033 27537
L54014 27556
L53976 27574
L53826 27574
" />
<path d="M54183 27368
L54426 27368
L54295 27518
L54351 27518
L54389 27537
L54408 27556
L54426 27593
L54426 27687
L54408 27724
L54389 27743
L54351 27762
L54239 27762
L54201 27743
L54183 27724
" />
<path d="M54558 27368
L54820 27368
L54651 27762
" />
<path d="M49936 31232
L49805 31044
" />
<path d="M49711 31232
L49711 30838
L49861 30838
L49899 30857
L49918 30876
L49936 30913
L49936 30969
L49918 31007
L49899 31026
L49861 31044
L49711 31044
" />
<path d="M50068 30838
L50311 30838
L50180 30988
L50236 30988
L50274 31007
L50293 31026
L50311 31063
L50311 31157
L50293 31194
L50274 31213
L50236 31232
L50124 31232
L50086 31213
L50068 31194
" />
<path d="M50499 31232
L50574 31232
L50611 31213
L50630 31194
L50668 31138
L50686 31063
L50686 30913
L50668 30876
L50649 30857
L50611 30838
L50536 30838
L50499 30857
L50480 30876
L50461 30913
L50461 31007
L50480 31044
L50499 31063
L50536 31082
L50611 31082
L50649 31063
L50668 31044
L50686 31007
" />
<path d="M36071 26652
L35940 26464
" />
<path d="M35846 26652
L35846 26258
L35996 26258
L36034 26277
L36053 26296
L36071 26333
L36071 26389
L36053 26427
L36034 26446
L35996 26464
L35846 26464
" />
<path d="M36409 26389
L36409 26652
" />
<path d="M36315 26239
L36221 26521
L36465 26521
" />
<path d="M36690 26258
L36728 26258
L36765 26277
L36784 26296
L36803 26333
L36821 26408
L36821 26502
L36803 26577
L36784 26614
L36765 26633
L36728 26652
L36690 26652
L36653 26633
L36634 26614
L36615 26577
L36596 26502
L36596 26408
L36615 26333
L36634 26296
L36653 26277
L36690 26258
" />
<path d="M29199 21615
L29068 21428
" />
<path d="M28974 21615
L28974 21222
L29124 21222
L29161 21240
L29180 21259
L29199 21297
L29199 21353
L29180 21390
L29161 21409
L29124 21428
L28974 21428
" />
<path d="M29368 21409
L29499 21409
" />
<path d="M29555 21615
L29368 21615
L29368 21222
L29555 21222
" />
<path d="M29855 21409
L29724 21409
" />
<path d="M29724 21615
L29724 21222
L29911 21222
" />
<path d="M30118 21222
L30118 21315
" />
<path d="M30024 21278
L30118 21315
L30211 21278
" />
<path d="M30061 21390
L30118 21315
L30174 21390
" />
<path d="M30418 21222
L30418 21315
" />
<path d="M30324 21278
L30418 21315
L30511 21278
" />
<path d="M30361 21390
L30418 21315
L30474 21390
" />
</g> 
</svg>
