G04 #@! TF.FileFunction,Legend,Bot*
%FSLAX46Y46*%
G04 Gerber Fmt 4.6, Leading zero omitted, Abs format (unit mm)*
G04 Created by KiCad (PCBNEW 4.0.6) date 06/27/17 09:13:31*
%MOMM*%
%LPD*%
G01*
G04 APERTURE LIST*
%ADD10C,0.100000*%
%ADD11C,0.120000*%
%ADD12C,0.150000*%
G04 APERTURE END LIST*
D10*
D11*
X156861000Y-115947000D02*
X158861000Y-115947000D01*
X158861000Y-117987000D02*
X156861000Y-117987000D01*
X116246400Y-87143400D02*
X118246400Y-87143400D01*
X118246400Y-89183400D02*
X116246400Y-89183400D01*
X116449600Y-91283600D02*
X118449600Y-91283600D01*
X118449600Y-93323600D02*
X116449600Y-93323600D01*
X179010500Y-91964000D02*
X179010500Y-93964000D01*
X176970500Y-93964000D02*
X176970500Y-91964000D01*
X171783500Y-80069500D02*
X173783500Y-80069500D01*
X173783500Y-82109500D02*
X171783500Y-82109500D01*
X184916000Y-91900500D02*
X184916000Y-93900500D01*
X182876000Y-93900500D02*
X182876000Y-91900500D01*
X171593000Y-83054000D02*
X173593000Y-83054000D01*
X173593000Y-85094000D02*
X171593000Y-85094000D01*
X175835500Y-92027500D02*
X175835500Y-94027500D01*
X173795500Y-94027500D02*
X173795500Y-92027500D01*
X181995000Y-91964000D02*
X181995000Y-93964000D01*
X179955000Y-93964000D02*
X179955000Y-91964000D01*
X177530000Y-100588000D02*
X175530000Y-100588000D01*
X175530000Y-98548000D02*
X177530000Y-98548000D01*
X184567000Y-100805000D02*
X182567000Y-100805000D01*
X182567000Y-98765000D02*
X184567000Y-98765000D01*
X150447500Y-70227000D02*
X152447500Y-70227000D01*
X152447500Y-72267000D02*
X150447500Y-72267000D01*
X159071500Y-57483500D02*
X159071500Y-59483500D01*
X157031500Y-59483500D02*
X157031500Y-57483500D01*
X109845600Y-90902600D02*
X111845600Y-90902600D01*
X111845600Y-92942600D02*
X109845600Y-92942600D01*
X116589300Y-67610800D02*
X118589300Y-67610800D01*
X118589300Y-69650800D02*
X116589300Y-69650800D01*
X110366300Y-67483800D02*
X112366300Y-67483800D01*
X112366300Y-69523800D02*
X110366300Y-69523800D01*
X116894100Y-63711900D02*
X118894100Y-63711900D01*
X118894100Y-65751900D02*
X116894100Y-65751900D01*
X116729000Y-56003000D02*
X118729000Y-56003000D01*
X118729000Y-58043000D02*
X116729000Y-58043000D01*
X116792500Y-75053000D02*
X118792500Y-75053000D01*
X118792500Y-77093000D02*
X116792500Y-77093000D01*
X169567000Y-86365000D02*
X171567000Y-86365000D01*
X171567000Y-88405000D02*
X169567000Y-88405000D01*
X164147000Y-85985000D02*
X164147000Y-83985000D01*
X166187000Y-83985000D02*
X166187000Y-85985000D01*
X116894100Y-79459900D02*
X118894100Y-79459900D01*
X118894100Y-81499900D02*
X116894100Y-81499900D01*
X117008400Y-71420800D02*
X119008400Y-71420800D01*
X119008400Y-73460800D02*
X117008400Y-73460800D01*
X117021100Y-83155600D02*
X119021100Y-83155600D01*
X119021100Y-85195600D02*
X117021100Y-85195600D01*
X116792500Y-59774900D02*
X118792500Y-59774900D01*
X118792500Y-61814900D02*
X116792500Y-61814900D01*
X156142500Y-76692000D02*
X156142500Y-74692000D01*
X158182500Y-74692000D02*
X158182500Y-76692000D01*
X158873000Y-76742800D02*
X158873000Y-74742800D01*
X160913000Y-74742800D02*
X160913000Y-76742800D01*
X110340900Y-71357300D02*
X112340900Y-71357300D01*
X112340900Y-73397300D02*
X110340900Y-73397300D01*
X110163100Y-63457900D02*
X112163100Y-63457900D01*
X112163100Y-65497900D02*
X110163100Y-65497900D01*
X109807500Y-59584400D02*
X111807500Y-59584400D01*
X111807500Y-61624400D02*
X109807500Y-61624400D01*
X109972600Y-83092100D02*
X111972600Y-83092100D01*
X111972600Y-85132100D02*
X109972600Y-85132100D01*
X109896400Y-87016400D02*
X111896400Y-87016400D01*
X111896400Y-89056400D02*
X109896400Y-89056400D01*
X110099600Y-79396400D02*
X112099600Y-79396400D01*
X112099600Y-81436400D02*
X110099600Y-81436400D01*
X110125000Y-56003000D02*
X112125000Y-56003000D01*
X112125000Y-58043000D02*
X110125000Y-58043000D01*
X109998000Y-74862500D02*
X111998000Y-74862500D01*
X111998000Y-76902500D02*
X109998000Y-76902500D01*
D12*
X164147500Y-115189000D02*
X164147500Y-107569000D01*
X164147500Y-115189000D02*
X161607500Y-115189000D01*
X164147500Y-107569000D02*
X164147500Y-115189000D01*
X164147500Y-107569000D02*
X161607500Y-107569000D01*
X164147500Y-115189000D02*
X164147500Y-107569000D01*
X161607500Y-107569000D02*
X161607500Y-115189000D01*
X161607500Y-115189000D02*
X161607500Y-107569000D01*
X150939500Y-107569000D02*
X150939500Y-115189000D01*
X150939500Y-107569000D02*
X153479500Y-107569000D01*
X150939500Y-115189000D02*
X150939500Y-107569000D01*
X150939500Y-115189000D02*
X153479500Y-115189000D01*
X150939500Y-107569000D02*
X150939500Y-115189000D01*
X153479500Y-115189000D02*
X153479500Y-107569000D01*
X153479500Y-107569000D02*
X153479500Y-115189000D01*
X155003500Y-107335000D02*
X160203500Y-107335000D01*
X160203500Y-114835000D02*
X160203500Y-107335000D01*
X155003500Y-114835000D02*
X160203500Y-114835000D01*
X155003500Y-114835000D02*
X155003500Y-107335000D01*
D11*
X150994000Y-76292000D02*
X150994000Y-75092000D01*
X149234000Y-75092000D02*
X149234000Y-76292000D01*
X153387500Y-62983000D02*
X154587500Y-62983000D01*
X154587500Y-61223000D02*
X153387500Y-61223000D01*
X150466500Y-69142500D02*
X151666500Y-69142500D01*
X151666500Y-67382500D02*
X150466500Y-67382500D01*
X168030000Y-99679200D02*
X168030000Y-100879200D01*
X169790000Y-100879200D02*
X169790000Y-99679200D01*
X142402000Y-106417000D02*
X143602000Y-106417000D01*
X143602000Y-104657000D02*
X142402000Y-104657000D01*
X156247000Y-90585000D02*
X156247000Y-89385000D01*
X154487000Y-89385000D02*
X154487000Y-90585000D01*
X137621200Y-114836700D02*
X137621200Y-116836700D01*
X135581200Y-116836700D02*
X135581200Y-114836700D01*
X140466000Y-114836700D02*
X140466000Y-116836700D01*
X138426000Y-116836700D02*
X138426000Y-114836700D01*
D12*
X158503857Y-115574143D02*
X158551476Y-115621762D01*
X158694333Y-115669381D01*
X158789571Y-115669381D01*
X158932429Y-115621762D01*
X159027667Y-115526524D01*
X159075286Y-115431286D01*
X159122905Y-115240810D01*
X159122905Y-115097952D01*
X159075286Y-114907476D01*
X159027667Y-114812238D01*
X158932429Y-114717000D01*
X158789571Y-114669381D01*
X158694333Y-114669381D01*
X158551476Y-114717000D01*
X158503857Y-114764619D01*
X157551476Y-115669381D02*
X158122905Y-115669381D01*
X157837191Y-115669381D02*
X157837191Y-114669381D01*
X157932429Y-114812238D01*
X158027667Y-114907476D01*
X158122905Y-114955095D01*
X156599095Y-115669381D02*
X157170524Y-115669381D01*
X156884810Y-115669381D02*
X156884810Y-114669381D01*
X156980048Y-114812238D01*
X157075286Y-114907476D01*
X157170524Y-114955095D01*
X117889257Y-86770543D02*
X117936876Y-86818162D01*
X118079733Y-86865781D01*
X118174971Y-86865781D01*
X118317829Y-86818162D01*
X118413067Y-86722924D01*
X118460686Y-86627686D01*
X118508305Y-86437210D01*
X118508305Y-86294352D01*
X118460686Y-86103876D01*
X118413067Y-86008638D01*
X118317829Y-85913400D01*
X118174971Y-85865781D01*
X118079733Y-85865781D01*
X117936876Y-85913400D01*
X117889257Y-85961019D01*
X117555924Y-85865781D02*
X116936876Y-85865781D01*
X117270210Y-86246733D01*
X117127352Y-86246733D01*
X117032114Y-86294352D01*
X116984495Y-86341971D01*
X116936876Y-86437210D01*
X116936876Y-86675305D01*
X116984495Y-86770543D01*
X117032114Y-86818162D01*
X117127352Y-86865781D01*
X117413067Y-86865781D01*
X117508305Y-86818162D01*
X117555924Y-86770543D01*
X116317829Y-85865781D02*
X116222590Y-85865781D01*
X116127352Y-85913400D01*
X116079733Y-85961019D01*
X116032114Y-86056257D01*
X115984495Y-86246733D01*
X115984495Y-86484829D01*
X116032114Y-86675305D01*
X116079733Y-86770543D01*
X116127352Y-86818162D01*
X116222590Y-86865781D01*
X116317829Y-86865781D01*
X116413067Y-86818162D01*
X116460686Y-86770543D01*
X116508305Y-86675305D01*
X116555924Y-86484829D01*
X116555924Y-86246733D01*
X116508305Y-86056257D01*
X116460686Y-85961019D01*
X116413067Y-85913400D01*
X116317829Y-85865781D01*
X118092457Y-90910743D02*
X118140076Y-90958362D01*
X118282933Y-91005981D01*
X118378171Y-91005981D01*
X118521029Y-90958362D01*
X118616267Y-90863124D01*
X118663886Y-90767886D01*
X118711505Y-90577410D01*
X118711505Y-90434552D01*
X118663886Y-90244076D01*
X118616267Y-90148838D01*
X118521029Y-90053600D01*
X118378171Y-90005981D01*
X118282933Y-90005981D01*
X118140076Y-90053600D01*
X118092457Y-90101219D01*
X117711505Y-90101219D02*
X117663886Y-90053600D01*
X117568648Y-90005981D01*
X117330552Y-90005981D01*
X117235314Y-90053600D01*
X117187695Y-90101219D01*
X117140076Y-90196457D01*
X117140076Y-90291695D01*
X117187695Y-90434552D01*
X117759124Y-91005981D01*
X117140076Y-91005981D01*
X116806743Y-90005981D02*
X116187695Y-90005981D01*
X116521029Y-90386933D01*
X116378171Y-90386933D01*
X116282933Y-90434552D01*
X116235314Y-90482171D01*
X116187695Y-90577410D01*
X116187695Y-90815505D01*
X116235314Y-90910743D01*
X116282933Y-90958362D01*
X116378171Y-91005981D01*
X116663886Y-91005981D01*
X116759124Y-90958362D01*
X116806743Y-90910743D01*
X180097643Y-92797334D02*
X180145262Y-92749715D01*
X180192881Y-92606858D01*
X180192881Y-92511620D01*
X180145262Y-92368762D01*
X180050024Y-92273524D01*
X179954786Y-92225905D01*
X179764310Y-92178286D01*
X179621452Y-92178286D01*
X179430976Y-92225905D01*
X179335738Y-92273524D01*
X179240500Y-92368762D01*
X179192881Y-92511620D01*
X179192881Y-92606858D01*
X179240500Y-92749715D01*
X179288119Y-92797334D01*
X179526214Y-93654477D02*
X180192881Y-93654477D01*
X179145262Y-93416381D02*
X179859548Y-93178286D01*
X179859548Y-93797334D01*
X172950166Y-79696643D02*
X172997785Y-79744262D01*
X173140642Y-79791881D01*
X173235880Y-79791881D01*
X173378738Y-79744262D01*
X173473976Y-79649024D01*
X173521595Y-79553786D01*
X173569214Y-79363310D01*
X173569214Y-79220452D01*
X173521595Y-79029976D01*
X173473976Y-78934738D01*
X173378738Y-78839500D01*
X173235880Y-78791881D01*
X173140642Y-78791881D01*
X172997785Y-78839500D01*
X172950166Y-78887119D01*
X172045404Y-78791881D02*
X172521595Y-78791881D01*
X172569214Y-79268071D01*
X172521595Y-79220452D01*
X172426357Y-79172833D01*
X172188261Y-79172833D01*
X172093023Y-79220452D01*
X172045404Y-79268071D01*
X171997785Y-79363310D01*
X171997785Y-79601405D01*
X172045404Y-79696643D01*
X172093023Y-79744262D01*
X172188261Y-79791881D01*
X172426357Y-79791881D01*
X172521595Y-79744262D01*
X172569214Y-79696643D01*
X186003143Y-92733834D02*
X186050762Y-92686215D01*
X186098381Y-92543358D01*
X186098381Y-92448120D01*
X186050762Y-92305262D01*
X185955524Y-92210024D01*
X185860286Y-92162405D01*
X185669810Y-92114786D01*
X185526952Y-92114786D01*
X185336476Y-92162405D01*
X185241238Y-92210024D01*
X185146000Y-92305262D01*
X185098381Y-92448120D01*
X185098381Y-92543358D01*
X185146000Y-92686215D01*
X185193619Y-92733834D01*
X185098381Y-93590977D02*
X185098381Y-93400500D01*
X185146000Y-93305262D01*
X185193619Y-93257643D01*
X185336476Y-93162405D01*
X185526952Y-93114786D01*
X185907905Y-93114786D01*
X186003143Y-93162405D01*
X186050762Y-93210024D01*
X186098381Y-93305262D01*
X186098381Y-93495739D01*
X186050762Y-93590977D01*
X186003143Y-93638596D01*
X185907905Y-93686215D01*
X185669810Y-93686215D01*
X185574571Y-93638596D01*
X185526952Y-93590977D01*
X185479333Y-93495739D01*
X185479333Y-93305262D01*
X185526952Y-93210024D01*
X185574571Y-93162405D01*
X185669810Y-93114786D01*
X173235857Y-82681143D02*
X173283476Y-82728762D01*
X173426333Y-82776381D01*
X173521571Y-82776381D01*
X173664429Y-82728762D01*
X173759667Y-82633524D01*
X173807286Y-82538286D01*
X173854905Y-82347810D01*
X173854905Y-82204952D01*
X173807286Y-82014476D01*
X173759667Y-81919238D01*
X173664429Y-81824000D01*
X173521571Y-81776381D01*
X173426333Y-81776381D01*
X173283476Y-81824000D01*
X173235857Y-81871619D01*
X172283476Y-82776381D02*
X172854905Y-82776381D01*
X172569191Y-82776381D02*
X172569191Y-81776381D01*
X172664429Y-81919238D01*
X172759667Y-82014476D01*
X172854905Y-82062095D01*
X171902524Y-81871619D02*
X171854905Y-81824000D01*
X171759667Y-81776381D01*
X171521571Y-81776381D01*
X171426333Y-81824000D01*
X171378714Y-81871619D01*
X171331095Y-81966857D01*
X171331095Y-82062095D01*
X171378714Y-82204952D01*
X171950143Y-82776381D01*
X171331095Y-82776381D01*
X176922643Y-92384643D02*
X176970262Y-92337024D01*
X177017881Y-92194167D01*
X177017881Y-92098929D01*
X176970262Y-91956071D01*
X176875024Y-91860833D01*
X176779786Y-91813214D01*
X176589310Y-91765595D01*
X176446452Y-91765595D01*
X176255976Y-91813214D01*
X176160738Y-91860833D01*
X176065500Y-91956071D01*
X176017881Y-92098929D01*
X176017881Y-92194167D01*
X176065500Y-92337024D01*
X176113119Y-92384643D01*
X177017881Y-93337024D02*
X177017881Y-92765595D01*
X177017881Y-93051309D02*
X176017881Y-93051309D01*
X176160738Y-92956071D01*
X176255976Y-92860833D01*
X176303595Y-92765595D01*
X176351214Y-94194167D02*
X177017881Y-94194167D01*
X175970262Y-93956071D02*
X176684548Y-93717976D01*
X176684548Y-94337024D01*
X183082143Y-92321143D02*
X183129762Y-92273524D01*
X183177381Y-92130667D01*
X183177381Y-92035429D01*
X183129762Y-91892571D01*
X183034524Y-91797333D01*
X182939286Y-91749714D01*
X182748810Y-91702095D01*
X182605952Y-91702095D01*
X182415476Y-91749714D01*
X182320238Y-91797333D01*
X182225000Y-91892571D01*
X182177381Y-92035429D01*
X182177381Y-92130667D01*
X182225000Y-92273524D01*
X182272619Y-92321143D01*
X183177381Y-93273524D02*
X183177381Y-92702095D01*
X183177381Y-92987809D02*
X182177381Y-92987809D01*
X182320238Y-92892571D01*
X182415476Y-92797333D01*
X182463095Y-92702095D01*
X182177381Y-94130667D02*
X182177381Y-93940190D01*
X182225000Y-93844952D01*
X182272619Y-93797333D01*
X182415476Y-93702095D01*
X182605952Y-93654476D01*
X182986905Y-93654476D01*
X183082143Y-93702095D01*
X183129762Y-93749714D01*
X183177381Y-93844952D01*
X183177381Y-94035429D01*
X183129762Y-94130667D01*
X183082143Y-94178286D01*
X182986905Y-94225905D01*
X182748810Y-94225905D01*
X182653571Y-94178286D01*
X182605952Y-94130667D01*
X182558333Y-94035429D01*
X182558333Y-93844952D01*
X182605952Y-93749714D01*
X182653571Y-93702095D01*
X182748810Y-93654476D01*
X177172857Y-101675143D02*
X177220476Y-101722762D01*
X177363333Y-101770381D01*
X177458571Y-101770381D01*
X177601429Y-101722762D01*
X177696667Y-101627524D01*
X177744286Y-101532286D01*
X177791905Y-101341810D01*
X177791905Y-101198952D01*
X177744286Y-101008476D01*
X177696667Y-100913238D01*
X177601429Y-100818000D01*
X177458571Y-100770381D01*
X177363333Y-100770381D01*
X177220476Y-100818000D01*
X177172857Y-100865619D01*
X176220476Y-101770381D02*
X176791905Y-101770381D01*
X176506191Y-101770381D02*
X176506191Y-100770381D01*
X176601429Y-100913238D01*
X176696667Y-101008476D01*
X176791905Y-101056095D01*
X175887143Y-100770381D02*
X175220476Y-100770381D01*
X175649048Y-101770381D01*
X184209857Y-101892143D02*
X184257476Y-101939762D01*
X184400333Y-101987381D01*
X184495571Y-101987381D01*
X184638429Y-101939762D01*
X184733667Y-101844524D01*
X184781286Y-101749286D01*
X184828905Y-101558810D01*
X184828905Y-101415952D01*
X184781286Y-101225476D01*
X184733667Y-101130238D01*
X184638429Y-101035000D01*
X184495571Y-100987381D01*
X184400333Y-100987381D01*
X184257476Y-101035000D01*
X184209857Y-101082619D01*
X183257476Y-101987381D02*
X183828905Y-101987381D01*
X183543191Y-101987381D02*
X183543191Y-100987381D01*
X183638429Y-101130238D01*
X183733667Y-101225476D01*
X183828905Y-101273095D01*
X182686048Y-101415952D02*
X182781286Y-101368333D01*
X182828905Y-101320714D01*
X182876524Y-101225476D01*
X182876524Y-101177857D01*
X182828905Y-101082619D01*
X182781286Y-101035000D01*
X182686048Y-100987381D01*
X182495571Y-100987381D01*
X182400333Y-101035000D01*
X182352714Y-101082619D01*
X182305095Y-101177857D01*
X182305095Y-101225476D01*
X182352714Y-101320714D01*
X182400333Y-101368333D01*
X182495571Y-101415952D01*
X182686048Y-101415952D01*
X182781286Y-101463571D01*
X182828905Y-101511190D01*
X182876524Y-101606429D01*
X182876524Y-101796905D01*
X182828905Y-101892143D01*
X182781286Y-101939762D01*
X182686048Y-101987381D01*
X182495571Y-101987381D01*
X182400333Y-101939762D01*
X182352714Y-101892143D01*
X182305095Y-101796905D01*
X182305095Y-101606429D01*
X182352714Y-101511190D01*
X182400333Y-101463571D01*
X182495571Y-101415952D01*
X152090357Y-69854143D02*
X152137976Y-69901762D01*
X152280833Y-69949381D01*
X152376071Y-69949381D01*
X152518929Y-69901762D01*
X152614167Y-69806524D01*
X152661786Y-69711286D01*
X152709405Y-69520810D01*
X152709405Y-69377952D01*
X152661786Y-69187476D01*
X152614167Y-69092238D01*
X152518929Y-68997000D01*
X152376071Y-68949381D01*
X152280833Y-68949381D01*
X152137976Y-68997000D01*
X152090357Y-69044619D01*
X151709405Y-69044619D02*
X151661786Y-68997000D01*
X151566548Y-68949381D01*
X151328452Y-68949381D01*
X151233214Y-68997000D01*
X151185595Y-69044619D01*
X151137976Y-69139857D01*
X151137976Y-69235095D01*
X151185595Y-69377952D01*
X151757024Y-69949381D01*
X151137976Y-69949381D01*
X150518929Y-68949381D02*
X150423690Y-68949381D01*
X150328452Y-68997000D01*
X150280833Y-69044619D01*
X150233214Y-69139857D01*
X150185595Y-69330333D01*
X150185595Y-69568429D01*
X150233214Y-69758905D01*
X150280833Y-69854143D01*
X150328452Y-69901762D01*
X150423690Y-69949381D01*
X150518929Y-69949381D01*
X150614167Y-69901762D01*
X150661786Y-69854143D01*
X150709405Y-69758905D01*
X150757024Y-69568429D01*
X150757024Y-69330333D01*
X150709405Y-69139857D01*
X150661786Y-69044619D01*
X150614167Y-68997000D01*
X150518929Y-68949381D01*
X158408643Y-62539643D02*
X158456262Y-62492024D01*
X158503881Y-62349167D01*
X158503881Y-62253929D01*
X158456262Y-62111071D01*
X158361024Y-62015833D01*
X158265786Y-61968214D01*
X158075310Y-61920595D01*
X157932452Y-61920595D01*
X157741976Y-61968214D01*
X157646738Y-62015833D01*
X157551500Y-62111071D01*
X157503881Y-62253929D01*
X157503881Y-62349167D01*
X157551500Y-62492024D01*
X157599119Y-62539643D01*
X157599119Y-62920595D02*
X157551500Y-62968214D01*
X157503881Y-63063452D01*
X157503881Y-63301548D01*
X157551500Y-63396786D01*
X157599119Y-63444405D01*
X157694357Y-63492024D01*
X157789595Y-63492024D01*
X157932452Y-63444405D01*
X158503881Y-62872976D01*
X158503881Y-63492024D01*
X158503881Y-64444405D02*
X158503881Y-63872976D01*
X158503881Y-64158690D02*
X157503881Y-64158690D01*
X157646738Y-64063452D01*
X157741976Y-63968214D01*
X157789595Y-63872976D01*
X111488457Y-90529743D02*
X111536076Y-90577362D01*
X111678933Y-90624981D01*
X111774171Y-90624981D01*
X111917029Y-90577362D01*
X112012267Y-90482124D01*
X112059886Y-90386886D01*
X112107505Y-90196410D01*
X112107505Y-90053552D01*
X112059886Y-89863076D01*
X112012267Y-89767838D01*
X111917029Y-89672600D01*
X111774171Y-89624981D01*
X111678933Y-89624981D01*
X111536076Y-89672600D01*
X111488457Y-89720219D01*
X111107505Y-89720219D02*
X111059886Y-89672600D01*
X110964648Y-89624981D01*
X110726552Y-89624981D01*
X110631314Y-89672600D01*
X110583695Y-89720219D01*
X110536076Y-89815457D01*
X110536076Y-89910695D01*
X110583695Y-90053552D01*
X111155124Y-90624981D01*
X110536076Y-90624981D01*
X109678933Y-89958314D02*
X109678933Y-90624981D01*
X109917029Y-89577362D02*
X110155124Y-90291648D01*
X109536076Y-90291648D01*
X118232157Y-67237943D02*
X118279776Y-67285562D01*
X118422633Y-67333181D01*
X118517871Y-67333181D01*
X118660729Y-67285562D01*
X118755967Y-67190324D01*
X118803586Y-67095086D01*
X118851205Y-66904610D01*
X118851205Y-66761752D01*
X118803586Y-66571276D01*
X118755967Y-66476038D01*
X118660729Y-66380800D01*
X118517871Y-66333181D01*
X118422633Y-66333181D01*
X118279776Y-66380800D01*
X118232157Y-66428419D01*
X117851205Y-66428419D02*
X117803586Y-66380800D01*
X117708348Y-66333181D01*
X117470252Y-66333181D01*
X117375014Y-66380800D01*
X117327395Y-66428419D01*
X117279776Y-66523657D01*
X117279776Y-66618895D01*
X117327395Y-66761752D01*
X117898824Y-67333181D01*
X117279776Y-67333181D01*
X116422633Y-66333181D02*
X116613110Y-66333181D01*
X116708348Y-66380800D01*
X116755967Y-66428419D01*
X116851205Y-66571276D01*
X116898824Y-66761752D01*
X116898824Y-67142705D01*
X116851205Y-67237943D01*
X116803586Y-67285562D01*
X116708348Y-67333181D01*
X116517871Y-67333181D01*
X116422633Y-67285562D01*
X116375014Y-67237943D01*
X116327395Y-67142705D01*
X116327395Y-66904610D01*
X116375014Y-66809371D01*
X116422633Y-66761752D01*
X116517871Y-66714133D01*
X116708348Y-66714133D01*
X116803586Y-66761752D01*
X116851205Y-66809371D01*
X116898824Y-66904610D01*
X112009157Y-67110943D02*
X112056776Y-67158562D01*
X112199633Y-67206181D01*
X112294871Y-67206181D01*
X112437729Y-67158562D01*
X112532967Y-67063324D01*
X112580586Y-66968086D01*
X112628205Y-66777610D01*
X112628205Y-66634752D01*
X112580586Y-66444276D01*
X112532967Y-66349038D01*
X112437729Y-66253800D01*
X112294871Y-66206181D01*
X112199633Y-66206181D01*
X112056776Y-66253800D01*
X112009157Y-66301419D01*
X111628205Y-66301419D02*
X111580586Y-66253800D01*
X111485348Y-66206181D01*
X111247252Y-66206181D01*
X111152014Y-66253800D01*
X111104395Y-66301419D01*
X111056776Y-66396657D01*
X111056776Y-66491895D01*
X111104395Y-66634752D01*
X111675824Y-67206181D01*
X111056776Y-67206181D01*
X110485348Y-66634752D02*
X110580586Y-66587133D01*
X110628205Y-66539514D01*
X110675824Y-66444276D01*
X110675824Y-66396657D01*
X110628205Y-66301419D01*
X110580586Y-66253800D01*
X110485348Y-66206181D01*
X110294871Y-66206181D01*
X110199633Y-66253800D01*
X110152014Y-66301419D01*
X110104395Y-66396657D01*
X110104395Y-66444276D01*
X110152014Y-66539514D01*
X110199633Y-66587133D01*
X110294871Y-66634752D01*
X110485348Y-66634752D01*
X110580586Y-66682371D01*
X110628205Y-66729990D01*
X110675824Y-66825229D01*
X110675824Y-67015705D01*
X110628205Y-67110943D01*
X110580586Y-67158562D01*
X110485348Y-67206181D01*
X110294871Y-67206181D01*
X110199633Y-67158562D01*
X110152014Y-67110943D01*
X110104395Y-67015705D01*
X110104395Y-66825229D01*
X110152014Y-66729990D01*
X110199633Y-66682371D01*
X110294871Y-66634752D01*
X118536957Y-63339043D02*
X118584576Y-63386662D01*
X118727433Y-63434281D01*
X118822671Y-63434281D01*
X118965529Y-63386662D01*
X119060767Y-63291424D01*
X119108386Y-63196186D01*
X119156005Y-63005710D01*
X119156005Y-62862852D01*
X119108386Y-62672376D01*
X119060767Y-62577138D01*
X118965529Y-62481900D01*
X118822671Y-62434281D01*
X118727433Y-62434281D01*
X118584576Y-62481900D01*
X118536957Y-62529519D01*
X118156005Y-62529519D02*
X118108386Y-62481900D01*
X118013148Y-62434281D01*
X117775052Y-62434281D01*
X117679814Y-62481900D01*
X117632195Y-62529519D01*
X117584576Y-62624757D01*
X117584576Y-62719995D01*
X117632195Y-62862852D01*
X118203624Y-63434281D01*
X117584576Y-63434281D01*
X117108386Y-63434281D02*
X116917910Y-63434281D01*
X116822671Y-63386662D01*
X116775052Y-63339043D01*
X116679814Y-63196186D01*
X116632195Y-63005710D01*
X116632195Y-62624757D01*
X116679814Y-62529519D01*
X116727433Y-62481900D01*
X116822671Y-62434281D01*
X117013148Y-62434281D01*
X117108386Y-62481900D01*
X117156005Y-62529519D01*
X117203624Y-62624757D01*
X117203624Y-62862852D01*
X117156005Y-62958090D01*
X117108386Y-63005710D01*
X117013148Y-63053329D01*
X116822671Y-63053329D01*
X116727433Y-63005710D01*
X116679814Y-62958090D01*
X116632195Y-62862852D01*
X118371857Y-55630143D02*
X118419476Y-55677762D01*
X118562333Y-55725381D01*
X118657571Y-55725381D01*
X118800429Y-55677762D01*
X118895667Y-55582524D01*
X118943286Y-55487286D01*
X118990905Y-55296810D01*
X118990905Y-55153952D01*
X118943286Y-54963476D01*
X118895667Y-54868238D01*
X118800429Y-54773000D01*
X118657571Y-54725381D01*
X118562333Y-54725381D01*
X118419476Y-54773000D01*
X118371857Y-54820619D01*
X118038524Y-54725381D02*
X117419476Y-54725381D01*
X117752810Y-55106333D01*
X117609952Y-55106333D01*
X117514714Y-55153952D01*
X117467095Y-55201571D01*
X117419476Y-55296810D01*
X117419476Y-55534905D01*
X117467095Y-55630143D01*
X117514714Y-55677762D01*
X117609952Y-55725381D01*
X117895667Y-55725381D01*
X117990905Y-55677762D01*
X118038524Y-55630143D01*
X116467095Y-55725381D02*
X117038524Y-55725381D01*
X116752810Y-55725381D02*
X116752810Y-54725381D01*
X116848048Y-54868238D01*
X116943286Y-54963476D01*
X117038524Y-55011095D01*
X118435357Y-74680143D02*
X118482976Y-74727762D01*
X118625833Y-74775381D01*
X118721071Y-74775381D01*
X118863929Y-74727762D01*
X118959167Y-74632524D01*
X119006786Y-74537286D01*
X119054405Y-74346810D01*
X119054405Y-74203952D01*
X119006786Y-74013476D01*
X118959167Y-73918238D01*
X118863929Y-73823000D01*
X118721071Y-73775381D01*
X118625833Y-73775381D01*
X118482976Y-73823000D01*
X118435357Y-73870619D01*
X118102024Y-73775381D02*
X117482976Y-73775381D01*
X117816310Y-74156333D01*
X117673452Y-74156333D01*
X117578214Y-74203952D01*
X117530595Y-74251571D01*
X117482976Y-74346810D01*
X117482976Y-74584905D01*
X117530595Y-74680143D01*
X117578214Y-74727762D01*
X117673452Y-74775381D01*
X117959167Y-74775381D01*
X118054405Y-74727762D01*
X118102024Y-74680143D01*
X117102024Y-73870619D02*
X117054405Y-73823000D01*
X116959167Y-73775381D01*
X116721071Y-73775381D01*
X116625833Y-73823000D01*
X116578214Y-73870619D01*
X116530595Y-73965857D01*
X116530595Y-74061095D01*
X116578214Y-74203952D01*
X117149643Y-74775381D01*
X116530595Y-74775381D01*
X171209857Y-85992143D02*
X171257476Y-86039762D01*
X171400333Y-86087381D01*
X171495571Y-86087381D01*
X171638429Y-86039762D01*
X171733667Y-85944524D01*
X171781286Y-85849286D01*
X171828905Y-85658810D01*
X171828905Y-85515952D01*
X171781286Y-85325476D01*
X171733667Y-85230238D01*
X171638429Y-85135000D01*
X171495571Y-85087381D01*
X171400333Y-85087381D01*
X171257476Y-85135000D01*
X171209857Y-85182619D01*
X170352714Y-85087381D02*
X170543191Y-85087381D01*
X170638429Y-85135000D01*
X170686048Y-85182619D01*
X170781286Y-85325476D01*
X170828905Y-85515952D01*
X170828905Y-85896905D01*
X170781286Y-85992143D01*
X170733667Y-86039762D01*
X170638429Y-86087381D01*
X170447952Y-86087381D01*
X170352714Y-86039762D01*
X170305095Y-85992143D01*
X170257476Y-85896905D01*
X170257476Y-85658810D01*
X170305095Y-85563571D01*
X170352714Y-85515952D01*
X170447952Y-85468333D01*
X170638429Y-85468333D01*
X170733667Y-85515952D01*
X170781286Y-85563571D01*
X170828905Y-85658810D01*
X169686048Y-85515952D02*
X169781286Y-85468333D01*
X169828905Y-85420714D01*
X169876524Y-85325476D01*
X169876524Y-85277857D01*
X169828905Y-85182619D01*
X169781286Y-85135000D01*
X169686048Y-85087381D01*
X169495571Y-85087381D01*
X169400333Y-85135000D01*
X169352714Y-85182619D01*
X169305095Y-85277857D01*
X169305095Y-85325476D01*
X169352714Y-85420714D01*
X169400333Y-85468333D01*
X169495571Y-85515952D01*
X169686048Y-85515952D01*
X169781286Y-85563571D01*
X169828905Y-85611190D01*
X169876524Y-85706429D01*
X169876524Y-85896905D01*
X169828905Y-85992143D01*
X169781286Y-86039762D01*
X169686048Y-86087381D01*
X169495571Y-86087381D01*
X169400333Y-86039762D01*
X169352714Y-85992143D01*
X169305095Y-85896905D01*
X169305095Y-85706429D01*
X169352714Y-85611190D01*
X169400333Y-85563571D01*
X169495571Y-85515952D01*
X163774143Y-84342143D02*
X163821762Y-84294524D01*
X163869381Y-84151667D01*
X163869381Y-84056429D01*
X163821762Y-83913571D01*
X163726524Y-83818333D01*
X163631286Y-83770714D01*
X163440810Y-83723095D01*
X163297952Y-83723095D01*
X163107476Y-83770714D01*
X163012238Y-83818333D01*
X162917000Y-83913571D01*
X162869381Y-84056429D01*
X162869381Y-84151667D01*
X162917000Y-84294524D01*
X162964619Y-84342143D01*
X162869381Y-85199286D02*
X162869381Y-85008809D01*
X162917000Y-84913571D01*
X162964619Y-84865952D01*
X163107476Y-84770714D01*
X163297952Y-84723095D01*
X163678905Y-84723095D01*
X163774143Y-84770714D01*
X163821762Y-84818333D01*
X163869381Y-84913571D01*
X163869381Y-85104048D01*
X163821762Y-85199286D01*
X163774143Y-85246905D01*
X163678905Y-85294524D01*
X163440810Y-85294524D01*
X163345571Y-85246905D01*
X163297952Y-85199286D01*
X163250333Y-85104048D01*
X163250333Y-84913571D01*
X163297952Y-84818333D01*
X163345571Y-84770714D01*
X163440810Y-84723095D01*
X163869381Y-85770714D02*
X163869381Y-85961190D01*
X163821762Y-86056429D01*
X163774143Y-86104048D01*
X163631286Y-86199286D01*
X163440810Y-86246905D01*
X163059857Y-86246905D01*
X162964619Y-86199286D01*
X162917000Y-86151667D01*
X162869381Y-86056429D01*
X162869381Y-85865952D01*
X162917000Y-85770714D01*
X162964619Y-85723095D01*
X163059857Y-85675476D01*
X163297952Y-85675476D01*
X163393190Y-85723095D01*
X163440810Y-85770714D01*
X163488429Y-85865952D01*
X163488429Y-86056429D01*
X163440810Y-86151667D01*
X163393190Y-86199286D01*
X163297952Y-86246905D01*
X118536957Y-79087043D02*
X118584576Y-79134662D01*
X118727433Y-79182281D01*
X118822671Y-79182281D01*
X118965529Y-79134662D01*
X119060767Y-79039424D01*
X119108386Y-78944186D01*
X119156005Y-78753710D01*
X119156005Y-78610852D01*
X119108386Y-78420376D01*
X119060767Y-78325138D01*
X118965529Y-78229900D01*
X118822671Y-78182281D01*
X118727433Y-78182281D01*
X118584576Y-78229900D01*
X118536957Y-78277519D01*
X118203624Y-78182281D02*
X117536957Y-78182281D01*
X117965529Y-79182281D01*
X117203624Y-78277519D02*
X117156005Y-78229900D01*
X117060767Y-78182281D01*
X116822671Y-78182281D01*
X116727433Y-78229900D01*
X116679814Y-78277519D01*
X116632195Y-78372757D01*
X116632195Y-78467995D01*
X116679814Y-78610852D01*
X117251243Y-79182281D01*
X116632195Y-79182281D01*
X118651257Y-71047943D02*
X118698876Y-71095562D01*
X118841733Y-71143181D01*
X118936971Y-71143181D01*
X119079829Y-71095562D01*
X119175067Y-71000324D01*
X119222686Y-70905086D01*
X119270305Y-70714610D01*
X119270305Y-70571752D01*
X119222686Y-70381276D01*
X119175067Y-70286038D01*
X119079829Y-70190800D01*
X118936971Y-70143181D01*
X118841733Y-70143181D01*
X118698876Y-70190800D01*
X118651257Y-70238419D01*
X118317924Y-70143181D02*
X117651257Y-70143181D01*
X118079829Y-71143181D01*
X117365543Y-70143181D02*
X116746495Y-70143181D01*
X117079829Y-70524133D01*
X116936971Y-70524133D01*
X116841733Y-70571752D01*
X116794114Y-70619371D01*
X116746495Y-70714610D01*
X116746495Y-70952705D01*
X116794114Y-71047943D01*
X116841733Y-71095562D01*
X116936971Y-71143181D01*
X117222686Y-71143181D01*
X117317924Y-71095562D01*
X117365543Y-71047943D01*
X118663957Y-82782743D02*
X118711576Y-82830362D01*
X118854433Y-82877981D01*
X118949671Y-82877981D01*
X119092529Y-82830362D01*
X119187767Y-82735124D01*
X119235386Y-82639886D01*
X119283005Y-82449410D01*
X119283005Y-82306552D01*
X119235386Y-82116076D01*
X119187767Y-82020838D01*
X119092529Y-81925600D01*
X118949671Y-81877981D01*
X118854433Y-81877981D01*
X118711576Y-81925600D01*
X118663957Y-81973219D01*
X118330624Y-81877981D02*
X117663957Y-81877981D01*
X118092529Y-82877981D01*
X116854433Y-82211314D02*
X116854433Y-82877981D01*
X117092529Y-81830362D02*
X117330624Y-82544648D01*
X116711576Y-82544648D01*
X118435357Y-59402043D02*
X118482976Y-59449662D01*
X118625833Y-59497281D01*
X118721071Y-59497281D01*
X118863929Y-59449662D01*
X118959167Y-59354424D01*
X119006786Y-59259186D01*
X119054405Y-59068710D01*
X119054405Y-58925852D01*
X119006786Y-58735376D01*
X118959167Y-58640138D01*
X118863929Y-58544900D01*
X118721071Y-58497281D01*
X118625833Y-58497281D01*
X118482976Y-58544900D01*
X118435357Y-58592519D01*
X118102024Y-58497281D02*
X117435357Y-58497281D01*
X117863929Y-59497281D01*
X116578214Y-58497281D02*
X117054405Y-58497281D01*
X117102024Y-58973471D01*
X117054405Y-58925852D01*
X116959167Y-58878233D01*
X116721071Y-58878233D01*
X116625833Y-58925852D01*
X116578214Y-58973471D01*
X116530595Y-59068710D01*
X116530595Y-59306805D01*
X116578214Y-59402043D01*
X116625833Y-59449662D01*
X116721071Y-59497281D01*
X116959167Y-59497281D01*
X117054405Y-59449662D01*
X117102024Y-59402043D01*
X155769643Y-75049143D02*
X155817262Y-75001524D01*
X155864881Y-74858667D01*
X155864881Y-74763429D01*
X155817262Y-74620571D01*
X155722024Y-74525333D01*
X155626786Y-74477714D01*
X155436310Y-74430095D01*
X155293452Y-74430095D01*
X155102976Y-74477714D01*
X155007738Y-74525333D01*
X154912500Y-74620571D01*
X154864881Y-74763429D01*
X154864881Y-74858667D01*
X154912500Y-75001524D01*
X154960119Y-75049143D01*
X154864881Y-75382476D02*
X154864881Y-76049143D01*
X155864881Y-75620571D01*
X154864881Y-76858667D02*
X154864881Y-76668190D01*
X154912500Y-76572952D01*
X154960119Y-76525333D01*
X155102976Y-76430095D01*
X155293452Y-76382476D01*
X155674405Y-76382476D01*
X155769643Y-76430095D01*
X155817262Y-76477714D01*
X155864881Y-76572952D01*
X155864881Y-76763429D01*
X155817262Y-76858667D01*
X155769643Y-76906286D01*
X155674405Y-76953905D01*
X155436310Y-76953905D01*
X155341071Y-76906286D01*
X155293452Y-76858667D01*
X155245833Y-76763429D01*
X155245833Y-76572952D01*
X155293452Y-76477714D01*
X155341071Y-76430095D01*
X155436310Y-76382476D01*
X158500143Y-75099943D02*
X158547762Y-75052324D01*
X158595381Y-74909467D01*
X158595381Y-74814229D01*
X158547762Y-74671371D01*
X158452524Y-74576133D01*
X158357286Y-74528514D01*
X158166810Y-74480895D01*
X158023952Y-74480895D01*
X157833476Y-74528514D01*
X157738238Y-74576133D01*
X157643000Y-74671371D01*
X157595381Y-74814229D01*
X157595381Y-74909467D01*
X157643000Y-75052324D01*
X157690619Y-75099943D01*
X157595381Y-75433276D02*
X157595381Y-76099943D01*
X158595381Y-75671371D01*
X157595381Y-76385657D02*
X157595381Y-77052324D01*
X158595381Y-76623752D01*
X111983757Y-70984443D02*
X112031376Y-71032062D01*
X112174233Y-71079681D01*
X112269471Y-71079681D01*
X112412329Y-71032062D01*
X112507567Y-70936824D01*
X112555186Y-70841586D01*
X112602805Y-70651110D01*
X112602805Y-70508252D01*
X112555186Y-70317776D01*
X112507567Y-70222538D01*
X112412329Y-70127300D01*
X112269471Y-70079681D01*
X112174233Y-70079681D01*
X112031376Y-70127300D01*
X111983757Y-70174919D01*
X111412329Y-70508252D02*
X111507567Y-70460633D01*
X111555186Y-70413014D01*
X111602805Y-70317776D01*
X111602805Y-70270157D01*
X111555186Y-70174919D01*
X111507567Y-70127300D01*
X111412329Y-70079681D01*
X111221852Y-70079681D01*
X111126614Y-70127300D01*
X111078995Y-70174919D01*
X111031376Y-70270157D01*
X111031376Y-70317776D01*
X111078995Y-70413014D01*
X111126614Y-70460633D01*
X111221852Y-70508252D01*
X111412329Y-70508252D01*
X111507567Y-70555871D01*
X111555186Y-70603490D01*
X111602805Y-70698729D01*
X111602805Y-70889205D01*
X111555186Y-70984443D01*
X111507567Y-71032062D01*
X111412329Y-71079681D01*
X111221852Y-71079681D01*
X111126614Y-71032062D01*
X111078995Y-70984443D01*
X111031376Y-70889205D01*
X111031376Y-70698729D01*
X111078995Y-70603490D01*
X111126614Y-70555871D01*
X111221852Y-70508252D01*
X110412329Y-70079681D02*
X110317090Y-70079681D01*
X110221852Y-70127300D01*
X110174233Y-70174919D01*
X110126614Y-70270157D01*
X110078995Y-70460633D01*
X110078995Y-70698729D01*
X110126614Y-70889205D01*
X110174233Y-70984443D01*
X110221852Y-71032062D01*
X110317090Y-71079681D01*
X110412329Y-71079681D01*
X110507567Y-71032062D01*
X110555186Y-70984443D01*
X110602805Y-70889205D01*
X110650424Y-70698729D01*
X110650424Y-70460633D01*
X110602805Y-70270157D01*
X110555186Y-70174919D01*
X110507567Y-70127300D01*
X110412329Y-70079681D01*
X111805957Y-63085043D02*
X111853576Y-63132662D01*
X111996433Y-63180281D01*
X112091671Y-63180281D01*
X112234529Y-63132662D01*
X112329767Y-63037424D01*
X112377386Y-62942186D01*
X112425005Y-62751710D01*
X112425005Y-62608852D01*
X112377386Y-62418376D01*
X112329767Y-62323138D01*
X112234529Y-62227900D01*
X112091671Y-62180281D01*
X111996433Y-62180281D01*
X111853576Y-62227900D01*
X111805957Y-62275519D01*
X111234529Y-62608852D02*
X111329767Y-62561233D01*
X111377386Y-62513614D01*
X111425005Y-62418376D01*
X111425005Y-62370757D01*
X111377386Y-62275519D01*
X111329767Y-62227900D01*
X111234529Y-62180281D01*
X111044052Y-62180281D01*
X110948814Y-62227900D01*
X110901195Y-62275519D01*
X110853576Y-62370757D01*
X110853576Y-62418376D01*
X110901195Y-62513614D01*
X110948814Y-62561233D01*
X111044052Y-62608852D01*
X111234529Y-62608852D01*
X111329767Y-62656471D01*
X111377386Y-62704090D01*
X111425005Y-62799329D01*
X111425005Y-62989805D01*
X111377386Y-63085043D01*
X111329767Y-63132662D01*
X111234529Y-63180281D01*
X111044052Y-63180281D01*
X110948814Y-63132662D01*
X110901195Y-63085043D01*
X110853576Y-62989805D01*
X110853576Y-62799329D01*
X110901195Y-62704090D01*
X110948814Y-62656471D01*
X111044052Y-62608852D01*
X110472624Y-62275519D02*
X110425005Y-62227900D01*
X110329767Y-62180281D01*
X110091671Y-62180281D01*
X109996433Y-62227900D01*
X109948814Y-62275519D01*
X109901195Y-62370757D01*
X109901195Y-62465995D01*
X109948814Y-62608852D01*
X110520243Y-63180281D01*
X109901195Y-63180281D01*
X111450357Y-59211543D02*
X111497976Y-59259162D01*
X111640833Y-59306781D01*
X111736071Y-59306781D01*
X111878929Y-59259162D01*
X111974167Y-59163924D01*
X112021786Y-59068686D01*
X112069405Y-58878210D01*
X112069405Y-58735352D01*
X112021786Y-58544876D01*
X111974167Y-58449638D01*
X111878929Y-58354400D01*
X111736071Y-58306781D01*
X111640833Y-58306781D01*
X111497976Y-58354400D01*
X111450357Y-58402019D01*
X110878929Y-58735352D02*
X110974167Y-58687733D01*
X111021786Y-58640114D01*
X111069405Y-58544876D01*
X111069405Y-58497257D01*
X111021786Y-58402019D01*
X110974167Y-58354400D01*
X110878929Y-58306781D01*
X110688452Y-58306781D01*
X110593214Y-58354400D01*
X110545595Y-58402019D01*
X110497976Y-58497257D01*
X110497976Y-58544876D01*
X110545595Y-58640114D01*
X110593214Y-58687733D01*
X110688452Y-58735352D01*
X110878929Y-58735352D01*
X110974167Y-58782971D01*
X111021786Y-58830590D01*
X111069405Y-58925829D01*
X111069405Y-59116305D01*
X111021786Y-59211543D01*
X110974167Y-59259162D01*
X110878929Y-59306781D01*
X110688452Y-59306781D01*
X110593214Y-59259162D01*
X110545595Y-59211543D01*
X110497976Y-59116305D01*
X110497976Y-58925829D01*
X110545595Y-58830590D01*
X110593214Y-58782971D01*
X110688452Y-58735352D01*
X109640833Y-58640114D02*
X109640833Y-59306781D01*
X109878929Y-58259162D02*
X110117024Y-58973448D01*
X109497976Y-58973448D01*
X111615457Y-82719243D02*
X111663076Y-82766862D01*
X111805933Y-82814481D01*
X111901171Y-82814481D01*
X112044029Y-82766862D01*
X112139267Y-82671624D01*
X112186886Y-82576386D01*
X112234505Y-82385910D01*
X112234505Y-82243052D01*
X112186886Y-82052576D01*
X112139267Y-81957338D01*
X112044029Y-81862100D01*
X111901171Y-81814481D01*
X111805933Y-81814481D01*
X111663076Y-81862100D01*
X111615457Y-81909719D01*
X111044029Y-82243052D02*
X111139267Y-82195433D01*
X111186886Y-82147814D01*
X111234505Y-82052576D01*
X111234505Y-82004957D01*
X111186886Y-81909719D01*
X111139267Y-81862100D01*
X111044029Y-81814481D01*
X110853552Y-81814481D01*
X110758314Y-81862100D01*
X110710695Y-81909719D01*
X110663076Y-82004957D01*
X110663076Y-82052576D01*
X110710695Y-82147814D01*
X110758314Y-82195433D01*
X110853552Y-82243052D01*
X111044029Y-82243052D01*
X111139267Y-82290671D01*
X111186886Y-82338290D01*
X111234505Y-82433529D01*
X111234505Y-82624005D01*
X111186886Y-82719243D01*
X111139267Y-82766862D01*
X111044029Y-82814481D01*
X110853552Y-82814481D01*
X110758314Y-82766862D01*
X110710695Y-82719243D01*
X110663076Y-82624005D01*
X110663076Y-82433529D01*
X110710695Y-82338290D01*
X110758314Y-82290671D01*
X110853552Y-82243052D01*
X109805933Y-81814481D02*
X109996410Y-81814481D01*
X110091648Y-81862100D01*
X110139267Y-81909719D01*
X110234505Y-82052576D01*
X110282124Y-82243052D01*
X110282124Y-82624005D01*
X110234505Y-82719243D01*
X110186886Y-82766862D01*
X110091648Y-82814481D01*
X109901171Y-82814481D01*
X109805933Y-82766862D01*
X109758314Y-82719243D01*
X109710695Y-82624005D01*
X109710695Y-82385910D01*
X109758314Y-82290671D01*
X109805933Y-82243052D01*
X109901171Y-82195433D01*
X110091648Y-82195433D01*
X110186886Y-82243052D01*
X110234505Y-82290671D01*
X110282124Y-82385910D01*
X111539257Y-86643543D02*
X111586876Y-86691162D01*
X111729733Y-86738781D01*
X111824971Y-86738781D01*
X111967829Y-86691162D01*
X112063067Y-86595924D01*
X112110686Y-86500686D01*
X112158305Y-86310210D01*
X112158305Y-86167352D01*
X112110686Y-85976876D01*
X112063067Y-85881638D01*
X111967829Y-85786400D01*
X111824971Y-85738781D01*
X111729733Y-85738781D01*
X111586876Y-85786400D01*
X111539257Y-85834019D01*
X110967829Y-86167352D02*
X111063067Y-86119733D01*
X111110686Y-86072114D01*
X111158305Y-85976876D01*
X111158305Y-85929257D01*
X111110686Y-85834019D01*
X111063067Y-85786400D01*
X110967829Y-85738781D01*
X110777352Y-85738781D01*
X110682114Y-85786400D01*
X110634495Y-85834019D01*
X110586876Y-85929257D01*
X110586876Y-85976876D01*
X110634495Y-86072114D01*
X110682114Y-86119733D01*
X110777352Y-86167352D01*
X110967829Y-86167352D01*
X111063067Y-86214971D01*
X111110686Y-86262590D01*
X111158305Y-86357829D01*
X111158305Y-86548305D01*
X111110686Y-86643543D01*
X111063067Y-86691162D01*
X110967829Y-86738781D01*
X110777352Y-86738781D01*
X110682114Y-86691162D01*
X110634495Y-86643543D01*
X110586876Y-86548305D01*
X110586876Y-86357829D01*
X110634495Y-86262590D01*
X110682114Y-86214971D01*
X110777352Y-86167352D01*
X110015448Y-86167352D02*
X110110686Y-86119733D01*
X110158305Y-86072114D01*
X110205924Y-85976876D01*
X110205924Y-85929257D01*
X110158305Y-85834019D01*
X110110686Y-85786400D01*
X110015448Y-85738781D01*
X109824971Y-85738781D01*
X109729733Y-85786400D01*
X109682114Y-85834019D01*
X109634495Y-85929257D01*
X109634495Y-85976876D01*
X109682114Y-86072114D01*
X109729733Y-86119733D01*
X109824971Y-86167352D01*
X110015448Y-86167352D01*
X110110686Y-86214971D01*
X110158305Y-86262590D01*
X110205924Y-86357829D01*
X110205924Y-86548305D01*
X110158305Y-86643543D01*
X110110686Y-86691162D01*
X110015448Y-86738781D01*
X109824971Y-86738781D01*
X109729733Y-86691162D01*
X109682114Y-86643543D01*
X109634495Y-86548305D01*
X109634495Y-86357829D01*
X109682114Y-86262590D01*
X109729733Y-86214971D01*
X109824971Y-86167352D01*
X111742457Y-79023543D02*
X111790076Y-79071162D01*
X111932933Y-79118781D01*
X112028171Y-79118781D01*
X112171029Y-79071162D01*
X112266267Y-78975924D01*
X112313886Y-78880686D01*
X112361505Y-78690210D01*
X112361505Y-78547352D01*
X112313886Y-78356876D01*
X112266267Y-78261638D01*
X112171029Y-78166400D01*
X112028171Y-78118781D01*
X111932933Y-78118781D01*
X111790076Y-78166400D01*
X111742457Y-78214019D01*
X111266267Y-79118781D02*
X111075791Y-79118781D01*
X110980552Y-79071162D01*
X110932933Y-79023543D01*
X110837695Y-78880686D01*
X110790076Y-78690210D01*
X110790076Y-78309257D01*
X110837695Y-78214019D01*
X110885314Y-78166400D01*
X110980552Y-78118781D01*
X111171029Y-78118781D01*
X111266267Y-78166400D01*
X111313886Y-78214019D01*
X111361505Y-78309257D01*
X111361505Y-78547352D01*
X111313886Y-78642590D01*
X111266267Y-78690210D01*
X111171029Y-78737829D01*
X110980552Y-78737829D01*
X110885314Y-78690210D01*
X110837695Y-78642590D01*
X110790076Y-78547352D01*
X109837695Y-79118781D02*
X110409124Y-79118781D01*
X110123410Y-79118781D02*
X110123410Y-78118781D01*
X110218648Y-78261638D01*
X110313886Y-78356876D01*
X110409124Y-78404495D01*
X111767857Y-55630143D02*
X111815476Y-55677762D01*
X111958333Y-55725381D01*
X112053571Y-55725381D01*
X112196429Y-55677762D01*
X112291667Y-55582524D01*
X112339286Y-55487286D01*
X112386905Y-55296810D01*
X112386905Y-55153952D01*
X112339286Y-54963476D01*
X112291667Y-54868238D01*
X112196429Y-54773000D01*
X112053571Y-54725381D01*
X111958333Y-54725381D01*
X111815476Y-54773000D01*
X111767857Y-54820619D01*
X111291667Y-55725381D02*
X111101191Y-55725381D01*
X111005952Y-55677762D01*
X110958333Y-55630143D01*
X110863095Y-55487286D01*
X110815476Y-55296810D01*
X110815476Y-54915857D01*
X110863095Y-54820619D01*
X110910714Y-54773000D01*
X111005952Y-54725381D01*
X111196429Y-54725381D01*
X111291667Y-54773000D01*
X111339286Y-54820619D01*
X111386905Y-54915857D01*
X111386905Y-55153952D01*
X111339286Y-55249190D01*
X111291667Y-55296810D01*
X111196429Y-55344429D01*
X111005952Y-55344429D01*
X110910714Y-55296810D01*
X110863095Y-55249190D01*
X110815476Y-55153952D01*
X110434524Y-54820619D02*
X110386905Y-54773000D01*
X110291667Y-54725381D01*
X110053571Y-54725381D01*
X109958333Y-54773000D01*
X109910714Y-54820619D01*
X109863095Y-54915857D01*
X109863095Y-55011095D01*
X109910714Y-55153952D01*
X110482143Y-55725381D01*
X109863095Y-55725381D01*
X111640857Y-74489643D02*
X111688476Y-74537262D01*
X111831333Y-74584881D01*
X111926571Y-74584881D01*
X112069429Y-74537262D01*
X112164667Y-74442024D01*
X112212286Y-74346786D01*
X112259905Y-74156310D01*
X112259905Y-74013452D01*
X112212286Y-73822976D01*
X112164667Y-73727738D01*
X112069429Y-73632500D01*
X111926571Y-73584881D01*
X111831333Y-73584881D01*
X111688476Y-73632500D01*
X111640857Y-73680119D01*
X111164667Y-74584881D02*
X110974191Y-74584881D01*
X110878952Y-74537262D01*
X110831333Y-74489643D01*
X110736095Y-74346786D01*
X110688476Y-74156310D01*
X110688476Y-73775357D01*
X110736095Y-73680119D01*
X110783714Y-73632500D01*
X110878952Y-73584881D01*
X111069429Y-73584881D01*
X111164667Y-73632500D01*
X111212286Y-73680119D01*
X111259905Y-73775357D01*
X111259905Y-74013452D01*
X111212286Y-74108690D01*
X111164667Y-74156310D01*
X111069429Y-74203929D01*
X110878952Y-74203929D01*
X110783714Y-74156310D01*
X110736095Y-74108690D01*
X110688476Y-74013452D01*
X110355143Y-73584881D02*
X109736095Y-73584881D01*
X110069429Y-73965833D01*
X109926571Y-73965833D01*
X109831333Y-74013452D01*
X109783714Y-74061071D01*
X109736095Y-74156310D01*
X109736095Y-74394405D01*
X109783714Y-74489643D01*
X109831333Y-74537262D01*
X109926571Y-74584881D01*
X110212286Y-74584881D01*
X110307524Y-74537262D01*
X110355143Y-74489643D01*
X159535881Y-110069477D02*
X160250167Y-110069477D01*
X160393024Y-110021857D01*
X160488262Y-109926619D01*
X160535881Y-109783762D01*
X160535881Y-109688524D01*
X160535881Y-110545667D02*
X159535881Y-110545667D01*
X159535881Y-110926620D01*
X159583500Y-111021858D01*
X159631119Y-111069477D01*
X159726357Y-111117096D01*
X159869214Y-111117096D01*
X159964452Y-111069477D01*
X160012071Y-111021858D01*
X160059690Y-110926620D01*
X160059690Y-110545667D01*
X160535881Y-112069477D02*
X160535881Y-111498048D01*
X160535881Y-111783762D02*
X159535881Y-111783762D01*
X159678738Y-111688524D01*
X159773976Y-111593286D01*
X159821595Y-111498048D01*
X159964452Y-112640905D02*
X159916833Y-112545667D01*
X159869214Y-112498048D01*
X159773976Y-112450429D01*
X159726357Y-112450429D01*
X159631119Y-112498048D01*
X159583500Y-112545667D01*
X159535881Y-112640905D01*
X159535881Y-112831382D01*
X159583500Y-112926620D01*
X159631119Y-112974239D01*
X159726357Y-113021858D01*
X159773976Y-113021858D01*
X159869214Y-112974239D01*
X159916833Y-112926620D01*
X159964452Y-112831382D01*
X159964452Y-112640905D01*
X160012071Y-112545667D01*
X160059690Y-112498048D01*
X160154929Y-112450429D01*
X160345405Y-112450429D01*
X160440643Y-112498048D01*
X160488262Y-112545667D01*
X160535881Y-112640905D01*
X160535881Y-112831382D01*
X160488262Y-112926620D01*
X160440643Y-112974239D01*
X160345405Y-113021858D01*
X160154929Y-113021858D01*
X160059690Y-112974239D01*
X160012071Y-112926620D01*
X159964452Y-112831382D01*
X154455881Y-110069477D02*
X155170167Y-110069477D01*
X155313024Y-110021857D01*
X155408262Y-109926619D01*
X155455881Y-109783762D01*
X155455881Y-109688524D01*
X155455881Y-110545667D02*
X154455881Y-110545667D01*
X154455881Y-110926620D01*
X154503500Y-111021858D01*
X154551119Y-111069477D01*
X154646357Y-111117096D01*
X154789214Y-111117096D01*
X154884452Y-111069477D01*
X154932071Y-111021858D01*
X154979690Y-110926620D01*
X154979690Y-110545667D01*
X155455881Y-112069477D02*
X155455881Y-111498048D01*
X155455881Y-111783762D02*
X154455881Y-111783762D01*
X154598738Y-111688524D01*
X154693976Y-111593286D01*
X154741595Y-111498048D01*
X155455881Y-112545667D02*
X155455881Y-112736143D01*
X155408262Y-112831382D01*
X155360643Y-112879001D01*
X155217786Y-112974239D01*
X155027310Y-113021858D01*
X154646357Y-113021858D01*
X154551119Y-112974239D01*
X154503500Y-112926620D01*
X154455881Y-112831382D01*
X154455881Y-112640905D01*
X154503500Y-112545667D01*
X154551119Y-112498048D01*
X154646357Y-112450429D01*
X154884452Y-112450429D01*
X154979690Y-112498048D01*
X155027310Y-112545667D01*
X155074929Y-112640905D01*
X155074929Y-112831382D01*
X155027310Y-112926620D01*
X154979690Y-112974239D01*
X154884452Y-113021858D01*
X152423881Y-109577381D02*
X152423881Y-109767858D01*
X152471500Y-109863096D01*
X152566738Y-109958334D01*
X152757214Y-110005953D01*
X153090548Y-110005953D01*
X153281024Y-109958334D01*
X153376262Y-109863096D01*
X153423881Y-109767858D01*
X153423881Y-109577381D01*
X153376262Y-109482143D01*
X153281024Y-109386905D01*
X153090548Y-109339286D01*
X152757214Y-109339286D01*
X152566738Y-109386905D01*
X152471500Y-109482143D01*
X152423881Y-109577381D01*
X153376262Y-110386905D02*
X153423881Y-110529762D01*
X153423881Y-110767858D01*
X153376262Y-110863096D01*
X153328643Y-110910715D01*
X153233405Y-110958334D01*
X153138167Y-110958334D01*
X153042929Y-110910715D01*
X152995310Y-110863096D01*
X152947690Y-110767858D01*
X152900071Y-110577381D01*
X152852452Y-110482143D01*
X152804833Y-110434524D01*
X152709595Y-110386905D01*
X152614357Y-110386905D01*
X152519119Y-110434524D01*
X152471500Y-110482143D01*
X152423881Y-110577381D01*
X152423881Y-110815477D01*
X152471500Y-110958334D01*
X153328643Y-111958334D02*
X153376262Y-111910715D01*
X153423881Y-111767858D01*
X153423881Y-111672620D01*
X153376262Y-111529762D01*
X153281024Y-111434524D01*
X153185786Y-111386905D01*
X152995310Y-111339286D01*
X152852452Y-111339286D01*
X152661976Y-111386905D01*
X152566738Y-111434524D01*
X152471500Y-111529762D01*
X152423881Y-111672620D01*
X152423881Y-111767858D01*
X152471500Y-111910715D01*
X152519119Y-111958334D01*
X153423881Y-112910715D02*
X153423881Y-112339286D01*
X153423881Y-112625000D02*
X152423881Y-112625000D01*
X152566738Y-112529762D01*
X152661976Y-112434524D01*
X152709595Y-112339286D01*
X152280881Y-75715834D02*
X151804690Y-75382500D01*
X152280881Y-75144405D02*
X151280881Y-75144405D01*
X151280881Y-75525358D01*
X151328500Y-75620596D01*
X151376119Y-75668215D01*
X151471357Y-75715834D01*
X151614214Y-75715834D01*
X151709452Y-75668215D01*
X151757071Y-75620596D01*
X151804690Y-75525358D01*
X151804690Y-75144405D01*
X151280881Y-76049167D02*
X151280881Y-76668215D01*
X151661833Y-76334881D01*
X151661833Y-76477739D01*
X151709452Y-76572977D01*
X151757071Y-76620596D01*
X151852310Y-76668215D01*
X152090405Y-76668215D01*
X152185643Y-76620596D01*
X152233262Y-76572977D01*
X152280881Y-76477739D01*
X152280881Y-76192024D01*
X152233262Y-76096786D01*
X152185643Y-76049167D01*
X154154166Y-60855381D02*
X154487500Y-60379190D01*
X154725595Y-60855381D02*
X154725595Y-59855381D01*
X154344642Y-59855381D01*
X154249404Y-59903000D01*
X154201785Y-59950619D01*
X154154166Y-60045857D01*
X154154166Y-60188714D01*
X154201785Y-60283952D01*
X154249404Y-60331571D01*
X154344642Y-60379190D01*
X154725595Y-60379190D01*
X153297023Y-60188714D02*
X153297023Y-60855381D01*
X153535119Y-59807762D02*
X153773214Y-60522048D01*
X153154166Y-60522048D01*
X147740666Y-68714881D02*
X148074000Y-68238690D01*
X148312095Y-68714881D02*
X148312095Y-67714881D01*
X147931142Y-67714881D01*
X147835904Y-67762500D01*
X147788285Y-67810119D01*
X147740666Y-67905357D01*
X147740666Y-68048214D01*
X147788285Y-68143452D01*
X147835904Y-68191071D01*
X147931142Y-68238690D01*
X148312095Y-68238690D01*
X147169238Y-68143452D02*
X147264476Y-68095833D01*
X147312095Y-68048214D01*
X147359714Y-67952976D01*
X147359714Y-67905357D01*
X147312095Y-67810119D01*
X147264476Y-67762500D01*
X147169238Y-67714881D01*
X146978761Y-67714881D01*
X146883523Y-67762500D01*
X146835904Y-67810119D01*
X146788285Y-67905357D01*
X146788285Y-67952976D01*
X146835904Y-68048214D01*
X146883523Y-68095833D01*
X146978761Y-68143452D01*
X147169238Y-68143452D01*
X147264476Y-68191071D01*
X147312095Y-68238690D01*
X147359714Y-68333929D01*
X147359714Y-68524405D01*
X147312095Y-68619643D01*
X147264476Y-68667262D01*
X147169238Y-68714881D01*
X146978761Y-68714881D01*
X146883523Y-68667262D01*
X146835904Y-68619643D01*
X146788285Y-68524405D01*
X146788285Y-68333929D01*
X146835904Y-68238690D01*
X146883523Y-68191071D01*
X146978761Y-68143452D01*
X171062381Y-99636343D02*
X170586190Y-99303009D01*
X171062381Y-99064914D02*
X170062381Y-99064914D01*
X170062381Y-99445867D01*
X170110000Y-99541105D01*
X170157619Y-99588724D01*
X170252857Y-99636343D01*
X170395714Y-99636343D01*
X170490952Y-99588724D01*
X170538571Y-99541105D01*
X170586190Y-99445867D01*
X170586190Y-99064914D01*
X171062381Y-100588724D02*
X171062381Y-100017295D01*
X171062381Y-100303009D02*
X170062381Y-100303009D01*
X170205238Y-100207771D01*
X170300476Y-100112533D01*
X170348095Y-100017295D01*
X170157619Y-100969676D02*
X170110000Y-101017295D01*
X170062381Y-101112533D01*
X170062381Y-101350629D01*
X170110000Y-101445867D01*
X170157619Y-101493486D01*
X170252857Y-101541105D01*
X170348095Y-101541105D01*
X170490952Y-101493486D01*
X171062381Y-100922057D01*
X171062381Y-101541105D01*
X143644857Y-104289381D02*
X143978191Y-103813190D01*
X144216286Y-104289381D02*
X144216286Y-103289381D01*
X143835333Y-103289381D01*
X143740095Y-103337000D01*
X143692476Y-103384619D01*
X143644857Y-103479857D01*
X143644857Y-103622714D01*
X143692476Y-103717952D01*
X143740095Y-103765571D01*
X143835333Y-103813190D01*
X144216286Y-103813190D01*
X142787714Y-103289381D02*
X142978191Y-103289381D01*
X143073429Y-103337000D01*
X143121048Y-103384619D01*
X143216286Y-103527476D01*
X143263905Y-103717952D01*
X143263905Y-104098905D01*
X143216286Y-104194143D01*
X143168667Y-104241762D01*
X143073429Y-104289381D01*
X142882952Y-104289381D01*
X142787714Y-104241762D01*
X142740095Y-104194143D01*
X142692476Y-104098905D01*
X142692476Y-103860810D01*
X142740095Y-103765571D01*
X142787714Y-103717952D01*
X142882952Y-103670333D01*
X143073429Y-103670333D01*
X143168667Y-103717952D01*
X143216286Y-103765571D01*
X143263905Y-103860810D01*
X142359143Y-103289381D02*
X141692476Y-103289381D01*
X142121048Y-104289381D01*
X154119381Y-89342143D02*
X153643190Y-89008809D01*
X154119381Y-88770714D02*
X153119381Y-88770714D01*
X153119381Y-89151667D01*
X153167000Y-89246905D01*
X153214619Y-89294524D01*
X153309857Y-89342143D01*
X153452714Y-89342143D01*
X153547952Y-89294524D01*
X153595571Y-89246905D01*
X153643190Y-89151667D01*
X153643190Y-88770714D01*
X153119381Y-89675476D02*
X153119381Y-90342143D01*
X154119381Y-89913571D01*
X153119381Y-91199286D02*
X153119381Y-90723095D01*
X153595571Y-90675476D01*
X153547952Y-90723095D01*
X153500333Y-90818333D01*
X153500333Y-91056429D01*
X153547952Y-91151667D01*
X153595571Y-91199286D01*
X153690810Y-91246905D01*
X153928905Y-91246905D01*
X154024143Y-91199286D01*
X154071762Y-91151667D01*
X154119381Y-91056429D01*
X154119381Y-90818333D01*
X154071762Y-90723095D01*
X154024143Y-90675476D01*
X138708343Y-115193843D02*
X138755962Y-115146224D01*
X138803581Y-115003367D01*
X138803581Y-114908129D01*
X138755962Y-114765271D01*
X138660724Y-114670033D01*
X138565486Y-114622414D01*
X138375010Y-114574795D01*
X138232152Y-114574795D01*
X138041676Y-114622414D01*
X137946438Y-114670033D01*
X137851200Y-114765271D01*
X137803581Y-114908129D01*
X137803581Y-115003367D01*
X137851200Y-115146224D01*
X137898819Y-115193843D01*
X137803581Y-115527176D02*
X137803581Y-116146224D01*
X138184533Y-115812890D01*
X138184533Y-115955748D01*
X138232152Y-116050986D01*
X138279771Y-116098605D01*
X138375010Y-116146224D01*
X138613105Y-116146224D01*
X138708343Y-116098605D01*
X138755962Y-116050986D01*
X138803581Y-115955748D01*
X138803581Y-115670033D01*
X138755962Y-115574795D01*
X138708343Y-115527176D01*
X138136914Y-117003367D02*
X138803581Y-117003367D01*
X137755962Y-116765271D02*
X138470248Y-116527176D01*
X138470248Y-117146224D01*
X141553143Y-115193843D02*
X141600762Y-115146224D01*
X141648381Y-115003367D01*
X141648381Y-114908129D01*
X141600762Y-114765271D01*
X141505524Y-114670033D01*
X141410286Y-114622414D01*
X141219810Y-114574795D01*
X141076952Y-114574795D01*
X140886476Y-114622414D01*
X140791238Y-114670033D01*
X140696000Y-114765271D01*
X140648381Y-114908129D01*
X140648381Y-115003367D01*
X140696000Y-115146224D01*
X140743619Y-115193843D01*
X140648381Y-115527176D02*
X140648381Y-116146224D01*
X141029333Y-115812890D01*
X141029333Y-115955748D01*
X141076952Y-116050986D01*
X141124571Y-116098605D01*
X141219810Y-116146224D01*
X141457905Y-116146224D01*
X141553143Y-116098605D01*
X141600762Y-116050986D01*
X141648381Y-115955748D01*
X141648381Y-115670033D01*
X141600762Y-115574795D01*
X141553143Y-115527176D01*
X140648381Y-117050986D02*
X140648381Y-116574795D01*
X141124571Y-116527176D01*
X141076952Y-116574795D01*
X141029333Y-116670033D01*
X141029333Y-116908129D01*
X141076952Y-117003367D01*
X141124571Y-117050986D01*
X141219810Y-117098605D01*
X141457905Y-117098605D01*
X141553143Y-117050986D01*
X141600762Y-117003367D01*
X141648381Y-116908129D01*
X141648381Y-116670033D01*
X141600762Y-116574795D01*
X141553143Y-116527176D01*
M02*
